<?xml version="1.0" encoding="utf-8"?>
<!-- Generator: Adobe Illustrator 16.0.0, SVG Export Plug-In . SVG Version: 6.00 Build 0)  -->
<!DOCTYPE svg PUBLIC "-//W3C//DTD SVG 1.1//EN" "http://www.w3.org/Graphics/SVG/1.1/DTD/svg11.dtd">
<svg version="1.1" id="Calque_1" xmlns="http://www.w3.org/2000/svg" xmlns:xlink="http://www.w3.org/1999/xlink" x="0px" y="0px"
	 width="200px" height="108px" viewBox="0 0 200 108" enable-background="new 0 0 200 108" xml:space="preserve">
<g opacity="0.15">
	<polygon fill="#F2F2F2" points="143.42,69.019 143.42,70.569 148.021,78.002 148.021,76.449 	"/>
	<polygon fill="#F2F2F2" points="143.42,62.71 143.42,64.312 148.021,71.742 148.021,70.144 	"/>
	<polygon fill="#F2F2F2" points="143.42,75.372 143.42,76.974 148.021,84.354 148.021,82.85 	"/>
	<polygon fill="#F2F2F2" points="143.42,81.85 143.42,83.354 148.021,90.758 148.021,89.207 	"/>
	<polygon fill="#F2F2F2" points="143.42,88.159 143.42,89.758 148.021,97.114 148.021,95.563 	"/>
	<polygon fill="#F2F2F2" points="142.518,65.842 142.518,67.391 137.816,74.874 137.816,73.272 	"/>
	<polygon fill="#F2F2F2" points="142.518,59.484 142.518,61.037 137.816,68.468 137.816,66.917 	"/>
	<polygon fill="#F2F2F2" points="142.518,72.195 142.518,73.794 137.816,81.251 137.816,79.649 	"/>
	<polygon fill="#F2F2F2" points="142.518,78.548 142.518,80.151 137.816,87.558 137.816,85.957 	"/>
	<polygon fill="#F2F2F2" points="142.518,84.956 142.518,86.454 137.816,93.812 137.816,92.36 	"/>
	<polygon fill="none" points="135.764,102.019 135.764,70.144 142.518,59.484 142.518,61.389 150.022,73.272 150.126,103.472 
		149.021,103.472 142.818,93.812 142.917,90.758 137.816,98.764 	"/>
	<polygon fill="#F2F2F2" points="143.42,100.968 143.42,102.569 148.021,109.875 148.021,108.375 	"/>
	<polygon fill="#F2F2F2" points="143.42,94.663 143.42,96.263 148.021,103.617 148.021,101.968 	"/>
	<polygon fill="#F2F2F2" points="143.42,107.273 143.42,108.973 148.021,116.28 148.021,114.677 	"/>
	<polygon fill="#F2F2F2" points="143.42,113.677 143.42,115.38 148.021,122.583 148.021,121.031 	"/>
	<polygon fill="#F2F2F2" points="142.518,97.766 142.518,99.366 137.816,106.672 137.816,105.171 	"/>
	<polygon fill="#F2F2F2" points="142.518,91.359 142.518,92.964 137.816,100.317 137.816,98.764 	"/>
	<polygon fill="#F2F2F2" points="142.518,104.123 142.518,105.573 137.816,113.077 137.816,111.575 	"/>
	<polygon fill="#F2F2F2" points="142.518,110.477 142.518,111.975 137.816,119.433 137.816,117.979 	"/>
</g>
<g opacity="0.15">
	<polygon fill="#F2F2F2" points="142.518,116.28 142.518,117.882 137.816,125.188 137.816,123.634 	"/>
</g>
<g opacity="0.15">
	<polygon fill="#F2F2F2" points="157.729,69.019 157.729,70.569 162.336,78.002 162.336,76.449 	"/>
	<polygon fill="#F2F2F2" points="157.729,62.71 157.729,64.312 162.336,71.742 162.336,70.144 	"/>
	<polygon fill="#F2F2F2" points="157.729,75.372 157.729,76.974 162.336,84.354 162.336,82.85 	"/>
	<polygon fill="#F2F2F2" points="157.729,81.85 157.729,83.354 162.336,90.758 162.336,89.207 	"/>
	<polygon fill="#F2F2F2" points="157.729,88.159 157.729,89.758 162.336,97.114 162.336,95.563 	"/>
	<polygon fill="#F2F2F2" points="156.832,65.842 156.832,67.391 152.175,74.874 152.175,73.272 	"/>
	<polygon fill="#F2F2F2" points="156.832,59.484 156.832,61.037 152.175,68.468 152.175,66.917 	"/>
	<polygon fill="#F2F2F2" points="156.832,72.195 156.832,73.794 152.175,81.251 152.175,79.649 	"/>
	<polygon fill="#F2F2F2" points="156.832,78.548 156.832,80.151 152.175,87.558 152.175,85.957 	"/>
	<polygon fill="#F2F2F2" points="156.832,84.956 156.832,86.454 152.175,93.812 152.175,92.36 	"/>
	<polygon fill="none" points="150.126,102.019 150.126,70.144 156.832,59.484 156.832,61.389 164.236,73.272 164.438,103.472 
		163.435,103.472 157.33,93.812 157.431,90.758 152.175,98.764 	"/>
	<polygon fill="#F2F2F2" points="157.729,100.968 157.729,102.569 162.336,109.875 162.336,108.375 	"/>
	<polygon fill="#F2F2F2" points="157.729,94.663 157.729,96.263 162.336,103.617 162.336,101.968 	"/>
	<polygon fill="#F2F2F2" points="157.729,107.273 157.729,108.973 162.336,116.28 162.336,114.677 	"/>
	<polygon fill="#F2F2F2" points="157.729,113.677 157.729,115.38 162.336,122.583 162.336,121.031 	"/>
	<polygon fill="#F2F2F2" points="156.832,97.766 156.832,99.366 152.175,106.672 152.175,105.171 	"/>
	<polygon fill="#F2F2F2" points="156.832,91.359 156.832,92.964 152.175,100.317 152.175,98.764 	"/>
	<polygon fill="#F2F2F2" points="156.832,104.123 156.832,105.573 152.175,113.077 152.175,111.575 	"/>
	<polygon fill="#F2F2F2" points="156.832,110.477 156.832,111.975 152.175,119.433 152.175,117.979 	"/>
</g>
<g opacity="0.15">
	<polygon fill="#F2F2F2" points="156.832,116.28 156.832,117.882 152.175,125.188 152.175,123.634 	"/>
</g>
<g opacity="0.15">
	<polygon fill="#F2F2F2" points="172.041,69.019 172.041,70.569 176.745,78.002 176.745,76.449 	"/>
	<polygon fill="#F2F2F2" points="172.041,62.71 172.041,64.312 176.745,71.742 176.745,70.144 	"/>
	<polygon fill="#F2F2F2" points="172.041,75.372 172.041,76.974 176.745,84.354 176.745,82.85 	"/>
	<polygon fill="#F2F2F2" points="172.041,81.85 172.041,83.354 176.745,90.758 176.745,89.207 	"/>
	<polygon fill="#F2F2F2" points="172.041,88.159 172.041,89.758 176.745,97.114 176.745,95.563 	"/>
	<polygon fill="#F2F2F2" points="171.139,65.842 171.139,67.391 166.537,74.874 166.537,73.272 	"/>
	<polygon fill="#F2F2F2" points="171.139,59.484 171.139,61.037 166.537,68.468 166.537,66.917 	"/>
	<polygon fill="#F2F2F2" points="171.139,72.195 171.139,73.794 166.537,81.251 166.537,79.649 	"/>
	<polygon fill="#F2F2F2" points="171.139,78.548 171.139,80.151 166.537,87.558 166.537,85.957 	"/>
	<polygon fill="#F2F2F2" points="171.139,84.956 171.139,86.454 166.537,93.812 166.537,92.36 	"/>
	<polygon fill="none" points="164.438,102.019 164.438,70.144 171.139,59.484 171.139,61.389 178.747,73.272 178.847,103.472 
		177.646,103.472 171.594,93.812 171.692,90.758 166.537,98.764 	"/>
	<polygon fill="#F2F2F2" points="172.041,100.968 172.041,102.569 176.745,109.875 176.745,108.375 	"/>
	<polygon fill="#F2F2F2" points="172.041,94.663 172.041,96.263 176.745,103.617 176.745,101.968 	"/>
	<polygon fill="#F2F2F2" points="172.041,107.273 172.041,108.973 176.745,116.28 176.745,114.677 	"/>
	<polygon fill="#F2F2F2" points="172.041,113.677 172.041,115.38 176.745,122.583 176.745,121.031 	"/>
	<polygon fill="#F2F2F2" points="171.139,97.766 171.139,99.366 166.537,106.672 166.537,105.171 	"/>
	<polygon fill="#F2F2F2" points="171.139,91.359 171.139,92.964 166.537,100.317 166.537,98.764 	"/>
	<polygon fill="#F2F2F2" points="171.139,104.123 171.139,105.573 166.537,113.077 166.537,111.575 	"/>
	<polygon fill="#F2F2F2" points="171.139,110.477 171.139,111.975 166.537,119.433 166.537,117.979 	"/>
</g>
<g opacity="0.15">
	<polygon fill="#F2F2F2" points="171.139,116.28 171.139,117.882 166.537,125.188 166.537,123.634 	"/>
</g>
<g opacity="0.15">
	<polygon fill="#F2F2F2" points="186.403,69.019 186.403,70.569 191.155,78.002 191.155,76.449 	"/>
	<polygon fill="#F2F2F2" points="186.403,62.71 186.403,64.312 191.155,71.742 191.155,70.144 	"/>
	<polygon fill="#F2F2F2" points="186.403,75.372 186.403,76.974 191.155,84.354 191.155,82.85 	"/>
	<polygon fill="#F2F2F2" points="186.403,81.85 186.403,83.354 191.155,90.758 191.155,89.207 	"/>
	<polygon fill="#F2F2F2" points="186.403,88.159 186.403,89.758 191.155,97.114 191.155,95.563 	"/>
	<polygon fill="#F2F2F2" points="185.452,65.842 185.452,67.391 180.849,74.874 180.849,73.272 	"/>
	<polygon fill="#F2F2F2" points="185.452,59.484 185.452,61.037 180.849,68.468 180.849,66.917 	"/>
	<polygon fill="#F2F2F2" points="185.452,72.195 185.452,73.794 180.849,81.251 180.849,79.649 	"/>
	<polygon fill="#F2F2F2" points="185.452,78.548 185.452,80.151 180.849,87.558 180.849,85.957 	"/>
	<polygon fill="#F2F2F2" points="185.452,84.956 185.452,86.454 180.849,93.812 180.849,92.36 	"/>
	<polygon fill="none" points="178.847,102.019 178.847,70.144 185.452,59.484 185.452,61.389 193.009,73.272 193.108,103.472 
		191.955,103.472 185.954,93.812 185.954,90.758 180.849,98.764 	"/>
	<polygon fill="#F2F2F2" points="186.403,100.968 186.403,102.569 191.155,109.875 191.155,108.375 	"/>
	<polygon fill="#F2F2F2" points="186.403,94.663 186.403,96.263 191.155,103.617 191.155,101.968 	"/>
	<polygon fill="#F2F2F2" points="186.403,107.273 186.403,108.973 191.155,116.28 191.155,114.677 	"/>
	<polygon fill="#F2F2F2" points="186.403,113.677 186.403,115.38 191.155,122.583 191.155,121.031 	"/>
	<polygon fill="#F2F2F2" points="185.452,97.766 185.452,99.366 180.849,106.672 180.849,105.171 	"/>
	<polygon fill="#F2F2F2" points="185.452,91.359 185.452,92.964 180.849,100.317 180.849,98.764 	"/>
	<polygon fill="#F2F2F2" points="185.452,104.123 185.452,105.573 180.849,113.077 180.849,111.575 	"/>
	<polygon fill="#F2F2F2" points="185.452,110.477 185.452,111.975 180.849,119.433 180.849,117.979 	"/>
</g>
<g opacity="0.15">
	<polygon fill="#F2F2F2" points="185.452,116.28 185.452,117.882 180.849,125.188 180.849,123.634 	"/>
</g>
<g opacity="0.15">
	<polygon fill="#F2F2F2" points="200.765,69.019 200.765,70.569 205.417,78.002 205.417,76.449 	"/>
	<polygon fill="#F2F2F2" points="200.765,62.71 200.765,64.312 205.417,71.742 205.417,70.144 	"/>
	<polygon fill="#F2F2F2" points="200.765,75.372 200.765,76.974 205.417,84.354 205.417,82.85 	"/>
	<polygon fill="#F2F2F2" points="200.765,81.85 200.765,83.354 205.417,90.758 205.417,89.207 	"/>
	<polygon fill="#F2F2F2" points="200.765,88.159 200.765,89.758 205.417,97.114 205.417,95.563 	"/>
	<polygon fill="#F2F2F2" points="199.862,65.842 199.862,67.391 195.107,74.874 195.107,73.272 	"/>
	<polygon fill="#F2F2F2" points="199.862,59.484 199.862,61.037 195.107,68.468 195.107,66.917 	"/>
	<polygon fill="#F2F2F2" points="199.862,72.195 199.862,73.794 195.107,81.251 195.107,79.649 	"/>
	<polygon fill="#F2F2F2" points="199.862,78.548 199.862,80.151 195.107,87.558 195.107,85.957 	"/>
	<polygon fill="#F2F2F2" points="199.862,84.956 199.862,86.454 195.107,93.812 195.107,92.36 	"/>
	<polygon fill="none" points="193.108,102.019 193.108,70.144 199.862,59.484 199.862,61.389 207.268,73.272 207.521,103.472 
		206.471,103.472 200.262,93.812 200.367,90.758 195.107,98.764 	"/>
	<polygon fill="#F2F2F2" points="200.765,100.968 200.765,102.569 205.417,109.875 205.417,108.375 	"/>
	<polygon fill="#F2F2F2" points="200.765,94.663 200.765,96.263 205.417,103.617 205.417,101.968 	"/>
	<polygon fill="#F2F2F2" points="200.765,107.273 200.765,108.973 205.417,116.28 205.417,114.677 	"/>
	<polygon fill="#F2F2F2" points="200.765,113.677 200.765,115.38 205.417,122.583 205.417,121.031 	"/>
	<polygon fill="#F2F2F2" points="199.862,97.766 199.862,99.366 195.107,106.672 195.107,105.171 	"/>
	<polygon fill="#F2F2F2" points="199.862,91.359 199.862,92.964 195.107,100.317 195.107,98.764 	"/>
	<polygon fill="#F2F2F2" points="199.862,104.123 199.862,105.573 195.107,113.077 195.107,111.575 	"/>
	<polygon fill="#F2F2F2" points="199.862,110.477 199.862,111.975 195.107,119.433 195.107,117.979 	"/>
</g>
<g opacity="0.15">
	<polygon fill="#F2F2F2" points="199.862,116.28 199.862,117.882 195.107,125.188 195.107,123.634 	"/>
</g>
<g opacity="0.15">
	<polygon fill="#F2F2F2" points="-0.017,69.019 -0.017,70.569 4.71,78.002 4.71,76.449 	"/>
	<polygon fill="#F2F2F2" points="-0.017,62.71 -0.017,64.312 4.71,71.742 4.71,70.144 	"/>
	<polygon fill="#F2F2F2" points="-0.017,75.372 -0.017,76.974 4.71,84.354 4.71,82.85 	"/>
	<polygon fill="#F2F2F2" points="-0.017,81.85 -0.017,83.354 4.71,90.758 4.71,89.207 	"/>
	<polygon fill="#F2F2F2" points="-0.017,88.159 -0.017,89.758 4.71,97.114 4.71,95.563 	"/>
	<polygon fill="#F2F2F2" points="-0.843,65.842 -0.843,67.391 -5.497,74.874 -5.497,73.272 	"/>
	<polygon fill="#F2F2F2" points="-0.843,59.484 -0.843,61.037 -5.497,68.468 -5.497,66.917 	"/>
	<polygon fill="#F2F2F2" points="-0.843,72.195 -0.843,73.794 -5.497,81.251 -5.497,79.649 	"/>
	<polygon fill="#F2F2F2" points="-0.843,78.548 -0.843,80.151 -5.497,87.558 -5.497,85.957 	"/>
	<polygon fill="#F2F2F2" points="-0.843,84.956 -0.843,86.454 -5.497,93.812 -5.497,92.36 	"/>
	<polygon fill="none" points="-7.548,102.019 -7.548,70.144 -0.843,59.484 -0.843,61.389 6.663,73.272 6.812,103.472 5.687,103.472 
		-0.468,93.812 -0.418,90.758 -5.497,98.764 	"/>
	<polygon fill="#F2F2F2" points="-0.017,100.968 -0.017,102.569 4.71,109.875 4.71,108.375 	"/>
	<polygon fill="#F2F2F2" points="-0.017,94.663 -0.017,96.263 4.71,103.617 4.71,101.968 	"/>
	<polygon fill="#F2F2F2" points="-0.017,107.273 -0.017,108.973 4.71,116.28 4.71,114.677 	"/>
	<polygon fill="#F2F2F2" points="-0.017,113.677 -0.017,115.38 4.71,122.583 4.71,121.031 	"/>
	<polygon fill="#F2F2F2" points="-0.843,97.766 -0.843,99.366 -5.497,106.672 -5.497,105.171 	"/>
	<polygon fill="#F2F2F2" points="-0.843,91.359 -0.843,92.964 -5.497,100.317 -5.497,98.764 	"/>
	<polygon fill="#F2F2F2" points="-0.843,104.123 -0.843,105.573 -5.497,113.077 -5.497,111.575 	"/>
	<polygon fill="#F2F2F2" points="-0.843,110.477 -0.843,111.975 -5.497,119.433 -5.497,117.979 	"/>
</g>
<g opacity="0.15">
	<polygon fill="#F2F2F2" points="-0.843,116.28 -0.843,117.882 -5.497,125.188 -5.497,123.634 	"/>
</g>
<g opacity="0.15">
	<polygon fill="#F2F2F2" points="14.394,69.019 14.394,70.569 19.049,78.002 19.049,76.449 	"/>
	<polygon fill="#F2F2F2" points="14.394,62.71 14.394,64.312 19.049,71.742 19.049,70.144 	"/>
	<polygon fill="#F2F2F2" points="14.394,75.372 14.394,76.974 19.049,84.354 19.049,82.85 	"/>
	<polygon fill="#F2F2F2" points="14.394,81.85 14.394,83.354 19.049,90.758 19.049,89.207 	"/>
	<polygon fill="#F2F2F2" points="14.394,88.159 14.394,89.758 19.049,97.114 19.049,95.563 	"/>
	<polygon fill="#F2F2F2" points="13.568,65.842 13.568,67.391 8.814,74.874 8.814,73.272 	"/>
	<polygon fill="#F2F2F2" points="13.568,59.484 13.568,61.037 8.814,68.468 8.814,66.917 	"/>
	<polygon fill="#F2F2F2" points="13.568,72.195 13.568,73.794 8.814,81.251 8.814,79.649 	"/>
	<polygon fill="#F2F2F2" points="13.568,78.548 13.568,80.151 8.814,87.558 8.814,85.957 	"/>
	<polygon fill="#F2F2F2" points="13.568,84.956 13.568,86.454 8.814,93.812 8.814,92.36 	"/>
	<polygon fill="none" points="6.812,102.019 6.812,70.144 13.568,59.484 13.568,61.389 20.949,73.272 21.148,103.472 
		19.971,103.472 13.817,93.812 13.918,90.758 8.814,98.764 	"/>
	<polygon fill="#F2F2F2" points="14.394,100.968 14.394,102.569 19.049,109.875 19.049,108.375 	"/>
	<polygon fill="#F2F2F2" points="14.394,94.663 14.394,96.263 19.049,103.617 19.049,101.968 	"/>
	<polygon fill="#F2F2F2" points="14.394,107.273 14.394,108.973 19.049,116.28 19.049,114.677 	"/>
	<polygon fill="#F2F2F2" points="14.394,113.677 14.394,115.38 19.049,122.583 19.049,121.031 	"/>
	<polygon fill="#F2F2F2" points="13.568,97.766 13.568,99.366 8.814,106.672 8.814,105.171 	"/>
	<polygon fill="#F2F2F2" points="13.568,91.359 13.568,92.964 8.814,100.317 8.814,98.764 	"/>
	<polygon fill="#F2F2F2" points="13.568,104.123 13.568,105.573 8.814,113.077 8.814,111.575 	"/>
	<polygon fill="#F2F2F2" points="13.568,110.477 13.568,111.975 8.814,119.433 8.814,117.979 	"/>
</g>
<g opacity="0.15">
	<polygon fill="#F2F2F2" points="13.568,116.28 13.568,117.882 8.814,125.188 8.814,123.634 	"/>
</g>
<g opacity="0.15">
	<polygon fill="#F2F2F2" points="28.68,69.019 28.68,70.569 33.408,78.002 33.408,76.449 	"/>
	<polygon fill="#F2F2F2" points="28.68,62.71 28.68,64.312 33.408,71.742 33.408,70.144 	"/>
	<polygon fill="#F2F2F2" points="28.68,75.372 28.68,76.974 33.408,84.354 33.408,82.85 	"/>
	<polygon fill="#F2F2F2" points="28.68,81.85 28.68,83.354 33.408,90.758 33.408,89.207 	"/>
	<polygon fill="#F2F2F2" points="28.68,88.159 28.68,89.758 33.408,97.114 33.408,95.563 	"/>
	<polygon fill="#F2F2F2" points="27.804,65.842 27.804,67.391 23.15,74.874 23.15,73.272 	"/>
	<polygon fill="#F2F2F2" points="27.804,59.484 27.804,61.037 23.15,68.468 23.15,66.917 	"/>
	<polygon fill="#F2F2F2" points="27.804,72.195 27.804,73.794 23.15,81.251 23.15,79.649 	"/>
	<polygon fill="#F2F2F2" points="27.804,78.548 27.804,80.151 23.15,87.558 23.15,85.957 	"/>
	<polygon fill="#F2F2F2" points="27.804,84.956 27.804,86.454 23.15,93.812 23.15,92.36 	"/>
	<polygon fill="none" points="21.148,102.019 21.148,70.144 27.804,59.484 27.804,61.389 35.285,73.272 35.434,103.472 
		34.309,103.472 28.28,93.812 28.28,90.758 23.15,98.764 	"/>
	<polygon fill="#F2F2F2" points="28.68,100.968 28.68,102.569 33.408,109.875 33.408,108.375 	"/>
	<polygon fill="#F2F2F2" points="28.68,94.663 28.68,96.263 33.408,103.617 33.408,101.968 	"/>
	<polygon fill="#F2F2F2" points="28.68,107.273 28.68,108.973 33.408,116.28 33.408,114.677 	"/>
	<polygon fill="#F2F2F2" points="28.68,113.677 28.68,115.38 33.408,122.583 33.408,121.031 	"/>
	<polygon fill="#F2F2F2" points="27.804,97.766 27.804,99.366 23.15,106.672 23.15,105.171 	"/>
	<polygon fill="#F2F2F2" points="27.804,91.359 27.804,92.964 23.15,100.317 23.15,98.764 	"/>
	<polygon fill="#F2F2F2" points="27.804,104.123 27.804,105.573 23.15,113.077 23.15,111.575 	"/>
	<polygon fill="#F2F2F2" points="27.804,110.477 27.804,111.975 23.15,119.433 23.15,117.979 	"/>
</g>
<g opacity="0.15">
	<polygon fill="#F2F2F2" points="27.804,116.28 27.804,117.882 23.15,125.188 23.15,123.634 	"/>
</g>
<g opacity="0.15">
	<polygon fill="#F2F2F2" points="43.09,69.019 43.09,70.569 47.746,78.002 47.746,76.449 	"/>
	<polygon fill="#F2F2F2" points="43.09,62.71 43.09,64.312 47.746,71.742 47.746,70.144 	"/>
	<polygon fill="#F2F2F2" points="43.09,75.372 43.09,76.974 47.746,84.354 47.746,82.85 	"/>
	<polygon fill="#F2F2F2" points="43.09,81.85 43.09,83.354 47.746,90.758 47.746,89.207 	"/>
	<polygon fill="#F2F2F2" points="43.09,88.159 43.09,89.758 47.746,97.114 47.746,95.563 	"/>
	<polygon fill="#F2F2F2" points="42.164,65.842 42.164,67.391 37.486,74.874 37.486,73.272 	"/>
	<polygon fill="#F2F2F2" points="42.164,59.484 42.164,61.037 37.486,68.468 37.486,66.917 	"/>
	<polygon fill="#F2F2F2" points="42.164,72.195 42.164,73.794 37.486,81.251 37.486,79.649 	"/>
	<polygon fill="#F2F2F2" points="42.164,78.548 42.164,80.151 37.486,87.558 37.486,85.957 	"/>
	<polygon fill="#F2F2F2" points="42.164,84.956 42.164,86.454 37.486,93.812 37.486,92.36 	"/>
	<polygon fill="none" points="35.434,102.019 35.434,70.144 42.164,59.484 42.164,61.389 49.646,73.272 49.846,103.472 
		48.746,103.472 42.564,93.812 42.615,90.758 37.486,98.764 	"/>
	<polygon fill="#F2F2F2" points="43.09,100.968 43.09,102.569 47.746,109.875 47.746,108.375 	"/>
	<polygon fill="#F2F2F2" points="43.09,94.663 43.09,96.263 47.746,103.617 47.746,101.968 	"/>
	<polygon fill="#F2F2F2" points="43.09,107.273 43.09,108.973 47.746,116.28 47.746,114.677 	"/>
	<polygon fill="#F2F2F2" points="43.09,113.677 43.09,115.38 47.746,122.583 47.746,121.031 	"/>
	<polygon fill="#F2F2F2" points="42.164,97.766 42.164,99.366 37.486,106.672 37.486,105.171 	"/>
	<polygon fill="#F2F2F2" points="42.164,91.359 42.164,92.964 37.486,100.317 37.486,98.764 	"/>
	<polygon fill="#F2F2F2" points="42.164,104.123 42.164,105.573 37.486,113.077 37.486,111.575 	"/>
	<polygon fill="#F2F2F2" points="42.164,110.477 42.164,111.975 37.486,119.433 37.486,117.979 	"/>
</g>
<g opacity="0.15">
	<polygon fill="#F2F2F2" points="42.164,116.28 42.164,117.882 37.486,125.188 37.486,123.634 	"/>
</g>
<g opacity="0.15">
	<polygon fill="#F2F2F2" points="57.452,69.019 57.452,70.569 62.056,78.002 62.056,76.449 	"/>
	<polygon fill="#F2F2F2" points="57.452,62.71 57.452,64.312 62.056,71.742 62.056,70.144 	"/>
	<polygon fill="#F2F2F2" points="57.452,75.372 57.452,76.974 62.056,84.354 62.056,82.85 	"/>
	<polygon fill="#F2F2F2" points="57.452,81.85 57.452,83.354 62.056,90.758 62.056,89.207 	"/>
	<polygon fill="#F2F2F2" points="57.452,88.159 57.452,89.758 62.056,97.114 62.056,95.563 	"/>
	<polygon fill="#F2F2F2" points="56.501,65.842 56.501,67.391 51.848,74.874 51.848,73.272 	"/>
	<polygon fill="#F2F2F2" points="56.501,59.484 56.501,61.037 51.848,68.468 51.848,66.917 	"/>
	<polygon fill="#F2F2F2" points="56.501,72.195 56.501,73.794 51.848,81.251 51.848,79.649 	"/>
	<polygon fill="#F2F2F2" points="56.501,78.548 56.501,80.151 51.848,87.558 51.848,85.957 	"/>
	<polygon fill="#F2F2F2" points="56.501,84.956 56.501,86.454 51.848,93.812 51.848,92.36 	"/>
	<polygon fill="none" points="49.846,102.019 49.846,70.144 56.501,59.484 56.501,61.389 63.958,73.272 64.158,103.472 
		63.007,103.472 56.852,93.812 56.952,90.758 51.848,98.764 	"/>
	<polygon fill="#F2F2F2" points="57.452,100.968 57.452,102.569 62.056,109.875 62.056,108.375 	"/>
	<polygon fill="#F2F2F2" points="57.452,94.663 57.452,96.263 62.056,103.617 62.056,101.968 	"/>
	<polygon fill="#F2F2F2" points="57.452,107.273 57.452,108.973 62.056,116.28 62.056,114.677 	"/>
	<polygon fill="#F2F2F2" points="57.452,113.677 57.452,115.38 62.056,122.583 62.056,121.031 	"/>
	<polygon fill="#F2F2F2" points="56.501,97.766 56.501,99.366 51.848,106.672 51.848,105.171 	"/>
	<polygon fill="#F2F2F2" points="56.501,91.359 56.501,92.964 51.848,100.317 51.848,98.764 	"/>
	<polygon fill="#F2F2F2" points="56.501,104.123 56.501,105.573 51.848,113.077 51.848,111.575 	"/>
	<polygon fill="#F2F2F2" points="56.501,110.477 56.501,111.975 51.848,119.433 51.848,117.979 	"/>
</g>
<g opacity="0.15">
	<polygon fill="#F2F2F2" points="56.501,116.28 56.501,117.882 51.848,125.188 51.848,123.634 	"/>
</g>
<g opacity="0.15">
	<polygon fill="#F2F2F2" points="71.713,69.019 71.713,70.569 76.366,78.002 76.366,76.449 	"/>
	<polygon fill="#F2F2F2" points="71.713,62.71 71.713,64.312 76.366,71.742 76.366,70.144 	"/>
	<polygon fill="#F2F2F2" points="71.713,75.372 71.713,76.974 76.366,84.354 76.366,82.85 	"/>
	<polygon fill="#F2F2F2" points="71.713,81.85 71.713,83.354 76.366,90.758 76.366,89.207 	"/>
	<polygon fill="#F2F2F2" points="71.713,88.159 71.713,89.758 76.366,97.114 76.366,95.563 	"/>
	<polygon fill="#F2F2F2" points="70.863,65.842 70.863,67.391 66.159,74.874 66.159,73.272 	"/>
	<polygon fill="#F2F2F2" points="70.863,59.484 70.863,61.037 66.159,68.468 66.159,66.917 	"/>
	<polygon fill="#F2F2F2" points="70.863,72.195 70.863,73.794 66.159,81.251 66.159,79.649 	"/>
	<polygon fill="#F2F2F2" points="70.863,78.548 70.863,80.151 66.159,87.558 66.159,85.957 	"/>
	<polygon fill="#F2F2F2" points="70.863,84.956 70.863,86.454 66.159,93.812 66.159,92.36 	"/>
	<polygon fill="none" points="64.158,102.019 64.158,70.144 70.863,59.484 70.863,61.389 78.369,73.272 78.469,103.472 
		77.418,103.472 71.213,93.812 71.263,90.758 66.159,98.764 	"/>
	<polygon fill="#F2F2F2" points="71.713,100.968 71.713,102.569 76.366,109.875 76.366,108.375 	"/>
	<polygon fill="#F2F2F2" points="71.713,94.663 71.713,96.263 76.366,103.617 76.366,101.968 	"/>
	<polygon fill="#F2F2F2" points="71.713,107.273 71.713,108.973 76.366,116.28 76.366,114.677 	"/>
	<polygon fill="#F2F2F2" points="71.713,113.677 71.713,115.38 76.366,122.583 76.366,121.031 	"/>
	<polygon fill="#F2F2F2" points="70.863,97.766 70.863,99.366 66.159,106.672 66.159,105.171 	"/>
	<polygon fill="#F2F2F2" points="70.863,91.359 70.863,92.964 66.159,100.317 66.159,98.764 	"/>
	<polygon fill="#F2F2F2" points="70.863,104.123 70.863,105.573 66.159,113.077 66.159,111.575 	"/>
	<polygon fill="#F2F2F2" points="70.863,110.477 70.863,111.975 66.159,119.433 66.159,117.979 	"/>
</g>
<g opacity="0.15">
	<polygon fill="#F2F2F2" points="70.863,116.28 70.863,117.882 66.159,125.188 66.159,123.634 	"/>
</g>
<g opacity="0.15">
	<polygon fill="#F2F2F2" points="86.076,69.019 86.076,70.569 90.729,78.002 90.729,76.449 	"/>
	<polygon fill="#F2F2F2" points="86.076,62.71 86.076,64.312 90.729,71.742 90.729,70.144 	"/>
	<polygon fill="#F2F2F2" points="86.076,75.372 86.076,76.974 90.729,84.354 90.729,82.85 	"/>
	<polygon fill="#F2F2F2" points="86.076,81.85 86.076,83.354 90.729,90.758 90.729,89.207 	"/>
	<polygon fill="#F2F2F2" points="86.076,88.159 86.076,89.758 90.729,97.114 90.729,95.563 	"/>
	<polygon fill="#F2F2F2" points="85.174,65.842 85.174,67.391 80.471,74.874 80.471,73.272 	"/>
	<polygon fill="#F2F2F2" points="85.174,59.484 85.174,61.037 80.471,68.468 80.471,66.917 	"/>
	<polygon fill="#F2F2F2" points="85.174,72.195 85.174,73.794 80.471,81.251 80.471,79.649 	"/>
	<polygon fill="#F2F2F2" points="85.174,78.548 85.174,80.151 80.471,87.558 80.471,85.957 	"/>
	<polygon fill="#F2F2F2" points="85.174,84.956 85.174,86.454 80.471,93.812 80.471,92.36 	"/>
	<polygon fill="none" points="78.469,102.019 78.469,70.144 85.174,59.484 85.174,61.389 92.63,73.272 92.781,103.472 
		91.679,103.472 85.575,93.812 85.624,90.758 80.471,98.764 	"/>
	<polygon fill="#F2F2F2" points="86.076,100.968 86.076,102.569 90.729,109.875 90.729,108.375 	"/>
	<polygon fill="#F2F2F2" points="86.076,94.663 86.076,96.263 90.729,103.617 90.729,101.968 	"/>
	<polygon fill="#F2F2F2" points="86.076,107.273 86.076,108.973 90.729,116.28 90.729,114.677 	"/>
	<polygon fill="#F2F2F2" points="86.076,113.677 86.076,115.38 90.729,122.583 90.729,121.031 	"/>
	<polygon fill="#F2F2F2" points="85.174,97.766 85.174,99.366 80.471,106.672 80.471,105.171 	"/>
	<polygon fill="#F2F2F2" points="85.174,91.359 85.174,92.964 80.471,100.317 80.471,98.764 	"/>
	<polygon fill="#F2F2F2" points="85.174,104.123 85.174,105.573 80.471,113.077 80.471,111.575 	"/>
	<polygon fill="#F2F2F2" points="85.174,110.477 85.174,111.975 80.471,119.433 80.471,117.979 	"/>
</g>
<g opacity="0.15">
	<polygon fill="#F2F2F2" points="85.174,116.28 85.174,117.882 80.471,125.188 80.471,123.634 	"/>
</g>
<g opacity="0.15">
	<polygon fill="#F2F2F2" points="100.384,69.019 100.384,70.569 105.09,78.002 105.09,76.449 	"/>
	<polygon fill="#F2F2F2" points="100.384,62.71 100.384,64.312 105.09,71.742 105.09,70.144 	"/>
	<polygon fill="#F2F2F2" points="100.384,75.372 100.384,76.974 105.09,84.354 105.09,82.85 	"/>
	<polygon fill="#F2F2F2" points="100.384,81.85 100.384,83.354 105.09,90.758 105.09,89.207 	"/>
	<polygon fill="#F2F2F2" points="100.384,88.159 100.384,89.758 105.09,97.114 105.09,95.563 	"/>
	<polygon fill="#F2F2F2" points="99.485,65.842 99.485,67.391 94.88,74.874 94.88,73.272 	"/>
	<polygon fill="#F2F2F2" points="99.485,59.484 99.485,61.037 94.88,68.468 94.88,66.917 	"/>
	<polygon fill="#F2F2F2" points="99.485,72.195 99.485,73.794 94.88,81.251 94.88,79.649 	"/>
	<polygon fill="#F2F2F2" points="99.485,78.548 99.485,80.151 94.88,87.558 94.88,85.957 	"/>
	<polygon fill="#F2F2F2" points="99.485,84.956 99.485,86.454 94.88,93.812 94.88,92.36 	"/>
	<polygon fill="none" points="92.781,102.019 92.781,70.144 99.485,59.484 99.485,61.389 106.992,73.272 107.144,103.472 
		106.09,103.472 99.885,93.812 99.984,90.758 94.88,98.764 	"/>
	<polygon fill="#F2F2F2" points="100.384,100.968 100.384,102.569 105.09,109.875 105.09,108.375 	"/>
	<polygon fill="#F2F2F2" points="100.384,94.663 100.384,96.263 105.09,103.617 105.09,101.968 	"/>
	<polygon fill="#F2F2F2" points="100.384,107.273 100.384,108.973 105.09,116.28 105.09,114.677 	"/>
	<polygon fill="#F2F2F2" points="100.384,113.677 100.384,115.38 105.09,122.583 105.09,121.031 	"/>
	<polygon fill="#F2F2F2" points="99.485,97.766 99.485,99.366 94.88,106.672 94.88,105.171 	"/>
	<polygon fill="#F2F2F2" points="99.485,91.359 99.485,92.964 94.88,100.317 94.88,98.764 	"/>
	<polygon fill="#F2F2F2" points="99.485,104.123 99.485,105.573 94.88,113.077 94.88,111.575 	"/>
	<polygon fill="#F2F2F2" points="99.485,110.477 99.485,111.975 94.88,119.433 94.88,117.979 	"/>
</g>
<g opacity="0.15">
	<polygon fill="#F2F2F2" points="99.485,116.28 99.485,117.882 94.88,125.188 94.88,123.634 	"/>
</g>
<g opacity="0.15">
	<polygon fill="#F2F2F2" points="114.797,69.019 114.797,70.569 119.4,78.002 119.4,76.449 	"/>
	<polygon fill="#F2F2F2" points="114.797,62.71 114.797,64.312 119.4,71.742 119.4,70.144 	"/>
	<polygon fill="#F2F2F2" points="114.797,75.372 114.797,76.974 119.4,84.354 119.4,82.85 	"/>
	<polygon fill="#F2F2F2" points="114.797,81.85 114.797,83.354 119.4,90.758 119.4,89.207 	"/>
	<polygon fill="#F2F2F2" points="114.797,88.159 114.797,89.758 119.4,97.114 119.4,95.563 	"/>
	<polygon fill="#F2F2F2" points="113.849,65.842 113.849,67.391 109.192,74.874 109.192,73.272 	"/>
	<polygon fill="#F2F2F2" points="113.849,59.484 113.849,61.037 109.192,68.468 109.192,66.917 	"/>
	<polygon fill="#F2F2F2" points="113.849,72.195 113.849,73.794 109.192,81.251 109.192,79.649 	"/>
	<polygon fill="#F2F2F2" points="113.849,78.548 113.849,80.151 109.192,87.558 109.192,85.957 	"/>
	<polygon fill="#F2F2F2" points="113.849,84.956 113.849,86.454 109.192,93.812 109.192,92.36 	"/>
	<polygon fill="none" points="107.144,102.019 107.144,70.144 113.849,59.484 113.849,61.389 121.402,73.272 121.502,103.472 
		120.352,103.472 114.199,93.812 114.297,90.758 109.192,98.764 	"/>
	<polygon fill="#F2F2F2" points="114.797,100.968 114.797,102.569 119.4,109.875 119.4,108.375 	"/>
	<polygon fill="#F2F2F2" points="114.797,94.663 114.797,96.263 119.4,103.617 119.4,101.968 	"/>
	<polygon fill="#F2F2F2" points="114.797,107.273 114.797,108.973 119.4,116.28 119.4,114.677 	"/>
	<polygon fill="#F2F2F2" points="114.797,113.677 114.797,115.38 119.4,122.583 119.4,121.031 	"/>
	<polygon fill="#F2F2F2" points="113.849,97.766 113.849,99.366 109.192,106.672 109.192,105.171 	"/>
	<polygon fill="#F2F2F2" points="113.849,91.359 113.849,92.964 109.192,100.317 109.192,98.764 	"/>
	<polygon fill="#F2F2F2" points="113.849,104.123 113.849,105.573 109.192,113.077 109.192,111.575 	"/>
	<polygon fill="#F2F2F2" points="113.849,110.477 113.849,111.975 109.192,119.433 109.192,117.979 	"/>
</g>
<g opacity="0.15">
	<polygon fill="#F2F2F2" points="113.849,116.28 113.849,117.882 109.192,125.188 109.192,123.634 	"/>
</g>
<g opacity="0.15">
	<polygon fill="#F2F2F2" points="129.059,69.019 129.059,70.569 133.811,78.002 133.811,76.449 	"/>
	<polygon fill="#F2F2F2" points="129.059,62.71 129.059,64.312 133.811,71.742 133.811,70.144 	"/>
	<polygon fill="#F2F2F2" points="129.059,75.372 129.059,76.974 133.811,84.354 133.811,82.85 	"/>
	<polygon fill="#F2F2F2" points="129.059,81.85 129.059,83.354 133.811,90.758 133.811,89.207 	"/>
	<polygon fill="#F2F2F2" points="129.059,88.159 129.059,89.758 133.811,97.114 133.811,95.563 	"/>
	<polygon fill="#F2F2F2" points="128.208,65.842 128.208,67.391 123.504,74.874 123.504,73.272 	"/>
	<polygon fill="#F2F2F2" points="128.208,59.484 128.208,61.037 123.504,68.468 123.504,66.917 	"/>
	<polygon fill="#F2F2F2" points="128.208,72.195 128.208,73.794 123.504,81.251 123.504,79.649 	"/>
	<polygon fill="#F2F2F2" points="128.208,78.548 128.208,80.151 123.504,87.558 123.504,85.957 	"/>
	<polygon fill="#F2F2F2" points="128.208,84.956 128.208,86.454 123.504,93.812 123.504,92.36 	"/>
	<polygon fill="none" points="121.502,102.019 121.502,70.144 128.208,59.484 128.208,61.389 135.713,73.272 135.764,103.472 
		134.71,103.472 128.508,93.812 128.658,90.758 123.504,98.764 	"/>
	<polygon fill="#F2F2F2" points="129.059,100.968 129.059,102.569 133.811,109.875 133.811,108.375 	"/>
	<polygon fill="#F2F2F2" points="129.059,94.663 129.059,96.263 133.811,103.617 133.811,101.968 	"/>
	<polygon fill="#F2F2F2" points="129.059,107.273 129.059,108.973 133.811,116.28 133.811,114.677 	"/>
	<polygon fill="#F2F2F2" points="129.059,113.677 129.059,115.38 133.811,122.583 133.811,121.031 	"/>
	<polygon fill="#F2F2F2" points="128.208,97.766 128.208,99.366 123.504,106.672 123.504,105.171 	"/>
	<polygon fill="#F2F2F2" points="128.208,91.359 128.208,92.964 123.504,100.317 123.504,98.764 	"/>
	<polygon fill="#F2F2F2" points="128.208,104.123 128.208,105.573 123.504,113.077 123.504,111.575 	"/>
	<polygon fill="#F2F2F2" points="128.208,110.477 128.208,111.975 123.504,119.433 123.504,117.979 	"/>
</g>
<g opacity="0.15">
	<polygon fill="#F2F2F2" points="128.208,116.28 128.208,117.882 123.504,125.188 123.504,123.634 	"/>
</g>
<g opacity="0.15">
	<line fill="#F2F2F2" x1="148.021" y1="-16.449" x2="148.021" y2="-18.026"/>
	<line fill="none" x1="137.816" y1="-14.798" x2="135.764" y2="-11.42"/>
	<line fill="none" x1="150.126" y1="-10.095" x2="149.021" y2="-10.095"/>
	<polygon fill="#F2F2F2" points="143.42,-12.546 143.42,-11.07 148.021,-3.689 148.021,-5.166 	"/>
	<polygon fill="#F2F2F2" points="143.42,-18.853 143.42,-17.375 148.021,-9.996 148.021,-11.42 	"/>
	<polygon fill="#F2F2F2" points="143.42,-6.241 143.42,-4.665 148.021,2.716 148.021,1.19 	"/>
	<polygon fill="#F2F2F2" points="143.42,0.214 143.42,1.69 148.021,9.12 148.021,7.545 	"/>
	<polygon fill="#F2F2F2" points="142.518,-15.773 142.518,-14.198 137.816,-6.817 137.816,-8.343 	"/>
	<line fill="#F2F2F2" x1="137.816" y1="-13.173" x2="137.816" y2="-14.697"/>
	<polygon fill="#F2F2F2" points="142.518,-9.469 142.518,-7.944 137.816,-0.461 137.816,-2.039 	"/>
	<polygon fill="#F2F2F2" points="142.518,-3.015 142.518,-1.488 137.816,5.893 137.816,4.367 	"/>
</g>
<g opacity="0.15">
	<polygon fill="#F2F2F2" points="143.42,12.299 143.42,13.849 148.021,21.204 148.021,19.679 	"/>
	<polygon fill="#F2F2F2" points="143.42,5.943 143.42,7.495 148.021,14.901 148.021,13.324 	"/>
	<polygon fill="#F2F2F2" points="143.42,18.652 143.42,20.178 148.021,27.51 148.021,26.084 	"/>
	<polygon fill="#F2F2F2" points="143.42,25.008 143.42,26.583 148.021,33.964 148.021,32.439 	"/>
	<polygon fill="#F2F2F2" points="143.42,31.364 143.42,32.89 148.021,40.321 148.021,38.792 	"/>
	<polygon fill="#F2F2F2" points="142.518,9.071 142.518,10.596 137.816,18.027 137.816,16.452 	"/>
	<polygon fill="#F2F2F2" points="142.518,2.716 142.518,4.242 137.816,11.672 137.816,10.147 	"/>
	<polygon fill="#F2F2F2" points="142.518,15.425 142.518,17.002 137.816,24.281 137.816,22.857 	"/>
	<polygon fill="#F2F2F2" points="142.518,21.88 142.518,23.356 137.816,30.737 137.816,29.21 	"/>
	<polygon fill="#F2F2F2" points="142.518,28.184 142.518,29.761 137.816,37.093 137.816,35.566 	"/>
	<polygon fill="none" points="135.764,45.299 135.764,13.324 142.518,2.716 142.518,4.566 150.022,16.55 150.126,46.675 
		149.021,46.675 142.818,36.942 142.917,33.964 137.816,41.922 	"/>
	<polygon fill="#F2F2F2" points="143.42,44.223 143.42,45.749 148.021,53.13 148.021,51.604 	"/>
	<polygon fill="#F2F2F2" points="143.42,37.87 143.42,39.394 148.021,46.725 148.021,45.249 	"/>
	<polygon fill="#F2F2F2" points="143.42,50.578 143.42,52.104 148.021,59.484 148.021,57.91 	"/>
	<polygon fill="#F2F2F2" points="143.42,56.934 143.42,58.458 148.021,65.842 148.021,64.312 	"/>
	<polygon fill="#F2F2F2" points="142.518,40.996 142.518,42.522 137.816,49.902 137.816,48.375 	"/>
	<polygon fill="#F2F2F2" points="142.518,34.691 142.518,36.166 137.816,43.548 137.816,42.022 	"/>
	<polygon fill="#F2F2F2" points="142.518,47.349 142.518,48.826 137.816,56.307 137.816,54.732 	"/>
	<polygon fill="#F2F2F2" points="142.518,53.706 142.518,55.232 137.816,62.661 137.816,61.137 	"/>
</g>
<g opacity="0.15">
	<line fill="#F2F2F2" x1="162.336" y1="-16.449" x2="162.336" y2="-18.026"/>
	<line fill="none" x1="152.175" y1="-14.798" x2="150.126" y2="-11.42"/>
	<line fill="none" x1="164.438" y1="-10.095" x2="163.435" y2="-10.095"/>
	<polygon fill="#F2F2F2" points="157.729,-12.546 157.729,-11.07 162.336,-3.689 162.336,-5.166 	"/>
	<polygon fill="#F2F2F2" points="157.729,-18.853 157.729,-17.375 162.336,-9.996 162.336,-11.42 	"/>
	<polygon fill="#F2F2F2" points="157.729,-6.241 157.729,-4.665 162.336,2.716 162.336,1.19 	"/>
	<polygon fill="#F2F2F2" points="157.729,0.214 157.729,1.69 162.336,9.12 162.336,7.545 	"/>
	<polygon fill="#F2F2F2" points="156.832,-15.773 156.832,-14.198 152.175,-6.817 152.175,-8.343 	"/>
	<line fill="#F2F2F2" x1="152.175" y1="-13.173" x2="152.175" y2="-14.697"/>
	<polygon fill="#F2F2F2" points="156.832,-9.469 156.832,-7.944 152.175,-0.461 152.175,-2.039 	"/>
	<polygon fill="#F2F2F2" points="156.832,-3.015 156.832,-1.488 152.175,5.893 152.175,4.367 	"/>
</g>
<g opacity="0.15">
	<polygon fill="#F2F2F2" points="157.729,12.299 157.729,13.849 162.336,21.204 162.336,19.679 	"/>
	<polygon fill="#F2F2F2" points="157.729,5.943 157.729,7.495 162.336,14.901 162.336,13.324 	"/>
	<polygon fill="#F2F2F2" points="157.729,18.652 157.729,20.178 162.336,27.51 162.336,26.084 	"/>
	<polygon fill="#F2F2F2" points="157.729,25.008 157.729,26.583 162.336,33.964 162.336,32.439 	"/>
	<polygon fill="#F2F2F2" points="157.729,31.364 157.729,32.89 162.336,40.321 162.336,38.792 	"/>
	<polygon fill="#F2F2F2" points="156.832,9.071 156.832,10.596 152.175,18.027 152.175,16.452 	"/>
	<polygon fill="#F2F2F2" points="156.832,2.716 156.832,4.242 152.175,11.672 152.175,10.147 	"/>
	<polygon fill="#F2F2F2" points="156.832,15.425 156.832,17.002 152.175,24.281 152.175,22.857 	"/>
	<polygon fill="#F2F2F2" points="156.832,21.88 156.832,23.356 152.175,30.737 152.175,29.21 	"/>
	<polygon fill="#F2F2F2" points="156.832,28.184 156.832,29.761 152.175,37.093 152.175,35.566 	"/>
	<polygon fill="none" points="150.126,45.299 150.126,13.324 156.832,2.716 156.832,4.566 164.236,16.55 164.438,46.675 
		163.435,46.675 157.33,36.942 157.431,33.964 152.175,41.922 	"/>
	<polygon fill="#F2F2F2" points="157.729,44.223 157.729,45.749 162.336,53.13 162.336,51.604 	"/>
	<polygon fill="#F2F2F2" points="157.729,37.87 157.729,39.394 162.336,46.725 162.336,45.249 	"/>
	<polygon fill="#F2F2F2" points="157.729,50.578 157.729,52.104 162.336,59.484 162.336,57.91 	"/>
	<polygon fill="#F2F2F2" points="157.729,56.934 157.729,58.458 162.336,65.842 162.336,64.312 	"/>
	<polygon fill="#F2F2F2" points="156.832,40.996 156.832,42.522 152.175,49.902 152.175,48.375 	"/>
	<polygon fill="#F2F2F2" points="156.832,34.691 156.832,36.166 152.175,43.548 152.175,42.022 	"/>
	<polygon fill="#F2F2F2" points="156.832,47.349 156.832,48.826 152.175,56.307 152.175,54.732 	"/>
	<polygon fill="#F2F2F2" points="156.832,53.706 156.832,55.232 152.175,62.661 152.175,61.137 	"/>
</g>
<g opacity="0.15">
	<line fill="#F2F2F2" x1="176.745" y1="-16.449" x2="176.745" y2="-18.026"/>
	<line fill="none" x1="166.537" y1="-14.798" x2="164.438" y2="-11.42"/>
	<line fill="none" x1="178.847" y1="-10.095" x2="177.646" y2="-10.095"/>
	<polygon fill="#F2F2F2" points="172.041,-12.546 172.041,-11.07 176.745,-3.689 176.745,-5.166 	"/>
	<polygon fill="#F2F2F2" points="172.041,-18.853 172.041,-17.375 176.745,-9.996 176.745,-11.42 	"/>
	<polygon fill="#F2F2F2" points="172.041,-6.241 172.041,-4.665 176.745,2.716 176.745,1.19 	"/>
	<polygon fill="#F2F2F2" points="172.041,0.214 172.041,1.69 176.745,9.12 176.745,7.545 	"/>
	<polygon fill="#F2F2F2" points="171.139,-15.773 171.139,-14.198 166.537,-6.817 166.537,-8.343 	"/>
	<line fill="#F2F2F2" x1="166.537" y1="-13.173" x2="166.537" y2="-14.697"/>
	<polygon fill="#F2F2F2" points="171.139,-9.469 171.139,-7.944 166.537,-0.461 166.537,-2.039 	"/>
	<polygon fill="#F2F2F2" points="171.139,-3.015 171.139,-1.488 166.537,5.893 166.537,4.367 	"/>
</g>
<g opacity="0.15">
	<polygon fill="#F2F2F2" points="172.041,12.299 172.041,13.849 176.745,21.204 176.745,19.679 	"/>
	<polygon fill="#F2F2F2" points="172.041,5.943 172.041,7.495 176.745,14.901 176.745,13.324 	"/>
	<polygon fill="#F2F2F2" points="172.041,18.652 172.041,20.178 176.745,27.51 176.745,26.084 	"/>
	<polygon fill="#F2F2F2" points="172.041,25.008 172.041,26.583 176.745,33.964 176.745,32.439 	"/>
	<polygon fill="#F2F2F2" points="172.041,31.364 172.041,32.89 176.745,40.321 176.745,38.792 	"/>
	<polygon fill="#F2F2F2" points="171.139,9.071 171.139,10.596 166.537,18.027 166.537,16.452 	"/>
	<polygon fill="#F2F2F2" points="171.139,2.716 171.139,4.242 166.537,11.672 166.537,10.147 	"/>
	<polygon fill="#F2F2F2" points="171.139,15.425 171.139,17.002 166.537,24.281 166.537,22.857 	"/>
	<polygon fill="#F2F2F2" points="171.139,21.88 171.139,23.356 166.537,30.737 166.537,29.21 	"/>
	<polygon fill="#F2F2F2" points="171.139,28.184 171.139,29.761 166.537,37.093 166.537,35.566 	"/>
	<polygon fill="none" points="164.438,45.299 164.438,13.324 171.139,2.716 171.139,4.566 178.747,16.55 178.847,46.675 
		177.646,46.675 171.594,36.942 171.692,33.964 166.537,41.922 	"/>
	<polygon fill="#F2F2F2" points="172.041,44.223 172.041,45.749 176.745,53.13 176.745,51.604 	"/>
	<polygon fill="#F2F2F2" points="172.041,37.87 172.041,39.394 176.745,46.725 176.745,45.249 	"/>
	<polygon fill="#F2F2F2" points="172.041,50.578 172.041,52.104 176.745,59.484 176.745,57.91 	"/>
	<polygon fill="#F2F2F2" points="172.041,56.934 172.041,58.458 176.745,65.842 176.745,64.312 	"/>
	<polygon fill="#F2F2F2" points="171.139,40.996 171.139,42.522 166.537,49.902 166.537,48.375 	"/>
	<polygon fill="#F2F2F2" points="171.139,34.691 171.139,36.166 166.537,43.548 166.537,42.022 	"/>
	<polygon fill="#F2F2F2" points="171.139,47.349 171.139,48.826 166.537,56.307 166.537,54.732 	"/>
	<polygon fill="#F2F2F2" points="171.139,53.706 171.139,55.232 166.537,62.661 166.537,61.137 	"/>
</g>
<g opacity="0.15">
	<line fill="#F2F2F2" x1="191.155" y1="-16.449" x2="191.155" y2="-18.026"/>
	<line fill="none" x1="180.849" y1="-14.798" x2="178.847" y2="-11.42"/>
	<line fill="none" x1="193.108" y1="-10.095" x2="191.955" y2="-10.095"/>
	<polygon fill="#F2F2F2" points="186.403,-12.546 186.403,-11.07 191.155,-3.689 191.155,-5.166 	"/>
	<polygon fill="#F2F2F2" points="186.403,-18.853 186.403,-17.375 191.155,-9.996 191.155,-11.42 	"/>
	<polygon fill="#F2F2F2" points="186.403,-6.241 186.403,-4.665 191.155,2.716 191.155,1.19 	"/>
	<polygon fill="#F2F2F2" points="186.403,0.214 186.403,1.69 191.155,9.12 191.155,7.545 	"/>
	<polygon fill="#F2F2F2" points="185.452,-15.773 185.452,-14.198 180.849,-6.817 180.849,-8.343 	"/>
	<line fill="#F2F2F2" x1="180.849" y1="-13.173" x2="180.849" y2="-14.697"/>
	<polygon fill="#F2F2F2" points="185.452,-9.469 185.452,-7.944 180.849,-0.461 180.849,-2.039 	"/>
	<polygon fill="#F2F2F2" points="185.452,-3.015 185.452,-1.488 180.849,5.893 180.849,4.367 	"/>
</g>
<g opacity="0.15">
	<polygon fill="#F2F2F2" points="186.403,12.299 186.403,13.849 191.155,21.204 191.155,19.679 	"/>
	<polygon fill="#F2F2F2" points="186.403,5.943 186.403,7.495 191.155,14.901 191.155,13.324 	"/>
	<polygon fill="#F2F2F2" points="186.403,18.652 186.403,20.178 191.155,27.51 191.155,26.084 	"/>
	<polygon fill="#F2F2F2" points="186.403,25.008 186.403,26.583 191.155,33.964 191.155,32.439 	"/>
	<polygon fill="#F2F2F2" points="186.403,31.364 186.403,32.89 191.155,40.321 191.155,38.792 	"/>
	<polygon fill="#F2F2F2" points="185.452,9.071 185.452,10.596 180.849,18.027 180.849,16.452 	"/>
	<polygon fill="#F2F2F2" points="185.452,2.716 185.452,4.242 180.849,11.672 180.849,10.147 	"/>
	<polygon fill="#F2F2F2" points="185.452,15.425 185.452,17.002 180.849,24.281 180.849,22.857 	"/>
	<polygon fill="#F2F2F2" points="185.452,21.88 185.452,23.356 180.849,30.737 180.849,29.21 	"/>
	<polygon fill="#F2F2F2" points="185.452,28.184 185.452,29.761 180.849,37.093 180.849,35.566 	"/>
	<polygon fill="none" points="178.847,45.299 178.847,13.324 185.452,2.716 185.452,4.566 193.009,16.55 193.108,46.675 
		191.955,46.675 185.954,36.942 185.954,33.964 180.849,41.922 	"/>
	<polygon fill="#F2F2F2" points="186.403,44.223 186.403,45.749 191.155,53.13 191.155,51.604 	"/>
	<polygon fill="#F2F2F2" points="186.403,37.87 186.403,39.394 191.155,46.725 191.155,45.249 	"/>
	<polygon fill="#F2F2F2" points="186.403,50.578 186.403,52.104 191.155,59.484 191.155,57.91 	"/>
	<polygon fill="#F2F2F2" points="186.403,56.934 186.403,58.458 191.155,65.842 191.155,64.312 	"/>
	<polygon fill="#F2F2F2" points="185.452,40.996 185.452,42.522 180.849,49.902 180.849,48.375 	"/>
	<polygon fill="#F2F2F2" points="185.452,34.691 185.452,36.166 180.849,43.548 180.849,42.022 	"/>
	<polygon fill="#F2F2F2" points="185.452,47.349 185.452,48.826 180.849,56.307 180.849,54.732 	"/>
	<polygon fill="#F2F2F2" points="185.452,53.706 185.452,55.232 180.849,62.661 180.849,61.137 	"/>
</g>
<g opacity="0.15">
	<line fill="#F2F2F2" x1="205.417" y1="-16.449" x2="205.417" y2="-18.026"/>
	<line fill="none" x1="195.107" y1="-14.798" x2="193.108" y2="-11.42"/>
	<line fill="none" x1="207.521" y1="-10.095" x2="206.471" y2="-10.095"/>
	<polygon fill="#F2F2F2" points="200.765,-12.546 200.765,-11.07 205.417,-3.689 205.417,-5.166 	"/>
	<polygon fill="#F2F2F2" points="200.765,-18.853 200.765,-17.375 205.417,-9.996 205.417,-11.42 	"/>
	<polygon fill="#F2F2F2" points="200.765,-6.241 200.765,-4.665 205.417,2.716 205.417,1.19 	"/>
	<polygon fill="#F2F2F2" points="200.765,0.214 200.765,1.69 205.417,9.12 205.417,7.545 	"/>
	<polygon fill="#F2F2F2" points="199.862,-15.773 199.862,-14.198 195.107,-6.817 195.107,-8.343 	"/>
	<line fill="#F2F2F2" x1="195.107" y1="-13.173" x2="195.107" y2="-14.697"/>
	<polygon fill="#F2F2F2" points="199.862,-9.469 199.862,-7.944 195.107,-0.461 195.107,-2.039 	"/>
	<polygon fill="#F2F2F2" points="199.862,-3.015 199.862,-1.488 195.107,5.893 195.107,4.367 	"/>
</g>
<g opacity="0.15">
	<polygon fill="#F2F2F2" points="200.765,12.299 200.765,13.849 205.417,21.204 205.417,19.679 	"/>
	<polygon fill="#F2F2F2" points="200.765,5.943 200.765,7.495 205.417,14.901 205.417,13.324 	"/>
	<polygon fill="#F2F2F2" points="200.765,18.652 200.765,20.178 205.417,27.51 205.417,26.084 	"/>
	<polygon fill="#F2F2F2" points="200.765,25.008 200.765,26.583 205.417,33.964 205.417,32.439 	"/>
	<polygon fill="#F2F2F2" points="200.765,31.364 200.765,32.89 205.417,40.321 205.417,38.792 	"/>
	<polygon fill="#F2F2F2" points="199.862,9.071 199.862,10.596 195.107,18.027 195.107,16.452 	"/>
	<polygon fill="#F2F2F2" points="199.862,2.716 199.862,4.242 195.107,11.672 195.107,10.147 	"/>
	<polygon fill="#F2F2F2" points="199.862,15.425 199.862,17.002 195.107,24.281 195.107,22.857 	"/>
	<polygon fill="#F2F2F2" points="199.862,21.88 199.862,23.356 195.107,30.737 195.107,29.21 	"/>
	<polygon fill="#F2F2F2" points="199.862,28.184 199.862,29.761 195.107,37.093 195.107,35.566 	"/>
	<polygon fill="none" points="193.108,45.299 193.108,13.324 199.862,2.716 199.862,4.566 207.268,16.55 207.521,46.675 
		206.471,46.675 200.262,36.942 200.367,33.964 195.107,41.922 	"/>
	<polygon fill="#F2F2F2" points="200.765,44.223 200.765,45.749 205.417,53.13 205.417,51.604 	"/>
	<polygon fill="#F2F2F2" points="200.765,37.87 200.765,39.394 205.417,46.725 205.417,45.249 	"/>
	<polygon fill="#F2F2F2" points="200.765,50.578 200.765,52.104 205.417,59.484 205.417,57.91 	"/>
	<polygon fill="#F2F2F2" points="200.765,56.934 200.765,58.458 205.417,65.842 205.417,64.312 	"/>
	<polygon fill="#F2F2F2" points="199.862,40.996 199.862,42.522 195.107,49.902 195.107,48.375 	"/>
	<polygon fill="#F2F2F2" points="199.862,34.691 199.862,36.166 195.107,43.548 195.107,42.022 	"/>
	<polygon fill="#F2F2F2" points="199.862,47.349 199.862,48.826 195.107,56.307 195.107,54.732 	"/>
	<polygon fill="#F2F2F2" points="199.862,53.706 199.862,55.232 195.107,62.661 195.107,61.137 	"/>
</g>
<g opacity="0.15">
	<line fill="#F2F2F2" x1="4.71" y1="-16.449" x2="4.71" y2="-18.026"/>
	<line fill="none" x1="-5.497" y1="-14.798" x2="-7.548" y2="-11.42"/>
	<line fill="none" x1="6.812" y1="-10.095" x2="5.687" y2="-10.095"/>
	<polygon fill="#F2F2F2" points="-0.017,-12.546 -0.017,-11.07 4.71,-3.689 4.71,-5.166 	"/>
	<polygon fill="#F2F2F2" points="-0.017,-18.853 -0.017,-17.375 4.71,-9.996 4.71,-11.42 	"/>
	<polygon fill="#F2F2F2" points="-0.017,-6.241 -0.017,-4.665 4.71,2.716 4.71,1.19 	"/>
	<polygon fill="#F2F2F2" points="-0.017,0.214 -0.017,1.69 4.71,9.12 4.71,7.545 	"/>
	<polygon fill="#F2F2F2" points="-0.843,-15.773 -0.843,-14.198 -5.497,-6.817 -5.497,-8.343 	"/>
	<line fill="#F2F2F2" x1="-5.497" y1="-13.173" x2="-5.497" y2="-14.697"/>
	<polygon fill="#F2F2F2" points="-0.843,-9.469 -0.843,-7.944 -5.497,-0.461 -5.497,-2.039 	"/>
	<polygon fill="#F2F2F2" points="-0.843,-3.015 -0.843,-1.488 -5.497,5.893 -5.497,4.367 	"/>
</g>
<g opacity="0.15">
	<polygon fill="#F2F2F2" points="-0.017,12.299 -0.017,13.849 4.71,21.204 4.71,19.679 	"/>
	<polygon fill="#F2F2F2" points="-0.017,5.943 -0.017,7.495 4.71,14.901 4.71,13.324 	"/>
	<polygon fill="#F2F2F2" points="-0.017,18.652 -0.017,20.178 4.71,27.51 4.71,26.084 	"/>
	<polygon fill="#F2F2F2" points="-0.017,25.008 -0.017,26.583 4.71,33.964 4.71,32.439 	"/>
	<polygon fill="#F2F2F2" points="-0.017,31.364 -0.017,32.89 4.71,40.321 4.71,38.792 	"/>
	<polygon fill="#F2F2F2" points="-0.843,9.071 -0.843,10.596 -5.497,18.027 -5.497,16.452 	"/>
	<polygon fill="#F2F2F2" points="-0.843,2.716 -0.843,4.242 -5.497,11.672 -5.497,10.147 	"/>
	<polygon fill="#F2F2F2" points="-0.843,15.425 -0.843,17.002 -5.497,24.281 -5.497,22.857 	"/>
	<polygon fill="#F2F2F2" points="-0.843,21.88 -0.843,23.356 -5.497,30.737 -5.497,29.21 	"/>
	<polygon fill="#F2F2F2" points="-0.843,28.184 -0.843,29.761 -5.497,37.093 -5.497,35.566 	"/>
	<polygon fill="none" points="-7.548,45.299 -7.548,13.324 -0.843,2.716 -0.843,4.566 6.663,16.55 6.812,46.675 5.687,46.675 
		-0.468,36.942 -0.418,33.964 -5.497,41.922 	"/>
	<polygon fill="#F2F2F2" points="-0.017,44.223 -0.017,45.749 4.71,53.13 4.71,51.604 	"/>
	<polygon fill="#F2F2F2" points="-0.017,37.87 -0.017,39.394 4.71,46.725 4.71,45.249 	"/>
	<polygon fill="#F2F2F2" points="-0.017,50.578 -0.017,52.104 4.71,59.484 4.71,57.91 	"/>
	<polygon fill="#F2F2F2" points="-0.017,56.934 -0.017,58.458 4.71,65.842 4.71,64.312 	"/>
	<polygon fill="#F2F2F2" points="-0.843,40.996 -0.843,42.522 -5.497,49.902 -5.497,48.375 	"/>
	<polygon fill="#F2F2F2" points="-0.843,34.691 -0.843,36.166 -5.497,43.548 -5.497,42.022 	"/>
	<polygon fill="#F2F2F2" points="-0.843,47.349 -0.843,48.826 -5.497,56.307 -5.497,54.732 	"/>
	<polygon fill="#F2F2F2" points="-0.843,53.706 -0.843,55.232 -5.497,62.661 -5.497,61.137 	"/>
</g>
<g opacity="0.15">
	<line fill="#F2F2F2" x1="19.049" y1="-16.449" x2="19.049" y2="-18.026"/>
	<line fill="none" x1="8.814" y1="-14.798" x2="6.812" y2="-11.42"/>
	<line fill="none" x1="21.148" y1="-10.095" x2="19.971" y2="-10.095"/>
	<polygon fill="#F2F2F2" points="14.394,-12.546 14.394,-11.07 19.049,-3.689 19.049,-5.166 	"/>
	<polygon fill="#F2F2F2" points="14.394,-18.853 14.394,-17.375 19.049,-9.996 19.049,-11.42 	"/>
	<polygon fill="#F2F2F2" points="14.394,-6.241 14.394,-4.665 19.049,2.716 19.049,1.19 	"/>
	<polygon fill="#F2F2F2" points="14.394,0.214 14.394,1.69 19.049,9.12 19.049,7.545 	"/>
	<polygon fill="#F2F2F2" points="13.568,-15.773 13.568,-14.198 8.814,-6.817 8.814,-8.343 	"/>
	<line fill="#F2F2F2" x1="8.814" y1="-13.173" x2="8.814" y2="-14.697"/>
	<polygon fill="#F2F2F2" points="13.568,-9.469 13.568,-7.944 8.814,-0.461 8.814,-2.039 	"/>
	<polygon fill="#F2F2F2" points="13.568,-3.015 13.568,-1.488 8.814,5.893 8.814,4.367 	"/>
</g>
<g opacity="0.15">
	<polygon fill="#F2F2F2" points="14.394,12.299 14.394,13.849 19.049,21.204 19.049,19.679 	"/>
	<polygon fill="#F2F2F2" points="14.394,5.943 14.394,7.495 19.049,14.901 19.049,13.324 	"/>
	<polygon fill="#F2F2F2" points="14.394,18.652 14.394,20.178 19.049,27.51 19.049,26.084 	"/>
	<polygon fill="#F2F2F2" points="14.394,25.008 14.394,26.583 19.049,33.964 19.049,32.439 	"/>
	<polygon fill="#F2F2F2" points="14.394,31.364 14.394,32.89 19.049,40.321 19.049,38.792 	"/>
	<polygon fill="#F2F2F2" points="13.568,9.071 13.568,10.596 8.814,18.027 8.814,16.452 	"/>
	<polygon fill="#F2F2F2" points="13.568,2.716 13.568,4.242 8.814,11.672 8.814,10.147 	"/>
	<polygon fill="#F2F2F2" points="13.568,15.425 13.568,17.002 8.814,24.281 8.814,22.857 	"/>
	<polygon fill="#F2F2F2" points="13.568,21.88 13.568,23.356 8.814,30.737 8.814,29.21 	"/>
	<polygon fill="#F2F2F2" points="13.568,28.184 13.568,29.761 8.814,37.093 8.814,35.566 	"/>
	<polygon fill="none" points="6.812,45.299 6.812,13.324 13.568,2.716 13.568,4.566 20.949,16.55 21.148,46.675 19.971,46.675 
		13.817,36.942 13.918,33.964 8.814,41.922 	"/>
	<polygon fill="#F2F2F2" points="14.394,44.223 14.394,45.749 19.049,53.13 19.049,51.604 	"/>
	<polygon fill="#F2F2F2" points="14.394,37.87 14.394,39.394 19.049,46.725 19.049,45.249 	"/>
	<polygon fill="#F2F2F2" points="14.394,50.578 14.394,52.104 19.049,59.484 19.049,57.91 	"/>
	<polygon fill="#F2F2F2" points="14.394,56.934 14.394,58.458 19.049,65.842 19.049,64.312 	"/>
	<polygon fill="#F2F2F2" points="13.568,40.996 13.568,42.522 8.814,49.902 8.814,48.375 	"/>
	<polygon fill="#F2F2F2" points="13.568,34.691 13.568,36.166 8.814,43.548 8.814,42.022 	"/>
	<polygon fill="#F2F2F2" points="13.568,47.349 13.568,48.826 8.814,56.307 8.814,54.732 	"/>
	<polygon fill="#F2F2F2" points="13.568,53.706 13.568,55.232 8.814,62.661 8.814,61.137 	"/>
</g>
<g opacity="0.15">
	<line fill="#F2F2F2" x1="33.408" y1="-16.449" x2="33.408" y2="-18.026"/>
	<line fill="none" x1="23.15" y1="-14.798" x2="21.148" y2="-11.42"/>
	<line fill="none" x1="35.434" y1="-10.095" x2="34.309" y2="-10.095"/>
	<polygon fill="#F2F2F2" points="28.68,-12.546 28.68,-11.07 33.408,-3.689 33.408,-5.166 	"/>
	<polygon fill="#F2F2F2" points="28.68,-18.853 28.68,-17.375 33.408,-9.996 33.408,-11.42 	"/>
	<polygon fill="#F2F2F2" points="28.68,-6.241 28.68,-4.665 33.408,2.716 33.408,1.19 	"/>
	<polygon fill="#F2F2F2" points="28.68,0.214 28.68,1.69 33.408,9.12 33.408,7.545 	"/>
	<polygon fill="#F2F2F2" points="27.804,-15.773 27.804,-14.198 23.15,-6.817 23.15,-8.343 	"/>
	<line fill="#F2F2F2" x1="23.15" y1="-13.173" x2="23.15" y2="-14.697"/>
	<polygon fill="#F2F2F2" points="27.804,-9.469 27.804,-7.944 23.15,-0.461 23.15,-2.039 	"/>
	<polygon fill="#F2F2F2" points="27.804,-3.015 27.804,-1.488 23.15,5.893 23.15,4.367 	"/>
</g>
<g opacity="0.15">
	<polygon fill="#F2F2F2" points="28.68,12.299 28.68,13.849 33.408,21.204 33.408,19.679 	"/>
	<polygon fill="#F2F2F2" points="28.68,5.943 28.68,7.495 33.408,14.901 33.408,13.324 	"/>
	<polygon fill="#F2F2F2" points="28.68,18.652 28.68,20.178 33.408,27.51 33.408,26.084 	"/>
	<polygon fill="#F2F2F2" points="28.68,25.008 28.68,26.583 33.408,33.964 33.408,32.439 	"/>
	<polygon fill="#F2F2F2" points="28.68,31.364 28.68,32.89 33.408,40.321 33.408,38.792 	"/>
	<polygon fill="#F2F2F2" points="27.804,9.071 27.804,10.596 23.15,18.027 23.15,16.452 	"/>
	<polygon fill="#F2F2F2" points="27.804,2.716 27.804,4.242 23.15,11.672 23.15,10.147 	"/>
	<polygon fill="#F2F2F2" points="27.804,15.425 27.804,17.002 23.15,24.281 23.15,22.857 	"/>
	<polygon fill="#F2F2F2" points="27.804,21.88 27.804,23.356 23.15,30.737 23.15,29.21 	"/>
	<polygon fill="#F2F2F2" points="27.804,28.184 27.804,29.761 23.15,37.093 23.15,35.566 	"/>
	<polygon fill="none" points="21.148,45.299 21.148,13.324 27.804,2.716 27.804,4.566 35.285,16.55 35.434,46.675 34.309,46.675 
		28.28,36.942 28.28,33.964 23.15,41.922 	"/>
	<polygon fill="#F2F2F2" points="28.68,44.223 28.68,45.749 33.408,53.13 33.408,51.604 	"/>
	<polygon fill="#F2F2F2" points="28.68,37.87 28.68,39.394 33.408,46.725 33.408,45.249 	"/>
	<polygon fill="#F2F2F2" points="28.68,50.578 28.68,52.104 33.408,59.484 33.408,57.91 	"/>
	<polygon fill="#F2F2F2" points="28.68,56.934 28.68,58.458 33.408,65.842 33.408,64.312 	"/>
	<polygon fill="#F2F2F2" points="27.804,40.996 27.804,42.522 23.15,49.902 23.15,48.375 	"/>
	<polygon fill="#F2F2F2" points="27.804,34.691 27.804,36.166 23.15,43.548 23.15,42.022 	"/>
	<polygon fill="#F2F2F2" points="27.804,47.349 27.804,48.826 23.15,56.307 23.15,54.732 	"/>
	<polygon fill="#F2F2F2" points="27.804,53.706 27.804,55.232 23.15,62.661 23.15,61.137 	"/>
</g>
<g opacity="0.15">
	<line fill="#F2F2F2" x1="47.746" y1="-16.449" x2="47.746" y2="-18.026"/>
	<line fill="none" x1="37.486" y1="-14.798" x2="35.434" y2="-11.42"/>
	<line fill="none" x1="49.846" y1="-10.095" x2="48.746" y2="-10.095"/>
	<polygon fill="#F2F2F2" points="43.09,-12.546 43.09,-11.07 47.746,-3.689 47.746,-5.166 	"/>
	<polygon fill="#F2F2F2" points="43.09,-18.853 43.09,-17.375 47.746,-9.996 47.746,-11.42 	"/>
	<polygon fill="#F2F2F2" points="43.09,-6.241 43.09,-4.665 47.746,2.716 47.746,1.19 	"/>
	<polygon fill="#F2F2F2" points="43.09,0.214 43.09,1.69 47.746,9.12 47.746,7.545 	"/>
	<polygon fill="#F2F2F2" points="42.164,-15.773 42.164,-14.198 37.486,-6.817 37.486,-8.343 	"/>
	<line fill="#F2F2F2" x1="37.486" y1="-13.173" x2="37.486" y2="-14.697"/>
	<polygon fill="#F2F2F2" points="42.164,-9.469 42.164,-7.944 37.486,-0.461 37.486,-2.039 	"/>
	<polygon fill="#F2F2F2" points="42.164,-3.015 42.164,-1.488 37.486,5.893 37.486,4.367 	"/>
</g>
<g opacity="0.15">
	<polygon fill="#F2F2F2" points="43.09,12.299 43.09,13.849 47.746,21.204 47.746,19.679 	"/>
	<polygon fill="#F2F2F2" points="43.09,5.943 43.09,7.495 47.746,14.901 47.746,13.324 	"/>
	<polygon fill="#F2F2F2" points="43.09,18.652 43.09,20.178 47.746,27.51 47.746,26.084 	"/>
	<polygon fill="#F2F2F2" points="43.09,25.008 43.09,26.583 47.746,33.964 47.746,32.439 	"/>
	<polygon fill="#F2F2F2" points="43.09,31.364 43.09,32.89 47.746,40.321 47.746,38.792 	"/>
	<polygon fill="#F2F2F2" points="42.164,9.071 42.164,10.596 37.486,18.027 37.486,16.452 	"/>
	<polygon fill="#F2F2F2" points="42.164,2.716 42.164,4.242 37.486,11.672 37.486,10.147 	"/>
	<polygon fill="#F2F2F2" points="42.164,15.425 42.164,17.002 37.486,24.281 37.486,22.857 	"/>
	<polygon fill="#F2F2F2" points="42.164,21.88 42.164,23.356 37.486,30.737 37.486,29.21 	"/>
	<polygon fill="#F2F2F2" points="42.164,28.184 42.164,29.761 37.486,37.093 37.486,35.566 	"/>
	<polygon fill="none" points="35.434,45.299 35.434,13.324 42.164,2.716 42.164,4.566 49.646,16.55 49.846,46.675 48.746,46.675 
		42.564,36.942 42.615,33.964 37.486,41.922 	"/>
	<polygon fill="#F2F2F2" points="43.09,44.223 43.09,45.749 47.746,53.13 47.746,51.604 	"/>
	<polygon fill="#F2F2F2" points="43.09,37.87 43.09,39.394 47.746,46.725 47.746,45.249 	"/>
	<polygon fill="#F2F2F2" points="43.09,50.578 43.09,52.104 47.746,59.484 47.746,57.91 	"/>
	<polygon fill="#F2F2F2" points="43.09,56.934 43.09,58.458 47.746,65.842 47.746,64.312 	"/>
	<polygon fill="#F2F2F2" points="42.164,40.996 42.164,42.522 37.486,49.902 37.486,48.375 	"/>
	<polygon fill="#F2F2F2" points="42.164,34.691 42.164,36.166 37.486,43.548 37.486,42.022 	"/>
	<polygon fill="#F2F2F2" points="42.164,47.349 42.164,48.826 37.486,56.307 37.486,54.732 	"/>
	<polygon fill="#F2F2F2" points="42.164,53.706 42.164,55.232 37.486,62.661 37.486,61.137 	"/>
</g>
<g opacity="0.15">
	<line fill="#F2F2F2" x1="62.056" y1="-16.449" x2="62.056" y2="-18.026"/>
	<line fill="none" x1="51.848" y1="-14.798" x2="49.846" y2="-11.42"/>
	<line fill="none" x1="64.158" y1="-10.095" x2="63.007" y2="-10.095"/>
	<polygon fill="#F2F2F2" points="57.452,-12.546 57.452,-11.07 62.056,-3.689 62.056,-5.166 	"/>
	<polygon fill="#F2F2F2" points="57.452,-18.853 57.452,-17.375 62.056,-9.996 62.056,-11.42 	"/>
	<polygon fill="#F2F2F2" points="57.452,-6.241 57.452,-4.665 62.056,2.716 62.056,1.19 	"/>
	<polygon fill="#F2F2F2" points="57.452,0.214 57.452,1.69 62.056,9.12 62.056,7.545 	"/>
	<polygon fill="#F2F2F2" points="56.501,-15.773 56.501,-14.198 51.848,-6.817 51.848,-8.343 	"/>
	<line fill="#F2F2F2" x1="51.848" y1="-13.173" x2="51.848" y2="-14.697"/>
	<polygon fill="#F2F2F2" points="56.501,-9.469 56.501,-7.944 51.848,-0.461 51.848,-2.039 	"/>
	<polygon fill="#F2F2F2" points="56.501,-3.015 56.501,-1.488 51.848,5.893 51.848,4.367 	"/>
</g>
<g opacity="0.15">
	<polygon fill="#F2F2F2" points="57.452,12.299 57.452,13.849 62.056,21.204 62.056,19.679 	"/>
	<polygon fill="#F2F2F2" points="57.452,5.943 57.452,7.495 62.056,14.901 62.056,13.324 	"/>
	<polygon fill="#F2F2F2" points="57.452,18.652 57.452,20.178 62.056,27.51 62.056,26.084 	"/>
	<polygon fill="#F2F2F2" points="57.452,25.008 57.452,26.583 62.056,33.964 62.056,32.439 	"/>
	<polygon fill="#F2F2F2" points="57.452,31.364 57.452,32.89 62.056,40.321 62.056,38.792 	"/>
	<polygon fill="#F2F2F2" points="56.501,9.071 56.501,10.596 51.848,18.027 51.848,16.452 	"/>
	<polygon fill="#F2F2F2" points="56.501,2.716 56.501,4.242 51.848,11.672 51.848,10.147 	"/>
	<polygon fill="#F2F2F2" points="56.501,15.425 56.501,17.002 51.848,24.281 51.848,22.857 	"/>
	<polygon fill="#F2F2F2" points="56.501,21.88 56.501,23.356 51.848,30.737 51.848,29.21 	"/>
	<polygon fill="#F2F2F2" points="56.501,28.184 56.501,29.761 51.848,37.093 51.848,35.566 	"/>
	<polygon fill="none" points="49.846,45.299 49.846,13.324 56.501,2.716 56.501,4.566 63.958,16.55 64.158,46.675 63.007,46.675 
		56.852,36.942 56.952,33.964 51.848,41.922 	"/>
	<polygon fill="#F2F2F2" points="57.452,44.223 57.452,45.749 62.056,53.13 62.056,51.604 	"/>
	<polygon fill="#F2F2F2" points="57.452,37.87 57.452,39.394 62.056,46.725 62.056,45.249 	"/>
	<polygon fill="#F2F2F2" points="57.452,50.578 57.452,52.104 62.056,59.484 62.056,57.91 	"/>
	<polygon fill="#F2F2F2" points="57.452,56.934 57.452,58.458 62.056,65.842 62.056,64.312 	"/>
	<polygon fill="#F2F2F2" points="56.501,40.996 56.501,42.522 51.848,49.902 51.848,48.375 	"/>
	<polygon fill="#F2F2F2" points="56.501,34.691 56.501,36.166 51.848,43.548 51.848,42.022 	"/>
	<polygon fill="#F2F2F2" points="56.501,47.349 56.501,48.826 51.848,56.307 51.848,54.732 	"/>
	<polygon fill="#F2F2F2" points="56.501,53.706 56.501,55.232 51.848,62.661 51.848,61.137 	"/>
</g>
<g opacity="0.15">
	<line fill="#F2F2F2" x1="76.366" y1="-16.449" x2="76.366" y2="-18.026"/>
	<line fill="none" x1="66.159" y1="-14.798" x2="64.158" y2="-11.42"/>
	<line fill="none" x1="78.469" y1="-10.095" x2="77.418" y2="-10.095"/>
	<polygon fill="#F2F2F2" points="71.713,-12.546 71.713,-11.07 76.366,-3.689 76.366,-5.166 	"/>
	<polygon fill="#F2F2F2" points="71.713,-18.853 71.713,-17.375 76.366,-9.996 76.366,-11.42 	"/>
	<polygon fill="#F2F2F2" points="71.713,-6.241 71.713,-4.665 76.366,2.716 76.366,1.19 	"/>
	<polygon fill="#F2F2F2" points="71.713,0.214 71.713,1.69 76.366,9.12 76.366,7.545 	"/>
	<polygon fill="#F2F2F2" points="70.863,-15.773 70.863,-14.198 66.159,-6.817 66.159,-8.343 	"/>
	<line fill="#F2F2F2" x1="66.159" y1="-13.173" x2="66.159" y2="-14.697"/>
	<polygon fill="#F2F2F2" points="70.863,-9.469 70.863,-7.944 66.159,-0.461 66.159,-2.039 	"/>
	<polygon fill="#F2F2F2" points="70.863,-3.015 70.863,-1.488 66.159,5.893 66.159,4.367 	"/>
</g>
<g opacity="0.15">
	<polygon fill="#F2F2F2" points="71.713,12.299 71.713,13.849 76.366,21.204 76.366,19.679 	"/>
	<polygon fill="#F2F2F2" points="71.713,5.943 71.713,7.495 76.366,14.901 76.366,13.324 	"/>
	<polygon fill="#F2F2F2" points="71.713,18.652 71.713,20.178 76.366,27.51 76.366,26.084 	"/>
	<polygon fill="#F2F2F2" points="71.713,25.008 71.713,26.583 76.366,33.964 76.366,32.439 	"/>
	<polygon fill="#F2F2F2" points="71.713,31.364 71.713,32.89 76.366,40.321 76.366,38.792 	"/>
	<polygon fill="#F2F2F2" points="70.863,9.071 70.863,10.596 66.159,18.027 66.159,16.452 	"/>
	<polygon fill="#F2F2F2" points="70.863,2.716 70.863,4.242 66.159,11.672 66.159,10.147 	"/>
	<polygon fill="#F2F2F2" points="70.863,15.425 70.863,17.002 66.159,24.281 66.159,22.857 	"/>
	<polygon fill="#F2F2F2" points="70.863,21.88 70.863,23.356 66.159,30.737 66.159,29.21 	"/>
	<polygon fill="#F2F2F2" points="70.863,28.184 70.863,29.761 66.159,37.093 66.159,35.566 	"/>
	<polygon fill="none" points="64.158,45.299 64.158,13.324 70.863,2.716 70.863,4.566 78.369,16.55 78.469,46.675 77.418,46.675 
		71.213,36.942 71.263,33.964 66.159,41.922 	"/>
	<polygon fill="#F2F2F2" points="71.713,44.223 71.713,45.749 76.366,53.13 76.366,51.604 	"/>
	<polygon fill="#F2F2F2" points="71.713,37.87 71.713,39.394 76.366,46.725 76.366,45.249 	"/>
	<polygon fill="#F2F2F2" points="71.713,50.578 71.713,52.104 76.366,59.484 76.366,57.91 	"/>
	<polygon fill="#F2F2F2" points="71.713,56.934 71.713,58.458 76.366,65.842 76.366,64.312 	"/>
	<polygon fill="#F2F2F2" points="70.863,40.996 70.863,42.522 66.159,49.902 66.159,48.375 	"/>
	<polygon fill="#F2F2F2" points="70.863,34.691 70.863,36.166 66.159,43.548 66.159,42.022 	"/>
	<polygon fill="#F2F2F2" points="70.863,47.349 70.863,48.826 66.159,56.307 66.159,54.732 	"/>
	<polygon fill="#F2F2F2" points="70.863,53.706 70.863,55.232 66.159,62.661 66.159,61.137 	"/>
</g>
<g opacity="0.15">
	<line fill="#F2F2F2" x1="90.729" y1="-16.449" x2="90.729" y2="-18.026"/>
	<line fill="none" x1="80.471" y1="-14.798" x2="78.469" y2="-11.42"/>
	<line fill="none" x1="92.781" y1="-10.095" x2="91.679" y2="-10.095"/>
	<polygon fill="#F2F2F2" points="86.076,-12.546 86.076,-11.07 90.729,-3.689 90.729,-5.166 	"/>
	<polygon fill="#F2F2F2" points="86.076,-18.853 86.076,-17.375 90.729,-9.996 90.729,-11.42 	"/>
	<polygon fill="#F2F2F2" points="86.076,-6.241 86.076,-4.665 90.729,2.716 90.729,1.19 	"/>
	<polygon fill="#F2F2F2" points="86.076,0.214 86.076,1.69 90.729,9.12 90.729,7.545 	"/>
	<polygon fill="#F2F2F2" points="85.174,-15.773 85.174,-14.198 80.471,-6.817 80.471,-8.343 	"/>
	<line fill="#F2F2F2" x1="80.471" y1="-13.173" x2="80.471" y2="-14.697"/>
	<polygon fill="#F2F2F2" points="85.174,-9.469 85.174,-7.944 80.471,-0.461 80.471,-2.039 	"/>
	<polygon fill="#F2F2F2" points="85.174,-3.015 85.174,-1.488 80.471,5.893 80.471,4.367 	"/>
</g>
<g opacity="0.15">
	<polygon fill="#F2F2F2" points="86.076,12.299 86.076,13.849 90.729,21.204 90.729,19.679 	"/>
	<polygon fill="#F2F2F2" points="86.076,5.943 86.076,7.495 90.729,14.901 90.729,13.324 	"/>
	<polygon fill="#F2F2F2" points="86.076,18.652 86.076,20.178 90.729,27.51 90.729,26.084 	"/>
	<polygon fill="#F2F2F2" points="86.076,25.008 86.076,26.583 90.729,33.964 90.729,32.439 	"/>
	<polygon fill="#F2F2F2" points="86.076,31.364 86.076,32.89 90.729,40.321 90.729,38.792 	"/>
	<polygon fill="#F2F2F2" points="85.174,9.071 85.174,10.596 80.471,18.027 80.471,16.452 	"/>
	<polygon fill="#F2F2F2" points="85.174,2.716 85.174,4.242 80.471,11.672 80.471,10.147 	"/>
	<polygon fill="#F2F2F2" points="85.174,15.425 85.174,17.002 80.471,24.281 80.471,22.857 	"/>
	<polygon fill="#F2F2F2" points="85.174,21.88 85.174,23.356 80.471,30.737 80.471,29.21 	"/>
	<polygon fill="#F2F2F2" points="85.174,28.184 85.174,29.761 80.471,37.093 80.471,35.566 	"/>
	<polygon fill="none" points="78.469,45.299 78.469,13.324 85.174,2.716 85.174,4.566 92.63,16.55 92.781,46.675 91.679,46.675 
		85.575,36.942 85.624,33.964 80.471,41.922 	"/>
	<polygon fill="#F2F2F2" points="86.076,44.223 86.076,45.749 90.729,53.13 90.729,51.604 	"/>
	<polygon fill="#F2F2F2" points="86.076,37.87 86.076,39.394 90.729,46.725 90.729,45.249 	"/>
	<polygon fill="#F2F2F2" points="86.076,50.578 86.076,52.104 90.729,59.484 90.729,57.91 	"/>
	<polygon fill="#F2F2F2" points="86.076,56.934 86.076,58.458 90.729,65.842 90.729,64.312 	"/>
	<polygon fill="#F2F2F2" points="85.174,40.996 85.174,42.522 80.471,49.902 80.471,48.375 	"/>
	<polygon fill="#F2F2F2" points="85.174,34.691 85.174,36.166 80.471,43.548 80.471,42.022 	"/>
	<polygon fill="#F2F2F2" points="85.174,47.349 85.174,48.826 80.471,56.307 80.471,54.732 	"/>
	<polygon fill="#F2F2F2" points="85.174,53.706 85.174,55.232 80.471,62.661 80.471,61.137 	"/>
</g>
<g opacity="0.15">
	<line fill="#F2F2F2" x1="105.09" y1="-16.449" x2="105.09" y2="-18.026"/>
	<line fill="none" x1="94.88" y1="-14.798" x2="92.781" y2="-11.42"/>
	<line fill="none" x1="107.144" y1="-10.095" x2="106.09" y2="-10.095"/>
	<polygon fill="#F2F2F2" points="100.384,-12.546 100.384,-11.07 105.09,-3.689 105.09,-5.166 	"/>
	<polygon fill="#F2F2F2" points="100.384,-18.853 100.384,-17.375 105.09,-9.996 105.09,-11.42 	"/>
	<polygon fill="#F2F2F2" points="100.384,-6.241 100.384,-4.665 105.09,2.716 105.09,1.19 	"/>
	<polygon fill="#F2F2F2" points="100.384,0.214 100.384,1.69 105.09,9.12 105.09,7.545 	"/>
	<polygon fill="#F2F2F2" points="99.485,-15.773 99.485,-14.198 94.88,-6.817 94.88,-8.343 	"/>
	<line fill="#F2F2F2" x1="94.88" y1="-13.173" x2="94.88" y2="-14.697"/>
	<polygon fill="#F2F2F2" points="99.485,-9.469 99.485,-7.944 94.88,-0.461 94.88,-2.039 	"/>
	<polygon fill="#F2F2F2" points="99.485,-3.015 99.485,-1.488 94.88,5.893 94.88,4.367 	"/>
</g>
<g opacity="0.15">
	<polygon fill="#F2F2F2" points="100.384,12.299 100.384,13.849 105.09,21.204 105.09,19.679 	"/>
	<polygon fill="#F2F2F2" points="100.384,5.943 100.384,7.495 105.09,14.901 105.09,13.324 	"/>
	<polygon fill="#F2F2F2" points="100.384,18.652 100.384,20.178 105.09,27.51 105.09,26.084 	"/>
	<polygon fill="#F2F2F2" points="100.384,25.008 100.384,26.583 105.09,33.964 105.09,32.439 	"/>
	<polygon fill="#F2F2F2" points="100.384,31.364 100.384,32.89 105.09,40.321 105.09,38.792 	"/>
	<polygon fill="#F2F2F2" points="99.485,9.071 99.485,10.596 94.88,18.027 94.88,16.452 	"/>
	<polygon fill="#F2F2F2" points="99.485,2.716 99.485,4.242 94.88,11.672 94.88,10.147 	"/>
	<polygon fill="#F2F2F2" points="99.485,15.425 99.485,17.002 94.88,24.281 94.88,22.857 	"/>
	<polygon fill="#F2F2F2" points="99.485,21.88 99.485,23.356 94.88,30.737 94.88,29.21 	"/>
	<polygon fill="#F2F2F2" points="99.485,28.184 99.485,29.761 94.88,37.093 94.88,35.566 	"/>
	<polygon fill="none" points="92.781,45.299 92.781,13.324 99.485,2.716 99.485,4.566 106.992,16.55 107.144,46.675 106.09,46.675 
		99.885,36.942 99.984,33.964 94.88,41.922 	"/>
	<polygon fill="#F2F2F2" points="100.384,44.223 100.384,45.749 105.09,53.13 105.09,51.604 	"/>
	<polygon fill="#F2F2F2" points="100.384,37.87 100.384,39.394 105.09,46.725 105.09,45.249 	"/>
	<polygon fill="#F2F2F2" points="100.384,50.578 100.384,52.104 105.09,59.484 105.09,57.91 	"/>
	<polygon fill="#F2F2F2" points="100.384,56.934 100.384,58.458 105.09,65.842 105.09,64.312 	"/>
	<polygon fill="#F2F2F2" points="99.485,40.996 99.485,42.522 94.88,49.902 94.88,48.375 	"/>
	<polygon fill="#F2F2F2" points="99.485,34.691 99.485,36.166 94.88,43.548 94.88,42.022 	"/>
	<polygon fill="#F2F2F2" points="99.485,47.349 99.485,48.826 94.88,56.307 94.88,54.732 	"/>
	<polygon fill="#F2F2F2" points="99.485,53.706 99.485,55.232 94.88,62.661 94.88,61.137 	"/>
</g>
<g opacity="0.15">
	<line fill="#F2F2F2" x1="119.4" y1="-16.449" x2="119.4" y2="-18.026"/>
	<line fill="none" x1="109.192" y1="-14.798" x2="107.144" y2="-11.42"/>
	<line fill="none" x1="121.502" y1="-10.095" x2="120.352" y2="-10.095"/>
	<polygon fill="#F2F2F2" points="114.797,-12.546 114.797,-11.07 119.4,-3.689 119.4,-5.166 	"/>
	<polygon fill="#F2F2F2" points="114.797,-18.853 114.797,-17.375 119.4,-9.996 119.4,-11.42 	"/>
	<polygon fill="#F2F2F2" points="114.797,-6.241 114.797,-4.665 119.4,2.716 119.4,1.19 	"/>
	<polygon fill="#F2F2F2" points="114.797,0.214 114.797,1.69 119.4,9.12 119.4,7.545 	"/>
	<polygon fill="#F2F2F2" points="113.849,-15.773 113.849,-14.198 109.192,-6.817 109.192,-8.343 	"/>
	<line fill="#F2F2F2" x1="109.192" y1="-13.173" x2="109.192" y2="-14.697"/>
	<polygon fill="#F2F2F2" points="113.849,-9.469 113.849,-7.944 109.192,-0.461 109.192,-2.039 	"/>
	<polygon fill="#F2F2F2" points="113.849,-3.015 113.849,-1.488 109.192,5.893 109.192,4.367 	"/>
</g>
<g opacity="0.15">
	<polygon fill="#F2F2F2" points="114.797,12.299 114.797,13.849 119.4,21.204 119.4,19.679 	"/>
	<polygon fill="#F2F2F2" points="114.797,5.943 114.797,7.495 119.4,14.901 119.4,13.324 	"/>
	<polygon fill="#F2F2F2" points="114.797,18.652 114.797,20.178 119.4,27.51 119.4,26.084 	"/>
	<polygon fill="#F2F2F2" points="114.797,25.008 114.797,26.583 119.4,33.964 119.4,32.439 	"/>
	<polygon fill="#F2F2F2" points="114.797,31.364 114.797,32.89 119.4,40.321 119.4,38.792 	"/>
	<polygon fill="#F2F2F2" points="113.849,9.071 113.849,10.596 109.192,18.027 109.192,16.452 	"/>
	<polygon fill="#F2F2F2" points="113.849,2.716 113.849,4.242 109.192,11.672 109.192,10.147 	"/>
	<polygon fill="#F2F2F2" points="113.849,15.425 113.849,17.002 109.192,24.281 109.192,22.857 	"/>
	<polygon fill="#F2F2F2" points="113.849,21.88 113.849,23.356 109.192,30.737 109.192,29.21 	"/>
	<polygon fill="#F2F2F2" points="113.849,28.184 113.849,29.761 109.192,37.093 109.192,35.566 	"/>
	<polygon fill="none" points="107.144,45.299 107.144,13.324 113.849,2.716 113.849,4.566 121.402,16.55 121.502,46.675 
		120.352,46.675 114.199,36.942 114.297,33.964 109.192,41.922 	"/>
	<polygon fill="#F2F2F2" points="114.797,44.223 114.797,45.749 119.4,53.13 119.4,51.604 	"/>
	<polygon fill="#F2F2F2" points="114.797,37.87 114.797,39.394 119.4,46.725 119.4,45.249 	"/>
	<polygon fill="#F2F2F2" points="114.797,50.578 114.797,52.104 119.4,59.484 119.4,57.91 	"/>
	<polygon fill="#F2F2F2" points="114.797,56.934 114.797,58.458 119.4,65.842 119.4,64.312 	"/>
	<polygon fill="#F2F2F2" points="113.849,40.996 113.849,42.522 109.192,49.902 109.192,48.375 	"/>
	<polygon fill="#F2F2F2" points="113.849,34.691 113.849,36.166 109.192,43.548 109.192,42.022 	"/>
	<polygon fill="#F2F2F2" points="113.849,47.349 113.849,48.826 109.192,56.307 109.192,54.732 	"/>
	<polygon fill="#F2F2F2" points="113.849,53.706 113.849,55.232 109.192,62.661 109.192,61.137 	"/>
</g>
<g opacity="0.15">
	<line fill="#F2F2F2" x1="133.811" y1="-16.449" x2="133.811" y2="-18.026"/>
	<line fill="none" x1="123.504" y1="-14.798" x2="121.502" y2="-11.42"/>
	<line fill="none" x1="135.764" y1="-10.095" x2="134.71" y2="-10.095"/>
	<polygon fill="#F2F2F2" points="129.059,-12.546 129.059,-11.07 133.811,-3.689 133.811,-5.166 	"/>
	<polygon fill="#F2F2F2" points="129.059,-18.853 129.059,-17.375 133.811,-9.996 133.811,-11.42 	"/>
	<polygon fill="#F2F2F2" points="129.059,-6.241 129.059,-4.665 133.811,2.716 133.811,1.19 	"/>
	<polygon fill="#F2F2F2" points="129.059,0.214 129.059,1.69 133.811,9.12 133.811,7.545 	"/>
	<polygon fill="#F2F2F2" points="128.208,-15.773 128.208,-14.198 123.504,-6.817 123.504,-8.343 	"/>
	<line fill="#F2F2F2" x1="123.504" y1="-13.173" x2="123.504" y2="-14.697"/>
	<polygon fill="#F2F2F2" points="128.208,-9.469 128.208,-7.944 123.504,-0.461 123.504,-2.039 	"/>
	<polygon fill="#F2F2F2" points="128.208,-3.015 128.208,-1.488 123.504,5.893 123.504,4.367 	"/>
</g>
<g opacity="0.15">
	<polygon fill="#F2F2F2" points="129.059,12.299 129.059,13.849 133.811,21.204 133.811,19.679 	"/>
	<polygon fill="#F2F2F2" points="129.059,5.943 129.059,7.495 133.811,14.901 133.811,13.324 	"/>
	<polygon fill="#F2F2F2" points="129.059,18.652 129.059,20.178 133.811,27.51 133.811,26.084 	"/>
	<polygon fill="#F2F2F2" points="129.059,25.008 129.059,26.583 133.811,33.964 133.811,32.439 	"/>
	<polygon fill="#F2F2F2" points="129.059,31.364 129.059,32.89 133.811,40.321 133.811,38.792 	"/>
	<polygon fill="#F2F2F2" points="128.208,9.071 128.208,10.596 123.504,18.027 123.504,16.452 	"/>
	<polygon fill="#F2F2F2" points="128.208,2.716 128.208,4.242 123.504,11.672 123.504,10.147 	"/>
	<polygon fill="#F2F2F2" points="128.208,15.425 128.208,17.002 123.504,24.281 123.504,22.857 	"/>
	<polygon fill="#F2F2F2" points="128.208,21.88 128.208,23.356 123.504,30.737 123.504,29.21 	"/>
	<polygon fill="#F2F2F2" points="128.208,28.184 128.208,29.761 123.504,37.093 123.504,35.566 	"/>
	<polygon fill="none" points="121.502,45.299 121.502,13.324 128.208,2.716 128.208,4.566 135.713,16.55 135.764,46.675 
		134.71,46.675 128.508,36.942 128.658,33.964 123.504,41.922 	"/>
	<polygon fill="#F2F2F2" points="129.059,44.223 129.059,45.749 133.811,53.13 133.811,51.604 	"/>
	<polygon fill="#F2F2F2" points="129.059,37.87 129.059,39.394 133.811,46.725 133.811,45.249 	"/>
	<polygon fill="#F2F2F2" points="129.059,50.578 129.059,52.104 133.811,59.484 133.811,57.91 	"/>
	<polygon fill="#F2F2F2" points="129.059,56.934 129.059,58.458 133.811,65.842 133.811,64.312 	"/>
	<polygon fill="#F2F2F2" points="128.208,40.996 128.208,42.522 123.504,49.902 123.504,48.375 	"/>
	<polygon fill="#F2F2F2" points="128.208,34.691 128.208,36.166 123.504,43.548 123.504,42.022 	"/>
	<polygon fill="#F2F2F2" points="128.208,47.349 128.208,48.826 123.504,56.307 123.504,54.732 	"/>
	<polygon fill="#F2F2F2" points="128.208,53.706 128.208,55.232 123.504,62.661 123.504,61.137 	"/>
</g>
</svg>
