<?xml version="1.0" encoding="utf-8"?>
<!-- Generator: Adobe Illustrator 16.0.4, SVG Export Plug-In . SVG Version: 6.00 Build 0)  -->
<!DOCTYPE svg PUBLIC "-//W3C//DTD SVG 1.1//EN" "http://www.w3.org/Graphics/SVG/1.1/DTD/svg11.dtd">
<svg version="1.1" xmlns="http://www.w3.org/2000/svg" xmlns:xlink="http://www.w3.org/1999/xlink" x="0px" y="0px" width="960px"
	 height="55px" viewBox="0 0 960 55" enable-background="new 0 0 960 55" xml:space="preserve">
<g id="Calque_1">
	<g opacity="0.6">
		<line fill="#F7BA0A" x1="-25.285" y1="13.808" x2="-27.014" y2="13.808"/>
		<polygon fill="#F7BA0A" points="-28.178,19.037 -26.449,19.037 -18.203,13.808 -19.93,13.808 		"/>
		<polygon fill="#F7BA0A" points="-21.06,19.037 -19.333,19.037 -11.084,13.808 -12.813,13.808 		"/>
		<polygon fill="#F7BA0A" points="-13.948,19.037 -12.221,19.037 -3.975,13.808 -5.702,13.808 		"/>
		<line fill="#F7BA0A" x1="-28.858" y1="25.232" x2="-30.587" y2="25.232"/>
		<polygon fill="#F7BA0A" points="-31.75,20.005 -30.021,20.005 -21.775,25.232 -23.504,25.232 		"/>
		<polygon fill="#F7BA0A" points="-24.633,20.005 -22.904,20.005 -14.657,25.232 -16.386,25.232 		"/>
		<polygon fill="#F7BA0A" points="-17.521,20.005 -15.794,20.005 -7.546,25.232 -9.274,25.232 		"/>
		<polyline fill="none" points="-30.537,11.669 3.109,11.503 3.109,12.746 -7.695,19.592 -11.084,19.525 -2.177,25.232 1.591,27.5 
					"/>
		<polygon fill="#F7BA0A" points="0.345,19.037 2.074,19.037 10.32,13.808 8.592,13.808 		"/>
		<polygon fill="#F7BA0A" points="-6.708,19.037 -4.979,19.037 3.267,13.808 1.538,13.808 		"/>
		<polygon fill="#F7BA0A" points="7.429,19.037 9.157,19.037 17.404,13.808 15.675,13.808 		"/>
		<polygon fill="#F7BA0A" points="14.545,19.037 16.274,19.037 24.521,13.808 22.792,13.808 		"/>
		<polygon fill="#F7BA0A" points="21.657,19.037 23.386,19.037 31.632,13.808 29.904,13.808 		"/>
		<polygon fill="#F7BA0A" points="-3.227,20.005 -1.498,20.005 6.748,25.232 5.019,25.232 		"/>
		<polygon fill="#F7BA0A" points="-10.313,20.005 -8.585,20.005 -0.338,25.232 -2.067,25.232 		"/>
		<polygon fill="#F7BA0A" points="3.857,20.005 5.585,20.005 13.831,25.232 12.102,25.232 		"/>
		<polygon fill="#F7BA0A" points="10.973,20.005 12.702,20.005 20.948,25.232 19.22,25.232 		"/>
		<polygon fill="#F7BA0A" points="18.084,20.005 19.813,20.005 28.06,25.232 26.332,25.232 		"/>
		<polygon fill="none" points="37.196,27.5 1.521,27.5 -10.313,20.005 -8.246,20.005 5.069,11.669 38.715,11.503 38.715,12.746 
			27.91,19.592 24.521,19.525 33.43,25.232 		"/>
		<polygon fill="#F7BA0A" points="36.029,19.037 37.757,19.037 46.004,13.808 44.276,13.808 		"/>
		<polygon fill="#F7BA0A" points="28.975,19.037 30.704,19.037 38.951,13.808 37.222,13.808 		"/>
		<polygon fill="#F7BA0A" points="43.113,19.037 44.84,19.037 53.087,13.808 51.359,13.808 		"/>
		<polygon fill="#F7BA0A" points="50.229,19.037 51.958,19.037 60.204,13.808 58.476,13.808 		"/>
		<polygon fill="#F7BA0A" points="57.341,19.037 59.069,19.037 67.315,13.808 65.588,13.808 		"/>
		<polygon fill="#F7BA0A" points="32.457,20.005 34.186,20.005 42.432,25.232 40.703,25.232 		"/>
		<polygon fill="#F7BA0A" points="25.37,20.005 27.099,20.005 35.346,25.232 33.617,25.232 		"/>
		<polygon fill="#F7BA0A" points="39.541,20.005 41.268,20.005 49.515,25.232 47.786,25.232 		"/>
		<polygon fill="#F7BA0A" points="46.657,20.005 48.386,20.005 56.632,25.232 54.903,25.232 		"/>
		<polygon fill="#F7BA0A" points="53.768,20.005 55.497,20.005 63.743,25.232 62.016,25.232 		"/>
		<polygon fill="none" points="72.88,27.5 37.204,27.5 25.37,20.005 27.437,20.005 40.753,11.669 74.399,11.503 74.399,12.746 
			63.594,19.592 60.204,19.525 69.114,25.232 		"/>
		<polygon fill="#F7BA0A" points="71.777,19.037 73.505,19.037 81.753,13.808 80.024,13.808 		"/>
		<polygon fill="#F7BA0A" points="64.723,19.037 66.452,19.037 74.699,13.808 72.971,13.808 		"/>
		<polygon fill="#F7BA0A" points="78.86,19.037 80.589,19.037 88.835,13.808 87.107,13.808 		"/>
		<polygon fill="#F7BA0A" points="85.978,19.037 87.706,19.037 95.953,13.808 94.224,13.808 		"/>
		<polygon fill="#F7BA0A" points="93.089,19.037 94.817,19.037 103.065,13.808 101.336,13.808 		"/>
		<polygon fill="#F7BA0A" points="68.205,20.005 69.934,20.005 78.18,25.232 76.452,25.232 		"/>
		<polygon fill="#F7BA0A" points="61.118,20.005 62.847,20.005 71.094,25.232 69.365,25.232 		"/>
		<polygon fill="#F7BA0A" points="75.288,20.005 77.017,20.005 85.263,25.232 83.534,25.232 		"/>
		<polygon fill="#F7BA0A" points="82.406,20.005 84.134,20.005 92.38,25.232 90.652,25.232 		"/>
		<polygon fill="#F7BA0A" points="89.517,20.005 91.245,20.005 99.492,25.232 97.764,25.232 		"/>
		<polygon fill="none" points="108.629,27.5 72.953,27.5 61.118,20.005 63.186,20.005 76.5,11.669 110.148,11.503 110.148,12.746 
			99.343,19.592 95.953,19.525 104.862,25.232 		"/>
		<polygon fill="#F7BA0A" points="107.388,19.037 109.116,19.037 117.363,13.808 115.634,13.808 		"/>
		<polygon fill="#F7BA0A" points="100.334,19.037 102.063,19.037 110.31,13.808 108.581,13.808 		"/>
		<polygon fill="#F7BA0A" points="114.472,19.037 116.199,19.037 124.446,13.808 122.717,13.808 		"/>
		<polygon fill="#F7BA0A" points="121.588,19.037 123.317,19.037 131.562,13.808 129.834,13.808 		"/>
		<polygon fill="#F7BA0A" points="128.698,19.037 130.427,19.037 138.674,13.808 136.947,13.808 		"/>
		<polygon fill="#F7BA0A" points="103.815,20.005 105.544,20.005 113.789,25.232 112.062,25.232 		"/>
		<polygon fill="#F7BA0A" points="96.729,20.005 98.458,20.005 106.704,25.232 104.975,25.232 		"/>
		<polygon fill="#F7BA0A" points="110.899,20.005 112.627,20.005 120.874,25.232 119.145,25.232 		"/>
		<polygon fill="#F7BA0A" points="118.016,20.005 119.745,20.005 127.99,25.232 126.262,25.232 		"/>
		<polygon fill="#F7BA0A" points="125.126,20.005 126.855,20.005 135.102,25.232 133.375,25.232 		"/>
		<polygon fill="none" points="144.239,27.5 108.562,27.5 96.729,20.005 98.796,20.005 112.112,11.669 145.758,11.503 
			145.758,12.746 134.953,19.592 131.562,19.525 140.472,25.232 		"/>
	</g>
	<g opacity="0.6">
		<polygon fill="#F7BA0A" points="142.221,19.037 143.95,19.037 152.197,13.808 150.468,13.808 		"/>
		<polygon fill="#F7BA0A" points="135.168,19.037 136.896,19.037 145.144,13.808 143.415,13.808 		"/>
		<polygon fill="#F7BA0A" points="149.306,19.037 151.033,19.037 159.28,13.808 157.552,13.808 		"/>
		<polygon fill="#F7BA0A" points="156.422,19.037 158.151,19.037 166.397,13.808 164.668,13.808 		"/>
		<polygon fill="#F7BA0A" points="163.533,19.037 165.262,19.037 173.508,13.808 171.78,13.808 		"/>
		<polygon fill="#F7BA0A" points="138.649,20.005 140.378,20.005 148.623,25.232 146.896,25.232 		"/>
		<polygon fill="#F7BA0A" points="131.562,20.005 133.291,20.005 141.538,25.232 139.809,25.232 		"/>
		<polygon fill="#F7BA0A" points="145.733,20.005 147.46,20.005 155.707,25.232 153.978,25.232 		"/>
		<polygon fill="#F7BA0A" points="152.85,20.005 154.579,20.005 162.824,25.232 161.096,25.232 		"/>
		<polygon fill="#F7BA0A" points="159.96,20.005 161.689,20.005 169.936,25.232 168.207,25.232 		"/>
		<polygon fill="none" points="179.073,27.5 143.397,27.5 131.562,20.005 133.63,20.005 146.946,11.669 180.591,11.503 
			180.591,12.746 169.787,19.592 166.397,19.525 175.306,25.232 		"/>
		<polygon fill="#F7BA0A" points="177.827,19.037 179.556,19.037 187.803,13.808 186.075,13.808 		"/>
		<polygon fill="#F7BA0A" points="170.775,19.037 172.502,19.037 180.749,13.808 179.021,13.808 		"/>
		<polygon fill="#F7BA0A" points="184.911,19.037 186.64,19.037 194.886,13.808 193.158,13.808 		"/>
		<polygon fill="#F7BA0A" points="192.028,19.037 193.757,19.037 202.003,13.808 200.275,13.808 		"/>
		<polygon fill="#F7BA0A" points="199.139,19.037 200.868,19.037 209.115,13.808 207.386,13.808 		"/>
		<polygon fill="#F7BA0A" points="174.255,20.005 175.983,20.005 184.23,25.232 182.502,25.232 		"/>
		<polygon fill="#F7BA0A" points="167.169,20.005 168.897,20.005 177.144,25.232 175.416,25.232 		"/>
		<polygon fill="#F7BA0A" points="181.339,20.005 183.068,20.005 191.313,25.232 189.585,25.232 		"/>
		<polygon fill="#F7BA0A" points="188.456,20.005 190.184,20.005 198.43,25.232 196.702,25.232 		"/>
		<polygon fill="#F7BA0A" points="195.566,20.005 197.295,20.005 205.542,25.232 203.814,25.232 		"/>
		<polygon fill="none" points="214.679,27.5 179.003,27.5 167.169,20.005 169.237,20.005 182.551,11.669 216.198,11.503 
			216.198,12.746 205.393,19.592 202.003,19.525 210.912,25.232 		"/>
		<polygon fill="#F7BA0A" points="213.511,19.037 215.24,19.037 223.486,13.808 221.758,13.808 		"/>
		<polygon fill="#F7BA0A" points="206.458,19.037 208.186,19.037 216.433,13.808 214.705,13.808 		"/>
		<polygon fill="#F7BA0A" points="220.595,19.037 222.323,19.037 230.57,13.808 228.842,13.808 		"/>
		<polygon fill="#F7BA0A" points="227.711,19.037 229.44,19.037 237.687,13.808 235.958,13.808 		"/>
		<polygon fill="#F7BA0A" points="234.823,19.037 236.551,19.037 244.798,13.808 243.07,13.808 		"/>
		<polygon fill="#F7BA0A" points="209.939,20.005 211.667,20.005 219.913,25.232 218.185,25.232 		"/>
		<polygon fill="#F7BA0A" points="202.854,20.005 204.582,20.005 212.828,25.232 211.099,25.232 		"/>
		<polygon fill="#F7BA0A" points="217.022,20.005 218.751,20.005 226.997,25.232 225.268,25.232 		"/>
		<polygon fill="#F7BA0A" points="224.139,20.005 225.867,20.005 234.114,25.232 232.386,25.232 		"/>
		<polygon fill="#F7BA0A" points="231.25,20.005 232.979,20.005 241.226,25.232 239.497,25.232 		"/>
		<polygon fill="none" points="250.362,27.5 214.687,27.5 202.854,20.005 204.92,20.005 218.235,11.669 251.881,11.503 
			251.881,12.746 241.077,19.592 237.687,19.525 246.595,25.232 		"/>
		<polygon fill="#F7BA0A" points="249.26,19.037 250.988,19.037 259.235,13.808 257.506,13.808 		"/>
		<polygon fill="#F7BA0A" points="242.207,19.037 243.934,19.037 252.181,13.808 250.453,13.808 		"/>
		<polygon fill="#F7BA0A" points="256.343,19.037 258.072,19.037 266.318,13.808 264.59,13.808 		"/>
		<polygon fill="#F7BA0A" points="263.46,19.037 265.188,19.037 273.436,13.808 271.707,13.808 		"/>
		<polygon fill="#F7BA0A" points="270.57,19.037 272.299,19.037 280.547,13.808 278.818,13.808 		"/>
		<polygon fill="#F7BA0A" points="245.688,20.005 247.416,20.005 255.662,25.232 253.933,25.232 		"/>
		<polygon fill="#F7BA0A" points="238.601,20.005 240.329,20.005 248.576,25.232 246.847,25.232 		"/>
		<polygon fill="#F7BA0A" points="252.771,20.005 254.499,20.005 262.745,25.232 261.017,25.232 		"/>
		<polygon fill="#F7BA0A" points="259.888,20.005 261.616,20.005 269.863,25.232 268.134,25.232 		"/>
		<polygon fill="#F7BA0A" points="266.999,20.005 268.727,20.005 276.975,25.232 275.246,25.232 		"/>
		<polygon fill="none" points="286.111,27.5 250.436,27.5 238.601,20.005 240.668,20.005 253.984,11.669 287.63,11.503 
			287.63,12.746 276.825,19.592 273.436,19.525 282.345,25.232 		"/>
		<polygon fill="#F7BA0A" points="284.87,19.037 286.599,19.037 294.845,13.808 293.116,13.808 		"/>
		<polygon fill="#F7BA0A" points="277.816,19.037 279.545,19.037 287.792,13.808 286.062,13.808 		"/>
		<polygon fill="#F7BA0A" points="291.953,19.037 293.682,19.037 301.928,13.808 300.199,13.808 		"/>
		<polygon fill="#F7BA0A" points="299.07,19.037 300.799,19.037 309.045,13.808 307.317,13.808 		"/>
		<polygon fill="#F7BA0A" points="306.181,19.037 307.911,19.037 316.157,13.808 314.428,13.808 		"/>
		<polygon fill="#F7BA0A" points="281.298,20.005 283.026,20.005 291.272,25.232 289.544,25.232 		"/>
		<polygon fill="#F7BA0A" points="274.211,20.005 275.94,20.005 284.186,25.232 282.457,25.232 		"/>
		<polygon fill="#F7BA0A" points="288.381,20.005 290.109,20.005 298.355,25.232 296.626,25.232 		"/>
		<polygon fill="#F7BA0A" points="295.498,20.005 297.227,20.005 305.473,25.232 303.745,25.232 		"/>
		<polygon fill="#F7BA0A" points="302.609,20.005 304.337,20.005 312.585,25.232 310.856,25.232 		"/>
		<polygon fill="none" points="321.721,27.5 286.044,27.5 274.211,20.005 276.279,20.005 289.593,11.669 323.24,11.503 
			323.24,12.746 312.435,19.592 309.045,19.525 317.954,25.232 		"/>
	</g>
	<g opacity="0.6">
		<line fill="#F7BA0A" x1="-25.285" y1="29.805" x2="-27.014" y2="29.805"/>
		<polygon fill="#F7BA0A" points="-28.178,35.032 -26.449,35.032 -18.203,29.805 -19.93,29.805 		"/>
		<polygon fill="#F7BA0A" points="-21.06,35.032 -19.333,35.032 -11.084,29.805 -12.813,29.805 		"/>
		<polygon fill="#F7BA0A" points="-13.948,35.032 -12.221,35.032 -3.975,29.805 -5.702,29.805 		"/>
		<line fill="#F7BA0A" x1="-28.858" y1="41.229" x2="-30.587" y2="41.229"/>
		<polygon fill="#F7BA0A" points="-31.75,36.002 -30.021,36.002 -21.775,41.229 -23.504,41.229 		"/>
		<polygon fill="#F7BA0A" points="-24.633,36.002 -22.904,36.002 -14.657,41.229 -16.386,41.229 		"/>
		<polygon fill="#F7BA0A" points="-17.521,36.002 -15.794,36.002 -7.546,41.229 -9.274,41.229 		"/>
		<polyline fill="none" points="-30.537,27.667 3.109,27.5 3.109,28.741 -7.695,35.588 -11.084,35.52 -2.177,41.229 1.591,43.496 		
			"/>
		<polygon fill="#F7BA0A" points="0.345,35.032 2.074,35.032 10.32,29.805 8.592,29.805 		"/>
		<polygon fill="#F7BA0A" points="-6.708,35.032 -4.979,35.032 3.267,29.805 1.538,29.805 		"/>
		<polygon fill="#F7BA0A" points="7.429,35.032 9.157,35.032 17.404,29.805 15.675,29.805 		"/>
		<polygon fill="#F7BA0A" points="14.545,35.032 16.274,35.032 24.521,29.805 22.792,29.805 		"/>
		<polygon fill="#F7BA0A" points="21.657,35.032 23.386,35.032 31.632,29.805 29.904,29.805 		"/>
		<polygon fill="#F7BA0A" points="-3.227,36.002 -1.498,36.002 6.748,41.229 5.019,41.229 		"/>
		<polygon fill="#F7BA0A" points="-10.313,36.002 -8.585,36.002 -0.338,41.229 -2.067,41.229 		"/>
		<polygon fill="#F7BA0A" points="3.857,36.002 5.585,36.002 13.831,41.229 12.102,41.229 		"/>
		<polygon fill="#F7BA0A" points="10.973,36.002 12.702,36.002 20.948,41.229 19.22,41.229 		"/>
		<polygon fill="#F7BA0A" points="18.084,36.002 19.813,36.002 28.06,41.229 26.332,41.229 		"/>
		<polygon fill="none" points="37.196,43.496 1.521,43.496 -10.313,36.002 -8.246,36.002 5.069,27.667 38.715,27.5 38.715,28.741 
			27.91,35.588 24.521,35.52 33.43,41.229 		"/>
		<polygon fill="#F7BA0A" points="36.029,35.032 37.757,35.032 46.004,29.805 44.276,29.805 		"/>
		<polygon fill="#F7BA0A" points="28.975,35.032 30.704,35.032 38.951,29.805 37.222,29.805 		"/>
		<polygon fill="#F7BA0A" points="43.113,35.032 44.84,35.032 53.087,29.805 51.359,29.805 		"/>
		<polygon fill="#F7BA0A" points="50.229,35.032 51.958,35.032 60.204,29.805 58.476,29.805 		"/>
		<polygon fill="#F7BA0A" points="57.341,35.032 59.069,35.032 67.315,29.805 65.588,29.805 		"/>
		<polygon fill="#F7BA0A" points="32.457,36.002 34.186,36.002 42.432,41.229 40.703,41.229 		"/>
		<polygon fill="#F7BA0A" points="25.37,36.002 27.099,36.002 35.346,41.229 33.617,41.229 		"/>
		<polygon fill="#F7BA0A" points="39.541,36.002 41.268,36.002 49.515,41.229 47.786,41.229 		"/>
		<polygon fill="#F7BA0A" points="46.657,36.002 48.386,36.002 56.632,41.229 54.903,41.229 		"/>
		<polygon fill="#F7BA0A" points="53.768,36.002 55.497,36.002 63.743,41.229 62.016,41.229 		"/>
		<polygon fill="none" points="72.88,43.496 37.204,43.496 25.37,36.002 27.437,36.002 40.753,27.667 74.399,27.5 74.399,28.741 
			63.594,35.588 60.204,35.52 69.114,41.229 		"/>
		<polygon fill="#F7BA0A" points="71.777,35.032 73.505,35.032 81.753,29.805 80.024,29.805 		"/>
		<polygon fill="#F7BA0A" points="64.723,35.032 66.452,35.032 74.699,29.805 72.971,29.805 		"/>
		<polygon fill="#F7BA0A" points="78.86,35.032 80.589,35.032 88.835,29.805 87.107,29.805 		"/>
		<polygon fill="#F7BA0A" points="85.978,35.032 87.706,35.032 95.953,29.805 94.224,29.805 		"/>
		<polygon fill="#F7BA0A" points="93.089,35.032 94.817,35.032 103.065,29.805 101.336,29.805 		"/>
		<polygon fill="#F7BA0A" points="68.205,36.002 69.934,36.002 78.18,41.229 76.452,41.229 		"/>
		<polygon fill="#F7BA0A" points="61.118,36.002 62.847,36.002 71.094,41.229 69.365,41.229 		"/>
		<polygon fill="#F7BA0A" points="75.288,36.002 77.017,36.002 85.263,41.229 83.534,41.229 		"/>
		<polygon fill="#F7BA0A" points="82.406,36.002 84.134,36.002 92.38,41.229 90.652,41.229 		"/>
		<polygon fill="#F7BA0A" points="89.517,36.002 91.245,36.002 99.492,41.229 97.764,41.229 		"/>
		<polygon fill="none" points="108.629,43.496 72.953,43.496 61.118,36.002 63.186,36.002 76.5,27.667 110.148,27.5 110.148,28.741 
			99.343,35.588 95.953,35.52 104.862,41.229 		"/>
		<polygon fill="#F7BA0A" points="107.388,35.032 109.116,35.032 117.363,29.805 115.634,29.805 		"/>
		<polygon fill="#F7BA0A" points="100.334,35.032 102.063,35.032 110.31,29.805 108.581,29.805 		"/>
		<polygon fill="#F7BA0A" points="114.472,35.032 116.199,35.032 124.446,29.805 122.717,29.805 		"/>
		<polygon fill="#F7BA0A" points="121.588,35.032 123.317,35.032 131.562,29.805 129.834,29.805 		"/>
		<polygon fill="#F7BA0A" points="128.698,35.032 130.427,35.032 138.674,29.805 136.947,29.805 		"/>
		<polygon fill="#F7BA0A" points="103.815,36.002 105.544,36.002 113.789,41.229 112.062,41.229 		"/>
		<polygon fill="#F7BA0A" points="96.729,36.002 98.458,36.002 106.704,41.229 104.975,41.229 		"/>
		<polygon fill="#F7BA0A" points="110.899,36.002 112.627,36.002 120.874,41.229 119.145,41.229 		"/>
		<polygon fill="#F7BA0A" points="118.016,36.002 119.745,36.002 127.99,41.229 126.262,41.229 		"/>
		<polygon fill="#F7BA0A" points="125.126,36.002 126.855,36.002 135.102,41.229 133.375,41.229 		"/>
		<polygon fill="none" points="144.239,43.496 108.562,43.496 96.729,36.002 98.796,36.002 112.112,27.667 145.758,27.5 
			145.758,28.741 134.953,35.588 131.562,35.52 140.472,41.229 		"/>
	</g>
	<g opacity="0.6">
		<polygon fill="#F7BA0A" points="142.221,35.032 143.95,35.032 152.197,29.805 150.468,29.805 		"/>
		<polygon fill="#F7BA0A" points="135.168,35.032 136.896,35.032 145.144,29.805 143.415,29.805 		"/>
		<polygon fill="#F7BA0A" points="149.306,35.032 151.033,35.032 159.28,29.805 157.552,29.805 		"/>
		<polygon fill="#F7BA0A" points="156.422,35.032 158.151,35.032 166.397,29.805 164.668,29.805 		"/>
		<polygon fill="#F7BA0A" points="163.533,35.032 165.262,35.032 173.508,29.805 171.78,29.805 		"/>
		<polygon fill="#F7BA0A" points="138.649,36.002 140.378,36.002 148.623,41.229 146.896,41.229 		"/>
		<polygon fill="#F7BA0A" points="131.562,36.002 133.291,36.002 141.538,41.229 139.809,41.229 		"/>
		<polygon fill="#F7BA0A" points="145.733,36.002 147.46,36.002 155.707,41.229 153.978,41.229 		"/>
		<polygon fill="#F7BA0A" points="152.85,36.002 154.579,36.002 162.824,41.229 161.096,41.229 		"/>
		<polygon fill="#F7BA0A" points="159.96,36.002 161.689,36.002 169.936,41.229 168.207,41.229 		"/>
		<polygon fill="none" points="179.073,43.496 143.397,43.496 131.562,36.002 133.63,36.002 146.946,27.667 180.591,27.5 
			180.591,28.741 169.787,35.588 166.397,35.52 175.306,41.229 		"/>
		<polygon fill="#F7BA0A" points="177.827,35.032 179.556,35.032 187.803,29.805 186.075,29.805 		"/>
		<polygon fill="#F7BA0A" points="170.775,35.032 172.502,35.032 180.749,29.805 179.021,29.805 		"/>
		<polygon fill="#F7BA0A" points="184.911,35.032 186.64,35.032 194.886,29.805 193.158,29.805 		"/>
		<polygon fill="#F7BA0A" points="192.028,35.032 193.757,35.032 202.003,29.805 200.275,29.805 		"/>
		<polygon fill="#F7BA0A" points="199.139,35.032 200.868,35.032 209.115,29.805 207.386,29.805 		"/>
		<polygon fill="#F7BA0A" points="174.255,36.002 175.983,36.002 184.23,41.229 182.502,41.229 		"/>
		<polygon fill="#F7BA0A" points="167.169,36.002 168.897,36.002 177.144,41.229 175.416,41.229 		"/>
		<polygon fill="#F7BA0A" points="181.339,36.002 183.068,36.002 191.313,41.229 189.585,41.229 		"/>
		<polygon fill="#F7BA0A" points="188.456,36.002 190.184,36.002 198.43,41.229 196.702,41.229 		"/>
		<polygon fill="#F7BA0A" points="195.566,36.002 197.295,36.002 205.542,41.229 203.814,41.229 		"/>
		<polygon fill="none" points="214.679,43.496 179.003,43.496 167.169,36.002 169.237,36.002 182.551,27.667 216.198,27.5 
			216.198,28.741 205.393,35.588 202.003,35.52 210.912,41.229 		"/>
		<polygon fill="#F7BA0A" points="213.511,35.032 215.24,35.032 223.486,29.805 221.758,29.805 		"/>
		<polygon fill="#F7BA0A" points="206.458,35.032 208.186,35.032 216.433,29.805 214.705,29.805 		"/>
		<polygon fill="#F7BA0A" points="220.595,35.032 222.323,35.032 230.57,29.805 228.842,29.805 		"/>
		<polygon fill="#F7BA0A" points="227.711,35.032 229.44,35.032 237.687,29.805 235.958,29.805 		"/>
		<polygon fill="#F7BA0A" points="234.823,35.032 236.551,35.032 244.798,29.805 243.07,29.805 		"/>
		<polygon fill="#F7BA0A" points="209.939,36.002 211.667,36.002 219.913,41.229 218.185,41.229 		"/>
		<polygon fill="#F7BA0A" points="202.854,36.002 204.582,36.002 212.828,41.229 211.099,41.229 		"/>
		<polygon fill="#F7BA0A" points="217.022,36.002 218.751,36.002 226.997,41.229 225.268,41.229 		"/>
		<polygon fill="#F7BA0A" points="224.139,36.002 225.867,36.002 234.114,41.229 232.386,41.229 		"/>
		<polygon fill="#F7BA0A" points="231.25,36.002 232.979,36.002 241.226,41.229 239.497,41.229 		"/>
		<polygon fill="none" points="250.362,43.496 214.687,43.496 202.854,36.002 204.92,36.002 218.235,27.667 251.881,27.5 
			251.881,28.741 241.077,35.588 237.687,35.52 246.595,41.229 		"/>
		<polygon fill="#F7BA0A" points="249.26,35.032 250.988,35.032 259.235,29.805 257.506,29.805 		"/>
		<polygon fill="#F7BA0A" points="242.207,35.032 243.934,35.032 252.181,29.805 250.453,29.805 		"/>
		<polygon fill="#F7BA0A" points="256.343,35.032 258.072,35.032 266.318,29.805 264.59,29.805 		"/>
		<polygon fill="#F7BA0A" points="263.46,35.032 265.188,35.032 273.436,29.805 271.707,29.805 		"/>
		<polygon fill="#F7BA0A" points="270.57,35.032 272.299,35.032 280.547,29.805 278.818,29.805 		"/>
		<polygon fill="#F7BA0A" points="245.688,36.002 247.416,36.002 255.662,41.229 253.933,41.229 		"/>
		<polygon fill="#F7BA0A" points="238.601,36.002 240.329,36.002 248.576,41.229 246.847,41.229 		"/>
		<polygon fill="#F7BA0A" points="252.771,36.002 254.499,36.002 262.745,41.229 261.017,41.229 		"/>
		<polygon fill="#F7BA0A" points="259.888,36.002 261.616,36.002 269.863,41.229 268.134,41.229 		"/>
		<polygon fill="#F7BA0A" points="266.999,36.002 268.727,36.002 276.975,41.229 275.246,41.229 		"/>
		<polygon fill="none" points="286.111,43.496 250.436,43.496 238.601,36.002 240.668,36.002 253.984,27.667 287.63,27.5 
			287.63,28.741 276.825,35.588 273.436,35.52 282.345,41.229 		"/>
		<polygon fill="#F7BA0A" points="284.87,35.032 286.599,35.032 294.845,29.805 293.116,29.805 		"/>
		<polygon fill="#F7BA0A" points="277.816,35.032 279.545,35.032 287.792,29.805 286.062,29.805 		"/>
		<polygon fill="#F7BA0A" points="291.953,35.032 293.682,35.032 301.928,29.805 300.199,29.805 		"/>
		<polygon fill="#F7BA0A" points="299.07,35.032 300.799,35.032 309.045,29.805 307.317,29.805 		"/>
		<polygon fill="#F7BA0A" points="306.181,35.032 307.911,35.032 316.157,29.805 314.428,29.805 		"/>
		<polygon fill="#F7BA0A" points="281.298,36.002 283.026,36.002 291.272,41.229 289.544,41.229 		"/>
		<polygon fill="#F7BA0A" points="274.211,36.002 275.94,36.002 284.186,41.229 282.457,41.229 		"/>
		<polygon fill="#F7BA0A" points="288.381,36.002 290.109,36.002 298.355,41.229 296.626,41.229 		"/>
		<polygon fill="#F7BA0A" points="295.498,36.002 297.227,36.002 305.473,41.229 303.745,41.229 		"/>
		<polygon fill="#F7BA0A" points="302.609,36.002 304.337,36.002 312.585,41.229 310.856,41.229 		"/>
		<polygon fill="none" points="321.721,43.496 286.044,43.496 274.211,36.002 276.279,36.002 289.593,27.667 323.24,27.5 
			323.24,28.741 312.435,35.588 309.045,35.52 317.954,41.229 		"/>
	</g>
</g>
<g id="Calque_3">
	<g opacity="0.6">
		<line fill="#F7BA0A" x1="996.178" y1="41.097" x2="997.891" y2="41.097"/>
		<path fill="#F7BA0A" d="M999.721,29.769"/>
		<line fill="none" x1="994.395" y1="29.769" x2="990.659" y2="27.521"/>
		<polyline fill="none" points="989.151,43.384 989.151,42.151 999.867,35.361 		"/>
	</g>
	<g opacity="0.6">
		<polygon fill="#F7BA0A" points="991.878,35.914 990.161,35.914 981.985,41.097 983.698,41.097 		"/>
		<polygon fill="#F7BA0A" points="998.872,35.914 997.158,35.914 988.979,41.097 990.694,41.097 		"/>
		<polygon fill="#F7BA0A" points="984.851,35.914 983.137,35.914 974.959,41.097 976.673,41.097 		"/>
		<polygon fill="#F7BA0A" points="977.794,35.914 976.078,35.914 967.901,41.097 969.615,41.097 		"/>
		<polygon fill="#F7BA0A" points="970.74,35.914 969.027,35.914 960.849,41.097 962.562,41.097 		"/>
		<polygon fill="#F7BA0A" points="995.419,34.954 993.705,34.954 985.528,29.769 987.241,29.769 		"/>
		<polyline fill="#F7BA0A" points="1000.731,34.954 992.554,29.769 994.269,29.769 		"/>
		<polygon fill="#F7BA0A" points="988.394,34.954 986.682,34.954 978.504,29.769 980.216,29.769 		"/>
		<polygon fill="#F7BA0A" points="981.336,34.954 979.623,34.954 971.445,29.769 973.158,29.769 		"/>
		<polygon fill="#F7BA0A" points="974.284,34.954 972.57,34.954 964.39,29.769 966.106,29.769 		"/>
		<polyline fill="none" points="1000.397,34.954 987.192,43.222 953.823,43.384 953.823,42.151 964.539,35.361 967.901,35.429 
			959.065,29.769 955.331,27.521 990.71,27.521 		"/>
		<polygon fill="#F7BA0A" points="956.565,35.914 954.851,35.914 946.672,41.097 948.386,41.097 		"/>
		<polygon fill="#F7BA0A" points="963.56,35.914 961.846,35.914 953.667,41.097 955.381,41.097 		"/>
		<polygon fill="#F7BA0A" points="949.541,35.914 947.826,35.914 939.648,41.097 941.361,41.097 		"/>
		<polygon fill="#F7BA0A" points="942.482,35.914 940.768,35.914 932.59,41.097 934.303,41.097 		"/>
		<polygon fill="#F7BA0A" points="935.43,35.914 933.716,35.914 925.537,41.097 927.251,41.097 		"/>
		<polygon fill="#F7BA0A" points="960.107,34.954 958.393,34.954 950.215,29.769 951.93,29.769 		"/>
		<polygon fill="#F7BA0A" points="967.136,34.954 965.421,34.954 957.243,29.769 958.956,29.769 		"/>
		<polygon fill="#F7BA0A" points="953.083,34.954 951.369,34.954 943.191,29.769 944.905,29.769 		"/>
		<polygon fill="#F7BA0A" points="946.024,34.954 944.31,34.954 936.133,29.769 937.847,29.769 		"/>
		<polygon fill="#F7BA0A" points="938.973,34.954 937.26,34.954 929.08,29.769 930.795,29.769 		"/>
		<polygon fill="none" points="920.019,27.521 955.398,27.521 967.136,34.954 965.084,34.954 951.881,43.222 918.512,43.384 
			918.512,42.151 929.228,35.361 932.59,35.429 923.755,29.769 		"/>
		<polygon fill="#F7BA0A" points="921.176,35.914 919.462,35.914 911.283,41.097 912.999,41.097 		"/>
		<polygon fill="#F7BA0A" points="928.172,35.914 926.456,35.914 918.279,41.097 919.993,41.097 		"/>
		<polygon fill="#F7BA0A" points="914.152,35.914 912.438,35.914 904.26,41.097 905.973,41.097 		"/>
		<polygon fill="#F7BA0A" points="907.094,35.914 905.379,35.914 897.2,41.097 898.914,41.097 		"/>
		<polygon fill="#F7BA0A" points="900.041,35.914 898.327,35.914 890.148,41.097 891.863,41.097 		"/>
		<polygon fill="#F7BA0A" points="924.719,34.954 923.005,34.954 914.826,29.769 916.542,29.769 		"/>
		<polygon fill="#F7BA0A" points="931.745,34.954 930.032,34.954 921.854,29.769 923.567,29.769 		"/>
		<polygon fill="#F7BA0A" points="917.695,34.954 915.98,34.954 907.803,29.769 909.517,29.769 		"/>
		<polygon fill="#F7BA0A" points="910.637,34.954 908.922,34.954 900.743,29.769 902.458,29.769 		"/>
		<polygon fill="#F7BA0A" points="903.583,34.954 901.871,34.954 893.691,29.769 895.405,29.769 		"/>
		<polygon fill="none" points="884.63,27.521 920.012,27.521 931.745,34.954 929.695,34.954 916.492,43.222 883.123,43.384 
			883.123,42.151 893.84,35.361 897.2,35.429 888.366,29.769 		"/>
		<polygon fill="#F7BA0A" points="885.723,35.914 884.009,35.914 875.831,41.097 877.546,41.097 		"/>
		<polygon fill="#F7BA0A" points="892.72,35.914 891.006,35.914 882.827,41.097 884.54,41.097 		"/>
		<polygon fill="#F7BA0A" points="878.699,35.914 876.984,35.914 868.807,41.097 870.521,41.097 		"/>
		<polygon fill="#F7BA0A" points="871.642,35.914 869.926,35.914 861.748,41.097 863.463,41.097 		"/>
		<polygon fill="#F7BA0A" points="864.589,35.914 862.875,35.914 854.695,41.097 856.408,41.097 		"/>
		<polygon fill="#F7BA0A" points="889.266,34.954 887.553,34.954 879.374,29.769 881.089,29.769 		"/>
		<polygon fill="#F7BA0A" points="896.293,34.954 894.579,34.954 886.4,29.769 888.116,29.769 		"/>
		<polygon fill="#F7BA0A" points="882.242,34.954 880.527,34.954 872.35,29.769 874.064,29.769 		"/>
		<polygon fill="#F7BA0A" points="875.184,34.954 873.469,34.954 865.29,29.769 867.006,29.769 		"/>
		<polygon fill="#F7BA0A" points="868.133,34.954 866.418,34.954 858.239,29.769 859.952,29.769 		"/>
		<polygon fill="none" points="849.177,27.521 884.559,27.521 896.293,34.954 894.243,34.954 881.041,43.222 847.67,43.384 
			847.67,42.151 858.387,35.361 861.748,35.429 852.913,29.769 		"/>
		<polygon fill="#F7BA0A" points="850.408,35.914 848.693,35.914 840.516,41.097 842.229,41.097 		"/>
		<polygon fill="#F7BA0A" points="857.402,35.914 855.688,35.914 847.511,41.097 849.226,41.097 		"/>
		<polygon fill="#F7BA0A" points="843.384,35.914 841.669,35.914 833.491,41.097 835.205,41.097 		"/>
		<polygon fill="#F7BA0A" points="836.325,35.914 834.611,35.914 826.433,41.097 828.146,41.097 		"/>
		<polygon fill="#F7BA0A" points="829.273,35.914 827.559,35.914 819.38,41.097 821.095,41.097 		"/>
		<polygon fill="#F7BA0A" points="853.95,34.954 852.235,34.954 844.059,29.769 845.772,29.769 		"/>
		<polygon fill="#F7BA0A" points="860.979,34.954 859.264,34.954 851.087,29.769 852.801,29.769 		"/>
		<polygon fill="#F7BA0A" points="846.925,34.954 845.212,34.954 837.034,29.769 838.749,29.769 		"/>
		<polygon fill="#F7BA0A" points="839.867,34.954 838.153,34.954 829.976,29.769 831.688,29.769 		"/>
		<polygon fill="#F7BA0A" points="832.816,34.954 831.103,34.954 822.923,29.769 824.638,29.769 		"/>
		<polygon fill="none" points="813.861,27.521 849.244,27.521 860.979,34.954 858.929,34.954 845.724,43.222 812.356,43.384 
			812.356,42.151 823.069,35.361 826.433,35.429 817.599,29.769 		"/>
	</g>
	<g opacity="0.6">
		<polygon fill="#F7BA0A" points="815.862,35.914 814.147,35.914 805.97,41.097 807.685,41.097 		"/>
		<polygon fill="#F7BA0A" points="822.857,35.914 821.143,35.914 812.965,41.097 814.68,41.097 		"/>
		<polygon fill="#F7BA0A" points="808.838,35.914 807.124,35.914 798.945,41.097 800.659,41.097 		"/>
		<polygon fill="#F7BA0A" points="801.779,35.914 800.065,35.914 791.887,41.097 793.601,41.097 		"/>
		<polygon fill="#F7BA0A" points="794.726,35.914 793.013,35.914 784.834,41.097 786.55,41.097 		"/>
		<polygon fill="#F7BA0A" points="819.405,34.954 817.692,34.954 809.513,29.769 811.227,29.769 		"/>
		<polygon fill="#F7BA0A" points="826.433,34.954 824.718,34.954 816.54,29.769 818.253,29.769 		"/>
		<polygon fill="#F7BA0A" points="812.381,34.954 810.666,34.954 802.488,29.769 804.203,29.769 		"/>
		<polygon fill="#F7BA0A" points="805.322,34.954 803.608,34.954 795.43,29.769 797.146,29.769 		"/>
		<polygon fill="#F7BA0A" points="798.271,34.954 796.557,34.954 788.377,29.769 790.091,29.769 		"/>
		<polygon fill="none" points="779.315,27.521 814.698,27.521 826.433,34.954 824.382,34.954 811.178,43.222 777.81,43.384 
			777.81,42.151 788.525,35.361 791.887,35.429 783.053,29.769 		"/>
		<polygon fill="#F7BA0A" points="780.55,35.914 778.835,35.914 770.658,41.097 772.372,41.097 		"/>
		<polygon fill="#F7BA0A" points="787.545,35.914 785.832,35.914 777.653,41.097 779.367,41.097 		"/>
		<polygon fill="#F7BA0A" points="773.525,35.914 771.812,35.914 763.633,41.097 765.347,41.097 		"/>
		<polygon fill="#F7BA0A" points="766.468,35.914 764.752,35.914 756.574,41.097 758.289,41.097 		"/>
		<polygon fill="#F7BA0A" points="759.414,35.914 757.701,35.914 749.522,41.097 751.237,41.097 		"/>
		<polygon fill="#F7BA0A" points="784.093,34.954 782.379,34.954 774.2,29.769 775.915,29.769 		"/>
		<polygon fill="#F7BA0A" points="791.121,34.954 789.406,34.954 781.229,29.769 782.943,29.769 		"/>
		<polygon fill="#F7BA0A" points="777.068,34.954 775.355,34.954 767.176,29.769 768.89,29.769 		"/>
		<polygon fill="#F7BA0A" points="770.01,34.954 768.297,34.954 760.117,29.769 761.832,29.769 		"/>
		<polygon fill="#F7BA0A" points="762.957,34.954 761.244,34.954 753.065,29.769 754.779,29.769 		"/>
		<polygon fill="none" points="744.003,27.521 779.386,27.521 791.121,34.954 789.072,34.954 775.865,43.222 742.498,43.384 
			742.498,42.151 753.214,35.361 756.574,35.429 747.739,29.769 		"/>
		<polygon fill="#F7BA0A" points="745.162,35.914 743.448,35.914 735.269,41.097 736.983,41.097 		"/>
		<polygon fill="#F7BA0A" points="752.157,35.914 750.443,35.914 742.265,41.097 743.979,41.097 		"/>
		<polygon fill="#F7BA0A" points="738.138,35.914 736.425,35.914 728.245,41.097 729.959,41.097 		"/>
		<polygon fill="#F7BA0A" points="731.079,35.914 729.364,35.914 721.187,41.097 722.9,41.097 		"/>
		<polygon fill="#F7BA0A" points="724.026,35.914 722.313,35.914 714.135,41.097 715.848,41.097 		"/>
		<polygon fill="#F7BA0A" points="748.704,34.954 746.99,34.954 738.812,29.769 740.526,29.769 		"/>
		<polygon fill="#F7BA0A" points="755.734,34.954 754.02,34.954 745.841,29.769 747.555,29.769 		"/>
		<polygon fill="#F7BA0A" points="741.68,34.954 739.967,34.954 731.789,29.769 733.502,29.769 		"/>
		<polygon fill="#F7BA0A" points="734.622,34.954 732.906,34.954 724.73,29.769 726.443,29.769 		"/>
		<polygon fill="#F7BA0A" points="727.57,34.954 725.856,34.954 717.678,29.769 719.393,29.769 		"/>
		<polygon fill="none" points="708.616,27.521 743.997,27.521 755.734,34.954 753.684,34.954 740.479,43.222 707.109,43.384 
			707.109,42.151 717.824,35.361 721.187,35.429 712.352,29.769 		"/>
		<polygon fill="#F7BA0A" points="709.71,35.914 707.995,35.914 699.816,41.097 701.53,41.097 		"/>
		<polygon fill="#F7BA0A" points="716.704,35.914 714.99,35.914 706.812,41.097 708.526,41.097 		"/>
		<polygon fill="#F7BA0A" points="702.685,35.914 700.972,35.914 692.793,41.097 694.506,41.097 		"/>
		<polygon fill="#F7BA0A" points="695.626,35.914 693.912,35.914 685.734,41.097 687.447,41.097 		"/>
		<polygon fill="#F7BA0A" points="688.574,35.914 686.86,35.914 678.682,41.097 680.396,41.097 		"/>
		<polygon fill="#F7BA0A" points="713.253,34.954 711.537,34.954 703.359,29.769 705.074,29.769 		"/>
		<polygon fill="#F7BA0A" points="720.281,34.954 718.566,34.954 710.388,29.769 712.103,29.769 		"/>
		<polygon fill="#F7BA0A" points="706.229,34.954 704.514,34.954 696.336,29.769 698.049,29.769 		"/>
		<polygon fill="#F7BA0A" points="699.17,34.954 697.455,34.954 689.277,29.769 690.99,29.769 		"/>
		<polygon fill="#F7BA0A" points="692.117,34.954 690.403,34.954 682.224,29.769 683.939,29.769 		"/>
		<polygon fill="none" points="673.163,27.521 708.544,27.521 720.281,34.954 718.23,34.954 705.025,43.222 671.657,43.384 
			671.657,42.151 682.373,35.361 685.734,35.429 676.899,29.769 		"/>
		<polygon fill="#F7BA0A" points="674.394,35.914 672.681,35.914 664.503,41.097 666.216,41.097 		"/>
		<polygon fill="#F7BA0A" points="681.39,35.914 679.676,35.914 671.498,41.097 673.21,41.097 		"/>
		<polygon fill="#F7BA0A" points="667.368,35.914 665.654,35.914 657.477,41.097 659.191,41.097 		"/>
		<polygon fill="#F7BA0A" points="660.311,35.914 658.597,35.914 650.419,41.097 652.134,41.097 		"/>
		<polygon fill="#F7BA0A" points="653.259,35.914 651.545,35.914 643.367,41.097 645.08,41.097 		"/>
		<polygon fill="#F7BA0A" points="677.936,34.954 676.224,34.954 668.045,29.769 669.761,29.769 		"/>
		<polygon fill="#F7BA0A" points="684.965,34.954 683.251,34.954 675.073,29.769 676.786,29.769 		"/>
		<polygon fill="#F7BA0A" points="670.912,34.954 669.198,34.954 661.019,29.769 662.734,29.769 		"/>
		<polygon fill="#F7BA0A" points="663.854,34.954 662.141,34.954 653.963,29.769 655.677,29.769 		"/>
		<polygon fill="#F7BA0A" points="656.803,34.954 655.087,34.954 646.909,29.769 648.622,29.769 		"/>
		<polygon fill="none" points="637.849,27.521 673.229,27.521 684.965,34.954 682.915,34.954 669.708,43.222 636.341,43.384 
			636.341,42.151 647.057,35.361 650.419,35.429 641.583,29.769 		"/>
	</g>
	<g opacity="0.6">
		<line fill="#F7BA0A" x1="996.178" y1="25.234" x2="997.891" y2="25.234"/>
		<path fill="#F7BA0A" d="M999.721,13.904"/>
		<line fill="none" x1="994.395" y1="13.904" x2="990.659" y2="11.655"/>
		<polyline fill="none" points="989.151,27.521 989.151,26.289 999.867,19.498 		"/>
	</g>
	<g opacity="0.6">
		<polygon fill="#F7BA0A" points="991.878,20.049 990.161,20.049 981.985,25.234 983.698,25.234 		"/>
		<polygon fill="#F7BA0A" points="998.872,20.049 997.158,20.049 988.979,25.234 990.694,25.234 		"/>
		<polygon fill="#F7BA0A" points="984.851,20.049 983.137,20.049 974.959,25.234 976.673,25.234 		"/>
		<polygon fill="#F7BA0A" points="977.794,20.049 976.078,20.049 967.901,25.234 969.615,25.234 		"/>
		<polygon fill="#F7BA0A" points="970.74,20.049 969.027,20.049 960.849,25.234 962.562,25.234 		"/>
		<polygon fill="#F7BA0A" points="995.419,19.088 993.705,19.088 985.528,13.904 987.241,13.904 		"/>
		<polyline fill="#F7BA0A" points="1000.731,19.088 992.554,13.904 994.269,13.904 		"/>
		<polygon fill="#F7BA0A" points="988.394,19.088 986.682,19.088 978.504,13.904 980.216,13.904 		"/>
		<polygon fill="#F7BA0A" points="981.336,19.088 979.623,19.088 971.445,13.904 973.158,13.904 		"/>
		<polygon fill="#F7BA0A" points="974.284,19.088 972.57,19.088 964.39,13.904 966.106,13.904 		"/>
		<polyline fill="none" points="1000.397,19.088 987.192,27.355 953.823,27.521 953.823,26.289 964.539,19.498 967.901,19.565 
			959.065,13.904 955.331,11.655 990.71,11.655 		"/>
		<polygon fill="#F7BA0A" points="956.565,20.049 954.851,20.049 946.672,25.234 948.386,25.234 		"/>
		<polygon fill="#F7BA0A" points="963.56,20.049 961.846,20.049 953.667,25.234 955.381,25.234 		"/>
		<polygon fill="#F7BA0A" points="949.541,20.049 947.826,20.049 939.648,25.234 941.361,25.234 		"/>
		<polygon fill="#F7BA0A" points="942.482,20.049 940.768,20.049 932.59,25.234 934.303,25.234 		"/>
		<polygon fill="#F7BA0A" points="935.43,20.049 933.716,20.049 925.537,25.234 927.251,25.234 		"/>
		<polygon fill="#F7BA0A" points="960.107,19.088 958.393,19.088 950.215,13.904 951.93,13.904 		"/>
		<polygon fill="#F7BA0A" points="967.136,19.088 965.421,19.088 957.243,13.904 958.956,13.904 		"/>
		<polygon fill="#F7BA0A" points="953.083,19.088 951.369,19.088 943.191,13.904 944.905,13.904 		"/>
		<polygon fill="#F7BA0A" points="946.024,19.088 944.31,19.088 936.133,13.904 937.847,13.904 		"/>
		<polygon fill="#F7BA0A" points="938.973,19.088 937.26,19.088 929.08,13.904 930.795,13.904 		"/>
		<polygon fill="none" points="920.019,11.655 955.398,11.655 967.136,19.088 965.084,19.088 951.881,27.355 918.512,27.521 
			918.512,26.289 929.228,19.498 932.59,19.565 923.755,13.904 		"/>
		<polygon fill="#F7BA0A" points="921.176,20.049 919.462,20.049 911.283,25.234 912.999,25.234 		"/>
		<polygon fill="#F7BA0A" points="928.172,20.049 926.456,20.049 918.279,25.234 919.993,25.234 		"/>
		<polygon fill="#F7BA0A" points="914.152,20.049 912.438,20.049 904.26,25.234 905.973,25.234 		"/>
		<polygon fill="#F7BA0A" points="907.094,20.049 905.379,20.049 897.2,25.234 898.914,25.234 		"/>
		<polygon fill="#F7BA0A" points="900.041,20.049 898.327,20.049 890.148,25.234 891.863,25.234 		"/>
		<polygon fill="#F7BA0A" points="924.719,19.088 923.005,19.088 914.826,13.904 916.542,13.904 		"/>
		<polygon fill="#F7BA0A" points="931.745,19.088 930.032,19.088 921.854,13.904 923.567,13.904 		"/>
		<polygon fill="#F7BA0A" points="917.695,19.088 915.98,19.088 907.803,13.904 909.517,13.904 		"/>
		<polygon fill="#F7BA0A" points="910.637,19.088 908.922,19.088 900.743,13.904 902.458,13.904 		"/>
		<polygon fill="#F7BA0A" points="903.583,19.088 901.871,19.088 893.691,13.904 895.405,13.904 		"/>
		<polygon fill="none" points="884.63,11.655 920.012,11.655 931.745,19.088 929.695,19.088 916.492,27.355 883.123,27.521 
			883.123,26.289 893.84,19.498 897.2,19.565 888.366,13.904 		"/>
		<polygon fill="#F7BA0A" points="885.723,20.049 884.009,20.049 875.831,25.234 877.546,25.234 		"/>
		<polygon fill="#F7BA0A" points="892.72,20.049 891.006,20.049 882.827,25.234 884.54,25.234 		"/>
		<polygon fill="#F7BA0A" points="878.699,20.049 876.984,20.049 868.807,25.234 870.521,25.234 		"/>
		<polygon fill="#F7BA0A" points="871.642,20.049 869.926,20.049 861.748,25.234 863.463,25.234 		"/>
		<polygon fill="#F7BA0A" points="864.589,20.049 862.875,20.049 854.695,25.234 856.408,25.234 		"/>
		<polygon fill="#F7BA0A" points="889.266,19.088 887.553,19.088 879.374,13.904 881.089,13.904 		"/>
		<polygon fill="#F7BA0A" points="896.293,19.088 894.579,19.088 886.4,13.904 888.116,13.904 		"/>
		<polygon fill="#F7BA0A" points="882.242,19.088 880.527,19.088 872.35,13.904 874.064,13.904 		"/>
		<polygon fill="#F7BA0A" points="875.184,19.088 873.469,19.088 865.29,13.904 867.006,13.904 		"/>
		<polygon fill="#F7BA0A" points="868.133,19.088 866.418,19.088 858.239,13.904 859.952,13.904 		"/>
		<polygon fill="none" points="849.177,11.655 884.559,11.655 896.293,19.088 894.243,19.088 881.041,27.355 847.67,27.521 
			847.67,26.289 858.387,19.498 861.748,19.565 852.913,13.904 		"/>
		<polygon fill="#F7BA0A" points="850.408,20.049 848.693,20.049 840.516,25.234 842.229,25.234 		"/>
		<polygon fill="#F7BA0A" points="857.402,20.049 855.688,20.049 847.511,25.234 849.226,25.234 		"/>
		<polygon fill="#F7BA0A" points="843.384,20.049 841.669,20.049 833.491,25.234 835.205,25.234 		"/>
		<polygon fill="#F7BA0A" points="836.325,20.049 834.611,20.049 826.433,25.234 828.146,25.234 		"/>
		<polygon fill="#F7BA0A" points="829.273,20.049 827.559,20.049 819.38,25.234 821.095,25.234 		"/>
		<polygon fill="#F7BA0A" points="853.95,19.088 852.235,19.088 844.059,13.904 845.772,13.904 		"/>
		<polygon fill="#F7BA0A" points="860.979,19.088 859.264,19.088 851.087,13.904 852.801,13.904 		"/>
		<polygon fill="#F7BA0A" points="846.925,19.088 845.212,19.088 837.034,13.904 838.749,13.904 		"/>
		<polygon fill="#F7BA0A" points="839.867,19.088 838.153,19.088 829.976,13.904 831.688,13.904 		"/>
		<polygon fill="#F7BA0A" points="832.816,19.088 831.103,19.088 822.923,13.904 824.638,13.904 		"/>
		<polygon fill="none" points="813.861,11.655 849.244,11.655 860.979,19.088 858.929,19.088 845.724,27.355 812.356,27.521 
			812.356,26.289 823.069,19.498 826.433,19.565 817.599,13.904 		"/>
	</g>
	<g opacity="0.6">
		<polygon fill="#F7BA0A" points="815.862,20.049 814.147,20.049 805.97,25.234 807.685,25.234 		"/>
		<polygon fill="#F7BA0A" points="822.857,20.049 821.143,20.049 812.965,25.234 814.68,25.234 		"/>
		<polygon fill="#F7BA0A" points="808.838,20.049 807.124,20.049 798.945,25.234 800.659,25.234 		"/>
		<polygon fill="#F7BA0A" points="801.779,20.049 800.065,20.049 791.887,25.234 793.601,25.234 		"/>
		<polygon fill="#F7BA0A" points="794.726,20.049 793.013,20.049 784.834,25.234 786.55,25.234 		"/>
		<polygon fill="#F7BA0A" points="819.405,19.088 817.692,19.088 809.513,13.904 811.227,13.904 		"/>
		<polygon fill="#F7BA0A" points="826.433,19.088 824.718,19.088 816.54,13.904 818.253,13.904 		"/>
		<polygon fill="#F7BA0A" points="812.381,19.088 810.666,19.088 802.488,13.904 804.203,13.904 		"/>
		<polygon fill="#F7BA0A" points="805.322,19.088 803.608,19.088 795.43,13.904 797.146,13.904 		"/>
		<polygon fill="#F7BA0A" points="798.271,19.088 796.557,19.088 788.377,13.904 790.091,13.904 		"/>
		<polygon fill="none" points="779.315,11.655 814.698,11.655 826.433,19.088 824.382,19.088 811.178,27.355 777.81,27.521 
			777.81,26.289 788.525,19.498 791.887,19.565 783.053,13.904 		"/>
		<polygon fill="#F7BA0A" points="780.55,20.049 778.835,20.049 770.658,25.234 772.372,25.234 		"/>
		<polygon fill="#F7BA0A" points="787.545,20.049 785.832,20.049 777.653,25.234 779.367,25.234 		"/>
		<polygon fill="#F7BA0A" points="773.525,20.049 771.812,20.049 763.633,25.234 765.347,25.234 		"/>
		<polygon fill="#F7BA0A" points="766.468,20.049 764.752,20.049 756.574,25.234 758.289,25.234 		"/>
		<polygon fill="#F7BA0A" points="759.414,20.049 757.701,20.049 749.522,25.234 751.237,25.234 		"/>
		<polygon fill="#F7BA0A" points="784.093,19.088 782.379,19.088 774.2,13.904 775.915,13.904 		"/>
		<polygon fill="#F7BA0A" points="791.121,19.088 789.406,19.088 781.229,13.904 782.943,13.904 		"/>
		<polygon fill="#F7BA0A" points="777.068,19.088 775.355,19.088 767.176,13.904 768.89,13.904 		"/>
		<polygon fill="#F7BA0A" points="770.01,19.088 768.297,19.088 760.117,13.904 761.832,13.904 		"/>
		<polygon fill="#F7BA0A" points="762.957,19.088 761.244,19.088 753.065,13.904 754.779,13.904 		"/>
		<polygon fill="none" points="744.003,11.655 779.386,11.655 791.121,19.088 789.072,19.088 775.865,27.355 742.498,27.521 
			742.498,26.289 753.214,19.498 756.574,19.565 747.739,13.904 		"/>
		<polygon fill="#F7BA0A" points="745.162,20.049 743.448,20.049 735.269,25.234 736.983,25.234 		"/>
		<polygon fill="#F7BA0A" points="752.157,20.049 750.443,20.049 742.265,25.234 743.979,25.234 		"/>
		<polygon fill="#F7BA0A" points="738.138,20.049 736.425,20.049 728.245,25.234 729.959,25.234 		"/>
		<polygon fill="#F7BA0A" points="731.079,20.049 729.364,20.049 721.187,25.234 722.9,25.234 		"/>
		<polygon fill="#F7BA0A" points="724.026,20.049 722.313,20.049 714.135,25.234 715.848,25.234 		"/>
		<polygon fill="#F7BA0A" points="748.704,19.088 746.99,19.088 738.812,13.904 740.526,13.904 		"/>
		<polygon fill="#F7BA0A" points="755.734,19.088 754.02,19.088 745.841,13.904 747.555,13.904 		"/>
		<polygon fill="#F7BA0A" points="741.68,19.088 739.967,19.088 731.789,13.904 733.502,13.904 		"/>
		<polygon fill="#F7BA0A" points="734.622,19.088 732.906,19.088 724.73,13.904 726.443,13.904 		"/>
		<polygon fill="#F7BA0A" points="727.57,19.088 725.856,19.088 717.678,13.904 719.393,13.904 		"/>
		<polygon fill="none" points="708.616,11.655 743.997,11.655 755.734,19.088 753.684,19.088 740.479,27.355 707.109,27.521 
			707.109,26.289 717.824,19.498 721.187,19.565 712.352,13.904 		"/>
		<polygon fill="#F7BA0A" points="709.71,20.049 707.995,20.049 699.816,25.234 701.53,25.234 		"/>
		<polygon fill="#F7BA0A" points="716.704,20.049 714.99,20.049 706.812,25.234 708.526,25.234 		"/>
		<polygon fill="#F7BA0A" points="702.685,20.049 700.972,20.049 692.793,25.234 694.506,25.234 		"/>
		<polygon fill="#F7BA0A" points="695.626,20.049 693.912,20.049 685.734,25.234 687.447,25.234 		"/>
		<polygon fill="#F7BA0A" points="688.574,20.049 686.86,20.049 678.682,25.234 680.396,25.234 		"/>
		<polygon fill="#F7BA0A" points="713.253,19.088 711.537,19.088 703.359,13.904 705.074,13.904 		"/>
		<polygon fill="#F7BA0A" points="720.281,19.088 718.566,19.088 710.388,13.904 712.103,13.904 		"/>
		<polygon fill="#F7BA0A" points="706.229,19.088 704.514,19.088 696.336,13.904 698.049,13.904 		"/>
		<polygon fill="#F7BA0A" points="699.17,19.088 697.455,19.088 689.277,13.904 690.99,13.904 		"/>
		<polygon fill="#F7BA0A" points="692.117,19.088 690.403,19.088 682.224,13.904 683.939,13.904 		"/>
		<polygon fill="none" points="673.163,11.655 708.544,11.655 720.281,19.088 718.23,19.088 705.025,27.355 671.657,27.521 
			671.657,26.289 682.373,19.498 685.734,19.565 676.899,13.904 		"/>
		<polygon fill="#F7BA0A" points="674.394,20.049 672.681,20.049 664.503,25.234 666.216,25.234 		"/>
		<polygon fill="#F7BA0A" points="681.39,20.049 679.676,20.049 671.498,25.234 673.21,25.234 		"/>
		<polygon fill="#F7BA0A" points="667.368,20.049 665.654,20.049 657.477,25.234 659.191,25.234 		"/>
		<polygon fill="#F7BA0A" points="660.311,20.049 658.597,20.049 650.419,25.234 652.134,25.234 		"/>
		<polygon fill="#F7BA0A" points="653.259,20.049 651.545,20.049 643.367,25.234 645.08,25.234 		"/>
		<polygon fill="#F7BA0A" points="677.936,19.088 676.224,19.088 668.045,13.904 669.761,13.904 		"/>
		<polygon fill="#F7BA0A" points="684.965,19.088 683.251,19.088 675.073,13.904 676.786,13.904 		"/>
		<polygon fill="#F7BA0A" points="670.912,19.088 669.198,19.088 661.019,13.904 662.734,13.904 		"/>
		<polygon fill="#F7BA0A" points="663.854,19.088 662.141,19.088 653.963,13.904 655.677,13.904 		"/>
		<polygon fill="#F7BA0A" points="656.803,19.088 655.087,19.088 646.909,13.904 648.622,13.904 		"/>
		<polygon fill="none" points="637.849,11.655 673.229,11.655 684.965,19.088 682.915,19.088 669.708,27.355 636.341,27.521 
			636.341,26.289 647.057,19.498 650.419,19.565 641.583,13.904 		"/>
	</g>
</g>
</svg>
