<?xml version="1.0" encoding="utf-8"?>
<!-- Generator: Adobe Illustrator 16.0.0, SVG Export Plug-In . SVG Version: 6.00 Build 0)  -->
<!DOCTYPE svg PUBLIC "-//W3C//DTD SVG 1.1//EN" "http://www.w3.org/Graphics/SVG/1.1/DTD/svg11.dtd">
<svg version="1.1" xmlns="http://www.w3.org/2000/svg" xmlns:xlink="http://www.w3.org/1999/xlink" x="0px" y="0px" width="52px"
	 height="52px" viewBox="0 0 52 52" enable-background="new 0 0 52 52" xml:space="preserve">
<g id="Calque_1">
	<rect x="-13" y="-7" fill="#D0D0D0" width="87" height="71"/>
</g>
<g id="Calque_2">
	<g>
		<path fill="#13191C" d="M8.008,42.841v1.55H6.929v-4.645h1.64c0.327,0,0.608,0.041,0.843,0.117c0.235,0.077,0.428,0.184,0.58,0.32
			c0.153,0.137,0.265,0.296,0.337,0.481c0.073,0.186,0.109,0.384,0.109,0.6c0,0.232-0.037,0.445-0.112,0.638
			c-0.075,0.193-0.188,0.359-0.342,0.498c-0.152,0.137-0.346,0.243-0.58,0.324c-0.235,0.077-0.514,0.116-0.834,0.116H8.008z
			 M8.008,42.026h0.561c0.281,0,0.482-0.065,0.606-0.2c0.122-0.135,0.185-0.322,0.185-0.562c0-0.107-0.016-0.203-0.049-0.291
			c-0.032-0.085-0.08-0.162-0.144-0.224c-0.064-0.064-0.148-0.111-0.246-0.146c-0.099-0.034-0.216-0.052-0.353-0.052H8.008V42.026z"
			/>
		<path fill="#13191C" d="M12.076,42.674v1.717h-1.078v-4.645h1.511c0.337,0,0.623,0.033,0.861,0.104
			c0.236,0.069,0.43,0.167,0.58,0.288c0.149,0.122,0.258,0.27,0.327,0.437c0.068,0.168,0.103,0.352,0.103,0.551
			c0,0.149-0.02,0.292-0.061,0.425c-0.041,0.135-0.102,0.258-0.181,0.373c-0.08,0.113-0.177,0.215-0.292,0.303
			c-0.116,0.09-0.25,0.163-0.401,0.221c0.073,0.036,0.139,0.081,0.203,0.133c0.062,0.055,0.117,0.119,0.164,0.196l0.988,1.614
			h-0.975c-0.182,0-0.311-0.066-0.389-0.201l-0.772-1.349c-0.033-0.061-0.074-0.104-0.12-0.129s-0.11-0.038-0.193-0.038H12.076z
			 M12.076,41.933h0.434c0.148,0,0.272-0.022,0.375-0.056c0.104-0.04,0.187-0.09,0.253-0.155c0.067-0.07,0.115-0.146,0.144-0.233
			c0.032-0.087,0.045-0.183,0.045-0.284c0-0.204-0.067-0.362-0.199-0.479c-0.133-0.116-0.339-0.172-0.618-0.172h-0.434V41.933z"/>
		<path fill="#13191C" d="M19.565,44.391h-0.836c-0.094,0-0.171-0.02-0.231-0.063c-0.062-0.045-0.103-0.099-0.125-0.168
			l-0.276-0.809h-1.766l-0.274,0.809c-0.021,0.06-0.063,0.112-0.125,0.163c-0.062,0.047-0.138,0.068-0.227,0.068h-0.842l1.798-4.645
			h1.104L19.565,44.391z M16.58,42.616h1.27l-0.428-1.271c-0.028-0.082-0.06-0.176-0.097-0.285s-0.074-0.23-0.11-0.356
			c-0.034,0.128-0.07,0.25-0.105,0.36c-0.036,0.111-0.071,0.208-0.102,0.286L16.58,42.616z"/>
		<path fill="#13191C" d="M22.805,39.746v0.854h-1.309v3.79h-1.077v-3.79h-1.308v-0.854H22.805z"/>
		<path fill="#13191C" d="M24.431,44.391h-1.084v-4.645h1.084V44.391z"/>
		<path fill="#13191C" d="M29.877,42.067c0,0.2-0.02,0.393-0.062,0.574c-0.043,0.186-0.104,0.358-0.18,0.52
			c-0.074,0.161-0.17,0.312-0.287,0.449c-0.113,0.14-0.242,0.261-0.387,0.368l1.178,1.285h-0.887c-0.127,0-0.242-0.017-0.35-0.047
			c-0.102-0.03-0.195-0.094-0.273-0.184l-0.578-0.649c-0.094,0.019-0.189,0.034-0.287,0.045c-0.096,0.011-0.195,0.015-0.299,0.015
			c-0.359,0-0.689-0.06-0.987-0.182c-0.298-0.121-0.553-0.288-0.764-0.501c-0.211-0.214-0.375-0.468-0.491-0.756
			c-0.116-0.288-0.174-0.601-0.174-0.938s0.058-0.647,0.174-0.938c0.116-0.288,0.28-0.538,0.491-0.751
			c0.21-0.214,0.466-0.381,0.764-0.502c0.298-0.12,0.628-0.182,0.987-0.182c0.363,0,0.691,0.062,0.992,0.184
			c0.291,0.121,0.549,0.29,0.758,0.502c0.209,0.215,0.373,0.464,0.488,0.752C29.818,41.422,29.877,41.734,29.877,42.067z
			 M28.773,42.067c0-0.227-0.029-0.436-0.088-0.619c-0.062-0.186-0.145-0.342-0.258-0.467c-0.113-0.129-0.246-0.225-0.408-0.296
			c-0.164-0.065-0.348-0.1-0.555-0.1s-0.393,0.034-0.555,0.1c-0.161,0.071-0.299,0.167-0.411,0.296
			c-0.112,0.125-0.197,0.281-0.256,0.467c-0.06,0.184-0.09,0.393-0.09,0.619c0,0.232,0.03,0.439,0.09,0.623
			c0.059,0.184,0.144,0.34,0.256,0.469c0.112,0.127,0.25,0.226,0.411,0.292c0.163,0.067,0.348,0.1,0.555,0.1s0.391-0.032,0.555-0.1
			c0.162-0.066,0.295-0.165,0.408-0.292c0.113-0.129,0.195-0.285,0.258-0.469C28.744,42.507,28.773,42.3,28.773,42.067z"/>
		<path fill="#13191C" d="M32.326,43.541c0.145,0,0.273-0.022,0.389-0.071c0.113-0.049,0.209-0.116,0.289-0.206
			c0.078-0.09,0.139-0.198,0.178-0.327c0.041-0.128,0.062-0.273,0.062-0.438v-2.752h1.078v2.752c0,0.284-0.049,0.547-0.141,0.784
			c-0.092,0.239-0.223,0.442-0.395,0.614s-0.381,0.308-0.629,0.402c-0.244,0.098-0.525,0.145-0.832,0.145
			c-0.311,0-0.59-0.047-0.834-0.145c-0.248-0.095-0.459-0.23-0.629-0.402c-0.172-0.172-0.305-0.375-0.395-0.614
			c-0.092-0.237-0.139-0.5-0.139-0.784v-2.752h1.08v2.75c0,0.165,0.018,0.31,0.059,0.438c0.043,0.13,0.102,0.237,0.182,0.328
			c0.076,0.091,0.174,0.158,0.287,0.207S32.182,43.541,32.326,43.541z"/>
		<path fill="#13191C" d="M38.016,39.746v0.829h-1.91v1.086h1.465v0.795h-1.465v1.107h1.91v0.827h-2.992v-4.645H38.016z"/>
		<path fill="#13191C" d="M39.705,42.674v1.717h-1.078v-4.645h1.514c0.336,0,0.619,0.033,0.855,0.104
			c0.242,0.069,0.434,0.167,0.582,0.288c0.15,0.122,0.26,0.27,0.328,0.437c0.068,0.168,0.102,0.352,0.102,0.551
			c0,0.149-0.02,0.292-0.061,0.425c-0.039,0.135-0.1,0.258-0.182,0.373c-0.076,0.113-0.176,0.215-0.291,0.303
			c-0.115,0.09-0.248,0.163-0.4,0.221c0.072,0.036,0.139,0.081,0.201,0.133c0.064,0.055,0.119,0.119,0.166,0.196l0.984,1.614h-0.973
			c-0.18,0-0.309-0.066-0.389-0.201l-0.771-1.349c-0.033-0.061-0.072-0.104-0.119-0.129c-0.045-0.025-0.111-0.038-0.193-0.038
			H39.705z M39.705,41.933h0.436c0.146,0,0.271-0.022,0.371-0.056c0.105-0.04,0.191-0.09,0.256-0.155
			c0.066-0.07,0.113-0.146,0.143-0.233c0.029-0.087,0.049-0.183,0.049-0.284c0-0.204-0.07-0.362-0.205-0.479
			c-0.129-0.116-0.336-0.172-0.613-0.172h-0.436V41.933z"/>
		<path fill="#13191C" d="M43.838,40.171c0.08-0.065,0.164-0.128,0.256-0.186c0.096-0.06,0.193-0.108,0.301-0.151
			c0.104-0.043,0.219-0.077,0.342-0.101c0.123-0.025,0.252-0.038,0.398-0.038c0.199,0,0.379,0.025,0.541,0.081
			c0.158,0.054,0.295,0.128,0.406,0.226c0.113,0.102,0.201,0.219,0.264,0.357c0.059,0.141,0.09,0.294,0.09,0.465
			c0,0.163-0.025,0.304-0.068,0.421c-0.043,0.116-0.102,0.22-0.172,0.306c-0.068,0.088-0.143,0.162-0.225,0.225
			c-0.082,0.065-0.16,0.121-0.232,0.179c-0.076,0.056-0.137,0.109-0.191,0.162c-0.053,0.052-0.088,0.111-0.1,0.18l-0.09,0.446H44.68
			l-0.07-0.516c0-0.014-0.004-0.024-0.004-0.035c-0.002-0.014-0.002-0.028-0.002-0.041c0-0.092,0.023-0.175,0.068-0.246
			c0.043-0.069,0.1-0.133,0.17-0.193c0.066-0.06,0.141-0.113,0.217-0.167c0.08-0.056,0.154-0.113,0.223-0.175
			c0.066-0.063,0.125-0.133,0.168-0.212c0.045-0.076,0.066-0.17,0.066-0.275c0-0.127-0.045-0.23-0.127-0.305
			c-0.082-0.075-0.197-0.113-0.344-0.113c-0.113,0-0.207,0.013-0.283,0.036s-0.143,0.049-0.195,0.077
			c-0.053,0.029-0.102,0.054-0.141,0.079c-0.041,0.023-0.084,0.033-0.121,0.033c-0.092,0-0.158-0.04-0.203-0.118L43.838,40.171z
			 M44.426,43.891c0-0.076,0.012-0.146,0.043-0.213c0.027-0.066,0.066-0.124,0.117-0.172c0.051-0.047,0.109-0.089,0.178-0.116
			c0.066-0.028,0.143-0.043,0.223-0.043s0.152,0.015,0.219,0.043c0.07,0.027,0.129,0.069,0.18,0.116
			c0.051,0.048,0.09,0.105,0.121,0.172c0.027,0.067,0.041,0.137,0.041,0.213c0,0.077-0.014,0.15-0.041,0.218
			c-0.031,0.065-0.07,0.124-0.121,0.173c-0.051,0.048-0.109,0.088-0.18,0.115c-0.066,0.028-0.139,0.041-0.219,0.041
			s-0.156-0.013-0.223-0.041c-0.068-0.027-0.127-0.067-0.178-0.115c-0.051-0.049-0.09-0.107-0.117-0.173
			C44.438,44.041,44.426,43.968,44.426,43.891z"/>
	</g>
	<g>
		<path fill="#13191C" d="M22.133,33.088c-0.858,0.856-1.8,1.501-2.829,1.929c-1.029,0.429-2.218,0.643-3.568,0.643
			c-2.551,0-4.522-0.697-5.915-2.089c-1.393-1.393-2.208-2.748-2.443-4.066c-0.236-1.318-0.354-3.145-0.354-5.481
			c0-2.444,0.113-4.292,0.337-5.545c0.225-1.254,0.825-2.368,1.8-3.344c0.975-0.975,1.977-1.676,3.006-2.105
			c1.029-0.429,2.218-0.643,3.568-0.643c2.55,0,4.521,0.697,5.914,2.089c1.393,1.394,2.207,2.748,2.443,4.067
			c0.236,1.317,0.354,3.145,0.354,5.48c0,2.444-0.113,4.292-0.338,5.545C23.885,30.822,23.225,31.994,22.133,33.088z M17.986,18.397
			c-0.214-0.3-0.52-0.541-0.916-0.724c-0.397-0.182-0.841-0.273-1.333-0.273c-0.494,0-0.933,0.091-1.318,0.273
			c-0.387,0.183-0.713,0.445-0.981,0.788c-0.268,0.342-0.466,0.873-0.594,1.591c-0.128,0.719-0.193,2.041-0.193,3.97
			c0,1.93,0.064,3.247,0.193,3.955c0.128,0.706,0.322,1.226,0.579,1.559c0.257,0.333,0.589,0.599,0.997,0.803
			c0.406,0.204,0.846,0.305,1.318,0.305c0.985,0,1.682-0.268,2.089-0.803c0.406-0.535,0.674-1.157,0.804-1.863
			c0.128-0.708,0.193-2.025,0.193-3.955c0-1.908-0.065-3.225-0.193-3.954C18.5,19.339,18.286,18.783,17.986,18.397z"/>
		<path fill="#13191C" d="M35.311,35.659c-2.442,0-4.494-0.755-6.153-2.266c-1.663-1.511-2.492-3.499-2.492-5.963V12.578h5.625
			v14.724c0,1.049,0.264,1.871,0.787,2.46c0.525,0.589,1.271,0.882,2.232,0.882c0.945,0,1.692-0.289,2.25-0.866
			c0.559-0.579,0.838-1.403,0.838-2.476V12.578h5.627v14.853c0,2.44-0.843,4.423-2.526,5.945
			C39.816,34.898,37.757,35.659,35.311,35.659z M34.027,10.36l-3.794-5.818h5.4l1.574,5.818H34.027z"/>
	</g>
</g>
</svg>
