<?xml version="1.0" encoding="utf-8"?>
<!-- Generator: Adobe Illustrator 16.0.4, SVG Export Plug-In . SVG Version: 6.00 Build 0)  -->
<!DOCTYPE svg PUBLIC "-//W3C//DTD SVG 1.1//EN" "http://www.w3.org/Graphics/SVG/1.1/DTD/svg11.dtd">
<svg version="1.1" id="Calque_1" xmlns="http://www.w3.org/2000/svg" xmlns:xlink="http://www.w3.org/1999/xlink" x="0px" y="0px"
	 width="262px" height="55px" viewBox="0 0 262 55" enable-background="new 0 0 262 55" xml:space="preserve">
<g>
	<polygon fill="#F36543" points="208.639,27.497 223.129,5.517 208.39,5.517 193.843,27.521 	"/>
	<polygon fill="#FAD16A" points="208.639,27.497 223.129,49.478 208.39,49.478 193.843,27.476 	"/>
	<polygon fill="#F36543" points="259.985,27.521 245.438,5.517 245.014,5.517 237.88,5.517 230.274,5.517 215.729,27.521 
		230.523,27.497 241.447,10.929 252.37,27.497 	"/>
	<polygon fill="#FAD16A" points="252.347,27.497 241.436,44.05 230.523,27.497 215.729,27.476 230.274,49.478 237.856,49.478 
		245.014,49.478 245.438,49.478 259.985,27.476 	"/>
	<polygon fill="#F36543" points="186.614,27.497 201.104,5.517 186.364,5.517 171.818,27.521 	"/>
	<polygon fill="#FAD16A" points="186.614,27.497 201.104,49.478 186.364,49.478 171.818,27.476 	"/>
	<polygon fill="#F36543" points="164.716,27.497 179.206,5.517 164.467,5.517 149.92,27.521 	"/>
	<polygon fill="#FAD16A" points="164.716,27.497 179.206,49.478 164.467,49.478 149.92,27.476 	"/>
	<polygon fill="#F36543" points="142.716,27.497 157.206,5.517 142.467,5.517 127.921,27.521 	"/>
	<polygon fill="#FAD16A" points="142.716,27.497 157.206,49.478 142.467,49.478 127.921,27.476 	"/>
	<polygon fill="#F36543" points="124.764,5.517 124.764,5.501 3.528,5.501 3.528,11.013 116.834,11.013 115.023,13.751 
		3.528,13.751 3.528,19.263 111.38,19.263 109.578,21.989 3.566,21.989 3.566,27.499 105.934,27.499 105.921,27.521 120.716,27.497 
		135.207,5.517 	"/>
	<polygon fill="#FAD16A" points="135.207,49.478 120.716,27.497 105.921,27.476 105.938,27.501 3.528,27.501 3.528,33.013 
		109.582,33.013 111.393,35.751 3.528,35.751 3.528,41.263 115.036,41.263 116.838,43.989 3.566,43.989 3.566,49.499 
		124.496,49.499 124.496,49.478 	"/>
</g>
</svg>
