<?xml version="1.0" encoding="utf-8"?>
<!-- Generator: Adobe Illustrator 16.0.4, SVG Export Plug-In . SVG Version: 6.00 Build 0)  -->
<!DOCTYPE svg PUBLIC "-//W3C//DTD SVG 1.1//EN" "http://www.w3.org/Graphics/SVG/1.1/DTD/svg11.dtd">
<svg version="1.1" id="Calque_1" xmlns="http://www.w3.org/2000/svg" xmlns:xlink="http://www.w3.org/1999/xlink" x="0px" y="0px"
	 width="262px" height="55px" viewBox="0 0 262 55" enable-background="new 0 0 262 55" xml:space="preserve">
<g>
	<polygon fill="#0A8E46" points="208.663,27.497 223.153,5.518 208.413,5.518 193.867,27.521 	"/>
	<polygon fill="#0A8E46" points="208.663,27.497 223.153,49.478 208.413,49.478 193.867,27.476 	"/>
	<polygon fill="#0A8E46" points="260.009,27.521 245.462,5.517 245.038,5.517 237.903,5.517 230.298,5.517 215.753,27.521 
		230.548,27.497 241.472,10.929 252.394,27.497 	"/>
	<polygon fill="#0A8E46" points="252.371,27.497 241.46,44.05 230.548,27.497 215.753,27.476 230.298,49.478 237.88,49.478 
		245.038,49.478 245.462,49.478 260.009,27.476 	"/>
	<polygon fill="#0A8E46" points="186.638,27.497 201.128,5.518 186.388,5.518 171.842,27.521 	"/>
	<polygon fill="#0A8E46" points="186.638,27.497 201.128,49.478 186.388,49.478 171.842,27.476 	"/>
	<polygon fill="#0A8E46" points="164.74,27.497 179.23,5.518 164.49,5.518 149.944,27.521 	"/>
	<polygon fill="#0A8E46" points="164.74,27.497 179.23,49.478 164.49,49.478 149.944,27.476 	"/>
	<polygon fill="#0A8E46" points="142.74,27.497 157.23,5.518 142.491,5.518 127.945,27.521 	"/>
	<polygon fill="#0A8E46" points="142.74,27.497 157.23,49.478 142.491,49.478 127.945,27.476 	"/>
	<polygon fill="#0A8E46" points="124.788,5.517 124.788,5.501 3.552,5.501 3.552,11.013 116.858,11.013 115.047,13.751 
		3.552,13.751 3.552,19.263 111.404,19.263 109.602,21.989 3.59,21.989 3.59,27.499 105.958,27.499 105.945,27.521 120.74,27.497 
		135.23,5.517 	"/>
	<polygon fill="#0A8E46" points="135.23,49.478 120.74,27.497 105.945,27.476 105.962,27.501 3.552,27.501 3.552,33.013 
		109.606,33.013 111.417,35.751 3.552,35.751 3.552,41.263 115.06,41.263 116.862,43.989 3.59,43.989 3.59,49.499 124.52,49.499 
		124.52,49.478 	"/>
</g>
</svg>
