<?xml version="1.0" encoding="utf-8"?>
<!-- Generator: Adobe Illustrator 16.0.4, SVG Export Plug-In . SVG Version: 6.00 Build 0)  -->
<!DOCTYPE svg PUBLIC "-//W3C//DTD SVG 1.1//EN" "http://www.w3.org/Graphics/SVG/1.1/DTD/svg11.dtd">
<svg version="1.1" id="Calque_1" xmlns="http://www.w3.org/2000/svg" xmlns:xlink="http://www.w3.org/1999/xlink" x="0px" y="0px"
	 width="262px" height="55px" viewBox="0 0 262 55" enable-background="new 0 0 262 55" xml:space="preserve">
<g>
	<polygon fill="#627BD6" points="208.356,27.236 222.936,5.119 208.106,5.119 193.47,27.258 	"/>
	<polygon fill="#627BD6" points="208.356,27.236 222.936,49.352 208.106,49.352 193.47,27.213 	"/>
	<polygon fill="#627BD6" points="260.021,27.258 245.385,5.119 244.957,5.119 237.778,5.119 230.126,5.119 215.49,27.258 
		230.377,27.236 241.367,10.562 252.358,27.236 	"/>
	<polygon fill="#627BD6" points="252.335,27.236 241.356,43.891 230.377,27.236 215.49,27.213 230.126,49.352 237.755,49.352 
		244.957,49.352 245.385,49.352 260.021,27.213 	"/>
	<polygon fill="#627BD6" points="186.195,27.236 200.775,5.119 185.944,5.119 171.309,27.258 	"/>
	<polygon fill="#627BD6" points="186.195,27.236 200.775,49.352 185.944,49.352 171.309,27.213 	"/>
	<polygon fill="#627BD6" points="164.162,27.236 178.742,5.119 163.912,5.119 149.275,27.258 	"/>
	<polygon fill="#627BD6" points="164.162,27.236 178.742,49.352 163.912,49.352 149.275,27.213 	"/>
	<polygon fill="#627BD6" points="142.026,27.236 156.606,5.119 141.775,5.119 127.14,27.258 	"/>
	<polygon fill="#627BD6" points="142.026,27.236 156.606,49.352 141.775,49.352 127.14,27.213 	"/>
	<polygon fill="#627BD6" points="123.964,5.119 123.964,5.104 1.979,5.104 1.979,10.648 115.984,10.648 114.163,13.404 
		1.979,13.404 1.979,18.951 110.497,18.951 108.684,21.693 2.017,21.693 2.017,27.238 105.017,27.238 105.004,27.258 
		119.891,27.236 134.471,5.119 	"/>
	<polygon fill="#627BD6" points="134.471,49.352 119.891,27.236 105.004,27.213 105.022,27.24 1.979,27.24 1.979,32.785 
		108.688,32.785 110.509,35.541 1.979,35.541 1.979,41.086 114.176,41.086 115.988,43.828 2.017,43.828 2.017,49.373 
		123.694,49.373 123.694,49.352 	"/>
</g>
</svg>
