<?xml version="1.0" encoding="utf-8"?>
<!-- Generator: Adobe Illustrator 16.0.4, SVG Export Plug-In . SVG Version: 6.00 Build 0)  -->
<!DOCTYPE svg PUBLIC "-//W3C//DTD SVG 1.1//EN" "http://www.w3.org/Graphics/SVG/1.1/DTD/svg11.dtd">
<svg version="1.1" id="Calque_1" xmlns="http://www.w3.org/2000/svg" xmlns:xlink="http://www.w3.org/1999/xlink" x="0px" y="0px"
	 width="262px" height="55px" viewBox="0 0 262 55" enable-background="new 0 0 262 55" xml:space="preserve">
<g>
	<polygon fill="#FFFFFF" points="207.935,27.619 222.425,5.64 207.686,5.64 193.139,27.643 	"/>
	<polygon fill="#FFFFFF" points="207.935,27.619 222.425,49.6 207.686,49.6 193.139,27.598 	"/>
	<polygon fill="#FFFFFF" points="259.281,27.643 244.734,5.639 244.31,5.639 237.176,5.639 229.57,5.639 215.024,27.643 
		229.819,27.619 240.743,11.051 251.666,27.619 	"/>
	<polygon fill="#FFFFFF" points="251.643,27.619 240.731,44.172 229.819,27.619 215.024,27.598 229.57,49.6 237.152,49.6 
		244.31,49.6 244.734,49.6 259.281,27.598 	"/>
	<polygon fill="#FFFFFF" points="185.91,27.619 200.399,5.64 185.66,5.64 171.114,27.643 	"/>
	<polygon fill="#FFFFFF" points="185.91,27.619 200.399,49.6 185.66,49.6 171.114,27.598 	"/>
	<polygon fill="#FFFFFF" points="164.012,27.619 178.502,5.64 163.763,5.64 149.217,27.643 	"/>
	<polygon fill="#FFFFFF" points="164.012,27.619 178.502,49.6 163.763,49.6 149.217,27.598 	"/>
	<polygon fill="#FFFFFF" points="142.012,27.619 156.502,5.64 141.764,5.64 127.217,27.643 	"/>
	<polygon fill="#FFFFFF" points="142.012,27.619 156.502,49.6 141.764,49.6 127.217,27.598 	"/>
	<polygon fill="#FFFFFF" points="124.06,5.639 124.06,5.623 2.824,5.623 2.824,11.135 116.13,11.135 114.319,13.873 2.824,13.873 
		2.824,19.385 110.676,19.385 108.874,22.111 2.862,22.111 2.862,27.621 105.23,27.621 105.217,27.643 120.012,27.619 
		134.503,5.639 	"/>
	<polygon fill="#FFFFFF" points="134.503,49.6 120.012,27.619 105.217,27.598 105.234,27.623 2.824,27.623 2.824,33.135 
		108.878,33.135 110.688,35.873 2.824,35.873 2.824,41.385 114.332,41.385 116.134,44.111 2.862,44.111 2.862,49.621 
		123.792,49.621 123.792,49.6 	"/>
</g>
</svg>
