<?xml version="1.0" encoding="utf-8"?>
<!-- Generator: Adobe Illustrator 16.0.4, SVG Export Plug-In . SVG Version: 6.00 Build 0)  -->
<!DOCTYPE svg PUBLIC "-//W3C//DTD SVG 1.1//EN" "http://www.w3.org/Graphics/SVG/1.1/DTD/svg11.dtd">
<svg version="1.1" id="Calque_1" xmlns="http://www.w3.org/2000/svg" xmlns:xlink="http://www.w3.org/1999/xlink" x="0px" y="0px"
	 width="262px" height="55px" viewBox="0 0 262 55" enable-background="new 0 0 262 55" xml:space="preserve">
<g>
	<polygon fill="#FFFFFF" points="207.882,27.497 222.372,5.517 207.633,5.517 193.086,27.521 	"/>
	<polygon fill="#627BD6" points="207.882,27.497 222.372,49.478 207.633,49.478 193.086,27.476 	"/>
	<polygon fill="#FFFFFF" points="259.229,27.521 244.682,5.517 244.257,5.517 237.123,5.517 229.518,5.517 214.972,27.521 
		229.767,27.497 240.69,10.929 251.613,27.497 	"/>
	<polygon fill="#627BD6" points="251.59,27.497 240.679,44.05 229.767,27.497 214.972,27.476 229.518,49.478 237.1,49.478 
		244.257,49.478 244.682,49.478 259.229,27.476 	"/>
	<polygon fill="#FFFFFF" points="185.857,27.497 200.347,5.517 185.607,5.517 171.062,27.521 	"/>
	<polygon fill="#627BD6" points="185.857,27.497 200.347,49.478 185.607,49.478 171.062,27.476 	"/>
	<polygon fill="#FFFFFF" points="163.959,27.497 178.449,5.517 163.71,5.517 149.164,27.521 	"/>
	<polygon fill="#627BD6" points="163.959,27.497 178.449,49.478 163.71,49.478 149.164,27.476 	"/>
	<polygon fill="#FFFFFF" points="141.959,27.497 156.449,5.517 141.711,5.517 127.164,27.521 	"/>
	<polygon fill="#627BD6" points="141.959,27.497 156.449,49.478 141.711,49.478 127.164,27.476 	"/>
	<polygon fill="#FFFFFF" points="124.007,5.517 124.007,5.501 2.771,5.501 2.771,11.013 116.077,11.013 114.267,13.751 
		2.771,13.751 2.771,19.263 110.623,19.263 108.821,21.989 2.81,21.989 2.81,27.499 105.177,27.499 105.164,27.521 119.959,27.497 
		134.45,5.517 	"/>
	<polygon fill="#627BD6" points="134.45,49.478 119.959,27.497 105.164,27.476 105.182,27.501 2.771,27.501 2.771,33.013 
		108.825,33.013 110.636,35.751 2.771,35.751 2.771,41.263 114.279,41.263 116.081,43.989 2.81,43.989 2.81,49.499 123.739,49.499 
		123.739,49.478 	"/>
</g>
</svg>
