<?xml version="1.0" encoding="utf-8"?>
<!-- Generator: Adobe Illustrator 16.0.4, SVG Export Plug-In . SVG Version: 6.00 Build 0)  -->
<!DOCTYPE svg PUBLIC "-//W3C//DTD SVG 1.1//EN" "http://www.w3.org/Graphics/SVG/1.1/DTD/svg11.dtd">
<svg version="1.1" id="Calque_1" xmlns="http://www.w3.org/2000/svg" xmlns:xlink="http://www.w3.org/1999/xlink" x="0px" y="0px"
	 width="262px" height="55px" viewBox="0 0 262 55" enable-background="new 0 0 262 55" xml:space="preserve">
<g>
	<polygon fill="#CC3524" points="207.883,27.497 222.373,5.517 207.633,5.517 193.087,27.521 	"/>
	<polygon fill="#CC3524" points="207.883,27.497 222.373,49.478 207.633,49.478 193.087,27.476 	"/>
	<polygon fill="#CC3524" points="259.229,27.521 244.682,5.517 244.258,5.517 237.123,5.517 229.518,5.517 214.973,27.521 
		229.768,27.497 240.691,10.929 251.613,27.497 	"/>
	<polygon fill="#CC3524" points="251.591,27.497 240.68,44.05 229.768,27.497 214.973,27.476 229.518,49.478 237.1,49.478 
		244.258,49.478 244.682,49.478 259.229,27.476 	"/>
	<polygon fill="#CC3524" points="185.857,27.497 200.348,5.517 185.607,5.517 171.062,27.521 	"/>
	<polygon fill="#CC3524" points="185.857,27.497 200.348,49.478 185.607,49.478 171.062,27.476 	"/>
	<polygon fill="#CC3524" points="163.959,27.497 178.449,5.517 163.711,5.517 149.164,27.521 	"/>
	<polygon fill="#CC3524" points="163.959,27.497 178.449,49.478 163.711,49.478 149.164,27.476 	"/>
	<polygon fill="#CC3524" points="141.959,27.497 156.449,5.517 141.711,5.517 127.165,27.521 	"/>
	<polygon fill="#CC3524" points="141.959,27.497 156.449,49.478 141.711,49.478 127.165,27.476 	"/>
	<polygon fill="#CC3524" points="124.007,5.517 124.007,5.501 2.772,5.501 2.772,11.013 116.078,11.013 114.267,13.751 
		2.772,13.751 2.772,19.263 110.624,19.263 108.821,21.989 2.81,21.989 2.81,27.499 105.178,27.499 105.165,27.521 119.96,27.497 
		134.451,5.517 	"/>
	<polygon fill="#CC3524" points="134.451,49.478 119.96,27.497 105.165,27.476 105.182,27.501 2.772,27.501 2.772,33.013 
		108.826,33.013 110.636,35.751 2.772,35.751 2.772,41.263 114.28,41.263 116.082,43.989 2.81,43.989 2.81,49.499 123.74,49.499 
		123.74,49.478 	"/>
</g>
</svg>
