<?xml version="1.0" encoding="utf-8"?>
<!-- Generator: Adobe Illustrator 16.0.4, SVG Export Plug-In . SVG Version: 6.00 Build 0)  -->
<!DOCTYPE svg PUBLIC "-//W3C//DTD SVG 1.1//EN" "http://www.w3.org/Graphics/SVG/1.1/DTD/svg11.dtd">
<svg version="1.1" id="Calque_1" xmlns="http://www.w3.org/2000/svg" xmlns:xlink="http://www.w3.org/1999/xlink" x="0px" y="0px"
	 width="262px" height="55px" viewBox="0 0 262 55" enable-background="new 0 0 262 55" xml:space="preserve">
<g>
	<polygon fill="#FFFFFF" points="208.336,26.756 222.915,4.639 208.086,4.639 193.449,26.777 	"/>
	<polygon fill="#FAD16A" points="208.336,26.756 222.915,48.872 208.086,48.872 193.449,26.733 	"/>
	<polygon fill="#FFFFFF" points="260,26.777 245.364,4.639 244.937,4.639 237.758,4.639 230.105,4.639 215.47,26.777 
		230.356,26.756 241.347,10.083 252.338,26.756 	"/>
	<polygon fill="#FAD16A" points="252.314,26.756 241.336,43.41 230.356,26.756 215.47,26.733 230.105,48.872 237.734,48.872 
		244.937,48.872 245.364,48.872 260,26.733 	"/>
	<polygon fill="#FFFFFF" points="186.175,26.756 200.755,4.639 185.924,4.639 171.288,26.777 	"/>
	<polygon fill="#FAD16A" points="186.175,26.756 200.755,48.872 185.924,48.872 171.288,26.733 	"/>
	<polygon fill="#FFFFFF" points="164.142,26.756 178.722,4.639 163.892,4.639 149.255,26.777 	"/>
	<polygon fill="#FAD16A" points="164.142,26.756 178.722,48.872 163.892,48.872 149.255,26.733 	"/>
	<polygon fill="#FFFFFF" points="142.006,26.756 156.586,4.639 141.755,4.639 127.119,26.777 	"/>
	<polygon fill="#FAD16A" points="142.006,26.756 156.586,48.872 141.755,48.872 127.119,26.733 	"/>
	<polygon fill="#FFFFFF" points="123.943,4.639 123.943,4.623 1.958,4.623 1.958,10.169 115.964,10.169 114.143,12.925 
		1.958,12.925 1.958,18.471 110.476,18.471 108.663,21.213 1.996,21.213 1.996,26.758 104.997,26.758 104.983,26.777 
		119.871,26.756 134.45,4.639 	"/>
	<polygon fill="#FAD16A" points="134.45,48.872 119.871,26.756 104.983,26.733 105.001,26.76 1.958,26.76 1.958,32.305 
		108.667,32.305 110.489,35.061 1.958,35.061 1.958,40.605 114.156,40.605 115.968,43.348 1.996,43.348 1.996,48.894 
		123.674,48.894 123.674,48.872 	"/>
</g>
</svg>
