<?xml version="1.0" encoding="utf-8"?>
<!-- Generator: Adobe Illustrator 16.0.4, SVG Export Plug-In . SVG Version: 6.00 Build 0)  -->
<!DOCTYPE svg PUBLIC "-//W3C//DTD SVG 1.1//EN" "http://www.w3.org/Graphics/SVG/1.1/DTD/svg11.dtd">
<svg version="1.1" id="Calque_1" xmlns="http://www.w3.org/2000/svg" xmlns:xlink="http://www.w3.org/1999/xlink" x="0px" y="0px"
	 width="262px" height="55px" viewBox="0 0 262 55" enable-background="new 0 0 262 55" xml:space="preserve">
<g>
	<polygon fill="#F36543" points="209.336,27.498 223.915,5.381 209.086,5.381 194.449,27.52 	"/>
	<polygon fill="#F36543" points="209.336,27.498 223.915,49.613 209.086,49.613 194.449,27.475 	"/>
	<polygon fill="#F36543" points="261,27.52 246.364,5.381 245.937,5.381 238.758,5.381 231.105,5.381 216.47,27.52 231.356,27.498 
		242.347,10.824 253.338,27.498 	"/>
	<polygon fill="#F36543" points="253.314,27.498 242.336,44.152 231.356,27.498 216.47,27.475 231.105,49.613 238.734,49.613 
		245.937,49.613 246.364,49.613 261,27.475 	"/>
	<polygon fill="#F36543" points="187.175,27.498 201.755,5.381 186.924,5.381 172.288,27.52 	"/>
	<polygon fill="#F36543" points="187.175,27.498 201.755,49.613 186.924,49.613 172.288,27.475 	"/>
	<polygon fill="#F36543" points="165.142,27.498 179.722,5.381 164.892,5.381 150.255,27.52 	"/>
	<polygon fill="#F36543" points="165.142,27.498 179.722,49.613 164.892,49.613 150.255,27.475 	"/>
	<polygon fill="#F36543" points="143.006,27.498 157.586,5.381 142.755,5.381 128.119,27.52 	"/>
	<polygon fill="#F36543" points="143.006,27.498 157.586,49.613 142.755,49.613 128.119,27.475 	"/>
	<polygon fill="#F36543" points="124.943,5.381 124.943,5.365 2.958,5.365 2.958,10.91 116.964,10.91 115.143,13.666 2.958,13.666 
		2.958,19.213 111.476,19.213 109.663,21.955 2.996,21.955 2.996,27.5 105.997,27.5 105.983,27.52 120.871,27.498 135.45,5.381 	"/>
	<polygon fill="#F36543" points="135.45,49.613 120.871,27.498 105.983,27.475 106.001,27.502 2.958,27.502 2.958,33.047 
		109.667,33.047 111.489,35.803 2.958,35.803 2.958,41.348 115.156,41.348 116.968,44.09 2.996,44.09 2.996,49.635 124.674,49.635 
		124.674,49.613 	"/>
</g>
</svg>
