<?xml version="1.0" encoding="utf-8"?>
<!-- Generator: Adobe Illustrator 16.0.4, SVG Export Plug-In . SVG Version: 6.00 Build 0)  -->
<!DOCTYPE svg PUBLIC "-//W3C//DTD SVG 1.1//EN" "http://www.w3.org/Graphics/SVG/1.1/DTD/svg11.dtd">
<svg version="1.1" id="Calque_1" xmlns="http://www.w3.org/2000/svg" xmlns:xlink="http://www.w3.org/1999/xlink" x="0px" y="0px"
	 width="262px" height="55px" viewBox="0 0 262 55" enable-background="new 0 0 262 55" xml:space="preserve">
<g>
	<polygon fill="#FAD16A" points="208.356,27.498 222.936,5.381 208.106,5.381 193.47,27.52 	"/>
	<polygon fill="#FAD16A" points="208.356,27.498 222.936,49.613 208.106,49.613 193.47,27.475 	"/>
	<polygon fill="#FAD16A" points="260.021,27.52 245.385,5.381 244.957,5.381 237.778,5.381 230.126,5.381 215.49,27.52 
		230.377,27.498 241.367,10.824 252.358,27.498 	"/>
	<polygon fill="#FAD16A" points="252.335,27.498 241.356,44.152 230.377,27.498 215.49,27.475 230.126,49.613 237.755,49.613 
		244.957,49.613 245.385,49.613 260.021,27.475 	"/>
	<polygon fill="#FAD16A" points="186.195,27.498 200.775,5.381 185.944,5.381 171.309,27.52 	"/>
	<polygon fill="#FAD16A" points="186.195,27.498 200.775,49.613 185.944,49.613 171.309,27.475 	"/>
	<polygon fill="#FAD16A" points="164.162,27.498 178.742,5.381 163.912,5.381 149.275,27.52 	"/>
	<polygon fill="#FAD16A" points="164.162,27.498 178.742,49.613 163.912,49.613 149.275,27.475 	"/>
	<polygon fill="#FAD16A" points="142.026,27.498 156.606,5.381 141.775,5.381 127.14,27.52 	"/>
	<polygon fill="#FAD16A" points="142.026,27.498 156.606,49.613 141.775,49.613 127.14,27.475 	"/>
	<polygon fill="#F36543" points="123.964,5.381 123.964,5.365 1.979,5.365 1.979,10.91 115.984,10.91 114.163,13.666 1.979,13.666 
		1.979,19.213 110.497,19.213 108.684,21.955 2.017,21.955 2.017,27.5 105.017,27.5 105.004,27.52 119.891,27.498 134.471,5.381 	
		"/>
	<polygon fill="#F36543" points="134.471,49.613 119.891,27.498 105.004,27.475 105.022,27.502 1.979,27.502 1.979,33.047 
		108.688,33.047 110.509,35.803 1.979,35.803 1.979,41.348 114.176,41.348 115.988,44.09 2.017,44.09 2.017,49.635 123.694,49.635 
		123.694,49.613 	"/>
</g>
</svg>
