<?xml version="1.0" encoding="utf-8"?>
<!-- Generator: Adobe Illustrator 16.0.4, SVG Export Plug-In . SVG Version: 6.00 Build 0)  -->
<!DOCTYPE svg PUBLIC "-//W3C//DTD SVG 1.1//EN" "http://www.w3.org/Graphics/SVG/1.1/DTD/svg11.dtd">
<svg version="1.1" id="Calque_1" xmlns="http://www.w3.org/2000/svg" xmlns:xlink="http://www.w3.org/1999/xlink" x="0px" y="0px"
	 width="262px" height="55px" viewBox="0 0 262 55" enable-background="new 0 0 262 55" xml:space="preserve">
<g>
	<polygon fill="#FFFFFF" points="208.356,27.497 222.936,5.38 208.106,5.38 193.47,27.519 	"/>
	<polygon fill="#FFFFFF" points="208.356,27.497 222.936,49.613 208.106,49.613 193.47,27.475 	"/>
	<polygon fill="#FFFFFF" points="260.021,27.519 245.385,5.38 244.957,5.38 237.778,5.38 230.126,5.38 215.49,27.519 
		230.377,27.497 241.367,10.824 252.358,27.497 	"/>
	<polygon fill="#FFFFFF" points="252.335,27.497 241.356,44.151 230.377,27.497 215.49,27.475 230.126,49.613 237.755,49.613 
		244.957,49.613 245.385,49.613 260.021,27.475 	"/>
	<polygon fill="#FFFFFF" points="186.195,27.497 200.775,5.38 185.944,5.38 171.309,27.519 	"/>
	<polygon fill="#FFFFFF" points="186.195,27.497 200.775,49.613 185.944,49.613 171.309,27.475 	"/>
	<polygon fill="#FFFFFF" points="164.162,27.497 178.742,5.38 163.912,5.38 149.275,27.519 	"/>
	<polygon fill="#FFFFFF" points="164.162,27.497 178.742,49.613 163.912,49.613 149.275,27.475 	"/>
	<polygon fill="#FFFFFF" points="142.026,27.497 156.606,5.38 141.775,5.38 127.14,27.519 	"/>
	<polygon fill="#FFFFFF" points="142.026,27.497 156.606,49.613 141.775,49.613 127.14,27.475 	"/>
	<polygon fill="#FFFFFF" points="123.964,5.38 123.964,5.365 1.979,5.365 1.979,10.91 115.984,10.91 114.163,13.666 1.979,13.666 
		1.979,19.211 110.497,19.211 108.684,21.954 2.017,21.954 2.017,27.499 105.017,27.499 105.004,27.519 119.891,27.497 
		134.471,5.38 	"/>
	<polygon fill="#FAD16A" points="134.471,49.613 119.891,27.497 105.004,27.475 105.022,27.501 1.979,27.501 1.979,33.046 
		108.688,33.046 110.509,35.802 1.979,35.802 1.979,41.347 114.176,41.347 115.988,44.089 2.017,44.089 2.017,49.635 
		123.694,49.635 123.694,49.613 	"/>
</g>
</svg>
