<?xml version="1.0" encoding="utf-8"?>
<!-- Generator: Adobe Illustrator 16.0.4, SVG Export Plug-In . SVG Version: 6.00 Build 0)  -->
<!DOCTYPE svg PUBLIC "-//W3C//DTD SVG 1.1//EN" "http://www.w3.org/Graphics/SVG/1.1/DTD/svg11.dtd">
<svg version="1.1" id="Calque_1" xmlns="http://www.w3.org/2000/svg" xmlns:xlink="http://www.w3.org/1999/xlink" x="0px" y="0px"
	 width="262px" height="55px" viewBox="0 0 262 55" enable-background="new 0 0 262 55" xml:space="preserve">
<g>
	<polygon fill="#FFFFFF" points="208.378,27.498 222.957,5.381 208.128,5.381 193.491,27.52 	"/>
	<polygon fill="#F36543" points="208.378,27.498 222.957,49.613 208.128,49.613 193.491,27.475 	"/>
	<polygon fill="#FFFFFF" points="260.042,27.52 245.406,5.381 244.979,5.381 237.8,5.381 230.147,5.381 215.512,27.52 
		230.398,27.498 241.389,10.824 252.38,27.498 	"/>
	<polygon fill="#F36543" points="252.356,27.498 241.378,44.152 230.398,27.498 215.512,27.475 230.147,49.613 237.776,49.613 
		244.979,49.613 245.406,49.613 260.042,27.475 	"/>
	<polygon fill="#FFFFFF" points="186.217,27.498 200.797,5.381 185.966,5.381 171.33,27.52 	"/>
	<polygon fill="#F36543" points="186.217,27.498 200.797,49.613 185.966,49.613 171.33,27.475 	"/>
	<polygon fill="#FFFFFF" points="164.184,27.498 178.764,5.381 163.934,5.381 149.297,27.52 	"/>
	<polygon fill="#F36543" points="164.184,27.498 178.764,49.613 163.934,49.613 149.297,27.475 	"/>
	<polygon fill="#FFFFFF" points="142.048,27.498 156.628,5.381 141.797,5.381 127.161,27.52 	"/>
	<polygon fill="#F36543" points="142.048,27.498 156.628,49.613 141.797,49.613 127.161,27.475 	"/>
	<polygon fill="#FFFFFF" points="123.985,5.381 123.985,5.365 2,5.365 2,10.91 116.006,10.91 114.185,13.666 2,13.666 2,19.213 
		110.518,19.213 108.705,21.955 2.038,21.955 2.038,27.5 105.039,27.5 105.025,27.52 119.913,27.498 134.492,5.381 	"/>
	<polygon fill="#F36543" points="134.492,49.613 119.913,27.498 105.025,27.475 105.043,27.502 2,27.502 2,33.047 108.709,33.047 
		110.531,35.803 2,35.803 2,41.348 114.198,41.348 116.01,44.09 2.038,44.09 2.038,49.635 123.716,49.635 123.716,49.613 	"/>
</g>
</svg>
