<?xml version="1.0" encoding="utf-8"?>
<!-- Generator: Adobe Illustrator 16.0.4, SVG Export Plug-In . SVG Version: 6.00 Build 0)  -->
<!DOCTYPE svg PUBLIC "-//W3C//DTD SVG 1.1//EN" "http://www.w3.org/Graphics/SVG/1.1/DTD/svg11.dtd">
<svg version="1.1" id="Calque_1" xmlns="http://www.w3.org/2000/svg" xmlns:xlink="http://www.w3.org/1999/xlink" x="0px" y="0px"
	 width="146px" height="3px" viewBox="0 0 146 3" enable-background="new 0 0 146 3" xml:space="preserve">
<g opacity="0.15">
	<polygon fill="#F2F2F2" points="60.26,2.616 60.26,2.919 61.18,4.407 61.18,4.104 	"/>
	<polygon fill="#F2F2F2" points="60.26,1.352 60.26,1.66 61.18,3.143 61.18,2.834 	"/>
	<line fill="#F2F2F2" x1="60.26" y1="3.888" x2="60.26" y2="4.195"/>
	<polygon fill="#F2F2F2" points="60.074,1.975 60.074,2.29 59.129,3.772 59.129,3.464 	"/>
	<polygon fill="#F2F2F2" points="60.074,0.703 60.074,1.013 59.129,2.495 59.129,2.181 	"/>
	<line fill="#F2F2F2" x1="60.074" y1="3.245" x2="60.074" y2="3.56"/>
	<path fill="#F2F2F2" d="M60.074,4.528"/>
	<polyline fill="none" points="58.73,2.834 60.074,0.703 60.074,1.073 61.568,3.464 	"/>
</g>
<g opacity="0.15">
	<polygon fill="#F2F2F2" points="63.124,2.616 63.124,2.919 64.061,4.407 64.061,4.104 	"/>
	<polygon fill="#F2F2F2" points="63.124,1.352 63.124,1.66 64.061,3.143 64.061,2.834 	"/>
	<line fill="#F2F2F2" x1="63.124" y1="3.888" x2="63.124" y2="4.195"/>
	<polygon fill="#F2F2F2" points="62.954,1.975 62.954,2.29 62.016,3.772 62.016,3.464 	"/>
	<polygon fill="#F2F2F2" points="62.954,0.703 62.954,1.013 62.016,2.495 62.016,2.181 	"/>
	<line fill="#F2F2F2" x1="62.954" y1="3.245" x2="62.954" y2="3.56"/>
	<path fill="#F2F2F2" d="M62.954,4.528"/>
	<polyline fill="none" points="61.604,2.834 62.954,0.703 62.954,1.073 64.456,3.464 	"/>
</g>
<g opacity="0.15">
	<polygon fill="#F2F2F2" points="65.992,2.616 65.992,2.919 66.936,4.407 66.936,4.104 	"/>
	<polygon fill="#F2F2F2" points="65.992,1.352 65.992,1.66 66.936,3.143 66.936,2.834 	"/>
	<line fill="#F2F2F2" x1="65.992" y1="3.888" x2="65.992" y2="4.195"/>
	<polygon fill="#F2F2F2" points="65.805,1.975 65.805,2.29 64.891,3.772 64.891,3.464 	"/>
	<polygon fill="#F2F2F2" points="65.805,0.703 65.805,1.013 64.891,2.495 64.891,2.181 	"/>
	<line fill="#F2F2F2" x1="65.805" y1="3.245" x2="65.805" y2="3.56"/>
	<path fill="#F2F2F2" d="M65.805,4.528"/>
	<polyline fill="none" points="64.484,2.834 65.805,0.703 65.805,1.073 67.323,3.464 	"/>
</g>
<g opacity="0.15">
	<polygon fill="#F2F2F2" points="68.867,2.616 68.867,2.919 69.81,4.407 69.81,4.104 	"/>
	<polygon fill="#F2F2F2" points="68.867,1.352 68.867,1.66 69.81,3.143 69.81,2.834 	"/>
	<line fill="#F2F2F2" x1="68.867" y1="3.888" x2="68.867" y2="4.195"/>
	<polygon fill="#F2F2F2" points="68.69,1.975 68.69,2.29 67.758,3.772 67.758,3.464 	"/>
	<polygon fill="#F2F2F2" points="68.69,0.703 68.69,1.013 67.758,2.495 67.758,2.181 	"/>
	<line fill="#F2F2F2" x1="68.69" y1="3.245" x2="68.69" y2="3.56"/>
	<path fill="#F2F2F2" d="M68.69,4.528"/>
	<polyline fill="none" points="67.335,2.834 68.69,0.703 68.69,1.073 70.198,3.464 	"/>
</g>
<g opacity="0.15">
	<polygon fill="#F2F2F2" points="71.753,2.616 71.753,2.919 72.697,4.407 72.697,4.104 	"/>
	<polygon fill="#F2F2F2" points="71.753,1.352 71.753,1.66 72.697,3.143 72.697,2.834 	"/>
	<line fill="#F2F2F2" x1="71.753" y1="3.888" x2="71.753" y2="4.195"/>
	<polygon fill="#F2F2F2" points="71.565,1.975 71.565,2.29 70.621,3.772 70.621,3.464 	"/>
	<polygon fill="#F2F2F2" points="71.565,0.703 71.565,1.013 70.621,2.495 70.621,2.181 	"/>
	<line fill="#F2F2F2" x1="71.565" y1="3.245" x2="71.565" y2="3.56"/>
	<path fill="#F2F2F2" d="M71.565,4.528"/>
	<polyline fill="none" points="70.222,2.834 71.565,0.703 71.565,1.073 73.061,3.464 	"/>
</g>
<g opacity="0.15">
	<polygon fill="#F2F2F2" points="74.627,2.616 74.627,2.919 75.547,4.407 75.547,4.104 	"/>
	<polygon fill="#F2F2F2" points="74.627,1.352 74.627,1.66 75.547,3.143 75.547,2.834 	"/>
	<line fill="#F2F2F2" x1="74.627" y1="3.888" x2="74.627" y2="4.195"/>
	<polygon fill="#F2F2F2" points="74.452,1.975 74.452,2.29 73.508,3.772 73.508,3.464 	"/>
	<polygon fill="#F2F2F2" points="74.452,0.703 74.452,1.013 73.508,2.495 73.508,2.181 	"/>
	<line fill="#F2F2F2" x1="74.452" y1="3.245" x2="74.452" y2="3.56"/>
	<path fill="#F2F2F2" d="M74.452,4.528"/>
	<polyline fill="none" points="73.097,2.834 74.452,0.703 74.452,1.073 75.936,3.464 	"/>
</g>
<g opacity="0.15">
	<polygon fill="#F2F2F2" points="77.49,2.616 77.49,2.919 78.428,4.407 78.428,4.104 	"/>
	<polygon fill="#F2F2F2" points="77.49,1.352 77.49,1.66 78.428,3.143 78.428,2.834 	"/>
	<line fill="#F2F2F2" x1="77.49" y1="3.888" x2="77.49" y2="4.195"/>
	<polygon fill="#F2F2F2" points="77.32,1.975 77.32,2.29 76.382,3.772 76.382,3.464 	"/>
	<polygon fill="#F2F2F2" points="77.32,0.703 77.32,1.013 76.382,2.495 76.382,2.181 	"/>
	<line fill="#F2F2F2" x1="77.32" y1="3.245" x2="77.32" y2="3.56"/>
	<path fill="#F2F2F2" d="M77.32,4.528"/>
	<polyline fill="none" points="75.977,2.834 77.32,0.703 77.32,1.073 78.815,3.464 	"/>
</g>
<g opacity="0.15">
	<polygon fill="#F2F2F2" points="80.358,2.616 80.358,2.919 81.303,4.407 81.303,4.104 	"/>
	<polygon fill="#F2F2F2" points="80.358,1.352 80.358,1.66 81.303,3.143 81.303,2.834 	"/>
	<line fill="#F2F2F2" x1="80.358" y1="3.888" x2="80.358" y2="4.195"/>
	<polygon fill="#F2F2F2" points="80.195,1.975 80.195,2.29 79.251,3.772 79.251,3.464 	"/>
	<polygon fill="#F2F2F2" points="80.195,0.703 80.195,1.013 79.251,2.495 79.251,2.181 	"/>
	<line fill="#F2F2F2" x1="80.195" y1="3.245" x2="80.195" y2="3.56"/>
	<path fill="#F2F2F2" d="M80.195,4.528"/>
	<polyline fill="none" points="78.852,2.834 80.195,0.703 80.195,1.073 81.689,3.464 	"/>
</g>
<g opacity="0.15">
	<polygon fill="#F2F2F2" points="83.244,2.616 83.244,2.919 84.189,4.407 84.189,4.104 	"/>
	<polygon fill="#F2F2F2" points="83.244,1.352 83.244,1.66 84.189,3.143 84.189,2.834 	"/>
	<line fill="#F2F2F2" x1="83.244" y1="3.888" x2="83.244" y2="4.195"/>
	<polygon fill="#F2F2F2" points="83.058,1.975 83.058,2.29 82.139,3.772 82.139,3.464 	"/>
	<polygon fill="#F2F2F2" points="83.058,0.703 83.058,1.013 82.139,2.495 82.139,2.181 	"/>
	<line fill="#F2F2F2" x1="83.058" y1="3.245" x2="83.058" y2="3.56"/>
	<path fill="#F2F2F2" d="M83.058,4.528"/>
	<polyline fill="none" points="81.715,2.834 83.058,0.703 83.058,1.073 84.552,3.464 	"/>
</g>
<g opacity="0.15">
	<polygon fill="#F2F2F2" points="86.096,2.616 86.096,2.919 87.058,4.407 87.058,4.104 	"/>
	<polygon fill="#F2F2F2" points="86.096,1.352 86.096,1.66 87.058,3.143 87.058,2.834 	"/>
	<line fill="#F2F2F2" x1="86.096" y1="3.888" x2="86.096" y2="4.195"/>
	<polygon fill="#F2F2F2" points="85.933,1.975 85.933,2.29 84.987,3.772 84.987,3.464 	"/>
	<polygon fill="#F2F2F2" points="85.933,0.703 85.933,1.013 84.987,2.495 84.987,2.181 	"/>
	<line fill="#F2F2F2" x1="85.933" y1="3.245" x2="85.933" y2="3.56"/>
	<path fill="#F2F2F2" d="M85.933,4.528"/>
	<polyline fill="none" points="84.589,2.834 85.933,0.703 85.933,1.073 87.427,3.464 	"/>
</g>
<g opacity="0.15">
	<polygon fill="#F2F2F2" points="88.982,2.616 88.982,2.919 89.92,4.407 89.92,4.104 	"/>
	<polygon fill="#F2F2F2" points="88.982,1.352 88.982,1.66 89.92,3.143 89.92,2.834 	"/>
	<line fill="#F2F2F2" x1="88.982" y1="3.888" x2="88.982" y2="4.195"/>
	<polygon fill="#F2F2F2" points="88.812,1.975 88.812,2.29 87.875,3.772 87.875,3.464 	"/>
	<polygon fill="#F2F2F2" points="88.812,0.703 88.812,1.013 87.875,2.495 87.875,2.181 	"/>
	<line fill="#F2F2F2" x1="88.812" y1="3.245" x2="88.812" y2="3.56"/>
	<path fill="#F2F2F2" d="M88.812,4.528"/>
	<polyline fill="none" points="87.463,2.834 88.812,0.703 88.812,1.073 90.312,3.464 	"/>
</g>
<g opacity="0.15">
	<polygon fill="#F2F2F2" points="28.653,2.616 28.653,2.919 29.591,4.407 29.591,4.104 	"/>
	<polygon fill="#F2F2F2" points="28.653,1.352 28.653,1.66 29.591,3.143 29.591,2.834 	"/>
	<line fill="#F2F2F2" x1="28.653" y1="3.888" x2="28.653" y2="4.195"/>
	<polygon fill="#F2F2F2" points="28.48,1.975 28.48,2.29 27.54,3.772 27.54,3.464 	"/>
	<polygon fill="#F2F2F2" points="28.48,0.703 28.48,1.013 27.54,2.495 27.54,2.181 	"/>
	<line fill="#F2F2F2" x1="28.48" y1="3.245" x2="28.48" y2="3.56"/>
	<path fill="#F2F2F2" d="M28.48,4.528"/>
	<polyline fill="none" points="27.131,2.834 28.48,0.703 28.48,1.073 29.976,3.464 	"/>
</g>
<g opacity="0.15">
	<polygon fill="#F2F2F2" points="31.524,2.616 31.524,2.919 32.466,4.407 32.466,4.104 	"/>
	<polygon fill="#F2F2F2" points="31.524,1.352 31.524,1.66 32.466,3.143 32.466,2.834 	"/>
	<line fill="#F2F2F2" x1="31.524" y1="3.888" x2="31.524" y2="4.195"/>
	<polygon fill="#F2F2F2" points="31.355,1.975 31.355,2.29 30.414,3.772 30.414,3.464 	"/>
	<polygon fill="#F2F2F2" points="31.355,0.703 31.355,1.013 30.414,2.495 30.414,2.181 	"/>
	<line fill="#F2F2F2" x1="31.355" y1="3.245" x2="31.355" y2="3.56"/>
	<path fill="#F2F2F2" d="M31.355,4.528"/>
	<polyline fill="none" points="30.005,2.834 31.355,0.703 31.355,1.073 32.853,3.464 	"/>
</g>
<g opacity="0.15">
	<polygon fill="#F2F2F2" points="34.396,2.616 34.396,2.919 35.337,4.407 35.337,4.104 	"/>
	<polygon fill="#F2F2F2" points="34.396,1.352 34.396,1.66 35.337,3.143 35.337,2.834 	"/>
	<line fill="#F2F2F2" x1="34.396" y1="3.888" x2="34.396" y2="4.195"/>
	<polygon fill="#F2F2F2" points="34.224,1.975 34.224,2.29 33.286,3.772 33.286,3.464 	"/>
	<polygon fill="#F2F2F2" points="34.224,0.703 34.224,1.013 33.286,2.495 33.286,2.181 	"/>
	<line fill="#F2F2F2" x1="34.224" y1="3.245" x2="34.224" y2="3.56"/>
	<path fill="#F2F2F2" d="M34.224,4.528"/>
	<polyline fill="none" points="32.88,2.834 34.224,0.703 34.224,1.073 35.721,3.464 	"/>
</g>
<g opacity="0.15">
	<polygon fill="#F2F2F2" points="37.268,2.616 37.268,2.919 38.211,4.407 38.211,4.104 	"/>
	<polygon fill="#F2F2F2" points="37.268,1.352 37.268,1.66 38.211,3.143 38.211,2.834 	"/>
	<line fill="#F2F2F2" x1="37.268" y1="3.888" x2="37.268" y2="4.195"/>
	<polygon fill="#F2F2F2" points="37.095,1.975 37.095,2.29 36.16,3.772 36.16,3.464 	"/>
	<polygon fill="#F2F2F2" points="37.095,0.703 37.095,1.013 36.16,2.495 36.16,2.181 	"/>
	<line fill="#F2F2F2" x1="37.095" y1="3.245" x2="37.095" y2="3.56"/>
	<path fill="#F2F2F2" d="M37.095,4.528"/>
	<polyline fill="none" points="35.752,2.834 37.095,0.703 37.095,1.073 38.593,3.464 	"/>
</g>
<g opacity="0.15">
	<polygon fill="#F2F2F2" points="40.148,2.616 40.148,2.919 41.086,4.407 41.086,4.104 	"/>
	<polygon fill="#F2F2F2" points="40.148,1.352 40.148,1.66 41.086,3.143 41.086,2.834 	"/>
	<line fill="#F2F2F2" x1="40.148" y1="3.888" x2="40.148" y2="4.195"/>
	<polygon fill="#F2F2F2" points="39.973,1.975 39.973,2.29 39.035,3.772 39.035,3.464 	"/>
	<polygon fill="#F2F2F2" points="39.973,0.703 39.973,1.013 39.035,2.495 39.035,2.181 	"/>
	<line fill="#F2F2F2" x1="39.973" y1="3.245" x2="39.973" y2="3.56"/>
	<path fill="#F2F2F2" d="M39.973,4.528"/>
	<polyline fill="none" points="38.626,2.834 39.973,0.703 39.973,1.073 41.467,3.464 	"/>
</g>
<g opacity="0.15">
	<polygon fill="#F2F2F2" points="43.017,2.616 43.017,2.919 43.955,4.407 43.955,4.104 	"/>
	<polygon fill="#F2F2F2" points="43.017,1.352 43.017,1.66 43.955,3.143 43.955,2.834 	"/>
	<line fill="#F2F2F2" x1="43.017" y1="3.888" x2="43.017" y2="4.195"/>
	<polygon fill="#F2F2F2" points="42.844,1.975 42.844,2.29 41.903,3.772 41.903,3.464 	"/>
	<polygon fill="#F2F2F2" points="42.844,0.703 42.844,1.013 41.903,2.495 41.903,2.181 	"/>
	<line fill="#F2F2F2" x1="42.844" y1="3.245" x2="42.844" y2="3.56"/>
	<path fill="#F2F2F2" d="M42.844,4.528"/>
	<polyline fill="none" points="41.498,2.834 42.844,0.703 42.844,1.073 44.342,3.464 	"/>
</g>
<g opacity="0.15">
	<polygon fill="#F2F2F2" points="45.891,2.616 45.891,2.919 46.826,4.407 46.826,4.104 	"/>
	<polygon fill="#F2F2F2" points="45.891,1.352 45.891,1.66 46.826,3.143 46.826,2.834 	"/>
	<line fill="#F2F2F2" x1="45.891" y1="3.888" x2="45.891" y2="4.195"/>
	<polygon fill="#F2F2F2" points="45.719,1.975 45.719,2.29 44.775,3.772 44.775,3.464 	"/>
	<polygon fill="#F2F2F2" points="45.719,0.703 45.719,1.013 44.775,2.495 44.775,2.181 	"/>
	<line fill="#F2F2F2" x1="45.719" y1="3.245" x2="45.719" y2="3.56"/>
	<path fill="#F2F2F2" d="M45.719,4.528"/>
	<polyline fill="none" points="44.369,2.834 45.719,0.703 45.719,1.073 47.217,3.464 	"/>
</g>
<g opacity="0.15">
	<polygon fill="#F2F2F2" points="48.76,2.616 48.76,2.919 49.701,4.407 49.701,4.104 	"/>
	<polygon fill="#F2F2F2" points="48.76,1.352 48.76,1.66 49.701,3.143 49.701,2.834 	"/>
	<line fill="#F2F2F2" x1="48.76" y1="3.888" x2="48.76" y2="4.195"/>
	<polygon fill="#F2F2F2" points="48.59,1.975 48.59,2.29 47.649,3.772 47.649,3.464 	"/>
	<polygon fill="#F2F2F2" points="48.59,0.703 48.59,1.013 47.649,2.495 47.649,2.181 	"/>
	<line fill="#F2F2F2" x1="48.59" y1="3.245" x2="48.59" y2="3.56"/>
	<path fill="#F2F2F2" d="M48.59,4.528"/>
	<polyline fill="none" points="47.244,2.834 48.59,0.703 48.59,1.073 50.088,3.464 	"/>
</g>
<g opacity="0.15">
	<polygon fill="#F2F2F2" points="51.637,2.616 51.637,2.919 52.575,4.407 52.575,4.104 	"/>
	<polygon fill="#F2F2F2" points="51.637,1.352 51.637,1.66 52.575,3.143 52.575,2.834 	"/>
	<line fill="#F2F2F2" x1="51.637" y1="3.888" x2="51.637" y2="4.195"/>
	<polygon fill="#F2F2F2" points="51.461,1.975 51.461,2.29 50.524,3.772 50.524,3.464 	"/>
	<polygon fill="#F2F2F2" points="51.461,0.703 51.461,1.013 50.524,2.495 50.524,2.181 	"/>
	<line fill="#F2F2F2" x1="51.461" y1="3.245" x2="51.461" y2="3.56"/>
	<path fill="#F2F2F2" d="M51.461,4.528"/>
	<polyline fill="none" points="50.115,2.834 51.461,0.703 51.461,1.073 52.957,3.464 	"/>
</g>
<g opacity="0.15">
	<polygon fill="#F2F2F2" points="54.506,2.616 54.506,2.919 55.447,4.407 55.447,4.104 	"/>
	<polygon fill="#F2F2F2" points="54.506,1.352 54.506,1.66 55.447,3.143 55.447,2.834 	"/>
	<line fill="#F2F2F2" x1="54.506" y1="3.888" x2="54.506" y2="4.195"/>
	<polygon fill="#F2F2F2" points="54.339,1.975 54.339,2.29 53.398,3.772 53.398,3.464 	"/>
	<polygon fill="#F2F2F2" points="54.339,0.703 54.339,1.013 53.398,2.495 53.398,2.181 	"/>
	<line fill="#F2F2F2" x1="54.339" y1="3.245" x2="54.339" y2="3.56"/>
	<path fill="#F2F2F2" d="M54.339,4.528"/>
	<polyline fill="none" points="52.993,2.834 54.339,0.703 54.339,1.073 55.834,3.464 	"/>
</g>
<g opacity="0.15">
	<polygon fill="#F2F2F2" points="57.383,2.616 57.383,2.919 58.318,4.407 58.318,4.104 	"/>
	<polygon fill="#F2F2F2" points="57.383,1.352 57.383,1.66 58.318,3.143 58.318,2.834 	"/>
	<line fill="#F2F2F2" x1="57.383" y1="3.888" x2="57.383" y2="4.195"/>
	<polygon fill="#F2F2F2" points="57.214,1.975 57.214,2.29 56.276,3.772 56.276,3.464 	"/>
	<polygon fill="#F2F2F2" points="57.214,0.703 57.214,1.013 56.276,2.495 56.276,2.181 	"/>
	<line fill="#F2F2F2" x1="57.214" y1="3.245" x2="57.214" y2="3.56"/>
	<path fill="#F2F2F2" d="M57.214,4.528"/>
	<polyline fill="none" points="55.871,2.834 57.214,0.703 57.214,1.073 58.706,3.464 	"/>
</g>
<g opacity="0.15">
	<polygon fill="#F2F2F2" points="25.778,2.616 25.778,2.919 26.716,4.407 26.716,4.104 	"/>
	<polygon fill="#F2F2F2" points="25.778,1.352 25.778,1.66 26.716,3.143 26.716,2.834 	"/>
	<line fill="#F2F2F2" x1="25.778" y1="3.888" x2="25.778" y2="4.195"/>
	<polygon fill="#F2F2F2" points="25.603,1.975 25.603,2.29 24.665,3.772 24.665,3.464 	"/>
	<polygon fill="#F2F2F2" points="25.603,0.703 25.603,1.013 24.665,2.495 24.665,2.181 	"/>
	<line fill="#F2F2F2" x1="25.603" y1="3.245" x2="25.603" y2="3.56"/>
	<path fill="#F2F2F2" d="M25.603,4.528"/>
	<polyline fill="none" points="24.256,2.834 25.603,0.703 25.603,1.073 27.101,3.464 	"/>
</g>
<g opacity="0.15">
	<polygon fill="#F2F2F2" points="-0.081,2.616 -0.081,2.919 0.861,4.407 0.861,4.104 	"/>
	<polygon fill="#F2F2F2" points="-0.081,1.352 -0.081,1.66 0.861,3.143 0.861,2.834 	"/>
	<line fill="#F2F2F2" x1="-0.081" y1="3.888" x2="-0.081" y2="4.195"/>
	<polygon fill="#F2F2F2" points="-0.256,1.975 -0.256,2.29 -1.194,3.772 -1.194,3.464 	"/>
	<polygon fill="#F2F2F2" points="-0.256,0.703 -0.256,1.013 -1.194,2.495 -1.194,2.181 	"/>
	<line fill="#F2F2F2" x1="-0.256" y1="3.245" x2="-0.256" y2="3.56"/>
	<path fill="#F2F2F2" d="M-0.256,4.528"/>
	<polyline fill="none" points="-1.599,2.834 -0.256,0.703 -0.256,1.073 1.242,3.464 	"/>
</g>
<g opacity="0.15">
	<polygon fill="#F2F2F2" points="2.794,2.616 2.794,2.919 3.732,4.407 3.732,4.104 	"/>
	<polygon fill="#F2F2F2" points="2.794,1.352 2.794,1.66 3.732,3.143 3.732,2.834 	"/>
	<line fill="#F2F2F2" x1="2.794" y1="3.888" x2="2.794" y2="4.195"/>
	<polygon fill="#F2F2F2" points="2.622,1.975 2.622,2.29 1.681,3.772 1.681,3.464 	"/>
	<polygon fill="#F2F2F2" points="2.622,0.703 2.622,1.013 1.681,2.495 1.681,2.181 	"/>
	<line fill="#F2F2F2" x1="2.622" y1="3.245" x2="2.622" y2="3.56"/>
	<path fill="#F2F2F2" d="M2.622,4.528"/>
	<polyline fill="none" points="1.275,2.834 2.622,0.703 2.622,1.073 4.116,3.464 	"/>
</g>
<g opacity="0.15">
	<polygon fill="#F2F2F2" points="5.669,2.616 5.669,2.919 6.607,4.407 6.607,4.104 	"/>
	<polygon fill="#F2F2F2" points="5.669,1.352 5.669,1.66 6.607,3.143 6.607,2.834 	"/>
	<line fill="#F2F2F2" x1="5.669" y1="3.888" x2="5.669" y2="4.195"/>
	<polygon fill="#F2F2F2" points="5.496,1.975 5.496,2.29 4.555,3.772 4.555,3.464 	"/>
	<polygon fill="#F2F2F2" points="5.496,0.703 5.496,1.013 4.555,2.495 4.555,2.181 	"/>
	<line fill="#F2F2F2" x1="5.496" y1="3.245" x2="5.496" y2="3.56"/>
	<path fill="#F2F2F2" d="M5.496,4.528"/>
	<polyline fill="none" points="4.144,2.834 5.496,0.703 5.496,1.073 6.994,3.464 	"/>
</g>
<g opacity="0.15">
	<polygon fill="#F2F2F2" points="8.543,2.616 8.543,2.919 9.478,4.407 9.478,4.104 	"/>
	<polygon fill="#F2F2F2" points="8.543,1.352 8.543,1.66 9.478,3.143 9.478,2.834 	"/>
	<line fill="#F2F2F2" x1="8.543" y1="3.888" x2="8.543" y2="4.195"/>
	<polygon fill="#F2F2F2" points="8.365,1.975 8.365,2.29 7.427,3.772 7.427,3.464 	"/>
	<polygon fill="#F2F2F2" points="8.365,0.703 8.365,1.013 7.427,2.495 7.427,2.181 	"/>
	<line fill="#F2F2F2" x1="8.365" y1="3.245" x2="8.365" y2="3.56"/>
	<path fill="#F2F2F2" d="M8.365,4.528"/>
	<polyline fill="none" points="7.021,2.834 8.365,0.703 8.365,1.073 9.866,3.464 	"/>
</g>
<g opacity="0.15">
	<polygon fill="#F2F2F2" points="11.409,2.616 11.409,2.919 12.353,4.407 12.353,4.104 	"/>
	<polygon fill="#F2F2F2" points="11.409,1.352 11.409,1.66 12.353,3.143 12.353,2.834 	"/>
	<line fill="#F2F2F2" x1="11.409" y1="3.888" x2="11.409" y2="4.195"/>
	<polygon fill="#F2F2F2" points="11.239,1.975 11.239,2.29 10.302,3.772 10.302,3.464 	"/>
	<polygon fill="#F2F2F2" points="11.239,0.703 11.239,1.013 10.302,2.495 10.302,2.181 	"/>
	<line fill="#F2F2F2" x1="11.239" y1="3.245" x2="11.239" y2="3.56"/>
	<path fill="#F2F2F2" d="M11.239,4.528"/>
	<polyline fill="none" points="9.893,2.834 11.239,0.703 11.239,1.073 12.737,3.464 	"/>
</g>
<g opacity="0.15">
	<polygon fill="#F2F2F2" points="14.29,2.616 14.29,2.919 15.221,4.407 15.221,4.104 	"/>
	<polygon fill="#F2F2F2" points="14.29,1.352 14.29,1.66 15.221,3.143 15.221,2.834 	"/>
	<line fill="#F2F2F2" x1="14.29" y1="3.888" x2="14.29" y2="4.195"/>
	<polygon fill="#F2F2F2" points="14.114,1.975 14.114,2.29 13.17,3.772 13.17,3.464 	"/>
	<polygon fill="#F2F2F2" points="14.114,0.703 14.114,1.013 13.17,2.495 13.17,2.181 	"/>
	<line fill="#F2F2F2" x1="14.114" y1="3.245" x2="14.114" y2="3.56"/>
	<path fill="#F2F2F2" d="M14.114,4.528"/>
	<polyline fill="none" points="12.768,2.834 14.114,0.703 14.114,1.073 15.609,3.464 	"/>
</g>
<g opacity="0.15">
	<polygon fill="#F2F2F2" points="17.161,2.616 17.161,2.919 18.102,4.407 18.102,4.104 	"/>
	<polygon fill="#F2F2F2" points="17.161,1.352 17.161,1.66 18.102,3.143 18.102,2.834 	"/>
	<line fill="#F2F2F2" x1="17.161" y1="3.888" x2="17.161" y2="4.195"/>
	<polygon fill="#F2F2F2" points="16.985,1.975 16.985,2.29 16.05,3.772 16.05,3.464 	"/>
	<polygon fill="#F2F2F2" points="16.985,0.703 16.985,1.013 16.05,2.495 16.05,2.181 	"/>
	<line fill="#F2F2F2" x1="16.985" y1="3.245" x2="16.985" y2="3.56"/>
	<path fill="#F2F2F2" d="M16.985,4.528"/>
	<polyline fill="none" points="15.639,2.834 16.985,0.703 16.985,1.073 18.483,3.464 	"/>
</g>
<g opacity="0.15">
	<polygon fill="#F2F2F2" points="20.032,2.616 20.032,2.919 20.974,4.407 20.974,4.104 	"/>
	<polygon fill="#F2F2F2" points="20.032,1.352 20.032,1.66 20.974,3.143 20.974,2.834 	"/>
	<line fill="#F2F2F2" x1="20.032" y1="3.888" x2="20.032" y2="4.195"/>
	<polygon fill="#F2F2F2" points="19.86,1.975 19.86,2.29 18.922,3.772 18.922,3.464 	"/>
	<polygon fill="#F2F2F2" points="19.86,0.703 19.86,1.013 18.922,2.495 18.922,2.181 	"/>
	<line fill="#F2F2F2" x1="19.86" y1="3.245" x2="19.86" y2="3.56"/>
	<path fill="#F2F2F2" d="M19.86,4.528"/>
	<polyline fill="none" points="18.517,2.834 19.86,0.703 19.86,1.073 21.357,3.464 	"/>
</g>
<g opacity="0.15">
	<polygon fill="#F2F2F2" points="22.907,2.616 22.907,2.919 23.848,4.407 23.848,4.104 	"/>
	<polygon fill="#F2F2F2" points="22.907,1.352 22.907,1.66 23.848,3.143 23.848,2.834 	"/>
	<line fill="#F2F2F2" x1="22.907" y1="3.888" x2="22.907" y2="4.195"/>
	<polygon fill="#F2F2F2" points="22.729,1.975 22.729,2.29 21.791,3.772 21.791,3.464 	"/>
	<polygon fill="#F2F2F2" points="22.729,0.703 22.729,1.013 21.791,2.495 21.791,2.181 	"/>
	<line fill="#F2F2F2" x1="22.729" y1="3.245" x2="22.729" y2="3.56"/>
	<path fill="#F2F2F2" d="M22.729,4.528"/>
	<polyline fill="none" points="21.391,2.834 22.729,0.703 22.729,1.073 24.229,3.464 	"/>
</g>
<g opacity="0.15">
	<polygon fill="#F2F2F2" points="91.851,2.616 91.851,2.919 92.795,4.407 92.795,4.104 	"/>
	<polygon fill="#F2F2F2" points="91.851,1.352 91.851,1.66 92.795,3.143 92.795,2.834 	"/>
	<line fill="#F2F2F2" x1="91.851" y1="3.888" x2="91.851" y2="4.195"/>
	<polygon fill="#F2F2F2" points="91.688,1.975 91.688,2.29 90.748,3.772 90.748,3.464 	"/>
	<polygon fill="#F2F2F2" points="91.688,0.703 91.688,1.013 90.748,2.495 90.748,2.181 	"/>
	<line fill="#F2F2F2" x1="91.688" y1="3.245" x2="91.688" y2="3.56"/>
	<path fill="#F2F2F2" d="M91.688,4.528"/>
	<polyline fill="none" points="90.319,2.834 91.688,0.703 91.688,1.073 93.182,3.464 	"/>
</g>
<g opacity="0.15">
	<polygon fill="#F2F2F2" points="94.726,2.616 94.726,2.919 95.67,4.407 95.67,4.104 	"/>
	<polygon fill="#F2F2F2" points="94.726,1.352 94.726,1.66 95.67,3.143 95.67,2.834 	"/>
	<line fill="#F2F2F2" x1="94.726" y1="3.888" x2="94.726" y2="4.195"/>
	<polygon fill="#F2F2F2" points="94.562,1.975 94.562,2.29 93.605,3.772 93.605,3.464 	"/>
	<polygon fill="#F2F2F2" points="94.562,0.703 94.562,1.013 93.605,2.495 93.605,2.181 	"/>
	<line fill="#F2F2F2" x1="94.562" y1="3.245" x2="94.562" y2="3.56"/>
	<path fill="#F2F2F2" d="M94.562,4.528"/>
	<polyline fill="none" points="93.194,2.834 94.562,0.703 94.562,1.073 96.057,3.464 	"/>
</g>
<g opacity="0.15">
	<polygon fill="#F2F2F2" points="97.611,2.616 97.611,2.919 98.532,4.407 98.532,4.104 	"/>
	<polygon fill="#F2F2F2" points="97.611,1.352 97.611,1.66 98.532,3.143 98.532,2.834 	"/>
	<line fill="#F2F2F2" x1="97.611" y1="3.888" x2="97.611" y2="4.195"/>
	<polygon fill="#F2F2F2" points="97.424,1.975 97.424,2.29 96.48,3.772 96.48,3.464 	"/>
	<polygon fill="#F2F2F2" points="97.424,0.703 97.424,1.013 96.48,2.495 96.48,2.181 	"/>
	<line fill="#F2F2F2" x1="97.424" y1="3.245" x2="97.424" y2="3.56"/>
	<path fill="#F2F2F2" d="M97.424,4.528"/>
	<polyline fill="none" points="96.081,2.834 97.424,0.703 97.424,1.073 98.919,3.464 	"/>
</g>
<g opacity="0.15">
	<polygon fill="#F2F2F2" points="100.475,2.616 100.475,2.919 101.4,4.407 101.4,4.104 	"/>
	<polygon fill="#F2F2F2" points="100.475,1.352 100.475,1.66 101.4,3.143 101.4,2.834 	"/>
	<line fill="#F2F2F2" x1="100.475" y1="3.888" x2="100.475" y2="4.195"/>
	<polygon fill="#F2F2F2" points="100.311,1.975 100.311,2.29 99.366,3.772 99.366,3.464 	"/>
	<polygon fill="#F2F2F2" points="100.311,0.703 100.311,1.013 99.366,2.495 99.366,2.181 	"/>
	<line fill="#F2F2F2" x1="100.311" y1="3.245" x2="100.311" y2="3.56"/>
	<path fill="#F2F2F2" d="M100.311,4.528"/>
	<polyline fill="none" points="98.955,2.834 100.311,0.703 100.311,1.073 101.794,3.464 	"/>
</g>
<g opacity="0.15">
	<polygon fill="#F2F2F2" points="103.349,2.616 103.349,2.919 104.286,4.407 104.286,4.104 	"/>
	<polygon fill="#F2F2F2" points="103.349,1.352 103.349,1.66 104.286,3.143 104.286,2.834 	"/>
	<line fill="#F2F2F2" x1="103.349" y1="3.888" x2="103.349" y2="4.195"/>
	<polygon fill="#F2F2F2" points="103.18,1.975 103.18,2.29 102.241,3.772 102.241,3.464 	"/>
	<polygon fill="#F2F2F2" points="103.18,0.703 103.18,1.013 102.241,2.495 102.241,2.181 	"/>
	<line fill="#F2F2F2" x1="103.18" y1="3.245" x2="103.18" y2="3.56"/>
	<path fill="#F2F2F2" d="M103.18,4.528"/>
	<polyline fill="none" points="101.835,2.834 103.18,0.703 103.18,1.073 104.674,3.464 	"/>
</g>
<g opacity="0.15">
	<line fill="#F2F2F2" x1="61.18" y1="-0.579" x2="61.18" y2="-0.885"/>
	<polygon fill="#F2F2F2" points="60.26,-1.1 60.26,-0.785 61.18,0.691 61.18,0.389 	"/>
	<polygon fill="#F2F2F2" points="60.26,0.184 60.26,0.492 61.18,1.975 61.18,1.66 	"/>
	<line fill="#F2F2F2" x1="59.129" y1="-1.218" x2="59.129" y2="-1.529"/>
	<polyline fill="#F2F2F2" points="60.074,-1.43 59.129,0.057 59.129,-0.252 	"/>
	<polygon fill="#F2F2F2" points="60.074,-0.459 60.074,-0.143 59.129,1.333 59.129,1.024 	"/>
</g>
<g opacity="0.15">
	<line fill="#F2F2F2" x1="64.061" y1="-0.579" x2="64.061" y2="-0.885"/>
	<polygon fill="#F2F2F2" points="63.124,-1.1 63.124,-0.785 64.061,0.691 64.061,0.389 	"/>
	<polygon fill="#F2F2F2" points="63.124,0.184 63.124,0.492 64.061,1.975 64.061,1.66 	"/>
	<line fill="#F2F2F2" x1="62.016" y1="-1.218" x2="62.016" y2="-1.529"/>
	<polyline fill="#F2F2F2" points="62.954,-1.43 62.016,0.057 62.016,-0.252 	"/>
	<polygon fill="#F2F2F2" points="62.954,-0.459 62.954,-0.143 62.016,1.333 62.016,1.024 	"/>
</g>
<g opacity="0.15">
	<line fill="#F2F2F2" x1="66.936" y1="-0.579" x2="66.936" y2="-0.885"/>
	<polygon fill="#F2F2F2" points="65.992,-1.1 65.992,-0.785 66.936,0.691 66.936,0.389 	"/>
	<polygon fill="#F2F2F2" points="65.992,0.184 65.992,0.492 66.936,1.975 66.936,1.66 	"/>
	<line fill="#F2F2F2" x1="64.891" y1="-1.218" x2="64.891" y2="-1.529"/>
	<polyline fill="#F2F2F2" points="65.805,-1.43 64.891,0.057 64.891,-0.252 	"/>
	<polygon fill="#F2F2F2" points="65.805,-0.459 65.805,-0.143 64.891,1.333 64.891,1.024 	"/>
</g>
<g opacity="0.15">
	<line fill="#F2F2F2" x1="69.81" y1="-0.579" x2="69.81" y2="-0.885"/>
	<polygon fill="#F2F2F2" points="68.867,-1.1 68.867,-0.785 69.81,0.691 69.81,0.389 	"/>
	<polygon fill="#F2F2F2" points="68.867,0.184 68.867,0.492 69.81,1.975 69.81,1.66 	"/>
	<line fill="#F2F2F2" x1="67.758" y1="-1.218" x2="67.758" y2="-1.529"/>
	<polyline fill="#F2F2F2" points="68.69,-1.43 67.758,0.057 67.758,-0.252 	"/>
	<polygon fill="#F2F2F2" points="68.69,-0.459 68.69,-0.143 67.758,1.333 67.758,1.024 	"/>
</g>
<g opacity="0.15">
	<line fill="#F2F2F2" x1="72.697" y1="-0.579" x2="72.697" y2="-0.885"/>
	<polygon fill="#F2F2F2" points="71.753,-1.1 71.753,-0.785 72.697,0.691 72.697,0.389 	"/>
	<polygon fill="#F2F2F2" points="71.753,0.184 71.753,0.492 72.697,1.975 72.697,1.66 	"/>
	<line fill="#F2F2F2" x1="70.621" y1="-1.218" x2="70.621" y2="-1.529"/>
	<polyline fill="#F2F2F2" points="71.565,-1.43 70.621,0.057 70.621,-0.252 	"/>
	<polygon fill="#F2F2F2" points="71.565,-0.459 71.565,-0.143 70.621,1.333 70.621,1.024 	"/>
</g>
<g opacity="0.15">
	<line fill="#F2F2F2" x1="75.547" y1="-0.579" x2="75.547" y2="-0.885"/>
	<polygon fill="#F2F2F2" points="74.627,-1.1 74.627,-0.785 75.547,0.691 75.547,0.389 	"/>
	<polygon fill="#F2F2F2" points="74.627,0.184 74.627,0.492 75.547,1.975 75.547,1.66 	"/>
	<line fill="#F2F2F2" x1="73.508" y1="-1.218" x2="73.508" y2="-1.529"/>
	<polyline fill="#F2F2F2" points="74.452,-1.43 73.508,0.057 73.508,-0.252 	"/>
	<polygon fill="#F2F2F2" points="74.452,-0.459 74.452,-0.143 73.508,1.333 73.508,1.024 	"/>
</g>
<g opacity="0.15">
	<line fill="#F2F2F2" x1="78.428" y1="-0.579" x2="78.428" y2="-0.885"/>
	<polygon fill="#F2F2F2" points="77.49,-1.1 77.49,-0.785 78.428,0.691 78.428,0.389 	"/>
	<polygon fill="#F2F2F2" points="77.49,0.184 77.49,0.492 78.428,1.975 78.428,1.66 	"/>
	<line fill="#F2F2F2" x1="76.382" y1="-1.218" x2="76.382" y2="-1.529"/>
	<polyline fill="#F2F2F2" points="77.32,-1.43 76.382,0.057 76.382,-0.252 	"/>
	<polygon fill="#F2F2F2" points="77.32,-0.459 77.32,-0.143 76.382,1.333 76.382,1.024 	"/>
</g>
<g opacity="0.15">
	<line fill="#F2F2F2" x1="81.303" y1="-0.579" x2="81.303" y2="-0.885"/>
	<polygon fill="#F2F2F2" points="80.358,-1.1 80.358,-0.785 81.303,0.691 81.303,0.389 	"/>
	<polygon fill="#F2F2F2" points="80.358,0.184 80.358,0.492 81.303,1.975 81.303,1.66 	"/>
	<line fill="#F2F2F2" x1="79.251" y1="-1.218" x2="79.251" y2="-1.529"/>
	<polyline fill="#F2F2F2" points="80.195,-1.43 79.251,0.057 79.251,-0.252 	"/>
	<polygon fill="#F2F2F2" points="80.195,-0.459 80.195,-0.143 79.251,1.333 79.251,1.024 	"/>
</g>
<g opacity="0.15">
	<line fill="#F2F2F2" x1="84.189" y1="-0.579" x2="84.189" y2="-0.885"/>
	<polygon fill="#F2F2F2" points="83.244,-1.1 83.244,-0.785 84.189,0.691 84.189,0.389 	"/>
	<polygon fill="#F2F2F2" points="83.244,0.184 83.244,0.492 84.189,1.975 84.189,1.66 	"/>
	<line fill="#F2F2F2" x1="82.139" y1="-1.218" x2="82.139" y2="-1.529"/>
	<polyline fill="#F2F2F2" points="83.058,-1.43 82.139,0.057 82.139,-0.252 	"/>
	<polygon fill="#F2F2F2" points="83.058,-0.459 83.058,-0.143 82.139,1.333 82.139,1.024 	"/>
</g>
<g opacity="0.15">
	<line fill="#F2F2F2" x1="87.058" y1="-0.579" x2="87.058" y2="-0.885"/>
	<polygon fill="#F2F2F2" points="86.096,-1.1 86.096,-0.785 87.058,0.691 87.058,0.389 	"/>
	<polygon fill="#F2F2F2" points="86.096,0.184 86.096,0.492 87.058,1.975 87.058,1.66 	"/>
	<line fill="#F2F2F2" x1="84.987" y1="-1.218" x2="84.987" y2="-1.529"/>
	<polyline fill="#F2F2F2" points="85.933,-1.43 84.987,0.057 84.987,-0.252 	"/>
	<polygon fill="#F2F2F2" points="85.933,-0.459 85.933,-0.143 84.987,1.333 84.987,1.024 	"/>
</g>
<g opacity="0.15">
	<line fill="#F2F2F2" x1="89.92" y1="-0.579" x2="89.92" y2="-0.885"/>
	<polygon fill="#F2F2F2" points="88.982,-1.1 88.982,-0.785 89.92,0.691 89.92,0.389 	"/>
	<polygon fill="#F2F2F2" points="88.982,0.184 88.982,0.492 89.92,1.975 89.92,1.66 	"/>
	<line fill="#F2F2F2" x1="87.875" y1="-1.218" x2="87.875" y2="-1.529"/>
	<polyline fill="#F2F2F2" points="88.812,-1.43 87.875,0.057 87.875,-0.252 	"/>
	<polygon fill="#F2F2F2" points="88.812,-0.459 88.812,-0.143 87.875,1.333 87.875,1.024 	"/>
</g>
<g opacity="0.15">
	<line fill="#F2F2F2" x1="29.591" y1="-0.579" x2="29.591" y2="-0.885"/>
	<polygon fill="#F2F2F2" points="28.653,-1.1 28.653,-0.785 29.591,0.691 29.591,0.389 	"/>
	<polygon fill="#F2F2F2" points="28.653,0.184 28.653,0.492 29.591,1.975 29.591,1.66 	"/>
	<line fill="#F2F2F2" x1="27.54" y1="-1.218" x2="27.54" y2="-1.529"/>
	<polyline fill="#F2F2F2" points="28.48,-1.43 27.54,0.057 27.54,-0.252 	"/>
	<polygon fill="#F2F2F2" points="28.48,-0.459 28.48,-0.143 27.54,1.333 27.54,1.024 	"/>
</g>
<g opacity="0.15">
	<line fill="#F2F2F2" x1="32.466" y1="-0.579" x2="32.466" y2="-0.885"/>
	<polygon fill="#F2F2F2" points="31.524,-1.1 31.524,-0.785 32.466,0.691 32.466,0.389 	"/>
	<polygon fill="#F2F2F2" points="31.524,0.184 31.524,0.492 32.466,1.975 32.466,1.66 	"/>
	<line fill="#F2F2F2" x1="30.414" y1="-1.218" x2="30.414" y2="-1.529"/>
	<polyline fill="#F2F2F2" points="31.355,-1.43 30.414,0.057 30.414,-0.252 	"/>
	<polygon fill="#F2F2F2" points="31.355,-0.459 31.355,-0.143 30.414,1.333 30.414,1.024 	"/>
</g>
<g opacity="0.15">
	<line fill="#F2F2F2" x1="35.337" y1="-0.579" x2="35.337" y2="-0.885"/>
	<polygon fill="#F2F2F2" points="34.396,-1.1 34.396,-0.785 35.337,0.691 35.337,0.389 	"/>
	<polygon fill="#F2F2F2" points="34.396,0.184 34.396,0.492 35.337,1.975 35.337,1.66 	"/>
	<line fill="#F2F2F2" x1="33.286" y1="-1.218" x2="33.286" y2="-1.529"/>
	<polyline fill="#F2F2F2" points="34.224,-1.43 33.286,0.057 33.286,-0.252 	"/>
	<polygon fill="#F2F2F2" points="34.224,-0.459 34.224,-0.143 33.286,1.333 33.286,1.024 	"/>
</g>
<g opacity="0.15">
	<line fill="#F2F2F2" x1="38.211" y1="-0.579" x2="38.211" y2="-0.885"/>
	<polygon fill="#F2F2F2" points="37.268,-1.1 37.268,-0.785 38.211,0.691 38.211,0.389 	"/>
	<polygon fill="#F2F2F2" points="37.268,0.184 37.268,0.492 38.211,1.975 38.211,1.66 	"/>
	<line fill="#F2F2F2" x1="36.16" y1="-1.218" x2="36.16" y2="-1.529"/>
	<polyline fill="#F2F2F2" points="37.095,-1.43 36.16,0.057 36.16,-0.252 	"/>
	<polygon fill="#F2F2F2" points="37.095,-0.459 37.095,-0.143 36.16,1.333 36.16,1.024 	"/>
</g>
<g opacity="0.15">
	<line fill="#F2F2F2" x1="41.086" y1="-0.579" x2="41.086" y2="-0.885"/>
	<polygon fill="#F2F2F2" points="40.148,-1.1 40.148,-0.785 41.086,0.691 41.086,0.389 	"/>
	<polygon fill="#F2F2F2" points="40.148,0.184 40.148,0.492 41.086,1.975 41.086,1.66 	"/>
	<line fill="#F2F2F2" x1="39.035" y1="-1.218" x2="39.035" y2="-1.529"/>
	<polyline fill="#F2F2F2" points="39.973,-1.43 39.035,0.057 39.035,-0.252 	"/>
	<polygon fill="#F2F2F2" points="39.973,-0.459 39.973,-0.143 39.035,1.333 39.035,1.024 	"/>
</g>
<g opacity="0.15">
	<line fill="#F2F2F2" x1="43.955" y1="-0.579" x2="43.955" y2="-0.885"/>
	<polygon fill="#F2F2F2" points="43.017,-1.1 43.017,-0.785 43.955,0.691 43.955,0.389 	"/>
	<polygon fill="#F2F2F2" points="43.017,0.184 43.017,0.492 43.955,1.975 43.955,1.66 	"/>
	<line fill="#F2F2F2" x1="41.903" y1="-1.218" x2="41.903" y2="-1.529"/>
	<polyline fill="#F2F2F2" points="42.844,-1.43 41.903,0.057 41.903,-0.252 	"/>
	<polygon fill="#F2F2F2" points="42.844,-0.459 42.844,-0.143 41.903,1.333 41.903,1.024 	"/>
</g>
<g opacity="0.15">
	<line fill="#F2F2F2" x1="46.826" y1="-0.579" x2="46.826" y2="-0.885"/>
	<polygon fill="#F2F2F2" points="45.891,-1.1 45.891,-0.785 46.826,0.691 46.826,0.389 	"/>
	<polygon fill="#F2F2F2" points="45.891,0.184 45.891,0.492 46.826,1.975 46.826,1.66 	"/>
	<line fill="#F2F2F2" x1="44.775" y1="-1.218" x2="44.775" y2="-1.529"/>
	<polyline fill="#F2F2F2" points="45.719,-1.43 44.775,0.057 44.775,-0.252 	"/>
	<polygon fill="#F2F2F2" points="45.719,-0.459 45.719,-0.143 44.775,1.333 44.775,1.024 	"/>
</g>
<g opacity="0.15">
	<line fill="#F2F2F2" x1="49.701" y1="-0.579" x2="49.701" y2="-0.885"/>
	<polygon fill="#F2F2F2" points="48.76,-1.1 48.76,-0.785 49.701,0.691 49.701,0.389 	"/>
	<polygon fill="#F2F2F2" points="48.76,0.184 48.76,0.492 49.701,1.975 49.701,1.66 	"/>
	<line fill="#F2F2F2" x1="47.649" y1="-1.218" x2="47.649" y2="-1.529"/>
	<polyline fill="#F2F2F2" points="48.59,-1.43 47.649,0.057 47.649,-0.252 	"/>
	<polygon fill="#F2F2F2" points="48.59,-0.459 48.59,-0.143 47.649,1.333 47.649,1.024 	"/>
</g>
<g opacity="0.15">
	<line fill="#F2F2F2" x1="52.575" y1="-0.579" x2="52.575" y2="-0.885"/>
	<polygon fill="#F2F2F2" points="51.637,-1.1 51.637,-0.785 52.575,0.691 52.575,0.389 	"/>
	<polygon fill="#F2F2F2" points="51.637,0.184 51.637,0.492 52.575,1.975 52.575,1.66 	"/>
	<line fill="#F2F2F2" x1="50.524" y1="-1.218" x2="50.524" y2="-1.529"/>
	<polyline fill="#F2F2F2" points="51.461,-1.43 50.524,0.057 50.524,-0.252 	"/>
	<polygon fill="#F2F2F2" points="51.461,-0.459 51.461,-0.143 50.524,1.333 50.524,1.024 	"/>
</g>
<g opacity="0.15">
	<line fill="#F2F2F2" x1="55.447" y1="-0.579" x2="55.447" y2="-0.885"/>
	<polygon fill="#F2F2F2" points="54.506,-1.1 54.506,-0.785 55.447,0.691 55.447,0.389 	"/>
	<polygon fill="#F2F2F2" points="54.506,0.184 54.506,0.492 55.447,1.975 55.447,1.66 	"/>
	<line fill="#F2F2F2" x1="53.398" y1="-1.218" x2="53.398" y2="-1.529"/>
	<polyline fill="#F2F2F2" points="54.339,-1.43 53.398,0.057 53.398,-0.252 	"/>
	<polygon fill="#F2F2F2" points="54.339,-0.459 54.339,-0.143 53.398,1.333 53.398,1.024 	"/>
</g>
<g opacity="0.15">
	<line fill="#F2F2F2" x1="58.318" y1="-0.579" x2="58.318" y2="-0.885"/>
	<polygon fill="#F2F2F2" points="57.383,-1.1 57.383,-0.785 58.318,0.691 58.318,0.389 	"/>
	<polygon fill="#F2F2F2" points="57.383,0.184 57.383,0.492 58.318,1.975 58.318,1.66 	"/>
	<line fill="#F2F2F2" x1="56.276" y1="-1.218" x2="56.276" y2="-1.529"/>
	<polyline fill="#F2F2F2" points="57.214,-1.43 56.276,0.057 56.276,-0.252 	"/>
	<polygon fill="#F2F2F2" points="57.214,-0.459 57.214,-0.143 56.276,1.333 56.276,1.024 	"/>
</g>
<g opacity="0.15">
	<line fill="#F2F2F2" x1="26.716" y1="-0.579" x2="26.716" y2="-0.885"/>
	<polygon fill="#F2F2F2" points="25.778,-1.1 25.778,-0.785 26.716,0.691 26.716,0.389 	"/>
	<polygon fill="#F2F2F2" points="25.778,0.184 25.778,0.492 26.716,1.975 26.716,1.66 	"/>
	<line fill="#F2F2F2" x1="24.665" y1="-1.218" x2="24.665" y2="-1.529"/>
	<polyline fill="#F2F2F2" points="25.603,-1.43 24.665,0.057 24.665,-0.252 	"/>
	<polygon fill="#F2F2F2" points="25.603,-0.459 25.603,-0.143 24.665,1.333 24.665,1.024 	"/>
</g>
<g opacity="0.15">
	<line fill="#F2F2F2" x1="0.861" y1="-0.579" x2="0.861" y2="-0.885"/>
	<polygon fill="#F2F2F2" points="-0.081,-1.1 -0.081,-0.785 0.861,0.691 0.861,0.389 	"/>
	<polygon fill="#F2F2F2" points="-0.081,0.184 -0.081,0.492 0.861,1.975 0.861,1.66 	"/>
	<line fill="#F2F2F2" x1="-1.194" y1="-1.218" x2="-1.194" y2="-1.529"/>
	<polyline fill="#F2F2F2" points="-0.256,-1.43 -1.194,0.057 -1.194,-0.252 	"/>
	<polygon fill="#F2F2F2" points="-0.256,-0.459 -0.256,-0.143 -1.194,1.333 -1.194,1.024 	"/>
</g>
<g opacity="0.15">
	<line fill="#F2F2F2" x1="3.732" y1="-0.579" x2="3.732" y2="-0.885"/>
	<polygon fill="#F2F2F2" points="2.794,-1.1 2.794,-0.785 3.732,0.691 3.732,0.389 	"/>
	<polygon fill="#F2F2F2" points="2.794,0.184 2.794,0.492 3.732,1.975 3.732,1.66 	"/>
	<line fill="#F2F2F2" x1="1.681" y1="-1.218" x2="1.681" y2="-1.529"/>
	<polyline fill="#F2F2F2" points="2.622,-1.43 1.681,0.057 1.681,-0.252 	"/>
	<polygon fill="#F2F2F2" points="2.622,-0.459 2.622,-0.143 1.681,1.333 1.681,1.024 	"/>
</g>
<g opacity="0.15">
	<line fill="#F2F2F2" x1="6.607" y1="-0.579" x2="6.607" y2="-0.885"/>
	<polygon fill="#F2F2F2" points="5.669,-1.1 5.669,-0.785 6.607,0.691 6.607,0.389 	"/>
	<polygon fill="#F2F2F2" points="5.669,0.184 5.669,0.492 6.607,1.975 6.607,1.66 	"/>
	<line fill="#F2F2F2" x1="4.555" y1="-1.218" x2="4.555" y2="-1.529"/>
	<polyline fill="#F2F2F2" points="5.496,-1.43 4.555,0.057 4.555,-0.252 	"/>
	<polygon fill="#F2F2F2" points="5.496,-0.459 5.496,-0.143 4.555,1.333 4.555,1.024 	"/>
</g>
<g opacity="0.15">
	<line fill="#F2F2F2" x1="9.478" y1="-0.579" x2="9.478" y2="-0.885"/>
	<polygon fill="#F2F2F2" points="8.543,-1.1 8.543,-0.785 9.478,0.691 9.478,0.389 	"/>
	<polygon fill="#F2F2F2" points="8.543,0.184 8.543,0.492 9.478,1.975 9.478,1.66 	"/>
	<line fill="#F2F2F2" x1="7.427" y1="-1.218" x2="7.427" y2="-1.529"/>
	<polyline fill="#F2F2F2" points="8.365,-1.43 7.427,0.057 7.427,-0.252 	"/>
	<polygon fill="#F2F2F2" points="8.365,-0.459 8.365,-0.143 7.427,1.333 7.427,1.024 	"/>
</g>
<g opacity="0.15">
	<line fill="#F2F2F2" x1="12.353" y1="-0.579" x2="12.353" y2="-0.885"/>
	<polygon fill="#F2F2F2" points="11.409,-1.1 11.409,-0.785 12.353,0.691 12.353,0.389 	"/>
	<polygon fill="#F2F2F2" points="11.409,0.184 11.409,0.492 12.353,1.975 12.353,1.66 	"/>
	<line fill="#F2F2F2" x1="10.302" y1="-1.218" x2="10.302" y2="-1.529"/>
	<polyline fill="#F2F2F2" points="11.239,-1.43 10.302,0.057 10.302,-0.252 	"/>
	<polygon fill="#F2F2F2" points="11.239,-0.459 11.239,-0.143 10.302,1.333 10.302,1.024 	"/>
</g>
<g opacity="0.15">
	<line fill="#F2F2F2" x1="15.221" y1="-0.579" x2="15.221" y2="-0.885"/>
	<polygon fill="#F2F2F2" points="14.29,-1.1 14.29,-0.785 15.221,0.691 15.221,0.389 	"/>
	<polygon fill="#F2F2F2" points="14.29,0.184 14.29,0.492 15.221,1.975 15.221,1.66 	"/>
	<line fill="#F2F2F2" x1="13.17" y1="-1.218" x2="13.17" y2="-1.529"/>
	<polyline fill="#F2F2F2" points="14.114,-1.43 13.17,0.057 13.17,-0.252 	"/>
	<polygon fill="#F2F2F2" points="14.114,-0.459 14.114,-0.143 13.17,1.333 13.17,1.024 	"/>
</g>
<g opacity="0.15">
	<line fill="#F2F2F2" x1="18.102" y1="-0.579" x2="18.102" y2="-0.885"/>
	<polygon fill="#F2F2F2" points="17.161,-1.1 17.161,-0.785 18.102,0.691 18.102,0.389 	"/>
	<polygon fill="#F2F2F2" points="17.161,0.184 17.161,0.492 18.102,1.975 18.102,1.66 	"/>
	<line fill="#F2F2F2" x1="16.05" y1="-1.218" x2="16.05" y2="-1.529"/>
	<polyline fill="#F2F2F2" points="16.985,-1.43 16.05,0.057 16.05,-0.252 	"/>
	<polygon fill="#F2F2F2" points="16.985,-0.459 16.985,-0.143 16.05,1.333 16.05,1.024 	"/>
</g>
<g opacity="0.15">
	<line fill="#F2F2F2" x1="20.974" y1="-0.579" x2="20.974" y2="-0.885"/>
	<polygon fill="#F2F2F2" points="20.032,-1.1 20.032,-0.785 20.974,0.691 20.974,0.389 	"/>
	<polygon fill="#F2F2F2" points="20.032,0.184 20.032,0.492 20.974,1.975 20.974,1.66 	"/>
	<line fill="#F2F2F2" x1="18.922" y1="-1.218" x2="18.922" y2="-1.529"/>
	<polyline fill="#F2F2F2" points="19.86,-1.43 18.922,0.057 18.922,-0.252 	"/>
	<polygon fill="#F2F2F2" points="19.86,-0.459 19.86,-0.143 18.922,1.333 18.922,1.024 	"/>
</g>
<g opacity="0.15">
	<line fill="#F2F2F2" x1="23.848" y1="-0.579" x2="23.848" y2="-0.885"/>
	<polygon fill="#F2F2F2" points="22.907,-1.1 22.907,-0.785 23.848,0.691 23.848,0.389 	"/>
	<polygon fill="#F2F2F2" points="22.907,0.184 22.907,0.492 23.848,1.975 23.848,1.66 	"/>
	<line fill="#F2F2F2" x1="21.791" y1="-1.218" x2="21.791" y2="-1.529"/>
	<polyline fill="#F2F2F2" points="22.729,-1.43 21.791,0.057 21.791,-0.252 	"/>
	<polygon fill="#F2F2F2" points="22.729,-0.459 22.729,-0.143 21.791,1.333 21.791,1.024 	"/>
</g>
<g opacity="0.15">
	<line fill="#F2F2F2" x1="92.795" y1="-0.579" x2="92.795" y2="-0.885"/>
	<polygon fill="#F2F2F2" points="91.851,-1.1 91.851,-0.785 92.795,0.691 92.795,0.389 	"/>
	<polygon fill="#F2F2F2" points="91.851,0.184 91.851,0.492 92.795,1.975 92.795,1.66 	"/>
	<line fill="#F2F2F2" x1="90.748" y1="-1.218" x2="90.748" y2="-1.529"/>
	<polyline fill="#F2F2F2" points="91.688,-1.43 90.748,0.057 90.748,-0.252 	"/>
	<polygon fill="#F2F2F2" points="91.688,-0.459 91.688,-0.143 90.748,1.333 90.748,1.024 	"/>
</g>
<g opacity="0.15">
	<line fill="#F2F2F2" x1="95.67" y1="-0.579" x2="95.67" y2="-0.885"/>
	<polygon fill="#F2F2F2" points="94.726,-1.1 94.726,-0.785 95.67,0.691 95.67,0.389 	"/>
	<polygon fill="#F2F2F2" points="94.726,0.184 94.726,0.492 95.67,1.975 95.67,1.66 	"/>
	<line fill="#F2F2F2" x1="93.605" y1="-1.218" x2="93.605" y2="-1.529"/>
	<polyline fill="#F2F2F2" points="94.562,-1.43 93.605,0.057 93.605,-0.252 	"/>
	<polygon fill="#F2F2F2" points="94.562,-0.459 94.562,-0.143 93.605,1.333 93.605,1.024 	"/>
</g>
<g opacity="0.15">
	<line fill="#F2F2F2" x1="98.532" y1="-0.579" x2="98.532" y2="-0.885"/>
	<polygon fill="#F2F2F2" points="97.611,-1.1 97.611,-0.785 98.532,0.691 98.532,0.389 	"/>
	<polygon fill="#F2F2F2" points="97.611,0.184 97.611,0.492 98.532,1.975 98.532,1.66 	"/>
	<line fill="#F2F2F2" x1="96.48" y1="-1.218" x2="96.48" y2="-1.529"/>
	<polyline fill="#F2F2F2" points="97.424,-1.43 96.48,0.057 96.48,-0.252 	"/>
	<polygon fill="#F2F2F2" points="97.424,-0.459 97.424,-0.143 96.48,1.333 96.48,1.024 	"/>
</g>
<g opacity="0.15">
	<line fill="#F2F2F2" x1="101.4" y1="-0.579" x2="101.4" y2="-0.885"/>
	<polygon fill="#F2F2F2" points="100.475,-1.1 100.475,-0.785 101.4,0.691 101.4,0.389 	"/>
	<polygon fill="#F2F2F2" points="100.475,0.184 100.475,0.492 101.4,1.975 101.4,1.66 	"/>
	<line fill="#F2F2F2" x1="99.366" y1="-1.218" x2="99.366" y2="-1.529"/>
	<polyline fill="#F2F2F2" points="100.311,-1.43 99.366,0.057 99.366,-0.252 	"/>
	<polygon fill="#F2F2F2" points="100.311,-0.459 100.311,-0.143 99.366,1.333 99.366,1.024 	"/>
</g>
<g opacity="0.15">
	<line fill="#F2F2F2" x1="104.286" y1="-0.579" x2="104.286" y2="-0.885"/>
	<polygon fill="#F2F2F2" points="103.349,-1.1 103.349,-0.785 104.286,0.691 104.286,0.389 	"/>
	<polygon fill="#F2F2F2" points="103.349,0.184 103.349,0.492 104.286,1.975 104.286,1.66 	"/>
	<line fill="#F2F2F2" x1="102.241" y1="-1.218" x2="102.241" y2="-1.529"/>
	<polyline fill="#F2F2F2" points="103.18,-1.43 102.241,0.057 102.241,-0.252 	"/>
	<polygon fill="#F2F2F2" points="103.18,-0.459 103.18,-0.143 102.241,1.333 102.241,1.024 	"/>
</g>
<g opacity="0.15">
	<polygon fill="#F2F2F2" points="106.205,2.616 106.205,2.919 107.149,4.407 107.149,4.104 	"/>
	<polygon fill="#F2F2F2" points="106.205,1.352 106.205,1.66 107.149,3.143 107.149,2.834 	"/>
	<line fill="#F2F2F2" x1="106.205" y1="3.888" x2="106.205" y2="4.195"/>
	<polygon fill="#F2F2F2" points="106.042,1.975 106.042,2.29 105.103,3.772 105.103,3.464 	"/>
	<polygon fill="#F2F2F2" points="106.042,0.703 106.042,1.013 105.103,2.495 105.103,2.181 	"/>
	<line fill="#F2F2F2" x1="106.042" y1="3.245" x2="106.042" y2="3.56"/>
	<path fill="#F2F2F2" d="M106.042,4.528"/>
	<polyline fill="none" points="104.674,2.834 106.042,0.703 106.042,1.073 107.536,3.464 	"/>
</g>
<g opacity="0.15">
	<polygon fill="#F2F2F2" points="109.08,2.616 109.08,2.919 110.024,4.407 110.024,4.104 	"/>
	<polygon fill="#F2F2F2" points="109.08,1.352 109.08,1.66 110.024,3.143 110.024,2.834 	"/>
	<line fill="#F2F2F2" x1="109.08" y1="3.888" x2="109.08" y2="4.195"/>
	<polygon fill="#F2F2F2" points="108.916,1.975 108.916,2.29 107.96,3.772 107.96,3.464 	"/>
	<polygon fill="#F2F2F2" points="108.916,0.703 108.916,1.013 107.96,2.495 107.96,2.181 	"/>
	<line fill="#F2F2F2" x1="108.916" y1="3.245" x2="108.916" y2="3.56"/>
	<path fill="#F2F2F2" d="M108.916,4.528"/>
	<polyline fill="none" points="107.549,2.834 108.916,0.703 108.916,1.073 110.411,3.464 	"/>
</g>
<g opacity="0.15">
	<polygon fill="#F2F2F2" points="111.966,2.616 111.966,2.919 112.887,4.407 112.887,4.104 	"/>
	<polygon fill="#F2F2F2" points="111.966,1.352 111.966,1.66 112.887,3.143 112.887,2.834 	"/>
	<line fill="#F2F2F2" x1="111.966" y1="3.888" x2="111.966" y2="4.195"/>
	<polygon fill="#F2F2F2" points="111.778,1.975 111.778,2.29 110.835,3.772 110.835,3.464 	"/>
	<polygon fill="#F2F2F2" points="111.778,0.703 111.778,1.013 110.835,2.495 110.835,2.181 	"/>
	<line fill="#F2F2F2" x1="111.778" y1="3.245" x2="111.778" y2="3.56"/>
	<path fill="#F2F2F2" d="M111.778,4.528"/>
	<polyline fill="none" points="110.436,2.834 111.778,0.703 111.778,1.073 113.273,3.464 	"/>
</g>
<g opacity="0.15">
	<polygon fill="#F2F2F2" points="114.829,2.616 114.829,2.919 115.755,4.407 115.755,4.104 	"/>
	<polygon fill="#F2F2F2" points="114.829,1.352 114.829,1.66 115.755,3.143 115.755,2.834 	"/>
	<line fill="#F2F2F2" x1="114.829" y1="3.888" x2="114.829" y2="4.195"/>
	<polygon fill="#F2F2F2" points="114.665,1.975 114.665,2.29 113.721,3.772 113.721,3.464 	"/>
	<polygon fill="#F2F2F2" points="114.665,0.703 114.665,1.013 113.721,2.495 113.721,2.181 	"/>
	<line fill="#F2F2F2" x1="114.665" y1="3.245" x2="114.665" y2="3.56"/>
	<path fill="#F2F2F2" d="M114.665,4.528"/>
	<polyline fill="none" points="113.31,2.834 114.665,0.703 114.665,1.073 116.148,3.464 	"/>
</g>
<g opacity="0.15">
	<polygon fill="#F2F2F2" points="117.703,2.616 117.703,2.919 118.641,4.407 118.641,4.104 	"/>
	<polygon fill="#F2F2F2" points="117.703,1.352 117.703,1.66 118.641,3.143 118.641,2.834 	"/>
	<line fill="#F2F2F2" x1="117.703" y1="3.888" x2="117.703" y2="4.195"/>
	<polygon fill="#F2F2F2" points="117.534,1.975 117.534,2.29 116.596,3.772 116.596,3.464 	"/>
	<polygon fill="#F2F2F2" points="117.534,0.703 117.534,1.013 116.596,2.495 116.596,2.181 	"/>
	<line fill="#F2F2F2" x1="117.534" y1="3.245" x2="117.534" y2="3.56"/>
	<path fill="#F2F2F2" d="M117.534,4.528"/>
	<polyline fill="none" points="116.189,2.834 117.534,0.703 117.534,1.073 119.028,3.464 	"/>
</g>
<g opacity="0.15">
	<line fill="#F2F2F2" x1="107.149" y1="-0.579" x2="107.149" y2="-0.885"/>
	<polygon fill="#F2F2F2" points="106.205,-1.1 106.205,-0.785 107.149,0.691 107.149,0.389 	"/>
	<polygon fill="#F2F2F2" points="106.205,0.184 106.205,0.492 107.149,1.975 107.149,1.66 	"/>
	<line fill="#F2F2F2" x1="105.103" y1="-1.218" x2="105.103" y2="-1.529"/>
	<polyline fill="#F2F2F2" points="106.042,-1.43 105.103,0.057 105.103,-0.252 	"/>
	<polygon fill="#F2F2F2" points="106.042,-0.459 106.042,-0.143 105.103,1.333 105.103,1.024 	"/>
</g>
<g opacity="0.15">
	<line fill="#F2F2F2" x1="110.024" y1="-0.579" x2="110.024" y2="-0.885"/>
	<polygon fill="#F2F2F2" points="109.08,-1.1 109.08,-0.785 110.024,0.691 110.024,0.389 	"/>
	<polygon fill="#F2F2F2" points="109.08,0.184 109.08,0.492 110.024,1.975 110.024,1.66 	"/>
	<line fill="#F2F2F2" x1="107.96" y1="-1.218" x2="107.96" y2="-1.529"/>
	<polyline fill="#F2F2F2" points="108.916,-1.43 107.96,0.057 107.96,-0.252 	"/>
	<polygon fill="#F2F2F2" points="108.916,-0.459 108.916,-0.143 107.96,1.333 107.96,1.024 	"/>
</g>
<g opacity="0.15">
	<line fill="#F2F2F2" x1="112.887" y1="-0.579" x2="112.887" y2="-0.885"/>
	<polygon fill="#F2F2F2" points="111.966,-1.1 111.966,-0.785 112.887,0.691 112.887,0.389 	"/>
	<polygon fill="#F2F2F2" points="111.966,0.184 111.966,0.492 112.887,1.975 112.887,1.66 	"/>
	<line fill="#F2F2F2" x1="110.835" y1="-1.218" x2="110.835" y2="-1.529"/>
	<polyline fill="#F2F2F2" points="111.778,-1.43 110.835,0.057 110.835,-0.252 	"/>
	<polygon fill="#F2F2F2" points="111.778,-0.459 111.778,-0.143 110.835,1.333 110.835,1.024 	"/>
</g>
<g opacity="0.15">
	<line fill="#F2F2F2" x1="115.755" y1="-0.579" x2="115.755" y2="-0.885"/>
	<polygon fill="#F2F2F2" points="114.829,-1.1 114.829,-0.785 115.755,0.691 115.755,0.389 	"/>
	<polygon fill="#F2F2F2" points="114.829,0.184 114.829,0.492 115.755,1.975 115.755,1.66 	"/>
	<line fill="#F2F2F2" x1="113.721" y1="-1.218" x2="113.721" y2="-1.529"/>
	<polyline fill="#F2F2F2" points="114.665,-1.43 113.721,0.057 113.721,-0.252 	"/>
	<polygon fill="#F2F2F2" points="114.665,-0.459 114.665,-0.143 113.721,1.333 113.721,1.024 	"/>
</g>
<g opacity="0.15">
	<line fill="#F2F2F2" x1="118.641" y1="-0.579" x2="118.641" y2="-0.885"/>
	<polygon fill="#F2F2F2" points="117.703,-1.1 117.703,-0.785 118.641,0.691 118.641,0.389 	"/>
	<polygon fill="#F2F2F2" points="117.703,0.184 117.703,0.492 118.641,1.975 118.641,1.66 	"/>
	<line fill="#F2F2F2" x1="116.596" y1="-1.218" x2="116.596" y2="-1.529"/>
	<polyline fill="#F2F2F2" points="117.534,-1.43 116.596,0.057 116.596,-0.252 	"/>
	<polygon fill="#F2F2F2" points="117.534,-0.459 117.534,-0.143 116.596,1.333 116.596,1.024 	"/>
</g>
<g opacity="0.15">
	<polygon fill="#F2F2F2" points="120.542,2.616 120.542,2.919 121.479,4.407 121.479,4.104 	"/>
	<polygon fill="#F2F2F2" points="120.542,1.352 120.542,1.66 121.479,3.143 121.479,2.834 	"/>
	<line fill="#F2F2F2" x1="120.542" y1="3.888" x2="120.542" y2="4.195"/>
	<polygon fill="#F2F2F2" points="120.373,1.975 120.373,2.29 119.435,3.772 119.435,3.464 	"/>
	<polygon fill="#F2F2F2" points="120.373,0.703 120.373,1.013 119.435,2.495 119.435,2.181 	"/>
	<line fill="#F2F2F2" x1="120.373" y1="3.245" x2="120.373" y2="3.56"/>
	<path fill="#F2F2F2" d="M120.373,4.528"/>
	<polyline fill="none" points="119.028,2.834 120.373,0.703 120.373,1.073 121.867,3.464 	"/>
</g>
<g opacity="0.15">
	<line fill="#F2F2F2" x1="121.479" y1="-0.579" x2="121.479" y2="-0.885"/>
	<polygon fill="#F2F2F2" points="120.542,-1.1 120.542,-0.785 121.479,0.691 121.479,0.389 	"/>
	<polygon fill="#F2F2F2" points="120.542,0.184 120.542,0.492 121.479,1.975 121.479,1.66 	"/>
	<line fill="#F2F2F2" x1="119.435" y1="-1.218" x2="119.435" y2="-1.529"/>
	<polyline fill="#F2F2F2" points="120.373,-1.43 119.435,0.057 119.435,-0.252 	"/>
	<polygon fill="#F2F2F2" points="120.373,-0.459 120.373,-0.143 119.435,1.333 119.435,1.024 	"/>
</g>
<g opacity="0.15">
	<polygon fill="#F2F2F2" points="123.398,2.616 123.398,2.919 124.343,4.407 124.343,4.104 	"/>
	<polygon fill="#F2F2F2" points="123.398,1.352 123.398,1.66 124.343,3.143 124.343,2.834 	"/>
	<line fill="#F2F2F2" x1="123.398" y1="3.888" x2="123.398" y2="4.195"/>
	<polygon fill="#F2F2F2" points="123.235,1.975 123.235,2.29 122.296,3.772 122.296,3.464 	"/>
	<polygon fill="#F2F2F2" points="123.235,0.703 123.235,1.013 122.296,2.495 122.296,2.181 	"/>
	<line fill="#F2F2F2" x1="123.235" y1="3.245" x2="123.235" y2="3.56"/>
	<path fill="#F2F2F2" d="M123.235,4.528"/>
	<polyline fill="none" points="121.867,2.834 123.235,0.703 123.235,1.073 124.729,3.464 	"/>
</g>
<g opacity="0.15">
	<polygon fill="#F2F2F2" points="126.273,2.616 126.273,2.919 127.218,4.407 127.218,4.104 	"/>
	<polygon fill="#F2F2F2" points="126.273,1.352 126.273,1.66 127.218,3.143 127.218,2.834 	"/>
	<line fill="#F2F2F2" x1="126.273" y1="3.888" x2="126.273" y2="4.195"/>
	<polygon fill="#F2F2F2" points="126.109,1.975 126.109,2.29 125.153,3.772 125.153,3.464 	"/>
	<polygon fill="#F2F2F2" points="126.109,0.703 126.109,1.013 125.153,2.495 125.153,2.181 	"/>
	<line fill="#F2F2F2" x1="126.109" y1="3.245" x2="126.109" y2="3.56"/>
	<path fill="#F2F2F2" d="M126.109,4.528"/>
	<polyline fill="none" points="124.742,2.834 126.109,0.703 126.109,1.073 127.604,3.464 	"/>
</g>
<g opacity="0.15">
	<polygon fill="#F2F2F2" points="129.159,2.616 129.159,2.919 130.08,4.407 130.08,4.104 	"/>
	<polygon fill="#F2F2F2" points="129.159,1.352 129.159,1.66 130.08,3.143 130.08,2.834 	"/>
	<line fill="#F2F2F2" x1="129.159" y1="3.888" x2="129.159" y2="4.195"/>
	<polygon fill="#F2F2F2" points="128.972,1.975 128.972,2.29 128.028,3.772 128.028,3.464 	"/>
	<polygon fill="#F2F2F2" points="128.972,0.703 128.972,1.013 128.028,2.495 128.028,2.181 	"/>
	<line fill="#F2F2F2" x1="128.972" y1="3.245" x2="128.972" y2="3.56"/>
	<path fill="#F2F2F2" d="M128.972,4.528"/>
	<polyline fill="none" points="127.629,2.834 128.972,0.703 128.972,1.073 130.467,3.464 	"/>
</g>
<g opacity="0.15">
	<polygon fill="#F2F2F2" points="132.022,2.616 132.022,2.919 132.948,4.407 132.948,4.104 	"/>
	<polygon fill="#F2F2F2" points="132.022,1.352 132.022,1.66 132.948,3.143 132.948,2.834 	"/>
	<line fill="#F2F2F2" x1="132.022" y1="3.888" x2="132.022" y2="4.195"/>
	<polygon fill="#F2F2F2" points="131.858,1.975 131.858,2.29 130.914,3.772 130.914,3.464 	"/>
	<polygon fill="#F2F2F2" points="131.858,0.703 131.858,1.013 130.914,2.495 130.914,2.181 	"/>
	<line fill="#F2F2F2" x1="131.858" y1="3.245" x2="131.858" y2="3.56"/>
	<path fill="#F2F2F2" d="M131.858,4.528"/>
	<polyline fill="none" points="130.503,2.834 131.858,0.703 131.858,1.073 133.342,3.464 	"/>
</g>
<g opacity="0.15">
	<polygon fill="#F2F2F2" points="134.896,2.616 134.896,2.919 135.834,4.407 135.834,4.104 	"/>
	<polygon fill="#F2F2F2" points="134.896,1.352 134.896,1.66 135.834,3.143 135.834,2.834 	"/>
	<line fill="#F2F2F2" x1="134.896" y1="3.888" x2="134.896" y2="4.195"/>
	<polygon fill="#F2F2F2" points="134.728,1.975 134.728,2.29 133.789,3.772 133.789,3.464 	"/>
	<polygon fill="#F2F2F2" points="134.728,0.703 134.728,1.013 133.789,2.495 133.789,2.181 	"/>
	<line fill="#F2F2F2" x1="134.728" y1="3.245" x2="134.728" y2="3.56"/>
	<path fill="#F2F2F2" d="M134.728,4.528"/>
	<polyline fill="none" points="133.383,2.834 134.728,0.703 134.728,1.073 136.222,3.464 	"/>
</g>
<g opacity="0.15">
	<line fill="#F2F2F2" x1="124.343" y1="-0.579" x2="124.343" y2="-0.885"/>
	<polygon fill="#F2F2F2" points="123.398,-1.1 123.398,-0.785 124.343,0.691 124.343,0.389 	"/>
	<polygon fill="#F2F2F2" points="123.398,0.184 123.398,0.492 124.343,1.975 124.343,1.66 	"/>
	<line fill="#F2F2F2" x1="122.296" y1="-1.218" x2="122.296" y2="-1.529"/>
	<polyline fill="#F2F2F2" points="123.235,-1.43 122.296,0.057 122.296,-0.252 	"/>
	<polygon fill="#F2F2F2" points="123.235,-0.459 123.235,-0.143 122.296,1.333 122.296,1.024 	"/>
</g>
<g opacity="0.15">
	<line fill="#F2F2F2" x1="127.218" y1="-0.579" x2="127.218" y2="-0.885"/>
	<polygon fill="#F2F2F2" points="126.273,-1.1 126.273,-0.785 127.218,0.691 127.218,0.389 	"/>
	<polygon fill="#F2F2F2" points="126.273,0.184 126.273,0.492 127.218,1.975 127.218,1.66 	"/>
	<line fill="#F2F2F2" x1="125.153" y1="-1.218" x2="125.153" y2="-1.529"/>
	<polyline fill="#F2F2F2" points="126.109,-1.43 125.153,0.057 125.153,-0.252 	"/>
	<polygon fill="#F2F2F2" points="126.109,-0.459 126.109,-0.143 125.153,1.333 125.153,1.024 	"/>
</g>
<g opacity="0.15">
	<line fill="#F2F2F2" x1="130.08" y1="-0.579" x2="130.08" y2="-0.885"/>
	<polygon fill="#F2F2F2" points="129.159,-1.1 129.159,-0.785 130.08,0.691 130.08,0.389 	"/>
	<polygon fill="#F2F2F2" points="129.159,0.184 129.159,0.492 130.08,1.975 130.08,1.66 	"/>
	<line fill="#F2F2F2" x1="128.028" y1="-1.218" x2="128.028" y2="-1.529"/>
	<polyline fill="#F2F2F2" points="128.972,-1.43 128.028,0.057 128.028,-0.252 	"/>
	<polygon fill="#F2F2F2" points="128.972,-0.459 128.972,-0.143 128.028,1.333 128.028,1.024 	"/>
</g>
<g opacity="0.15">
	<line fill="#F2F2F2" x1="132.948" y1="-0.579" x2="132.948" y2="-0.885"/>
	<polygon fill="#F2F2F2" points="132.022,-1.1 132.022,-0.785 132.948,0.691 132.948,0.389 	"/>
	<polygon fill="#F2F2F2" points="132.022,0.184 132.022,0.492 132.948,1.975 132.948,1.66 	"/>
	<line fill="#F2F2F2" x1="130.914" y1="-1.218" x2="130.914" y2="-1.529"/>
	<polyline fill="#F2F2F2" points="131.858,-1.43 130.914,0.057 130.914,-0.252 	"/>
	<polygon fill="#F2F2F2" points="131.858,-0.459 131.858,-0.143 130.914,1.333 130.914,1.024 	"/>
</g>
<g opacity="0.15">
	<line fill="#F2F2F2" x1="135.834" y1="-0.579" x2="135.834" y2="-0.885"/>
	<polygon fill="#F2F2F2" points="134.896,-1.1 134.896,-0.785 135.834,0.691 135.834,0.389 	"/>
	<polygon fill="#F2F2F2" points="134.896,0.184 134.896,0.492 135.834,1.975 135.834,1.66 	"/>
	<line fill="#F2F2F2" x1="133.789" y1="-1.218" x2="133.789" y2="-1.529"/>
	<polyline fill="#F2F2F2" points="134.728,-1.43 133.789,0.057 133.789,-0.252 	"/>
	<polygon fill="#F2F2F2" points="134.728,-0.459 134.728,-0.143 133.789,1.333 133.789,1.024 	"/>
</g>
<g opacity="0.15">
	<polygon fill="#F2F2F2" points="137.735,2.616 137.735,2.919 138.673,4.407 138.673,4.104 	"/>
	<polygon fill="#F2F2F2" points="137.735,1.352 137.735,1.66 138.673,3.143 138.673,2.834 	"/>
	<line fill="#F2F2F2" x1="137.735" y1="3.888" x2="137.735" y2="4.195"/>
	<polygon fill="#F2F2F2" points="137.566,1.975 137.566,2.29 136.628,3.772 136.628,3.464 	"/>
	<polygon fill="#F2F2F2" points="137.566,0.703 137.566,1.013 136.628,2.495 136.628,2.181 	"/>
	<line fill="#F2F2F2" x1="137.566" y1="3.245" x2="137.566" y2="3.56"/>
	<path fill="#F2F2F2" d="M137.566,4.528"/>
	<polyline fill="none" points="136.222,2.834 137.566,0.703 137.566,1.073 139.061,3.464 	"/>
</g>
<g opacity="0.15">
	<line fill="#F2F2F2" x1="138.673" y1="-0.579" x2="138.673" y2="-0.885"/>
	<polygon fill="#F2F2F2" points="137.735,-1.1 137.735,-0.785 138.673,0.691 138.673,0.389 	"/>
	<polygon fill="#F2F2F2" points="137.735,0.184 137.735,0.492 138.673,1.975 138.673,1.66 	"/>
	<line fill="#F2F2F2" x1="136.628" y1="-1.218" x2="136.628" y2="-1.529"/>
	<polyline fill="#F2F2F2" points="137.566,-1.43 136.628,0.057 136.628,-0.252 	"/>
	<polygon fill="#F2F2F2" points="137.566,-0.459 137.566,-0.143 136.628,1.333 136.628,1.024 	"/>
</g>
<g opacity="0.15">
	<polygon fill="#F2F2F2" points="140.574,2.616 140.574,2.919 141.512,4.407 141.512,4.104 	"/>
	<polygon fill="#F2F2F2" points="140.574,1.352 140.574,1.66 141.512,3.143 141.512,2.834 	"/>
	<line fill="#F2F2F2" x1="140.574" y1="3.888" x2="140.574" y2="4.195"/>
	<polygon fill="#F2F2F2" points="140.405,1.975 140.405,2.29 139.467,3.772 139.467,3.464 	"/>
	<polygon fill="#F2F2F2" points="140.405,0.703 140.405,1.013 139.467,2.495 139.467,2.181 	"/>
	<line fill="#F2F2F2" x1="140.405" y1="3.245" x2="140.405" y2="3.56"/>
	<path fill="#F2F2F2" d="M140.405,4.528"/>
	<polyline fill="none" points="139.061,2.834 140.405,0.703 140.405,1.073 141.899,3.464 	"/>
</g>
<g opacity="0.15">
	<line fill="#F2F2F2" x1="141.512" y1="-0.579" x2="141.512" y2="-0.885"/>
	<polygon fill="#F2F2F2" points="140.574,-1.1 140.574,-0.785 141.512,0.691 141.512,0.389 	"/>
	<polygon fill="#F2F2F2" points="140.574,0.184 140.574,0.492 141.512,1.975 141.512,1.66 	"/>
	<line fill="#F2F2F2" x1="139.467" y1="-1.218" x2="139.467" y2="-1.529"/>
	<polyline fill="#F2F2F2" points="140.405,-1.43 139.467,0.057 139.467,-0.252 	"/>
	<polygon fill="#F2F2F2" points="140.405,-0.459 140.405,-0.143 139.467,1.333 139.467,1.024 	"/>
</g>
<g opacity="0.15">
	<polygon fill="#F2F2F2" points="143.431,2.616 143.431,2.919 144.375,4.407 144.375,4.104 	"/>
	<polygon fill="#F2F2F2" points="143.431,1.352 143.431,1.66 144.375,3.143 144.375,2.834 	"/>
	<line fill="#F2F2F2" x1="143.431" y1="3.888" x2="143.431" y2="4.195"/>
	<polygon fill="#F2F2F2" points="143.268,1.975 143.268,2.29 142.328,3.772 142.328,3.464 	"/>
	<polygon fill="#F2F2F2" points="143.268,0.703 143.268,1.013 142.328,2.495 142.328,2.181 	"/>
	<line fill="#F2F2F2" x1="143.268" y1="3.245" x2="143.268" y2="3.56"/>
	<path fill="#F2F2F2" d="M143.268,4.528"/>
	<polyline fill="none" points="141.899,2.834 143.268,0.703 143.268,1.073 144.762,3.464 	"/>
</g>
<g opacity="0.15">
	<polygon fill="#F2F2F2" points="146.306,2.616 146.306,2.919 147.25,4.407 147.25,4.104 	"/>
	<polygon fill="#F2F2F2" points="146.306,1.352 146.306,1.66 147.25,3.143 147.25,2.834 	"/>
	<line fill="#F2F2F2" x1="146.306" y1="3.888" x2="146.306" y2="4.195"/>
	<polygon fill="#F2F2F2" points="146.142,1.975 146.142,2.29 145.186,3.772 145.186,3.464 	"/>
	<polygon fill="#F2F2F2" points="146.142,0.703 146.142,1.013 145.186,2.495 145.186,2.181 	"/>
	<line fill="#F2F2F2" x1="146.142" y1="3.245" x2="146.142" y2="3.56"/>
	<path fill="#F2F2F2" d="M146.142,4.528"/>
	<polyline fill="none" points="144.774,2.834 146.142,0.703 146.142,1.073 147.637,3.464 	"/>
</g>
<g opacity="0.15">
	<polygon fill="#F2F2F2" points="149.191,2.616 149.191,2.919 150.112,4.407 150.112,4.104 	"/>
	<polygon fill="#F2F2F2" points="149.191,1.352 149.191,1.66 150.112,3.143 150.112,2.834 	"/>
	<line fill="#F2F2F2" x1="149.191" y1="3.888" x2="149.191" y2="4.195"/>
	<polygon fill="#F2F2F2" points="149.004,1.975 149.004,2.29 148.061,3.772 148.061,3.464 	"/>
	<polygon fill="#F2F2F2" points="149.004,0.703 149.004,1.013 148.061,2.495 148.061,2.181 	"/>
	<line fill="#F2F2F2" x1="149.004" y1="3.245" x2="149.004" y2="3.56"/>
	<path fill="#F2F2F2" d="M149.004,4.528"/>
	<polyline fill="none" points="147.661,2.834 149.004,0.703 149.004,1.073 150.499,3.464 	"/>
</g>
<g opacity="0.15">
	<polygon fill="#F2F2F2" points="152.055,2.616 152.055,2.919 152.98,4.407 152.98,4.104 	"/>
	<polygon fill="#F2F2F2" points="152.055,1.352 152.055,1.66 152.98,3.143 152.98,2.834 	"/>
	<line fill="#F2F2F2" x1="152.055" y1="3.888" x2="152.055" y2="4.195"/>
	<polygon fill="#F2F2F2" points="151.891,1.975 151.891,2.29 150.946,3.772 150.946,3.464 	"/>
	<polygon fill="#F2F2F2" points="151.891,0.703 151.891,1.013 150.946,2.495 150.946,2.181 	"/>
	<line fill="#F2F2F2" x1="151.891" y1="3.245" x2="151.891" y2="3.56"/>
	<path fill="#F2F2F2" d="M151.891,4.528"/>
	<polyline fill="none" points="150.535,2.834 151.891,0.703 151.891,1.073 153.374,3.464 	"/>
</g>
<g opacity="0.15">
	<polygon fill="#F2F2F2" points="154.929,2.616 154.929,2.919 155.866,4.407 155.866,4.104 	"/>
	<polygon fill="#F2F2F2" points="154.929,1.352 154.929,1.66 155.866,3.143 155.866,2.834 	"/>
	<line fill="#F2F2F2" x1="154.929" y1="3.888" x2="154.929" y2="4.195"/>
	<polygon fill="#F2F2F2" points="154.76,1.975 154.76,2.29 153.821,3.772 153.821,3.464 	"/>
	<polygon fill="#F2F2F2" points="154.76,0.703 154.76,1.013 153.821,2.495 153.821,2.181 	"/>
	<line fill="#F2F2F2" x1="154.76" y1="3.245" x2="154.76" y2="3.56"/>
	<path fill="#F2F2F2" d="M154.76,4.528"/>
	<polyline fill="none" points="153.415,2.834 154.76,0.703 154.76,1.073 156.254,3.464 	"/>
</g>
<g opacity="0.15">
	<line fill="#F2F2F2" x1="144.375" y1="-0.579" x2="144.375" y2="-0.885"/>
	<polygon fill="#F2F2F2" points="143.431,-1.1 143.431,-0.785 144.375,0.691 144.375,0.389 	"/>
	<polygon fill="#F2F2F2" points="143.431,0.184 143.431,0.492 144.375,1.975 144.375,1.66 	"/>
	<line fill="#F2F2F2" x1="142.328" y1="-1.218" x2="142.328" y2="-1.529"/>
	<polyline fill="#F2F2F2" points="143.268,-1.43 142.328,0.057 142.328,-0.252 	"/>
	<polygon fill="#F2F2F2" points="143.268,-0.459 143.268,-0.143 142.328,1.333 142.328,1.024 	"/>
</g>
<g opacity="0.15">
	<line fill="#F2F2F2" x1="147.25" y1="-0.579" x2="147.25" y2="-0.885"/>
	<polygon fill="#F2F2F2" points="146.306,-1.1 146.306,-0.785 147.25,0.691 147.25,0.389 	"/>
	<polygon fill="#F2F2F2" points="146.306,0.184 146.306,0.492 147.25,1.975 147.25,1.66 	"/>
	<line fill="#F2F2F2" x1="145.186" y1="-1.218" x2="145.186" y2="-1.529"/>
	<polyline fill="#F2F2F2" points="146.142,-1.43 145.186,0.057 145.186,-0.252 	"/>
	<polygon fill="#F2F2F2" points="146.142,-0.459 146.142,-0.143 145.186,1.333 145.186,1.024 	"/>
</g>
<g opacity="0.15">
	<line fill="#F2F2F2" x1="150.112" y1="-0.579" x2="150.112" y2="-0.885"/>
	<polygon fill="#F2F2F2" points="149.191,-1.1 149.191,-0.785 150.112,0.691 150.112,0.389 	"/>
	<polygon fill="#F2F2F2" points="149.191,0.184 149.191,0.492 150.112,1.975 150.112,1.66 	"/>
	<line fill="#F2F2F2" x1="148.061" y1="-1.218" x2="148.061" y2="-1.529"/>
	<polyline fill="#F2F2F2" points="149.004,-1.43 148.061,0.057 148.061,-0.252 	"/>
	<polygon fill="#F2F2F2" points="149.004,-0.459 149.004,-0.143 148.061,1.333 148.061,1.024 	"/>
</g>
<g opacity="0.15">
	<line fill="#F2F2F2" x1="152.98" y1="-0.579" x2="152.98" y2="-0.885"/>
	<polygon fill="#F2F2F2" points="152.055,-1.1 152.055,-0.785 152.98,0.691 152.98,0.389 	"/>
	<polygon fill="#F2F2F2" points="152.055,0.184 152.055,0.492 152.98,1.975 152.98,1.66 	"/>
	<line fill="#F2F2F2" x1="150.946" y1="-1.218" x2="150.946" y2="-1.529"/>
	<polyline fill="#F2F2F2" points="151.891,-1.43 150.946,0.057 150.946,-0.252 	"/>
	<polygon fill="#F2F2F2" points="151.891,-0.459 151.891,-0.143 150.946,1.333 150.946,1.024 	"/>
</g>
<g opacity="0.15">
	<line fill="#F2F2F2" x1="155.866" y1="-0.579" x2="155.866" y2="-0.885"/>
	<polygon fill="#F2F2F2" points="154.929,-1.1 154.929,-0.785 155.866,0.691 155.866,0.389 	"/>
	<polygon fill="#F2F2F2" points="154.929,0.184 154.929,0.492 155.866,1.975 155.866,1.66 	"/>
	<line fill="#F2F2F2" x1="153.821" y1="-1.218" x2="153.821" y2="-1.529"/>
	<polyline fill="#F2F2F2" points="154.76,-1.43 153.821,0.057 153.821,-0.252 	"/>
	<polygon fill="#F2F2F2" points="154.76,-0.459 154.76,-0.143 153.821,1.333 153.821,1.024 	"/>
</g>
</svg>
