<?xml version="1.0" encoding="utf-8"?>
<!-- Generator: Adobe Illustrator 16.0.0, SVG Export Plug-In . SVG Version: 6.00 Build 0)  -->
<!DOCTYPE svg PUBLIC "-//W3C//DTD SVG 1.1//EN" "http://www.w3.org/Graphics/SVG/1.1/DTD/svg11.dtd">
<svg version="1.1" id="Calque_1" xmlns="http://www.w3.org/2000/svg" xmlns:xlink="http://www.w3.org/1999/xlink" x="0px" y="0px"
	 width="52px" height="52px" viewBox="0 0 52 52" enable-background="new 0 0 52 52" xml:space="preserve">
<g>
	<path fill="#13191C" d="M11.884,33.383c3.224,0,6.403,0,9.573,0c0-2.16,0-4.279,0-6.401c-3.211,0-6.389,0-9.573,0
		C11.884,29.133,11.884,31.242,11.884,33.383z"/>
	<path fill="#13191C" d="M10.801,23.746c-0.174-0.001-0.348,0-0.52,0c-0.19,0-0.378-0.002-0.564,0
		c-0.353,0.007-0.537,0.214-0.552,0.543c-0.014,0.306,0.137,0.544,0.47,0.565c0.399,0.024,0.805,0.012,1.208,0.005
		c0.385-0.008,0.532-0.232,0.513-0.596C11.34,23.911,11.147,23.746,10.801,23.746z"/>
	<path fill="#13191C" d="M9.761,27.004c0.171,0.016,0.346,0.004,0.521,0.002c0.172,0,0.349,0.018,0.52-0.002
		c0.321-0.041,0.53-0.193,0.529-0.562c-0.002-0.366-0.208-0.531-0.531-0.553c-0.346-0.029-0.696-0.023-1.042-0.002
		c-0.328,0.016-0.555,0.199-0.566,0.536C9.183,26.784,9.414,26.971,9.761,27.004z"/>
	<path fill="#13191C" d="M23.734,32.314c-0.428-0.035-0.864-0.027-1.294,0.004c-0.33,0.027-0.464,0.285-0.438,0.588
		c0.026,0.309,0.208,0.502,0.54,0.508c0.172,0.006,0.346,0,0.52,0.004c0.188,0,0.375,0,0.563,0c0.35-0.004,0.54-0.197,0.568-0.525
		C24.22,32.568,24.044,32.344,23.734,32.314z"/>
	<path fill="#13191C" d="M22.513,31.281c0.188,0.025,0.377,0.004,0.565,0.004c0,0,0,0,0-0.002c0.203,0,0.41,0.027,0.608-0.004
		c0.301-0.049,0.499-0.229,0.504-0.555c0.005-0.332-0.187-0.533-0.49-0.562c-0.402-0.037-0.813-0.039-1.213-0.002
		c-0.31,0.031-0.494,0.258-0.486,0.572C22.009,31.049,22.203,31.24,22.513,31.281z"/>
	<path fill="#13191C" d="M10.851,21.61c-0.391-0.037-0.789-0.033-1.177,0c-0.315,0.026-0.505,0.253-0.497,0.566
		c0.006,0.331,0.213,0.532,0.549,0.564c0.174,0.014,0.351,0.002,0.525,0.002c0-0.002,0-0.002,0-0.003
		c0.188,0,0.381,0.018,0.566-0.004c0.3-0.042,0.507-0.181,0.527-0.529C11.366,21.838,11.172,21.642,10.851,21.61z"/>
	<path fill="#13191C" d="M10.875,32.297c-0.403-0.031-0.812-0.021-1.217,0.002c-0.359,0.02-0.507,0.283-0.49,0.602
		c0.018,0.334,0.229,0.52,0.576,0.523c0.159,0,0.321,0,0.479,0c0.19,0,0.378,0.004,0.567,0c0.344-0.01,0.538-0.178,0.564-0.525
		C11.384,32.543,11.214,32.322,10.875,32.297z"/>
	<path fill="#13191C" d="M9.706,31.285c0.188,0.02,0.378,0.004,0.565,0.004c0.188,0,0.382,0.021,0.565-0.006
		c0.319-0.051,0.52-0.215,0.51-0.582c-0.011-0.365-0.221-0.529-0.542-0.553c-0.358-0.027-0.724-0.023-1.085,0
		c-0.334,0.021-0.541,0.234-0.546,0.564C9.17,31.045,9.37,31.25,9.706,31.285z"/>
	<path fill="#13191C" d="M10.812,28.027c-0.175,0.002-0.349,0-0.524,0c-0.189,0-0.379,0-0.568,0c-0.358,0-0.547,0.205-0.555,0.539
		c-0.009,0.361,0.188,0.568,0.561,0.576c0.365,0.004,0.729,0.004,1.094,0c0.38-0.008,0.55-0.215,0.536-0.584
		C11.344,28.209,11.172,28.021,10.812,28.027z"/>
	<path fill="#13191C" d="M9.594,20.569c0.448,0.03,0.899,0.035,1.343,0c0.339-0.026,0.439-0.283,0.418-0.599
		c-0.022-0.316-0.203-0.472-0.498-0.502c-0.188-0.019-0.378-0.003-0.568-0.003c-0.204,0-0.408-0.009-0.611,0.003
		c-0.333,0.02-0.5,0.233-0.513,0.54C9.155,20.292,9.273,20.549,9.594,20.569z"/>
	<path fill="#13191C" d="M22.55,27c0.185,0.027,0.376,0.006,0.565,0.006v0.002c0.16,0,0.321,0.012,0.478-0.002
		c0.343-0.035,0.583-0.205,0.582-0.57c-0.002-0.346-0.227-0.53-0.552-0.55c-0.345-0.024-0.697-0.018-1.044-0.003
		c-0.336,0.016-0.555,0.229-0.569,0.546C21.994,26.759,22.225,26.958,22.55,27z"/>
	<path fill="#13191C" d="M39.276,24.166c-0.307,0.02-0.552,0.022-0.794,0.053c-2.147,0.25-4.291,0.523-6.44,0.751
		c-0.363,0.037-0.423,0.155-0.421,0.471c0.01,1.864,0.004,3.729,0.004,5.594c0,0.154,0,0.312,0,0.422
		c-0.461,0-0.882-0.037-1.29,0.006c-0.755,0.086-1.402,0.691-1.455,1.299c-0.066,0.773,0.336,1.354,1.176,1.604
		c0.312,0.09,0.658,0.09,0.987,0.088c0.986-0.01,1.696-0.729,1.696-1.703c0.002-1.691,0.013-3.379-0.01-5.07
		c-0.006-0.414,0.126-0.539,0.527-0.574c0.91-0.078,1.816-0.211,2.725-0.316c0.702-0.08,1.406-0.147,2.141-0.227
		c0,1.408,0,2.771,0,4.158c-0.74-0.176-1.464-0.182-2.114,0.285c-0.851,0.611-0.854,1.736,0.024,2.299
		c0.746,0.48,1.546,0.512,2.358,0.123c0.768-0.365,0.891-1.039,0.888-1.785c-0.005-2.33-0.002-4.661-0.002-6.99
		C39.276,24.5,39.276,24.345,39.276,24.166z"/>
	<path fill="#13191C" d="M26.053,0.625c-13.806-0.053-25.129,11.25-25.138,25.1c-0.011,13.801,11.172,25.01,25.024,25.088
		c13.849,0.076,25.129-11.145,25.165-25.031C51.141,11.909,39.956,0.679,26.053,0.625z M24.598,34.383c-5.27,0-10.547,0-15.848,0
		c0-5.285,0-10.564,0-15.896c2.484,0,4.94,0,7.421,0c0,0.315,0,0.617,0,0.971c-1.412,0-2.829,0-4.275,0c0,2.174,0,4.293,0,6.452
		c3.187,0,6.365,0,9.558,0c0.022-0.153,0.042-0.293,0.068-0.46c1.02,0,2.032,0,3.076,0C24.598,28.416,24.598,31.377,24.598,34.383z
		 M17.218,24.625c-0.043,0-0.083-0.019-0.155-0.039c0-3.863,0-7.728,0-11.627c0.145-0.008,0.285-0.021,0.426-0.021
		c5.36,0,10.722,0.001,16.081-0.012c0.406,0,0.514,0.113,0.51,0.512c-0.02,2.039-0.008,4.078-0.008,6.119
		c0,0.663,0,0.663-0.655,0.703c-0.088,0.006-0.175,0.013-0.334,0.027c0-2.129,0-4.221,0-6.348c-5.028,0-10.017,0-15.026,0
		c0,3.234,0,6.431,0,9.668c3.114,0,6.211,0,9.385,0c-0.233,0.344-0.415,0.63-0.624,0.9c-0.056,0.072-0.192,0.118-0.291,0.118
		C23.424,24.628,20.321,24.627,17.218,24.625z M20.909,21.767c0.779-0.768,1.553-1.538,2.316-2.318
		c0.162-0.166,0.285-0.183,0.482-0.078c0.603,0.317,1.213,0.612,1.871,0.941c0.708-1.05,1.399-2.08,2.129-3.165
		c0.852,1.416,1.664,2.774,2.484,4.143c-0.489,0.348-0.953,0.687-1.432,1.012c-0.075,0.053-0.194,0.054-0.292,0.054
		c-2.637,0.003-5.275,0-7.911,0c-0.039,0-0.076-0.016-0.279-0.064C20.539,22.076,20.739,21.937,20.909,21.767z M20.263,16.715
		c0.011-0.835,0.736-1.536,1.581-1.522c0.86,0.012,1.543,0.705,1.54,1.556c-0.002,0.847-0.703,1.548-1.55,1.551
		C20.974,18.302,20.253,17.576,20.263,16.715z M34.724,38.133c-4.713-0.006-8.564-3.859-8.503-8.611
		c0.059-4.791,3.968-8.573,8.809-8.423c4.365,0.133,8.242,3.58,8.24,8.519C43.268,34.641,39.218,38.146,34.724,38.133z"/>
	<path fill="#13191C" d="M22.518,29.143c0.188,0.008,0.376,0,0.564,0.002c0.188,0,0.376,0.006,0.564-0.002
		c0.365-0.016,0.564-0.213,0.557-0.576c-0.006-0.34-0.199-0.531-0.547-0.539c-0.375-0.004-0.75,0-1.128,0
		c-0.364,0-0.527,0.217-0.529,0.549C21.997,28.908,22.157,29.129,22.518,29.143z"/>
</g>
</svg>
