<?xml version="1.0" encoding="utf-8"?>
<!-- Generator: Adobe Illustrator 16.0.0, SVG Export Plug-In . SVG Version: 6.00 Build 0)  -->
<!DOCTYPE svg PUBLIC "-//W3C//DTD SVG 1.1//EN" "http://www.w3.org/Graphics/SVG/1.1/DTD/svg11.dtd">
<svg version="1.1" id="Calque_1" xmlns="http://www.w3.org/2000/svg" xmlns:xlink="http://www.w3.org/1999/xlink" x="0px" y="0px"
	 width="52px" height="52px" viewBox="0 0 52 52" enable-background="new 0 0 52 52" xml:space="preserve">
<g id="amIQ1F.tif_1_">
	<g>
		<path fill-rule="evenodd" clip-rule="evenodd" fill="#13191C" d="M26.043,0.875C12.379,0.82,1.175,12.008,1.166,25.712
			C1.156,39.372,12.222,50.464,25.93,50.54c13.706,0.075,24.868-11.027,24.904-24.772C50.871,12.042,39.803,0.928,26.043,0.875z
			 M33.146,7.404c1.355,0.552,2.627,1.27,3.846,2.08c0.355,0.236,0.689,0.445,0.547,0.998c-0.771,2.971-1.512,5.946-2.317,9.134
			c-4.467-4.322-8.81-8.524-13.348-12.914C25.864,5.745,29.547,5.94,33.146,7.404z M9.086,16.164
			c1.934-3.546,4.909-5.952,8.49-7.683c0.295-0.143,0.528-0.233,0.818,0.047c2.531,2.45,5.075,4.887,7.778,7.485
			c-6.365,1.446-12.458,2.832-18.693,4.249C7.767,18.708,8.401,17.419,9.086,16.164z M10.897,37.875
			c-3.209-3.837-4.349-8.311-4.037-13.226c0.026-0.424,0.028-0.806,0.606-0.943c3.465-0.832,6.92-1.701,10.608-2.613
			c-2.057,6.114-4.025,11.974-6.004,17.857C11.467,38.783,11.227,38.269,10.897,37.875z M18.812,43.707
			c-1.116-0.516-2.18-1.125-3.209-1.801c-0.401-0.263-0.609-0.516-0.446-1.026c1.046-3.286,2.073-6.579,3.113-9.868
			c0.02-0.061,0.108-0.1,0.228-0.203c4.054,4.594,8.106,9.189,12.271,13.908C26.538,45.721,22.612,45.465,18.812,43.707z
			 M41.603,37.274c-1.862,2.487-4.315,4.239-7.066,5.617c-0.421,0.212-0.727,0.253-1.102-0.141c-2.252-2.364-4.53-4.704-6.987-7.245
			c6.087-1.464,11.984-2.884,18.127-4.363C43.931,33.517,42.942,35.482,41.603,37.274z M44.302,27.814
			c-2.982,0.866-5.962,1.74-9.205,2.689c1.637-6.113,3.233-12.069,4.878-18.21c4.072,4.214,5.51,9.1,5.168,14.617
			C45.104,27.506,44.771,27.677,44.302,27.814z"/>
	</g>
</g>
</svg>
