<?xml version="1.0" encoding="utf-8"?>
<!-- Generator: Adobe Illustrator 16.0.0, SVG Export Plug-In . SVG Version: 6.00 Build 0)  -->
<!DOCTYPE svg PUBLIC "-//W3C//DTD SVG 1.1//EN" "http://www.w3.org/Graphics/SVG/1.1/DTD/svg11.dtd">
<svg version="1.1" id="Calque_1" xmlns="http://www.w3.org/2000/svg" xmlns:xlink="http://www.w3.org/1999/xlink" x="0px" y="0px"
	 width="52px" height="52px" viewBox="0 0 52 52" enable-background="new 0 0 52 52" xml:space="preserve">
<g>
	<path fill-rule="evenodd" clip-rule="evenodd" fill="#13191C" d="M33.609,22.957c-1.417-4.548-6.208-6.854-10.54-5.152
		c-3.75,1.474-6.13,6.22-4.674,9.327C22.255,23.153,27.425,21.433,33.609,22.957z"/>
	<path fill-rule="evenodd" clip-rule="evenodd" fill="#13191C" d="M33.147,26.046c-4.508-1.593-9.779-0.126-12.854,3.581
		c-0.436,0.523-0.38,0.838,0.086,1.275c1.579,1.49,3.43,2.279,4.634,2.299c4.637,0.004,7.855-2.502,8.746-6.016
		C33.915,26.566,33.787,26.273,33.147,26.046z"/>
	<path fill-rule="evenodd" clip-rule="evenodd" fill="#13191C" d="M26.042,1C12.517,0.947,1.426,12.021,1.416,25.588
		C1.407,39.109,12.361,50.09,25.932,50.166c13.566,0.076,24.617-10.916,24.652-24.523C50.621,12.056,39.664,1.053,26.042,1z
		 M45.356,26.91c-4.666,3.279-9.334,6.555-14.014,9.816c-1.409,0.982-2.802,1.988-4.228,2.947c-0.279,0.188-0.53,0.49-0.938,0.354
		c-0.117,0-0.235,0-0.352,0c-0.487,0.131-0.773-0.24-1.099-0.467c-6.043-4.191-12.059-8.426-18.08-12.65
		c-0.254-0.178-0.702-0.277-0.552-0.77c-0.001-0.042-0.001-0.085,0-0.128c-0.155-0.48,0.276-0.612,0.525-0.8
		c6.085-4.583,12.181-9.152,18.279-13.716c0.269-0.201,0.524-0.502,0.935-0.353c0.111,0,0.222,0,0.333-0.001
		c0.454-0.151,0.722,0.192,1.013,0.411c6.047,4.527,12.091,9.057,18.126,13.599c0.276,0.208,0.72,0.353,0.601,0.859
		c0.002,0.043,0.003,0.086,0.002,0.129C46.059,26.633,45.61,26.732,45.356,26.91z"/>
</g>
</svg>
