<?xml version="1.0" encoding="utf-8"?>
<!-- Generator: Adobe Illustrator 16.0.4, SVG Export Plug-In . SVG Version: 6.00 Build 0)  -->
<!DOCTYPE svg PUBLIC "-//W3C//DTD SVG 1.1//EN" "http://www.w3.org/Graphics/SVG/1.1/DTD/svg11.dtd">
<svg version="1.1" xmlns="http://www.w3.org/2000/svg" xmlns:xlink="http://www.w3.org/1999/xlink" x="0px" y="0px" width="52px"
	 height="52px" viewBox="0 0 52 52" enable-background="new 0 0 52 52" xml:space="preserve">
<g id="Calque_1">
</g>
<g id="Logo" display="none">
	<path display="inline" fill-rule="evenodd" clip-rule="evenodd" fill="#261F1F" d="M28.164,28.256l-0.437-0.406l0.073-0.188
		c0.367-0.048,0.902-0.122,1.287-0.457l0.463-0.545l0.023-0.589l0.371-0.107l0.278,0.736l-0.009,0.174l-0.246,0.417l-0.149,0.201
		C29.391,27.882,28.801,28.04,28.164,28.256"/>
	<path display="inline" fill-rule="evenodd" clip-rule="evenodd" fill="#261F1F" d="M16.953,29.152
		c-0.332-0.159-0.81,0.038-1.146-0.147l0.04-0.416c1.574,0.046,3.037-0.41,4.255-1.426l0.164,0.054l0.099,0.197l-0.232,0.538
		C19.327,28.545,18.107,29.019,16.953,29.152"/>
	<polyline display="inline" fill-rule="evenodd" clip-rule="evenodd" fill="#261F1F" points="21.105,28.12 20.862,27.854 
		21.358,27.321 21.519,27.358 21.59,27.528 21.209,28.113 21.105,28.12 	"/>
	<path display="inline" fill-rule="evenodd" clip-rule="evenodd" fill="#261F1F" d="M34.627,26.006l-0.134-0.211l0.048-0.19
		c0.438-0.362,0.873-0.749,1.324-1.371l-1.292,0.271l-0.518-0.101l0.046-0.391c0.377-0.208,0.921-0.385,1.255-0.662l-0.682-0.314
		l-0.021-0.203l0.148-0.196l0.923-0.206l0.415,0.1l0.521,0.413l0.127,0.391l-0.2,0.797c-0.457,0.723-0.936,1.323-1.806,1.86
		L34.627,26.006"/>
	<path display="inline" fill-rule="evenodd" clip-rule="evenodd" fill="#261F1F" d="M27.396,26.723l-0.193-0.08l0.042-0.393
		l0.903-0.504c0.179-0.176,0.272-0.214,0.534-0.562l-0.089-0.083l-0.555,0.023l-0.129-0.397c0.354-0.221,0.93-0.606,1.442-0.495
		l0.22,0.353l0.029,0.173c0.015,0.373-0.246,0.649-0.54,0.993C28.579,26.075,28.153,26.545,27.396,26.723"/>
	<path display="inline" fill-rule="evenodd" clip-rule="evenodd" fill="#E42625" d="M10.087,28.18l-0.642-0.171L9.41,27.798
		l0.423-0.6c0.655-0.553,1.37-0.347,2.141-0.171l0.405,0.388l0.032,0.353C11.638,27.727,10.924,27.986,10.087,28.18"/>
	<path display="inline" fill-rule="evenodd" clip-rule="evenodd" fill="#E42625" d="M7.784,38.535
		c-0.322-0.154-0.729-0.422-1.025-0.632c-0.251-0.313-0.499-0.633-0.747-1.09c-0.503-1.567-0.436-3.802,0.428-5.183
		c0.655-0.949,1.743-1.962,2.714-2.895l0.896,0.101c0.531-0.011,1.303-0.107,2.111-0.257l0.322,0.154
		c0.069,0.57,0.405,1.521,0.895,1.892l0.484,0.231c1.516,0.863,3.737,0.53,5.543,0.393l0.613,0.236
		c0.173,0.341,0.072,0.552,0.075,0.961c-0.367,0.765-0.839,1.334-1.479,1.693c-1.132,1.12-2.271,2.239-4.038,2.858l-0.104-0.051
		l0.313-0.52c0.529-0.41,1.138-0.982,1.909-1.345c0.743-0.712,1.542-1.396,2.063-2.481l-0.364-0.497
		c-2.942,2.516-8.19,1.53-10.142,5.188c0.055,0.298-0.152,0.586-0.28,0.998L7.784,38.535z"/>
	<path display="inline" fill-rule="evenodd" clip-rule="evenodd" fill="#E42625" d="M11.352,36.915
		c0.846-0.928,2.312-1.62,3.656-2.048l0.685-0.331l0.372-0.084C14.815,35.517,13.09,36.088,11.352,36.915z"/>
	<path display="inline" fill-rule="evenodd" clip-rule="evenodd" fill="#261F1F" d="M31.297,24.409l-0.157-0.152l-0.016-0.178
		l0.093-0.215c0.231-0.213,0.655-0.507,1.059-0.708l0.055-0.187l-1.126,0.181l-0.176-0.314c0.211-0.177,0.724-0.327,1.09-0.635
		l-0.168-0.127c-0.583-0.149-1.282-0.048-1.891,0.239l-0.347-0.338c0.843-0.747,2.223-0.557,3.333-0.462l0.448,0.321l0.08,0.56
		l-0.094,0.414l-0.215,0.339c-0.148,0.2-0.451,0.238-0.655,0.601C32.201,23.928,31.802,24.316,31.297,24.409"/>
	<path display="inline" fill-rule="evenodd" clip-rule="evenodd" fill="#261F1F" d="M26.365,23.443l-0.187-0.101l0.096-0.425
		l0.688-0.401l0.201-0.024l0.575-0.631l-0.18-0.133c-0.853,0.192-1.802,0.782-2.776,0.757l-0.574-0.146
		c-0.275-0.297-0.083-0.576-0.063-0.963l0.502-0.457l0.513,0.164l-0.291,0.752c0.938-0.05,1.806-0.651,2.761-0.759l0.639,0.195
		l0.185,0.537l-0.178,0.615l-0.694,0.549c-0.349,0.05-0.636,0.267-1.079,0.455L26.365,23.443"/>
	<path display="inline" fill-rule="evenodd" clip-rule="evenodd" fill="#261F1F" d="M35.416,19.414l-0.173-0.147l0.044-0.239
		c0.232-0.189,0.534-0.385,0.868-0.763l0.113-0.496c0.539,0.081,0.921-0.136,1.479-0.128l0.267,0.221l-0.062,0.161
		c-0.558,0.489-1.75,0.649-2.209,1.348L35.416,19.414"/>
	<path display="inline" fill-rule="evenodd" clip-rule="evenodd" fill="#261F1F" d="M33.136,18.321l-0.143-0.158l0.037-0.235
		c0.286-0.193,0.51-0.4,0.777-0.666l0.055-0.188c-0.784,0.049-1.373,0.624-2.188,0.627l-0.12-0.134l-0.004-0.185
		c0.153-0.209,0.575-0.303,0.809-0.64l-0.085-0.087c-0.823-0.017-1.745,0.321-2.582,0.526l-0.443,0.521l-0.215-0.098l-0.03-0.168
		l0.386-0.617c1.677-0.56,3.505-1.022,5.404-0.967l0.2,0.195l0.048,0.331l-0.264,0.83c-0.235,0.211-0.545,0.4-0.871,0.762
		C33.684,18.064,33.551,18.342,33.136,18.321"/>
	<path display="inline" fill-rule="evenodd" clip-rule="evenodd" fill="#FAB816" d="M36.054,33.151l-0.269-0.129
		c-0.165-0.079-0.266-0.127-0.592-0.283c-0.064-0.436-0.47-0.694-0.479-1.097c-0.19-0.155-0.272-0.537-0.684-0.663l-0.186,0.113
		c-0.241,0.354,0.113,0.586,0.152,1.073l-0.608,0.701l-0.369,0.096c-0.457-0.153-1.049-0.438-1.542-0.811l-0.627-0.229l-1.062,0.279
		l-0.188,0.111l-0.216-0.103c-0.596-0.286-1.012-0.945-1.684-1.339c-1.042-0.894-2.539-0.687-3.919,0.113
		c-0.901,0.645-1.725,1.243-2.629,1.871c-0.171-0.341-0.229-0.913-0.424-1.33l-0.14-0.274l-0.357-0.361
		c-0.164-0.078-0.379-0.182-0.843-0.337c-1.575,0.109-3.392,0.575-5.202-0.106c-0.08-0.103-0.21-0.101-0.57-0.337
		c-0.304-0.473-0.23-1.035-0.621-1.621l0.179-0.793l0.126-0.129l0.816,0.392c0.724,0.017,1.233-0.209,1.847-0.517l0.055,0.155
		l0.215,0.242l0.13,0.136c0.464,0.15,1.165,0.218,1.674,0.128l0.695-0.47c0.038-0.369,0.194-0.696,0.245-1.072l-0.01-0.809
		l-0.498-0.633l-0.326-0.292c1.091-0.74,2.89-0.609,3.814-1.566l0.313-0.789l-0.009-0.399l0.927-0.423l0.258-0.538l-0.105-0.185
		l-0.613-0.101l-0.319,0.385l-0.697,0.332l-0.35-0.639l-0.115-0.055l-0.398,0.417l-0.015,0.187l0.271,0.531l0.375,0.18l0.043,0.623
		c-0.961,0.737-2.412,0.574-3.531,1.236l-0.844,0.663l-0.165,0.058l-0.339,0.168c-0.319,0.248-0.536,0.539-0.793,0.953l-0.209,0.559
		l-0.102,0.213l-0.742,0.451l-0.689,0.067l-0.179-0.62l0.372-0.492l-0.013-0.54l-0.183-0.016l-0.588,0.381
		c-0.129,0.135-0.156,0.595-0.337,0.971l-0.349,0.174c-0.535-0.396-1.054-0.706-1.618-0.775c-0.403,0.137-0.724-0.017-1.076-0.119
		c-0.138-1.668,0.901-2.433,1.584-3.438c0.396-0.406,1.061-0.686,1.503-1.205c1.278-0.718,2.37-1.603,3.563-2.428
		c0.427-0.326,0.929-0.953,1.378-1.471c0.555-0.458,1.271-0.853,2.091-1.322c-0.105,0.354-0.494,0.625-0.543,1.133l-0.003,0.14
		l0.249,0.186l0.349-0.041c1.296-0.771,2.477-1.681,3.604-2.798l0.146,0.407l0.37,0.177c0.753-0.169,1.092-0.738,1.786-1.079
		l0.24-0.215l0.156-0.057l0.186-0.241l0.179-0.115c0.216-0.167,0.484-0.44,0.666-0.821l0.511-0.35l0.101,0.048l0.087,0.374
		l0.188,0.16l0.379,0.045l0.347-0.169c0.739-0.839,1.615-1.424,2.51-2.056c0.671-0.278,1.607-0.833,2.516-0.925l-0.151,0.596
		l0.333,0.423c0.457-0.116,0.903-0.096,1.467-0.299l0.38,0.046c0.7,0.212,0.948,0.926,1.629,1.455
		c0.515,0.044,0.697,0.206,1.298,0.355l0.081,0.104L38.9,13.477l0.384,0.308c0.508-0.086,0.969,0.069,1.455,0.038
		c0.836,0.329,1.749,0.638,2.431,1.024c-0.776,0.229-1.934,0.01-2.837,0.504L40.284,15.6l0.407,0.26
		c0.372-0.088,0.661-0.149,1.123,0.006l-0.722,0.387l-0.313,0.38l0.188,0.296c0.569,0.067,0.966-0.34,1.582-0.381l-0.555,0.604
		l-0.505,0.36l-0.573-0.478c-0.693,0.069-1.288-0.216-1.899-0.048l-0.076,0.306c0.513,0.175,0.998,0.135,1.5,0.319l0.333,0.289
		c-0.565,0.195-1.096,0.206-1.707,0.374l-0.132,0.409c0.463,0.293,1.065-0.02,1.561,0.081l0.105,0.05
		c-0.389,0.811-1.336,0.559-2.177,1.219c-0.327-0.157-1.001-0.281-1.385-0.192l-0.208,0.164c0.39,0.454,0.705,0.338,1.009,0.408
		l0.08,0.252l-0.695,0.061l-0.184,0.108l0.029,0.214l0.139,0.137c0.161,0.208,0.376,0.18,0.782,0.305l-0.639,0.359l-0.163-0.079
		l-0.56,0.341l-0.03,0.185l0.438,0.209c1.172-0.11,2.133-0.711,3.426-0.759l-0.43,0.326l-0.88,0.446
		c0.035,0.211-0.344,0.029-0.398,0.412l0.438,0.21c0.538-0.015,0.834,0.193,1.401,0.399l0.134,0.131l-0.101,0.086l-0.164,0.058
		c-0.811-0.252-1.581,0.109-2.436,0.096l-0.103,0.482l0.485,0.232L38.1,25.004l0.163,0.214c0.236,0.186,0.614-0.037,0.991,0.009
		l-0.099,0.087c-0.56,0.329-1.1,0.335-1.712,0.638l-0.104,0.216l0.188,0.162c0.808,0.126,1.666-0.135,2.438-0.497
		c0.555-0.336,1.141-0.982,2.022-0.765l-0.642,0.23l0.146,0.534c0.65,0.048,1.105-0.201,1.712-0.371l-0.049,0.236l-0.105,0.085
		c-0.91,0.359-1.688,0.319-2.591,0.688l-0.565,0.332l-0.078,0.163l-0.563-0.071l-0.132-0.139l-0.591-0.018l-0.32,0.253l0.414,0.392
		l0.347,0.099l0.522,0.318l0.243,0.319l-0.107,0.083l-0.95-0.255l-0.394,0.277l0.028,0.215l0.518,0.309l0.652,0.312l-0.027,0.058
		c-0.579,0.383-1.188-0.169-1.938,0.003l-0.104,0.216l0.168,0.217c0.539,0.122,1.269,0.271,1.832,0.477l0.051,0.161l-0.102,0.08
		c-0.507,0.094-1.131-0.004-1.721,0.102l-0.081,0.169l0.386,0.319l0.732,0.281l0.458,0.018l-0.451,0.386l-0.724-0.015
		c-0.271-0.26-0.653-0.313-0.842-0.606l-0.096-0.777c-0.246-0.448-0.574-0.734-0.983-1.273l-0.373,0.092l-0.026,0.188v0.136
		l0.388,0.582l-0.296-0.071c-0.132,0.125-0.479,0.432-0.049,0.509l-0.184,0.111c-0.191-0.021-0.406-0.395-0.816-0.392l-0.138,0.005
		l-0.072,0.298l0.082,0.097c0.581,0.75,1.364,0.79,2.223,1.065c0.059,0.164,0.434,0.208,0.687,0.53l-0.023,0.591l-0.29,0.062
		l-0.41-0.128c-0.3-0.213-0.549-0.67-0.769-0.898l-0.338,0.162l0.005,0.409c0.291,0.204,0.357,0.633,0.727,0.81L36.054,33.151z"/>
	<path display="inline" fill-rule="evenodd" clip-rule="evenodd" fill="#FAB816" d="M44.708,19.125l-0.11-0.053
		c0.052-0.377-0.164-0.616-0.352-0.912c-0.606-0.291-1.437-0.347-2.188-0.177l0.511-0.355c0.406-0.278,0.797-0.55,1.058-1.094
		l0.371-0.087l0.347,0.102c0.3,0.079,0.654,0.313,0.921,0.578c-0.263,0.01-0.498,0.091-0.906,0.096
		c-0.185,0.383-0.039,0.512,0.071,0.825c0.647,0.311,1.639-0.205,2.171-0.086C46.151,18.478,45.646,18.83,44.708,19.125z"/>
	<path display="inline" fill-rule="evenodd" clip-rule="evenodd" fill="#FAB816" d="M41.853,19.946l-0.591-0.149l-0.592-0.153
		c0.232-0.214,0.556-0.335,0.845-0.658c0.325-0.109,0.641-0.224,1.127-0.263c-0.14,0.005-0.481,0.443-0.151,0.731
		c0.163,0.078,0.562-0.062,0.961-0.07l-0.611,0.302L41.853,19.946z"/>
	<path display="inline" fill-rule="evenodd" clip-rule="evenodd" fill="#FAB816" d="M44.413,21.709
		c-0.714-0.211-1.616-0.115-2.365,0.06c-0.019-0.542,0.414-0.593,0.297-1.051c0.705-0.063,1.207-0.423,1.82-0.461
		c-0.24,0.217-0.503,0.496-0.686,0.876l0.299,0.2c0.681-0.138,0.957-0.471,1.634-0.744l0.156,0.075
		c-0.044,0.244-0.259,0.406-0.606,0.711l-0.26,0.272L44.413,21.709z"/>
	<path display="inline" fill-rule="evenodd" clip-rule="evenodd" fill="#FAB816" d="M39.699,21.115l-0.033-0.216l-0.384-0.455
		l0.103-0.212l0.807-0.144c-0.127,0.399,0.485,0.096,0.546,0.52C40.307,20.673,40.127,21.047,39.699,21.115z"/>
	<path display="inline" fill-rule="evenodd" clip-rule="evenodd" fill="#FAB816" d="M40.474,27.671l-0.242-0.306
		c0.42-0.199,0.959-0.213,1.488-0.348l-0.396,0.263L40.474,27.671z"/>
	<path display="inline" fill-rule="evenodd" clip-rule="evenodd" fill="#FAB816" d="M43.458,24.244
		c-0.428-0.069-1.222-0.249-1.803-0.268l0.123-0.401l-0.026-0.213L41.146,22.8l0.265-0.133c0.73-0.118,1.424-0.322,2.196-0.15
		c-0.556,0.333-1.244,0.405-1.799,0.871l0.187,0.154c0.779,0.309,1.546-0.322,2.329-0.281l-0.227,0.759L43.458,24.244z"/>
	<path display="inline" fill-rule="evenodd" clip-rule="evenodd" fill="#FAB816" d="M40.84,28.985v-0.538l0.134-0.129
		c0.311-0.259,0.799-0.413,1.04-0.643l0.421-0.056c-0.101,0.21-0.34,0.439-0.491,0.756C41.674,28.653,41.218,28.767,40.84,28.985z"
		/>
	<path display="inline" fill-rule="evenodd" clip-rule="evenodd" fill="#FAB816" d="M17.407,27.341l-0.649-0.182
		c-0.35-0.369-0.093-0.906-0.013-1.341c0.266-0.001,0.336-0.433,0.736-0.306l0.464,0.151l0.315,0.882l-0.135,0.409l-0.495,0.351
		L17.407,27.341z"/>
	<path display="inline" fill="#261F1F" d="M36.054,33.151l0.057-0.119l-0.269-0.128c-0.164-0.079-0.265-0.128-0.592-0.284
		l-0.057,0.119l0.128-0.021c-0.089-0.501-0.49-0.771-0.475-1.076l-0.007-0.061l-0.043-0.046c-0.127-0.083-0.234-0.449-0.605-0.633
		l-0.122-0.053l-0.054-0.014l-0.237,0.142l-0.024,0.011l-0.018,0.026l-0.049,0.09c-0.174,0.435,0.174,0.681,0.187,1.074l0.124-0.013
		l-0.093-0.091l-0.583,0.678l-0.333,0.077l0.031,0.133l0.037-0.129l-0.604-0.25l-0.901-0.536l-0.009-0.02l-0.644-0.229l-0.038-0.019
		l-1.105,0.299l-0.021,0.004l-0.143,0.087l-0.152-0.073c-0.549-0.257-0.97-0.921-1.679-1.336l-0.06,0.111l0.082-0.097l-0.552-0.365
		c-1.041-0.499-2.337-0.221-3.517,0.469l-0.009,0.003l-0.001,0.003c-0.896,0.635-1.725,1.234-2.634,1.874l0.083,0.098l0.113-0.05
		c-0.151-0.312-0.221-0.881-0.419-1.331l-0.142-0.28l-0.01-0.016l-0.365-0.383L20.31,30.78l-0.021-0.01
		c-0.163-0.078-0.388-0.186-0.85-0.344l-0.023-0.011l-0.035,0.009c-1.593,0.11-3.38,0.563-5.149-0.093l-0.044,0.115l0.105-0.07
		l-0.232-0.166l-0.371-0.213l-0.072,0.112l0.11-0.069c-0.279-0.417-0.209-0.992-0.623-1.621l-0.109,0.069l0.13,0.023l0.17-0.747
		l0.037-0.04l0.752,0.361l0.033,0.005c0.752,0.017,1.282-0.225,1.9-0.53l-0.054-0.119l-0.128,0.042l0.066,0.183l0.233,0.256
		l0.141,0.146l0.022,0.015l0.028,0.01c0.489,0.17,1.201,0.239,1.736,0.14l0.035-0.004l0.71-0.477l0.052-0.032l0.003-0.056
		c0.037-0.362,0.194-0.689,0.244-1.089l0.001-0.014l-0.011-0.804l0-0.05l-0.525-0.665l-0.006-0.014l-0.334-0.297l-0.087,0.095
		l0.076,0.112c1.029-0.715,2.84-0.58,3.833-1.591l0.018-0.015l0.321-0.804l0.013-0.028l-0.009-0.341l0.853-0.389l0.039-0.016
		l0.313-0.653l-0.142-0.246l-0.031-0.049l-0.682-0.103l-0.082-0.016l-0.34,0.417l-0.558,0.263l-0.294-0.53l-0.02-0.033l-0.229-0.109
		l-0.462,0.481l-0.032,0.031l-0.026,0.228l-0.01,0.043l0.289,0.563l0.024,0.041l0.344,0.165l0.04,0.544l0.134-0.006l-0.083-0.111
		c-0.889,0.709-2.337,0.557-3.509,1.235l-0.013,0.004l-0.832,0.651l-0.14,0.045l-0.014,0.007l-0.352,0.179l-0.006-0.003
		l-0.008,0.007c-0.343,0.262-0.566,0.579-0.824,0.993l-0.004,0.008l-0.212,0.565l-0.088,0.184l-0.679,0.406l-0.556,0.053
		l-0.134-0.447l0.332-0.437l0.025-0.038l-0.005-0.58l-0.003-0.105l-0.296-0.049l-0.051-0.002l-0.629,0.4l-0.011,0.013l-0.016,0.018
		l-0.072,0.105l-0.277,0.896l0.115,0.055l-0.058-0.11l-0.344,0.165l0.054,0.119l0.084-0.099c-0.3-0.226-0.596-0.422-0.903-0.569
		l-0.788-0.242l-0.03,0.003l-0.029,0.001c-0.339,0.127-0.623-0.009-0.988-0.12l-0.04,0.131l0.136-0.013
		c-0.052-0.628,0.064-1.106,0.269-1.535c0.319-0.676,0.863-1.193,1.286-1.818l-0.107-0.073l0.093,0.091
		c0.361-0.387,1.038-0.665,1.513-1.211l-0.103-0.085l0.064,0.113c1.294-0.725,2.383-1.606,3.565-2.432
		c0.468-0.348,0.956-0.976,1.404-1.493l-0.092-0.087l0.075,0.101c0.546-0.451,1.262-0.838,2.085-1.306l-0.069-0.118l-0.116-0.043
		l-0.04,0.099l-0.393,0.631l-0.118,0.433l-0.008,0.151l-0.002,0.063l0.303,0.222l0.037,0.031l0.403-0.03l0.029-0.009l0.024-0.012
		c1.306-0.779,2.488-1.695,3.636-2.819l-0.101-0.096l-0.118,0.045l0.132,0.404l0.016,0.049l0.471,0.226l0.047-0.012
		c0.814-0.194,1.156-0.774,1.808-1.087l0.022-0.009l0.23-0.212l0.175-0.065l0.188-0.258l0.166-0.091l0.003-0.005l0.01-0.006
		c0.219-0.173,0.505-0.461,0.698-0.865l-0.12-0.057l0.071,0.111l0.451-0.314l0.034,0.016l0.055-0.115l-0.125,0.03l0.088,0.377
		l0.012,0.042l0.224,0.184l0.024,0.025l0.412,0.049l0.039,0.006l0.382-0.181l0.029-0.012l0.013-0.017
		c0.73-0.831,1.593-1.409,2.49-2.041l-0.077-0.108l0.059,0.124c0.681-0.289,1.602-0.826,2.47-0.919l-0.013-0.13l-0.128-0.031
		L34,10.62l-0.011,0.059l0.369,0.486l0.055,0.06l0.081-0.021c0.431-0.112,0.896-0.096,1.489-0.3l-0.052-0.125l-0.016,0.129
		l0.374,0.048l0.021-0.131l-0.04,0.129l0.176,0.066c0.503,0.231,0.768,0.858,1.417,1.365l0.029,0.014l0.038,0.006
		c0.476,0.045,0.655,0.197,1.273,0.363l0.033-0.133l-0.107,0.086l0.034,0.027l-0.377,0.664l-0.053,0.099l0.464,0.375l0.046,0.04
		l0.062-0.005c0.464-0.091,0.918,0.068,1.444,0.026l-0.012-0.125l-0.05,0.118c0.681,0.267,1.409,0.521,2.014,0.812l0.399,0.214
		l0.067-0.12l-0.042-0.121c-0.72,0.222-1.896-0.007-2.853,0.513l-0.059,0.033l-0.062,0.302l-0.016,0.085l0.475,0.31l0.048,0.036
		l0.057-0.02c0.371-0.084,0.617-0.142,1.053,0.008l0.044-0.128l-0.057-0.115l-0.723,0.387l-0.023,0.01l-0.337,0.407l-0.057,0.071
		l0.241,0.371l0.03,0.061l0.063,0.001c0.647,0.068,1.05-0.353,1.604-0.381l-0.008-0.129l-0.099-0.088l-0.538,0.592l-0.418,0.296
		l-0.497-0.416l-0.039-0.029l-0.054,0.01c-0.647,0.061-1.246-0.232-1.925-0.05l-0.069,0.026l-0.101,0.366l-0.03,0.115l0.116,0.043
		c0.545,0.181,1.025,0.149,1.503,0.321l0.042-0.122l-0.082,0.096l0.326,0.292l0.089-0.099l-0.04-0.127
		c-0.539,0.191-1.072,0.208-1.698,0.38l-0.075,0.021l-0.151,0.472l-0.026,0.093l0.083,0.051l0.086,0.054
		c0.531,0.236,1.115-0.05,1.516,0.053l0.028-0.134l-0.057,0.12l0.104,0.05l0.058-0.12l-0.12-0.058
		c-0.309,0.72-1.22,0.489-2.144,1.174l0.087,0.103l0.055-0.115c-0.36-0.173-1.033-0.297-1.46-0.208l-0.039,0.006l-0.226,0.186
		l-0.107,0.079l0.087,0.101l0.396,0.326l0.677,0.136l0.034-0.132l-0.122,0.047l0.023,0.083l-0.533,0.051l-0.026,0.01l-0.219,0.119
		l-0.07,0.039l0.047,0.311l0.007,0.044l0.17,0.164l0.093-0.097l-0.101,0.075l0.214,0.18l0.626,0.177l0.043-0.127l-0.072-0.112
		l-0.574,0.322l-0.162-0.078l-0.625,0.367l-0.054,0.039l-0.028,0.245l-0.017,0.095l0.557,0.267l0.037-0.002
		c1.21-0.108,2.159-0.711,3.415-0.758l-0.004-0.127l-0.08-0.103l-0.414,0.321L39.1,22.401l-0.082,0.05l0.011,0.087l0.019-0.001
		l-0.015-0.007l-0.004,0.008l0.019-0.001l-0.015-0.007l0.042,0.02l-0.023-0.047l-0.019,0.027l0.042,0.02l-0.023-0.047l-0.375,0.245
		l-0.044,0.16l-0.011,0.097l0.543,0.26l0.035-0.001c0.495-0.01,0.764,0.183,1.352,0.394l0.045-0.121l-0.091,0.093l0.139,0.131
		l0.086-0.093l-0.079-0.104l-0.09,0.075l-0.137,0.053l0.041,0.12l0.038-0.128c-0.869-0.265-1.651,0.109-2.479,0.099l-0.101-0.014
		l-0.119,0.592l-0.021,0.098l0.426,0.204l-0.211,0.258L37.931,25l0.229,0.298l0.006,0.016l0.019,0.009l0.077,0.049
		c0.344,0.14,0.686-0.062,0.981-0.015l0.012-0.129l-0.079-0.103l-0.104,0.08l0.084,0.11l-0.072-0.118
		c-0.52,0.32-1.054,0.322-1.695,0.641l-0.05,0.016l-0.168,0.351l0.275,0.227l0.031,0.021l0.031,0.009
		c0.854,0.126,1.725-0.143,2.51-0.508l0.005-0.01l0.004,0.002c0.594-0.359,1.131-0.957,1.935-0.749l0.026-0.129l-0.046-0.115
		l-0.638,0.224l-0.105,0.038l0.17,0.653l0.024,0.088l0.092,0.003c0.69,0.048,1.162-0.21,1.755-0.374l-0.035-0.124l-0.125-0.035
		l-0.039,0.206l-0.069,0.049l0.079,0.103l-0.043-0.121c-0.88,0.358-1.66,0.315-2.595,0.687l-0.006,0.001l-0.577,0.338l-0.034,0.02
		l-0.056,0.115l-0.426-0.059l-0.103-0.102l-0.038-0.042l-0.642-0.007l-0.045-0.003l-0.353,0.279l-0.118,0.085l0.509,0.502
		l0.024,0.024l0.364,0.098l0.485,0.31l0.154,0.192l-0.005-0.002l0.08,0.103l0.033-0.131l-0.95-0.243l-0.061-0.018l-0.443,0.307
		l-0.067,0.038l0.041,0.298l0.013,0.06l0.566,0.354l0.663,0.317l0.06-0.124l-0.119-0.057l-0.027,0.057l0.119,0.058l-0.073-0.105
		c-0.471,0.341-1.058-0.185-1.89-0.021l-0.062,0.017l-0.167,0.347l0.212,0.277l0.024,0.029l0.052,0.02
		c0.544,0.119,1.26,0.274,1.821,0.472l0.041-0.122l-0.124,0.034l0.025,0.085l-0.038,0.016l0.086,0.106l-0.023-0.123
		c-0.471,0.081-1.105-0.011-1.721,0.103l-0.062,0.01l-0.152,0.317l0.457,0.385l0.021,0.01l0.748,0.294l0.021,0.01l0.146,0.004
		l-0.16,0.136l-0.667-0.012l-0.007,0.127l0.091-0.093c-0.32-0.289-0.684-0.347-0.824-0.584l-0.108,0.07l0.13-0.019l-0.098-0.768
		v-0.023l-0.015-0.02c-0.259-0.478-0.598-0.771-0.996-1.304l-0.052-0.066l-0.455,0.113l-0.089,0.022l-0.033,0.277l-0.005,0.011
		l0.006,0.139l-0.002,0.04l0.407,0.615l0.11-0.071l0.031-0.126l-0.294-0.076l-0.073-0.02l-0.056,0.058l-0.252,0.316l-0.029,0.196
		l0.149,0.167l0.156,0.053l0.022-0.131l-0.063-0.114l-0.189,0.109l0.069,0.116l0.018-0.134l-0.033-0.008l-0.443-0.303l-0.359-0.079
		l-0.138,0.008H34.45l-0.097,0.39l-0.02,0.062l0.121,0.152c0.232,0.306,0.512,0.498,0.799,0.636
		c0.467,0.224,0.969,0.307,1.483,0.478l0.043-0.129l-0.121,0.048l0.699,0.56l0.108-0.077l-0.135-0.005l-0.017,0.486l-0.16,0.03
		l-0.37-0.112l-0.042,0.126l0.075-0.11l-0.745-0.883l-0.061-0.071l-0.433,0.213l-0.076,0.033l0.004,0.487l0.009,0.069l0.049,0.033
		c0.242,0.145,0.307,0.603,0.745,0.831l0.058-0.12l-0.04-0.126l-0.322,0.117L36.054,33.151l0.057-0.119L36.054,33.151l0.045,0.126
		l0.321-0.118l0.005-0.245c-0.303-0.131-0.357-0.533-0.711-0.804l-0.072,0.113l0.127-0.008l0.001-0.319l0.269-0.132l-0.063-0.112
		l-0.086,0.082c0.195,0.218,0.44,0.679,0.777,0.923l0.021,0.01l0.43,0.135l0.032,0.008l0.323-0.068l0.102-0.017l0.022-0.696
		l-0.003-0.048l-0.031-0.033c-0.283-0.348-0.7-0.459-0.665-0.496l-0.018-0.062l-0.061-0.01c-0.544-0.183-1.038-0.263-1.455-0.462
		l-0.704-0.562l-0.043-0.056l0.039-0.142l0.033-0.002l0.238,0.062l0.446,0.297l0.113,0.036l0.041,0.001l0.229-0.132l-0.046-0.238
		l-0.094-0.023l-0.011-0.017l-0.018,0.015l0.018,0.009v-0.023l-0.018,0.015l0.018,0.009l0.011-0.029l0.212-0.248l-0.095-0.086
		l-0.032,0.126l0.297,0.073l0.144-0.199l-0.37-0.548l0.004-0.094l0.005-0.086L36.072,29l-0.03-0.125l-0.104,0.084
		c0.421,0.539,0.736,0.827,0.974,1.26l0.114-0.07l-0.128,0.022l0.092,0.769l0.002,0.031l0.017,0.025
		c0.246,0.354,0.639,0.396,0.866,0.635l0.038,0.03l0.772,0.015h0.047l0.487-0.411l-0.079-0.231l-0.434-0.019l-0.693-0.268
		l-0.281-0.235l0.036-0.077l-0.125-0.061l0.028,0.137c0.562-0.113,1.175-0.021,1.713-0.11l0.034-0.007l0.128-0.099l0.077-0.058
		l-0.086-0.253l-0.021-0.056l-0.054-0.022c-0.584-0.203-1.312-0.356-1.853-0.48l-0.028,0.129l0.1-0.083l-0.112-0.147l0.069-0.145
		l-0.121-0.058l0.035,0.123c0.652-0.177,1.274,0.41,1.976-0.02l0.027-0.022l0.098-0.202l-0.767-0.368l-0.452-0.275l-0.011-0.075
		l0.276-0.188l0.895,0.229l0.062,0.018l0.155-0.113l0.104-0.085l-0.329-0.419l-0.01-0.016l-0.544-0.333l-0.019-0.013l-0.325-0.091
		l-0.279-0.272l0.159-0.122l0.487,0.009l0.101,0.095l0.032,0.034l0.612,0.088l0.099,0.005l0.102-0.211l0.527-0.313l-0.071-0.111
		l0.045,0.116c0.873-0.355,1.651-0.307,2.594-0.681l0.022-0.013l0.123-0.096l0.033-0.031l0.059-0.283l0.044-0.216l-0.202,0.063
		c-0.635,0.179-1.071,0.418-1.679,0.375l-0.006,0.126l0.121-0.035l-0.105-0.418l0.525-0.183l-0.014-0.254
		c-0.965-0.239-1.597,0.473-2.125,0.775l0.07,0.116l-0.061-0.124c-0.755,0.358-1.59,0.607-2.354,0.49l-0.023,0.13l0.085-0.101
		l-0.108-0.095l0.06-0.125l-0.12-0.057l0.062,0.118c0.576-0.29,1.121-0.302,1.711-0.65l0.008-0.002l0.112-0.087l-0.062-0.23
		c-0.406-0.042-0.754,0.123-0.901,0.034l-0.031-0.021l-0.079,0.103l0.102-0.08l-0.096-0.13l0.248-0.306l0.101-0.127l-0.541-0.26
		l0.078-0.382l-0.125-0.024l-0.004,0.132c0.896-0.001,1.658-0.345,2.396-0.102l0.044,0.01l0.206-0.074l0.02-0.008l0.117-0.096
		l0.125-0.095l-0.25-0.232l-0.02-0.021l-0.027-0.007c-0.546-0.203-0.863-0.425-1.448-0.412l0.006,0.134l0.058-0.121l-0.438-0.21
		l-0.058,0.121l0.135,0.018l0.022-0.084l0.109-0.079l0.244-0.141l0.02-0.14l-0.132,0.014l0.063,0.113l0.879-0.441l0.014-0.004
		l0.435-0.34l-0.086-0.224c-1.333,0.046-2.298,0.657-3.429,0.751l0.008,0.133l0.057-0.118l-0.352-0.168l0.002-0.042l0.448-0.257
		l0.162,0.078l0.697-0.392l-0.029-0.238l-0.59-0.16l-0.125-0.106l-0.003-0.009l-0.114-0.106l-0.016-0.09l0.09-0.042l0.667-0.062
		l0.171-0.021l-0.136-0.395l-0.029-0.073l-0.065-0.014l-0.631-0.119l-0.312-0.256l-0.1,0.087l0.081,0.1l0.208-0.16L37.04,19.84
		l0.036,0.123l1.294,0.183l0.071,0.034l0.063-0.045c0.769-0.63,1.744-0.352,2.216-1.264l0.058-0.119l-0.245-0.117l-0.019,0.001
		c-0.523-0.097-1.09,0.156-1.45-0.026l-0.059-0.036l-0.07,0.108l0.129,0.038l0.128-0.399l-0.125-0.047l0.033,0.126
		c0.593-0.168,1.125-0.179,1.714-0.375l0.214-0.075l-0.505-0.44l-0.015-0.015l-0.025-0.012c-0.535-0.185-1.014-0.149-1.506-0.315
		l-0.036,0.125l0.12,0.029l0.085-0.296l-0.129-0.039l0.038,0.131c0.556-0.166,1.137,0.113,1.869,0.051l-0.008-0.134l-0.086,0.108
		l0.577,0.472l0.076,0.06l0.59-0.414l0.008-0.007l0.562-0.606l-0.104-0.225c-0.672,0.054-1.069,0.454-1.559,0.378l-0.015,0.129
		l0.106-0.073l-0.136-0.211l0.238-0.288l0.701-0.379l-0.021-0.24c-0.488-0.163-0.827-0.09-1.199-0.009l0.034,0.13l0.067-0.104
		l-0.329-0.224l0.031-0.156l-0.128-0.025l0.065,0.121c0.837-0.479,1.976-0.257,2.804-0.491l0.034-0.244l-0.422-0.215
		c-0.625-0.299-1.358-0.556-2.025-0.824l-0.024-0.012l-0.031,0.003c-0.456,0.043-0.925-0.124-1.473-0.028l0.023,0.124l0.08-0.096
		l-0.296-0.242l0.368-0.645l0.041-0.075L39.34,12.56l-0.031-0.037l-0.043-0.01c-0.57-0.15-0.766-0.32-1.314-0.358l-0.011,0.124
		l0.078-0.104c-0.584-0.445-0.84-1.083-1.456-1.396l-0.215-0.08l-0.013,0.001l-0.384-0.049l-0.033-0.003l-0.029,0.009
		c-0.531,0.188-0.979,0.174-1.456,0.293l0.032,0.127l0.098-0.075l-0.288-0.387l0.134-0.526l0.049-0.183l-0.19,0.021
		c-0.944,0.101-1.888,0.663-2.544,0.938l-0.014,0.006l-0.011,0.008c-0.903,0.628-1.778,1.212-2.54,2.075l0.1,0.083l-0.056-0.116
		l-0.314,0.15l-0.296-0.036l-0.125-0.106l-0.083-0.335l-0.012-0.058l-0.231-0.111l-0.568,0.4l-0.03,0.021l-0.013,0.027
		c-0.174,0.362-0.425,0.618-0.622,0.771l0.073,0.106l-0.058-0.11l-0.192,0.104l-0.021,0.019l-0.171,0.237l-0.122,0.042l-0.025,0.004
		l-0.258,0.244l0.088,0.089l-0.059-0.111c-0.727,0.36-1.06,0.916-1.757,1.065l0.03,0.125l0.058-0.121l-0.322-0.154l-0.122-0.347
		l-0.073-0.192l-0.145,0.142c-1.126,1.105-2.295,2.004-3.58,2.774l0.064,0.113L20.3,17.55l-0.296,0.021l-0.154-0.113l0.002-0.063
		l0.097-0.339l0.392-0.632l0.049-0.13l-0.192-0.152c-0.816,0.471-1.543,0.856-2.116,1.336l-0.008,0.006l-0.005,0.011
		c-0.448,0.516-0.956,1.141-1.362,1.448c-1.191,0.832-2.269,1.705-3.539,2.418l-0.021,0.007l-0.009,0.018
		c-0.419,0.494-1.082,0.768-1.508,1.202l-0.004,0.009l-0.004,0.009c-0.41,0.596-0.963,1.134-1.309,1.854
		c-0.221,0.46-0.355,0.998-0.301,1.662l0.007,0.097l0.09,0.019l1.153,0.119l-0.044-0.118l-0.015,0.129l0.702,0.211
		c0.282,0.135,0.562,0.33,0.852,0.541l0.066,0.042l0.422-0.198l0.04-0.024l0.02-0.042c0.166-0.346,0.199-0.743,0.281-0.894
		l0.031-0.042l-0.096-0.092l0.064,0.113l0.556-0.36l0.018,0.008l0.012,0.372l-0.344,0.456l-0.042,0.054l0.196,0.675l0.035,0.109
		l0.797-0.075l0.03,0.003l0.771-0.469l0.028-0.02l0.126-0.262l0.211-0.565l-0.126-0.043l0.115,0.066
		c0.255-0.408,0.456-0.689,0.759-0.917l-0.081-0.102l0.057,0.113l0.34-0.167l0.154-0.047l0.016-0.011l0.865-0.671l-0.084-0.104
		l0.076,0.111c1.058-0.643,2.507-0.466,3.53-1.245l0.06-0.038l-0.049-0.697l-0.006-0.073l-0.398-0.191l-0.241-0.458l0.014-0.104
		l0.303-0.31l0.023,0.011l0.06-0.124l-0.117,0.06l0.354,0.643l0.059,0.098l0.808-0.378l0.028-0.011l0.285-0.348l0.479,0.075
		l0.051,0.073l-0.21,0.437l-0.89,0.405l-0.075,0.034l0.007,0.452l-0.302,0.766l0.119,0.05l-0.092-0.091
		c-0.852,0.902-2.641,0.781-3.795,1.55l-0.141,0.097l0.444,0.393l0.46,0.59l0.013,0.762l0.131-0.001l-0.135-0.018
		c-0.036,0.348-0.192,0.674-0.243,1.087l0.133,0.003l-0.072-0.092l-0.698,0.457l0.075,0.104l-0.021-0.132
		c-0.48,0.093-1.174,0.021-1.61-0.123l-0.043,0.127l0.088-0.102l-0.126-0.129l-0.199-0.214l-0.093-0.273l-0.135,0.071
		c-0.608,0.297-1.085,0.512-1.78,0.498l-0.003,0.132l0.058-0.119l-0.892-0.428l-0.209,0.197l-0.024,0.027l-0.18,0.816l-0.011,0.053
		l0.03,0.058c0.369,0.535,0.294,1.084,0.619,1.615l0.013,0.021l0.021,0.02l0.404,0.23l0.136,0.083l0.026,0.031l0.032,0.008
		c1.859,0.687,3.698,0.217,5.26,0.108l-0.011-0.127l-0.032,0.118c0.448,0.157,0.655,0.257,0.818,0.335l0.056-0.116l-0.089,0.089
		l0.336,0.355l0.136,0.259l0.417,1.322l0.069,0.141l0.125-0.091c0.905-0.631,1.735-1.233,2.633-1.871l-0.077-0.109l0.065,0.118
		c1.14-0.665,2.353-0.904,3.268-0.451l0.495,0.319l0.01,0.008l0.014,0.007c0.644,0.37,1.053,1.032,1.692,1.347l0.272,0.13
		l0.234-0.131l1.018-0.272l0.58,0.217l0.047-0.124l-0.08,0.107c0.303,0.218,0.63,0.41,0.941,0.561l0.635,0.261l0.039,0.008
		l0.411-0.093l0.04-0.009L34.1,32.25l0.038-0.039l-0.004-0.055c-0.063-0.522-0.334-0.745-0.211-0.939l0.035-0.059l-0.112-0.065
		l0.072,0.111l0.183-0.113l-0.069-0.111l-0.042,0.122l0.092,0.032l0.554,0.606l0.08-0.098l-0.131,0.005
		c0.029,0.491,0.45,0.746,0.478,1.107l0.013,0.071l0.062,0.03c0.327,0.156,0.428,0.204,0.592,0.283l0.32,0.154l0.05-0.017
		L36.054,33.151z M44.708,19.125l0.06-0.124l-0.111-0.053l-0.059,0.124l0.137,0.012c0.051-0.442-0.202-0.715-0.381-0.991
		l-0.021-0.033l-0.031-0.015c-0.641-0.307-1.485-0.364-2.265-0.189l0.021,0.128l0.077,0.109l0.509-0.359
		c0.395-0.271,0.821-0.568,1.098-1.144l-0.115-0.055l0.027,0.126l0.337-0.075l0.319,0.096l0.229,0.079l0.636,0.459l0.091-0.093
		l-0.002-0.13c-0.296,0.011-0.519,0.087-0.903,0.098l-0.081-0.003l-0.036,0.076c-0.212,0.418-0.038,0.649,0.064,0.927l0.021,0.052
		l0.044,0.021c0.735,0.336,1.753-0.203,2.199-0.071l0.029-0.135l-0.097-0.082c-0.437,0.506-0.906,0.835-1.83,1.12L44.708,19.125
		l0.06-0.124L44.708,19.125l0.039,0.113c0.955-0.28,1.497-0.658,1.954-1.189l0.144-0.166l-0.215-0.043
		c-0.625-0.125-1.594,0.379-2.146,0.093l-0.055,0.114l0.123-0.041c-0.122-0.359-0.228-0.385-0.08-0.729l-0.114-0.055l0.002,0.13
		c0.423-0.009,0.675-0.089,0.914-0.098l0.09-0.222l-0.714-0.508l-0.278-0.11l-0.339-0.093l-0.028-0.014l-0.413,0.098l-0.062,0.017
		l-0.025,0.052c-0.246,0.513-0.607,0.765-1.012,1.039l-0.511,0.363l0.109,0.229c0.721-0.163,1.534-0.096,2.097,0.174l0.058-0.121
		l-0.112,0.07l0.336,0.828l-0.01,0.091l0.236,0.113l0.051-0.023L44.708,19.125z M41.853,19.946l0.035-0.132l-0.596-0.137
		l-0.584-0.158l-0.038,0.125l0.083,0.097c0.212-0.197,0.55-0.319,0.863-0.666l-0.102-0.09l0.043,0.122
		c0.33-0.107,0.625-0.22,1.09-0.25l-0.012-0.259L42.285,18.9l0.116,0.653l0.019,0.009l0.016,0.007
		c0.272,0.107,0.632-0.062,1.023-0.058l-0.008-0.128l-0.054-0.121l-0.606,0.299l-0.966,0.257L41.853,19.946l0.035-0.132
		L41.853,19.946l0.039,0.129l0.981-0.261l0.014-0.006l0.628-0.312l-0.059-0.247c-0.417,0.019-0.868,0.134-0.908,0.084l-0.058,0.12
		l0.083-0.102l-0.056-0.341l0.093-0.125l0.037-0.028l-0.012-0.019l0.008,0.016l0.004,0.002l-0.012-0.019l0.008,0.016l-0.002-0.132
		l-0.013-0.127c-0.493,0.034-0.836,0.158-1.154,0.266l-0.032,0.007l-0.018,0.026c-0.271,0.308-0.575,0.411-0.848,0.657l-0.175,0.16
		l0.829,0.213l0.589,0.153l0.033,0.003l0.038-0.005L41.853,19.946z M44.413,21.709l0.037-0.124
		c-0.755-0.228-1.675-0.118-2.438,0.059l0.036,0.124l0.129,0.001l0.065-0.311l0.196-0.331l0.031-0.438l-0.125,0.028l0.016,0.126
		c0.74-0.064,1.252-0.427,1.812-0.454l-0.008-0.133l-0.088-0.101c-0.242,0.226-0.523,0.516-0.717,0.92l-0.047,0.097l0.39,0.267
		l0.048,0.036l0.054-0.011c0.715-0.152,1.01-0.494,1.657-0.757l-0.05-0.118l-0.059,0.121l0.157,0.075l0.058-0.121l-0.124-0.023
		l-0.032,0.097c-0.063,0.132-0.246,0.287-0.535,0.545l-0.241,0.243l-0.254,0.051L44.413,21.709l0.037-0.124L44.413,21.709
		l0.021,0.128l0.298-0.063l0.039-0.011l0.293-0.297l-0.102-0.09l0.097,0.1c0.271-0.248,0.477-0.407,0.587-0.625l0.055-0.164
		l0.022-0.095l-0.309-0.148l-0.054,0.021c-0.698,0.296-0.967,0.61-1.608,0.74l0.026,0.129l0.08-0.104l-0.302-0.209l-0.077,0.112
		l0.114,0.054c0.173-0.361,0.43-0.622,0.655-0.836l-0.092-0.227c-0.667,0.051-1.158,0.41-1.825,0.458l-0.151,0.021l0.035,0.148
		l-0.014,0.264l-0.2,0.329l-0.088,0.429v0.16l0.159-0.036c0.738-0.171,1.632-0.263,2.304-0.064l0.029,0.014l0.027-0.01
		L44.413,21.709z M39.699,21.115l0.123-0.025l-0.021-0.209l-0.007-0.039l-0.357-0.421l0.036-0.076l0.742-0.133l-0.023-0.124
		l-0.126-0.043l0.125,0.367l0.338,0.096l0.082,0.124l0.127-0.023l-0.016-0.124c-0.508,0.088-0.691,0.471-1.047,0.497L39.699,21.115
		l0.123-0.025L39.699,21.115l0.017,0.126c0.51-0.087,0.691-0.466,1.037-0.501l0.138-0.016l-0.024-0.136l-0.228-0.312l-0.338-0.096
		l-0.003,0.006l0.014-0.067l0.068-0.202l-1.017,0.185l-0.066,0.004l-0.171,0.355l0.419,0.495l0.02,0.169l0.024,0.135l0.127-0.02
		L39.699,21.115z M40.474,27.671l0.106-0.072l-0.248-0.32l-0.101,0.087l0.051,0.113c0.385-0.188,0.925-0.199,1.478-0.336
		l-0.04-0.125l-0.062-0.113l-0.395,0.267l-0.848,0.39L40.474,27.671l0.106-0.072L40.474,27.671l0.054,0.121l0.852-0.395l0.009,0.004
		l0.411-0.274l-0.104-0.239c-0.517,0.129-1.054,0.143-1.521,0.354l-0.148,0.07l0.343,0.444l0.072,0.081l0.087-0.046L40.474,27.671z
		 M43.458,24.244l0.023-0.124c-0.42-0.072-1.219-0.254-1.825-0.267l-0.001,0.123l0.12,0.045l0.126-0.412l0.011-0.03l-0.029-0.238
		l-0.01-0.039l-0.503-0.467l0.104-0.056l-0.064-0.113l0.021,0.128c0.744-0.122,1.411-0.31,2.149-0.151l0.026-0.126l-0.062-0.114
		c-0.522,0.323-1.232,0.388-1.822,0.884L41.6,23.389l0.308,0.261l0.02,0.009l0.019,0.009c0.879,0.321,1.669-0.328,2.374-0.273
		l0.004-0.134L44.2,23.225l-0.208,0.691l-0.577,0.207L43.458,24.244l0.023-0.124L43.458,24.244l0.038,0.131l0.643-0.235l0.057-0.02
		l0.257-0.821l0.047-0.155l-0.168-0.009c-0.852-0.032-1.61,0.575-2.284,0.285l-0.053,0.122l0.086-0.093l-0.192-0.164l-0.08,0.104
		l0.082,0.099c0.513-0.439,1.193-0.502,1.792-0.853l-0.044-0.244c-0.817-0.182-1.532,0.031-2.254,0.146l-0.013,0.005l-0.283,0.147
		l-0.169,0.091l0.705,0.645l0.023,0.14l-0.12,0.375l-0.051,0.165l0.168,0.005c0.574,0.021,1.362,0.192,1.794,0.263l0.029,0.014
		l0.028-0.009L43.458,24.244z M40.84,28.985l0.139,0.001l-0.009-0.487l0.097-0.096l-0.093-0.085l0.076,0.096
		c0.294-0.23,0.772-0.393,1.05-0.636l-0.086-0.103l0.018,0.135l0.421-0.065l-0.018-0.125l-0.115-0.056
		c-0.083,0.174-0.327,0.41-0.495,0.754l0.119,0.058l-0.101-0.09c-0.214,0.235-0.667,0.358-1.062,0.593L40.84,28.985l0.139,0.001
		L40.84,28.985l0.07,0.116c0.361-0.211,0.82-0.32,1.125-0.635l0.013-0.018l0.009-0.02l0.499-0.752l0.106-0.222l-0.709,0.098
		l-0.03,0.027c-0.201,0.193-0.689,0.366-1.035,0.631l-0.01,0.007l-0.136,0.148l-0.034,0.035l0.008,0.588v0.225l0.194-0.113
		L40.84,28.985z M17.407,27.341l0.031-0.128l-0.647-0.177l-0.034,0.123l0.096-0.091c-0.284-0.272-0.072-0.759,0.016-1.226
		l-0.125-0.024l0.002,0.13l0.404-0.236l0.295-0.078l0.402,0.135l0.271,0.779l-0.099,0.326l-0.439,0.313l-0.186,0.018L17.407,27.341
		l0.031-0.128L17.407,27.341l0.021,0.129l0.213-0.026l0.035-0.009l0.526-0.372l0.042-0.029l0.142-0.444l0.009-0.042l-0.324-0.924
		l-0.023-0.065l-0.525-0.173l-0.552,0.13l-0.236,0.171l-0.104,0.007l-0.025,0.106c-0.05,0.395-0.364,0.991,0.06,1.452l0.022,0.021
		l0.683,0.191l0.027,0.003l0.029,0.003L17.407,27.341z"/>
</g>
<g id="Calque_3">
	<g>
		<path fill="#13191C" d="M19,33.555l-0.1-0.129c0.045-0.081,0.009-0.164,0.102-0.267l-0.025-0.012
			c-0.057,0.15-0.168,0.385-0.133,0.557l0.014,0.073l0.04,0.013l0.063-0.01C18.982,33.763,19,33.743,19,33.719V33.555z"/>
		<polygon fill="#13191C" points="38.658,17.104 38.669,17.096 38.658,17.1 		"/>
		<path fill="#13191C" d="M38.12,16.723C38.047,16.835,38,16.926,38,17.041v0.035c0-0.131,0.082-0.283,0.205-0.444
			C38.176,16.661,38.149,16.693,38.12,16.723z"/>
		<path fill="#13191C" d="M38.634,17.131c-0.263,0.239-0.48,0.759-0.767,0.946l-0.013,0.106c0.304-0.281,0.562-0.503,0.789-0.832
			c-0.004-0.049-0.012-0.097-0.012-0.158L38.634,17.131L38.634,17.131z"/>
		<polygon fill="#13191C" points="38.658,17.109 38.658,17.104 38.648,17.114 		"/>
		<path fill="#13191C" d="M21.167,37.625l0.153-0.045c0.443-0.06,0.745-0.502,1.165-0.435l0.117-0.021l0.023-0.024
			c0.198-0.162,0.382-0.336,0.547-0.5c-0.057-0.059-0.082-0.035-0.127-0.105c-0.082-0.115-0.163-0.304-0.163-0.42
			c0.012-0.082,0.012-0.104,0.022-0.15l-0.022-0.013c-0.117-0.035-0.223,0.022-0.28-0.035c-0.083-0.059-0.141-0.093-0.187-0.151
			l-0.163-0.023l-0.069-0.035c-0.071,0.046-0.059,0.104-0.059,0.176l-0.095,0.129c-0.067,0.059-0.127,0.093-0.184,0.127
			c0,0.07-0.038,0.093-0.073,0.14c-0.301,0.142-0.769,0.118-0.874,0.466c-0.08,0.198-0.094,0.396-0.128,0.562
			c0.048,0.079,0.094,0.139,0.128,0.174C20.994,37.462,21.097,37.592,21.167,37.625z"/>
		<path fill="#13191C" d="M38.72,17.081c0.041-0.011,0.073-0.029,0.096-0.052c-0.051,0.015-0.101,0.031-0.146,0.067
			C38.683,17.084,38.702,17.084,38.72,17.081z"/>
		<path fill="#13191C" d="M19,36.564l-0.05-0.006c-0.002,0.041-0.013,0.086-0.023,0.133L19,36.669V36.564z"/>
		<path fill="#13191C" d="M13.555,25.635l0.024,0.024c0.023,0.221,0.08,0.467,0.175,0.745c0.013,0.082,0.034,0.143,0.034,0.197
			l0.024,0.024c0.886,3.36,2.543,6.381,4.932,8.83c0.116,0.024,0.243,0.024,0.314,0.094c0.361,0.13,0.698,0.304,1.083,0.384
			c0.21-0.128,0.432-0.325,0.641-0.384l0.023-0.01c0.014-0.073,0.035-0.143,0.023-0.199l-0.094-0.025l-0.05-0.058
			c0.152-0.372,0.174-0.792,0.139-1.143l0.042-0.069l-0.058-0.06c-0.025-0.642,0.244-1.179,0.49-1.726l-0.126,0.035L21,32.284
			v-0.083c0-0.278,0.242-0.639,0.266-0.931l0.079-0.079c-0.035-0.061-0.035-0.162-0.106-0.162c-0.373,0.128-0.502,0.589-0.653,0.833
			c0,0.095-0.081,0.116-0.07,0.185c-0.057,0.049-0.104,0.08-0.174,0.091c-0.071,0.141-0.093,0.323-0.187,0.417
			c0,0.092-0.047,0.224-0.059,0.291c-0.092,0.189-0.198,0.542-0.419,0.74L19.571,34c-0.082,0-0.082,0-0.141,0l-0.035-0.355
			l-0.023-0.392c-0.094,0.009-0.114,0.104-0.162,0.127c-0.104,0.14-0.139,0.246-0.196,0.374l-0.033,0.023l-0.02,0.003
			c-0.041,0.035-0.096,0.063-0.072,0.101l-0.122,0.105c-0.058,0.07-0.139,0.06-0.211,0.094c-0.161-0.023-0.338,0-0.431-0.105
			c-0.326-0.209-0.502-0.617-0.534-0.967c0.01-0.28,0.067-0.571,0.151-0.769c0.044-0.07,0.057-0.141,0.104-0.198l-0.06-0.042
			c-0.01-0.069-0.01-0.122-0.022-0.17c0.035-0.058,0.058-0.067,0.058-0.137c-0.115-0.118-0.127-0.267-0.15-0.406
			c0-0.07,0.047-0.065,0.013-0.113c0.034-0.184,0.093-0.231,0.138-0.349c0.069-0.103,0.107-0.19,0.166-0.273
			C17.999,30.524,18,30.5,18,30.472v-0.004l0.026-0.004c0.163-0.23,0.498-0.476,0.637-0.721C18.708,29.655,19,29.503,19,29.375
			v-0.002l-0.207-0.002c0.061-0.132,0.051-0.261,0.153-0.411l-0.005,0.01l-0.024,0.027l-0.024,0.101
			c0.017-0.033,0.019-0.062,0.036-0.098h0.05c0.08,0,0.08-0.066,0.08-0.01c0.058-0.068,0.104-0.345,0.128-0.415
			c0.037-0.117,0.07-0.188,0.116-0.28c-0.641-0.876-1.305-1.715-1.982-2.625c-1.376-1.762-2.763-3.57-4.139-5.354
			c-0.127,0.688-0.07,1.342-0.059,1.995C13.182,23.386,13.333,24.517,13.555,25.635z"/>
		<path fill="#13191C" d="M25.956,0.716C12.182,0.663,0.887,11.94,0.878,25.755c-0.01,13.768,11.145,24.949,24.963,25.026
			c13.816,0.078,25.069-11.115,25.105-24.971C50.983,11.973,39.826,0.77,25.956,0.716z M39.98,13.865
			C39.945,13.939,40,14.01,40,14.084l0,0c0,0,0,0.001,0,0.002c0,0.025-0.148,0.053-0.145,0.078c-0.116,0.15-0.204,0.306-0.308,0.447
			l-0.042,0.06l-0.018,0.004c-0.268,0.431-0.52,0.875-0.836,1.273l-0.009,0.006l-0.006,0.003l-0.041,0.019
			c-0.01,0.032-0.033,0.054-0.049,0.081c-0.018,0.03-0.031,0.065-0.055,0.093c-0.01,0.01-0.019,0.021-0.028,0.031
			c-0.033,0.037-0.065,0.072-0.103,0.114l-0.005,0.081c-0.045,0.02-0.062,0.057-0.08,0.097c0.327-0.35,0.635-0.734,0.994-1.071
			l0.006-0.005l0.008-0.002l0.1-0.013l0.005,0.002l0.07,0.014l-0.245,0.016L39,15.535v0.007C39,15.811,39.372,16,39.277,16H39v0.286
			L39.194,16h-0.002C39.183,16,39,16.515,39,16.562v0.007l0.067,0.005l-0.039,0.117L39,16.821v0.004
			c0,0.062-0.053,0.118-0.092,0.175h0.031l0.049,0.562C38.974,17.63,38.948,17,38.925,18h0.025l0.009-0.221l0.055-0.06l-0.004-0.044
			c-0.17,0.795-0.95,1.383-1.526,1.969c0.097-0.062,0.199-0.133,0.286-0.206l0.004-0.012l0.009-0.006l0.126-0.012l0.008,0.004
			l0.066,0.052l0.003,0.007l0.024,0.09l-0.004,0.01c-0.19,0.381-0.589,0.707-0.951,0.987l-0.008,0.007
			c0.093,0.004,0.189,0.005,0.282,0.046l0.01,0.003l0.003,0.011l-0.176,0.033L37,20.704v0.002l0.216,0.067l0.089,0.012
			c-0.236,0.48-0.733,0.697-1.163,0.979c0.1-0.015,0.226-0.045,0.327-0.046l0.165,0.039l0.081,0.05l0.006,0.009l0.04,0.113
			l0.137,0.008L37,22.035v0.006c-1,0.328-0.873,0.589-1.256,0.776C35.797,22.842,35.773,23,35.818,23h0.062L36,22.862v0.012
			c0,0.094-0.162,0.165-0.181,0.229l-0.052,0.007l-0.031,0.004c-0.216,0.159-0.484,0.297-0.698,0.452
			c0.054,0.05,0.006,0.094,0.044,0.142L35,23.715v0.01c0,0.073,0,0.155,0,0.216v0.008l0.064,0.005l-0.021,0.057l0.015,0.002
			c-0.139,0.168-0.333,0.263-0.499,0.389l0.034,0.017l0.004,0.006l0.065,0.102l-0.002,0.009l-0.021,0.134l-0.005,0.006
			c-0.127,0.183-0.425,0.267-0.589,0.363C34.085,25.085,34,25.117,34,25.195V25.2l0.022,0.006L34,25.301v0.002
			c0,0.263-0.362,0.35-0.619,0.44l0.072,0.014l0.026,0.013c-0.012,0.079,0.006,0.188-0.062,0.26
			c-0.216,0.202-0.476,0.284-0.714,0.386L32.7,26.426l0.023,0.01l0.135,0.019L33,26.586v0.005l-0.189,0.173l-0.076,0.004
			c-0.191,0.111-0.478,0.163-0.66,0.245L32,27.037v0.009l0.092,0.152l0.004,0.029l-0.033,0.071l0.007,0.002
			c-0.176,0.164-0.472,0.173-0.655,0.269l0.096,0.084l0.004,0.008l0.025,0.126l-0.249,0.01L31,27.879V28h0.484
			c-0.153,0-0.34,0-0.54,0H31v0.225c0,0.133-0.171,0.416-0.362,0.465C30.49,28.744,30.328,29,30.198,29h-0.003
			c-0.104,0-0.208-0.197-0.313-0.197l-0.013-0.092C29.914,28.771,30,28.745,30,28.834v0.008c0,0.168,0,0.246-1,0.271v0.002
			l0.155-0.035c-0.09,0,0.05-0.08-0.037-0.08h-0.009c0.053,0,0.109,0.104,0.166,0.133c-0.016,0.008-0.026,0.043-0.04,0.053
			c-0.038,0.024-0.075,0.06-0.104,0.094c-0.011-0.006-0.023-0.006-0.034-0.012l-0.069-0.008c-0.038,0.059-0.095,0.13-0.189,0.154
			c-0.093,0.009-0.116,0.009-0.212,0c0.107,0.245,0.28,0.688,0.399,0.969l-0.015,0.115l-0.063,0.129
			c0.082,0.13,0.17,0.258,0.191,0.442l-0.026,0.083l-0.09,0.082L29,31.339v0.081l0.084,0.082c0,0.047,0.049,0.129,0.026,0.21
			c0.347,0.384,0.731,0.759,1.013,1.213c0,0.047-0.024,0.14-0.035,0.211c0.173,0.255,0.43,0.49,0.545,0.804l0.061,0.117l0.013,0.163
			c0,0.07-0.024,0.152-0.048,0.233l-0.092,0.14c0.313,0.573,0.744,1.318,0.629,1.937c-0.059,0.116-0.211,0.174-0.328,0.174
			c-0.059-0.01-0.139-0.104-0.209-0.127l-0.082,0.047c0.048,0.278,0.13,0.571-0.046,0.839c-0.046,0.059-0.093,0.105-0.176,0.153
			l-0.128-0.023c-0.433-0.234-0.618-0.771-0.874-1.203c-0.013-0.104,0.057-0.187,0.069-0.302l-0.013-0.035
			c-0.046-0.013-0.08-0.013-0.172-0.06l-0.046,0.082c0.057,0.314,0.115,0.629,0.138,0.945c0.023,0.455,0.118,0.92-0.15,1.341
			c-0.081,0.141-0.188,0.188-0.35,0.223c-0.211-0.013-0.433-0.152-0.539-0.374c-0.044,0.104-0.115,0.208-0.163,0.326
			c0.689,0.538,1.437,1.027,2.17,1.541c0.712,0.5,1.365,0.956,2.041,1.387l0.022,0.036l0.118,0.069l0.033,0.011
			c0.083,0.036,0.07,0.104,0.115,0.164c0.025,0.093,0.05,0.233,0.073,0.361c0,0.047-0.024,0.083-0.049,0.164l-0.129,0.14
			l-0.048,0.035c-0.06,0.021-0.154,0.046-0.285,0.08c-0.16-0.026-0.317-0.032-0.479-0.045c-0.023,0.001-0.044,0.004-0.069,0.004
			c-0.026,0-0.06-0.014-0.086-0.016l-0.04,0.011c-0.381-0.03-0.773-0.079-1.165-0.13c-0.017-0.001-0.029-0.003-0.047-0.006
			c-0.16-0.021-0.318-0.042-0.479-0.066l0.007,0.015l-0.046-0.085C29.527,42.17,29.225,42,28.92,42h-0.011l-0.006,0.068
			l-0.026,0.004c-0.355-0.068-0.704-0.067-1.054-0.149L27.814,42h-0.018l-0.082-0.085c-0.376-0.09-0.742-0.214-1.104-0.319
			L26.6,41.592l-0.016-0.013c-0.111-0.047-0.229-0.084-0.345-0.12c-0.185-0.058-0.378-0.109-0.557-0.17
			c0.373,0.679,0.864,1.295,1.354,1.948c0.08,0.023,0.024,0.01,0.12,0.058L27,43.423v0.14l0.181,0.186l0.131,0.117L27.229,44h-0.08
			c-0.069,0-0.142-0.207-0.176-0.264c-0.021-0.07-0.021-0.231-0.021-0.279l0.033-0.08c-0.549-0.746-1.097-1.541-1.681-2.275
			c-0.081-0.013-0.16-0.069-0.267-0.094c-0.303-0.139-0.56-0.291-0.816-0.349L24.2,40.693c0.279,0.466,0.477,1.039,0.488,1.575
			l0.012,0.047c0,0.046,0.012,0.058-0.012,0.128l0.023,0.034c-0.058,0.328-0.069,0.664-0.185,1.004
			c-0.023,0.163-0.153,0.338-0.247,0.49l-0.034,0.021c-0.105,0.177-0.269,0.352-0.479,0.479l-0.069,0.013
			c-0.561,0.163-1.154-0.059-1.621-0.235l-0.114-0.069c-0.479-0.279-1.051-0.606-1.365-1.153c-0.037-0.362,0.082-0.889,0.185-1.295
			l-0.011-0.036c-0.22,0.013-0.42-0.128-0.571-0.304c-0.046-0.058-0.046-0.128-0.082-0.22l-0.022-0.023l-0.023-0.152
			c-0.01-0.56,0.536-0.783,0.943-1.039c0.258-0.104,0.479-0.315,0.77-0.383c0.083-0.013,0.128-0.025,0.176-0.037l0.033-0.034
			l-0.084-0.058c-0.106,0.011-0.24,0.069-0.379,0.011c-0.141-0.082-0.23-0.222-0.289-0.384C21.208,39.025,21,38.932,21,38.897v0.034
			c0,0.049,0.09,0.092,0.064,0.162l-0.07,0.057c-0.047,0.035-0.095-0.001-0.188-0.001c-0.208-0.105-0.267-0.404-0.337-0.626
			c-0.011-0.046,0-0.091-0.011-0.186C20.328,38.257,20.154,38,20.016,38h-0.059l-0.022,0.035l-0.061,0.116
			c-0.117,0.138-0.326,0.279-0.502,0.266l-0.175-0.057c-0.093-0.081-0.185-0.139-0.244-0.269c-0.024-0.069-0.024-0.116-0.06-0.198
			c0.026-0.047,0.026-0.07,0.035-0.14l0.084-0.069l0.067,0.128l0.106,0.07l0.046-0.012l0.014-0.035
			c-0.058-0.118-0.128-0.279-0.091-0.421l-0.103-0.07c-0.069,0.013-0.159,0.095-0.23,0.095l-0.14,0.013
			c-0.071-0.025-0.133-0.095-0.203-0.187c-0.034-0.061,0.032-0.096,0.019-0.166c-0.012-0.079,0.11-0.228,0.114-0.33
			c-0.024-0.023-0.049-0.048-0.064-0.097c-0.018-0.045,0.012-0.102,0.036-0.16l-0.39-0.041c-0.104,0.116-0.139,0.257-0.163,0.43
			c0.024,0.06,0.095,0.06,0.105,0.142l-0.046,0.103l-0.079,0.037l-0.103,0.022c-0.093-0.022-0.207-0.069-0.253-0.186
			c-0.072-0.222-0.064-0.42,0.018-0.664l-0.019-0.06c0.013-0.059,0.058-0.094,0.066-0.162l0.123-0.092
			c0.019-0.055,0.088-0.109,0.102-0.169L18,35.87v-0.004c0-0.006-0.042-0.005-0.038-0.01c-0.053-0.039-0.129-0.077-0.179-0.116
			l0.156,0.097L18,35.697v-0.046c0-0.004-0.183-0.007-0.178-0.011c-0.046-0.039-0.182-0.078-0.225-0.118
			c-0.014,0.013-0.077,0.022-0.091,0.035l-0.035,0.012l-0.024-0.004l-0.054-0.016l-0.006-0.01c-0.042-0.108-0.17-0.201-0.256-0.312
			l-0.014-0.017l0.015-0.016l0.022-0.022c-0.294-0.333-0.526-0.682-0.758-1.039c-0.009,0.008-0.018,0.015-0.027,0.023
			c-0.21-0.292-0.396-0.584-0.618-0.876c0.013-0.021,0.04-0.036,0.055-0.057c-0.046-0.07-0.089-0.142-0.134-0.212
			c-0.016,0.018-0.037,0.026-0.053,0.046l-0.021,0.026l-0.02-0.026c-0.269-0.328-0.417-0.668-0.616-1.03L15,32.024v-0.065
			l-0.032-0.006c0.018-0.017,0.022-0.028,0.041-0.045c-0.268-0.467-0.535-0.941-0.767-1.429c-0.002,0.001-0.01,0.002-0.012,0.004
			c-0.106-0.163-0.178-0.35-0.237-0.547L14,29.925c-0.044-0.101-0.085-0.202-0.128-0.304c-0.003,0.002-0.006,0.003-0.009,0.005
			l-0.023,0.015l-0.013-0.025l-0.089-0.191l0.01-0.009c0.007-0.011,0.02-0.014,0.027-0.023c-0.036-0.088-0.076-0.175-0.111-0.264
			l-0.024-0.033c-0.009-0.021-0.011-0.041-0.016-0.062c-0.196-0.516-0.401-1.045-0.548-1.581L13,27.425v-0.009
			c0-0.093,0-0.229,0-0.349v-0.019c0-0.013-0.01-0.023-0.013-0.036l0.01-0.037l-0.06-0.14c-0.054-0.247-0.093-0.485-0.139-0.729
			L12.781,26.1l-0.004-0.012l-0.047-0.176l-0.002-0.002c-0.047-0.396-0.128-0.805-0.174-1.227l-0.002-0.011l0.008-0.008l0.003-0.004
			c-0.154-1.176-0.221-2.321-0.163-3.447c0.011-0.466,0.069-0.874,0.104-1.295l0.093-0.14l0.07-0.047
			c0.07-0.023,0.128-0.015,0.21-0.015c2.192,2.671,4.314,5.584,6.471,8.325l0.07,0.028c0.011-0.096,0.011-0.167,0.069-0.238
			l0.095,0.019c0,0.08,0.011,0.148,0.022,0.148h0.012c0.208,0,0.197,0,0.362-1h0.069l0.071,0.293c0.07-0.082,0.083-0.002,0.13-0.13
			c0.081-0.094,0.108-0.174,0.19-0.257c0.117-0.209,0.346-0.349,0.569-0.489l0.062,0.023l0.044,0.128l0.159-0.06
			C21.462,26.451,22,26.547,22,26.568v-0.082c0-0.045-0.071-0.083-0.146-0.125c-0.028,0.019-0.061,0.038-0.085,0.056l-0.014,0.009
			l-0.016-0.009l-0.107-0.08l0.004-0.019l0.027-0.104l0.011-0.005l0,0l-0.051-0.073l0.082-0.129
			c-0.071-0.033-0.176-0.033-0.269-0.104l-0.07-0.141l0.058-0.094c0.423-0.245,0.887-0.222,1.342-0.304l0.021-0.023
			c-0.498-0.058-1.06-0.067-1.607-0.244c-0.128-0.047-0.291-0.162-0.339-0.361l0.024-0.045l0.059-0.084
			c-0.104-0.104-0.257-0.126-0.339-0.267l-0.012-0.047l0.012-0.13c0.047-0.058,0.07-0.104,0.141-0.15l-0.035-0.023
			c-0.08-0.036-0.187-0.083-0.28-0.188c-0.023-0.081-0.032-0.197,0.036-0.291l0.062-0.058l-0.031-0.023
			c-0.06,0-0.053-0.024-0.135-0.046c-0.104-0.037-0.252-0.153-0.357-0.271L20,22.977v-0.129c0-0.069-0.453-0.069-0.572-0.164
			L19,22.638v-0.105c0-0.047,0.385-0.116,0.464-0.14l0.342-0.047c-0.094,0-0.108-0.046-0.188-0.046
			c-0.082-0.036-0.13-0.083-0.212-0.151c-0.022-0.036-0.095-0.083-0.095-0.153l0.046-0.104l0.088-0.093
			c-0.268-0.14-0.686-0.257-0.8-0.617l0.028-0.165l-0.162-0.045c-0.054-0.018,0.004-0.046,0.041-0.083
			c-0.046-0.018-0.296-0.023-0.341-0.044L18,20.837v-0.015l0.175-0.013l0.041-0.078l0.044-0.028c-0.08-0.02-0.131-0.04-0.26-0.062
			v-0.127l0.149-0.116l0.058-0.023c-0.071-0.034-0.151-0.059-0.256-0.14c-0.035-0.048-0.07-0.106-0.07-0.176l0.024-0.128
			c-0.282-0.21-0.7-0.305-0.831-0.688l0.011-0.059c0.047-0.081,0.187-0.104,0.278-0.163l0.009-0.071
			c-0.383-0.195-0.786-0.407-1.208-0.721c-0.059-0.07-0.117-0.142-0.175-0.244l-0.05-0.024c-0.012-0.071-0.031-0.142-0.008-0.233
			L16,17.61v-0.187l-0.003-0.094l-0.016,0.024l-0.084-0.024c-0.313-0.326-0.757-0.547-0.92-0.979l0.024-0.105
			c0.036-0.068,0.093-0.081,0.139-0.104c0.222-0.046,0.479,0.023,0.712,0.082l0.023-0.012c-0.547-0.584-1.257-1.097-1.559-1.854
			l0.049-0.176l0.134-0.093l-0.023-0.116c-0.034-0.059,0.024-0.095-0.01-0.163c-0.036-0.059-0.045-0.023-0.113-0.105
			c-0.234-0.386-0.393-0.77-0.521-1.248L14,12.339v-0.083l-0.122-0.116l-0.136-0.033c0.082-0.025,0.221,0.01,0.327,0.058
			l0.022-0.024c-0.069-0.196-0.175-0.396-0.209-0.618l0.068-0.104c-0.464-0.326-0.56-1.061-0.701-1.633
			c-0.034-0.258-0.021-0.455-0.021-0.723c-0.012-0.292,0.034-0.747,0.197-1.039l0.093-0.058c0.092,0.082,0.222,0.187,0.233,0.326
			c0.012,0.164,0.043,0.362,0.076,0.514c0.258,1.188,0.999,2.146,1.733,3.056c0.547,0.514,0.923,1.143,1.39,1.727L17,13.633V13.61
			c0-0.293-0.156-0.607-0.248-0.888c-0.174-0.594-0.329-1.131-0.305-1.632c0.011-0.07,0.093-0.095,0.115-0.211l0.071-0.034
			l0.048-0.094c-0.038-0.057-0.048-0.105-0.083-0.177c0.024-0.664,0.292-1.296,0.559-1.89c0.059-0.058,0.104-0.093,0.153-0.175
			l0.127-0.038l0.07,0.031l0.013,0.037c-0.363,2.543,0.627,5.885,2.855,7.809l0.011-0.116c-0.104-0.316-0.279-0.737-0.092-1.054
			L20.341,15h0.094c0.628,1,0.875,1.894,1.596,2.571c0.047,0.07,0.095,0.214,0.166,0.261c0.057,0.094,0.148,0.153,0.231,0.256
			l0.034,0.013c0.643,0.57,1.412,1.155,2.018,1.808l0.008-0.003c0.048,0.078,0.112,0.13,0.187,0.164
			c0.008,0.003,0.016,0.006,0.024,0.01c-0.007,0.027-0.007,0.059-0.015,0.085c0.257,0.462,0.599,0.903,0.784,1.463
			C25.725,22.295,26,22.948,26,23.557v0.008v0.023c0,0.103,0.062,0.236,0.062,0.365l-0.045,0.068L26,24.054v0.005
			c0,0.284,0.095,0.564,0.095,0.851c0,0.127,0.016,0.256,0.013,0.389l0.022,0.121l0.003,0.006l-0.019,0.056
			c-0.009,0.168-0.027,0.332-0.037,0.501C26.173,26.019,26.279,26,26.396,26h0.125c0.433,0,0.84-0.527,1.213-0.934
			c0.188-0.244,0.377-0.466,0.549-0.7c0.139-0.219,0.271-0.442,0.371-0.676h0.001c0.649-1.817,0.419-3.88,1.723-5.312l-0.013-0.035
			l0.007-0.01c0.114-0.17,0.15-0.307,0.24-0.527l0.013-0.085l0.005-0.007l0.074-0.112l0.009-0.003l0.136-0.04l0.011,0.019
			c0.033,0.067,0.069,0.13,0.094,0.212l0.026,0.064l-0.003,0.008l-0.004,0.069l0.004,0.152l0.02,0.057l0.018,0.004
			c0.706-0.94,1.379-2.09,2.299-2.986l0.034-0.058l0.003-0.004c0.65-0.604,1.257-1.257,1.899-1.899
			c0.307-0.272,0.584-0.587,0.758-0.899l-0.001-0.001c0.003-0.003,0.007-0.006,0.01-0.009c0.021,0.003,0.039-0.002,0.058-0.011
			c0.016-0.006,0.032-0.007,0.044-0.023c0.079-0.104,0.089-0.112,0.108-0.179c0.009,0.002,0.019,0.004,0.028,0.006
			c0.07-0.093,0.161-0.186,0.244-0.268c0.153-0.142,0.279-0.351,0.418-0.513C37.254,10.752,37,10.181,38,9.597V9.551
			c0-0.351,0.271-0.723,0.441-1.119c0.014-0.047-0.043-0.071-0.031-0.141c0.025-0.06,0.071-0.128,0.119-0.223l0.092-0.046
			l0.104,0.117c0.033,0.583-0.104,1.132-0.244,1.737c-0.116,0.374-0.187,0.725-0.267,1.051l-0.094,0.139l-0.082,0.059l-0.023,0.082
			c0.01,0.047-0.012,0.081,0.01,0.164c-0.115,0.383-0.336,0.745-0.515,1.107l0.016,0.035c0.001,0.001,0.002,0.001,0.004,0.002
			c-0.058,0.087-0.118,0.171-0.194,0.242c-0.012,0.012-0.011,0.025-0.015,0.038c-0.067,0.073-0.125,0.162-0.178,0.232l-0.011,0.012
			c-0.07,0.141-0.163,0.244-0.211,0.362c-0.116,0.152-0.21,0.292-0.279,0.444c-0.256,0.22-0.398,0.512-0.595,0.71
			c-0.046,0.105-0.151,0.198-0.199,0.292c-0.116,0.093-0.196,0.245-0.279,0.314l-0.013,0.024c0.07-0.036,0.096-0.083,0.176-0.105
			c0.827-0.607,1.622-1.248,2.215-2.1l0.013-0.047c-0.009-0.004-0.016-0.007-0.023-0.011c0.028-0.035,0.058-0.068,0.087-0.108
			c0.004-0.006,0.001-0.011,0.004-0.017c0.009-0.013,0.017-0.022,0.026-0.038c0.015,0.007,0.026,0.016,0.043,0.021
			c0.804-0.969,1.025-2.206,1.294-3.395l0.14-0.059c0.223,0.07,0.315,0.419,0.338,0.653c0.105,1.131-0.304,2.32-0.769,3.37
			c0.004,0.005,0.01,0.006,0.014,0.01c-0.005,0.015-0.01,0.03-0.014,0.045l-0.029,0.058c-0.037,0.073,0.021,0.135,0.081,0.145
			c0.041,0.02,0.089,0.236,0.122,0.187C39.277,13.792,39.276,14,39.28,14c0.001,0,0.003,0,0.005,0c0.103,0,0.106-0.28,0.176-0.375
			c0.005-0.007,0.001-0.12,0.004-0.128c0.141-0.197,0.236-0.465,0.451-0.591l0.033-0.04l0.083,0.081
			c0.021,0.291-0.033,0.61-0.139,0.903C39.9,13.859,39.971,13.858,39.98,13.865z"/>
		<path fill="#13191C" d="M38.957,17.619l-0.027-0.028h-0.021c-0.21,0.576-0.691,1.176-1.142,1.676
			C38.276,18.773,38.82,18.248,38.957,17.619z"/>
		<path fill="#13191C" d="M39.422,15.448l-0.002-0.006l-0.037-0.009L39.3,15.444c-0.244,0.229-0.463,0.485-0.683,0.738
			C38.877,15.933,39.174,15.679,39.422,15.448z"/>
		<path fill="#13191C" d="M27.669,38.757c-0.174-0.022-0.257-0.068-0.396-0.174l-0.03-0.071c-0.068,0.059-0.102,0.082-0.162,0.128
			c-0.162,0.082-0.263,0.082-0.368,0.025l0.089-0.047L27,38.489v-0.034l-0.353-0.358C26.509,38.203,26.019,38,25.877,38h-0.058
			l-0.073,0.189c-0.035-0.08-0.067,0.113-0.104,0.066l-0.033-0.013c-0.326,0.081-0.441,0.422-0.617,0.595
			c-0.176,0.28-0.477,0.537-0.617,0.805l-0.082,0.036C26.566,40.88,30,41.674,32,41.768v-0.012l0.094-0.06
			c-1.039-0.793-1.925-1.482-3.057-2.285c-0.35-0.222-0.696-0.479-1.03-0.711C27.889,38.734,27.752,38.781,27.669,38.757z"/>
		<path fill="#13191C" d="M25.039,38.594l0.022,0.035l0.013-0.094c0.046-0.08,0.117-0.175,0.15-0.246
			c-0.104-0.046-0.186-0.15-0.219-0.231l-0.119,0.013c-0.082,0.035-0.187,0.046-0.256,0.068c-0.127-0.022-0.198-0.033-0.257-0.081
			l-0.117-0.164c-0.046-0.092,0-0.186-0.034-0.269c-0.092,0.013-0.245,0.013-0.325-0.045l-0.036-0.013l-0.069-0.128
			c-0.222,0.081-0.291,0.327-0.454,0.466c-0.012,0.094-0.059,0.14-0.059,0.233c0.371,0.455,0.687,0.935,1.059,1.387
			C24.584,39.224,24.816,38.92,25.039,38.594z"/>
	</g>
</g>
</svg>
