<?xml version="1.0" encoding="utf-8"?>
<!-- Generator: Adobe Illustrator 16.0.4, SVG Export Plug-In . SVG Version: 6.00 Build 0)  -->
<!DOCTYPE svg PUBLIC "-//W3C//DTD SVG 1.1//EN" "http://www.w3.org/Graphics/SVG/1.1/DTD/svg11.dtd">
<svg version="1.1" id="Calque_1" xmlns="http://www.w3.org/2000/svg" xmlns:xlink="http://www.w3.org/1999/xlink" x="0px" y="0px"
	 width="52px" height="52px" viewBox="0 0 52 52" enable-background="new 0 0 52 52" xml:space="preserve">
<path fill="#13191C" d="M26.126,0.417c-14.061,0-25.458,11.398-25.458,25.458c0,14.062,11.398,25.458,25.458,25.458
	s25.458-11.396,25.458-25.458C51.584,11.814,40.187,0.417,26.126,0.417z M38.1,28.549c-1.135,0.529-12.103,7.11-16.187,9.229
	c-4.085,2.118-4.312-0.604-4.312-2.42s0-16.34,0-18.912c0-4.236,2.572-3.404,3.783-2.572c1.21,0.833,13.465,7.943,16.717,9.684
	C41.353,25.296,39.235,28.019,38.1,28.549z"/>
</svg>
