<?xml version="1.0" encoding="utf-8"?>
<!-- Generator: Adobe Illustrator 16.0.4, SVG Export Plug-In . SVG Version: 6.00 Build 0)  -->
<!DOCTYPE svg PUBLIC "-//W3C//DTD SVG 1.1//EN" "http://www.w3.org/Graphics/SVG/1.1/DTD/svg11.dtd">
<svg version="1.1" id="Calque_1" xmlns="http://www.w3.org/2000/svg" xmlns:xlink="http://www.w3.org/1999/xlink" x="0px" y="0px"
	 width="52px" height="52px" viewBox="0 0 52 52" enable-background="new 0 0 52 52" xml:space="preserve">
<path fill="#0C1015" d="M26,2.047c-13.229,0-23.953,10.724-23.953,23.952c0,13.229,10.724,23.953,23.953,23.953
	c13.229,0,23.952-10.724,23.952-23.953C49.952,12.771,39.229,2.047,26,2.047z M40.45,26.562c0,2.482-2.013,4.496-4.496,4.496h-4.988
	v4.988c0,2.482-2.013,4.496-4.496,4.496h-1.125c-2.483,0-4.496-2.013-4.496-4.496v-4.988h-4.988c-2.483,0-4.496-2.013-4.496-4.496
	v-1.125c0-2.483,2.013-4.496,4.496-4.496h4.988v-4.988c0-2.483,2.013-4.496,4.496-4.496h1.125c2.483,0,4.496,2.013,4.496,4.496
	v4.988h4.988c2.483,0,4.496,2.013,4.496,4.496V26.562z"/>
</svg>
