<?xml version="1.0" encoding="iso-8859-1"?>
<!-- Generator: Adobe Illustrator 16.0.0, SVG Export Plug-In . SVG Version: 6.00 Build 0)  -->
<!DOCTYPE svg PUBLIC "-//W3C//DTD SVG 1.1//EN" "http://www.w3.org/Graphics/SVG/1.1/DTD/svg11.dtd">
<svg version="1.1" id="Calque_1" xmlns="http://www.w3.org/2000/svg" xmlns:xlink="http://www.w3.org/1999/xlink" x="0px" y="0px"
	 width="52px" height="52px" viewBox="0 0 52 52" style="enable-background:new 0 0 52 52;" xml:space="preserve">
<path style="fill:#F8B90F;" d="M26,1.88c-13.321,0-24.12,10.799-24.12,24.119c0,13.321,10.798,24.12,24.12,24.12
	c13.321,0,24.119-10.799,24.119-24.12C50.119,12.679,39.321,1.88,26,1.88z M31.246,37.031c-2.473,0-4.946,0-7.418,0
	c-2.594,0-5.188-0.02-7.781,0.011c-0.992,0.012-1.745-0.374-2.349-1.114c-1.146-1.408-1.128-3.889,0.026-5.294
	c0.614-0.746,1.384-1.078,2.368-1.072c5.066,0.022,10.133,0.009,15.199,0.01c2.325,0,3.735,1.456,3.682,3.792
	C34.918,35.702,33.569,37.031,31.246,37.031z M36.535,24.594c-3.289,0.011-6.579,0.003-9.868,0.003c-3.32,0-6.64,0.016-9.96-0.007
	c-1.8-0.012-3.177-1.029-3.696-2.646c-0.48-1.496,0.051-3.143,1.327-4.112c0.727-0.554,1.566-0.758,2.458-0.759
	c6.609-0.005,13.219-0.019,19.829,0.005c2.33,0.008,4.009,1.661,3.976,3.797C40.566,23.018,38.866,24.585,36.535,24.594z"/>
</svg>
