<?xml version="1.0" encoding="utf-8"?>
<!-- Generator: Adobe Illustrator 16.0.4, SVG Export Plug-In . SVG Version: 6.00 Build 0)  -->
<!DOCTYPE svg PUBLIC "-//W3C//DTD SVG 1.1//EN" "http://www.w3.org/Graphics/SVG/1.1/DTD/svg11.dtd">
<svg version="1.1" xmlns="http://www.w3.org/2000/svg" xmlns:xlink="http://www.w3.org/1999/xlink" x="0px" y="0px" width="52px"
	 height="52px" viewBox="0 0 52 52" enable-background="new 0 0 52 52" xml:space="preserve">
<g id="Calque_1">
</g>
<g id="Calque_2">
	<g>
		<path fill="#F8B90F" d="M17.969,19.958c0.675-0.163,1.094-0.835,0.94-1.507c-0.157-0.679-0.863-1.111-1.544-0.946
			c-0.677,0.166-1.083,0.83-0.926,1.513C16.6,19.723,17.263,20.13,17.969,19.958z"/>
		<path fill="#F8B90F" d="M13.951,20.385c-0.17-0.685-0.871-1.1-1.557-0.92c-0.676,0.177-1.073,0.845-0.904,1.524
			c0.166,0.674,0.84,1.095,1.509,0.941C13.677,21.774,14.117,21.059,13.951,20.385z"/>
		<path fill="#F8B90F" d="M30.134,17.224c0.694-0.158,1.116-0.841,0.949-1.534c-0.162-0.663-0.852-1.091-1.516-0.941
			c-0.686,0.156-1.107,0.849-0.938,1.543C28.793,16.977,29.446,17.381,30.134,17.224z"/>
		<path fill="#F8B90F" d="M35.42,16.56c0.691-0.161,1.095-0.805,0.944-1.494c-0.158-0.704-0.827-1.131-1.521-0.969
			c-0.666,0.154-1.099,0.837-0.953,1.505C34.042,16.298,34.719,16.723,35.42,16.56z"/>
		<path fill="#F8B90F" d="M28.717,20.167c0.172,0.735,0.609,1.285,1.218,1.695c1.286,0.867,2.703,0.975,3.868,0.745
			c1.211-0.275,2.015-0.665,2.689-1.292c0.623-0.581,1.019-1.278,1.068-2.15c0.017-0.307-0.079-0.383-0.387-0.342
			c-2.757,0.356-5.509,0.704-8.264,1.038C28.657,19.891,28.671,19.987,28.717,20.167z"/>
		<path fill="#F8B90F" d="M26.043,0.947C12.26,0.895,0.956,12.18,0.947,26.005C0.937,39.784,12.1,50.975,25.929,51.052
			c13.827,0.077,25.089-11.124,25.125-24.99C51.091,12.213,39.925,1.001,26.043,0.947z M29.799,10.932
			c0.399-0.167,0.819-0.269,1.173-0.393c3.894-0.899,7.751,1.181,9.13,4.878c1.52,4.075-0.622,8.626-4.701,10.058
			c-0.501,0.176-0.756,0.103-1.122-0.271c-2.167-2.189-4.804-3.253-7.898-3.153c-0.227,0.007-0.352-0.059-0.468-0.274
			C23.75,17.761,25.563,12.69,29.799,10.932z M16.842,29.422c-0.079,0.383-0.282,0.443-0.612,0.445
			c-3.875,0.047-7.218-2.76-7.83-6.587c-0.678-4.231,2.243-8.246,6.485-8.91c4.393-0.687,8.461,2.388,8.971,6.782
			c0.002,0.026,0.007,0.053,0.008,0.081c0.01,0.389,0.137,0.828-0.004,1.154c-0.146,0.352-0.671,0.305-1.016,0.462
			c-0.601,0.275-1.19,0.565-1.747,0.92c-0.089,0.056-0.162,0.148-0.327,0.118c0.133-0.469,0.263-0.941,0.196-1.435
			c-0.017-0.12-0.036-0.238-0.054-0.358c-0.031-0.225-0.129-0.293-0.357-0.202c-1.262,0.509-2.527,1.01-3.792,1.509
			c-1.291,0.509-2.582,1.016-3.875,1.517c-0.428,0.164-0.44,0.176-0.184,0.574c0.609,0.942,1.545,1.311,2.598,1.426
			c0.885,0.095,1.747-0.056,2.573-0.393c0.118-0.047,0.233-0.125,0.416-0.073c-0.395,0.596-0.768,1.188-1.031,1.833
			C17.109,28.662,16.925,29.031,16.842,29.422z M28.821,41.426c-4.902,1.156-9.824-1.914-10.98-6.848
			c-1.156-4.926,1.872-9.806,6.82-10.995c4.883-1.171,9.852,1.908,11.011,6.817C36.833,35.322,33.767,40.262,28.821,41.426z
			 M43.694,28.053c0.014,0.174-0.053,0.213-0.213,0.209c-0.608-0.008-1.215,0.01-1.821-0.008c-0.221-0.002-0.306,0.041-0.299,0.287
			c0.022,0.639-0.005,1.277,0.018,1.918c0.007,0.238-0.07,0.285-0.279,0.266c-0.213-0.018-0.431-0.012-0.65,0
			c-0.136,0.008-0.165-0.045-0.16-0.172c0.008-0.355,0.002-0.711,0.002-1.062c0-0.346-0.009-0.693,0.003-1.035
			c0.006-0.16-0.047-0.201-0.201-0.199c-0.621,0.008-1.247-0.004-1.874,0.01c-0.211,0.006-0.271-0.066-0.255-0.271
			c0.02-0.191,0.018-0.387,0.002-0.58c-0.011-0.174,0.057-0.213,0.219-0.209c0.613,0.008,1.229-0.006,1.845,0.008
			c0.203,0.004,0.271-0.043,0.268-0.259c-0.015-0.657,0-1.315-0.013-1.973c0-0.177,0.05-0.234,0.228-0.222
			c0.205,0.015,0.415,0.019,0.623,0c0.209-0.022,0.244,0.069,0.24,0.255c-0.012,0.657,0.004,1.315-0.01,1.973
			c-0.004,0.179,0.048,0.228,0.226,0.226c0.616-0.012,1.231,0.006,1.849-0.01c0.214-0.006,0.272,0.066,0.255,0.27
			C43.678,27.666,43.681,27.859,43.694,28.053z"/>
		<path fill="#F8B90F" d="M31.785,33.084c-3.198,0.715-6.399,1.422-9.603,2.113c-0.291,0.062-0.262,0.17-0.194,0.379
			c0.284,0.85,0.859,1.453,1.621,1.875c1.608,0.885,3.285,0.859,4.633,0.463c1.392-0.453,2.293-0.998,3.019-1.814
			c0.668-0.752,1.058-1.617,1.021-2.652C32.266,33.084,32.143,33.002,31.785,33.084z"/>
		<path fill="#F8B90F" d="M23.37,31.783c0.807-0.162,1.329-0.955,1.156-1.756c-0.178-0.822-0.945-1.324-1.756-1.15
			c-0.834,0.18-1.352,0.979-1.159,1.793C21.795,31.451,22.574,31.943,23.37,31.783z"/>
		<path fill="#F8B90F" d="M29.524,30.434c0.81-0.193,1.291-0.977,1.099-1.789c-0.195-0.816-0.966-1.291-1.784-1.098
			c-0.812,0.189-1.299,0.979-1.107,1.783C27.922,30.135,28.719,30.625,29.524,30.434z"/>
	</g>
</g>
</svg>
