<?xml version="1.0" encoding="iso-8859-1"?>
<!-- Generator: Adobe Illustrator 16.0.0, SVG Export Plug-In . SVG Version: 6.00 Build 0)  -->
<!DOCTYPE svg PUBLIC "-//W3C//DTD SVG 1.1//EN" "http://www.w3.org/Graphics/SVG/1.1/DTD/svg11.dtd">
<svg version="1.1" id="Calque_1" xmlns="http://www.w3.org/2000/svg" xmlns:xlink="http://www.w3.org/1999/xlink" x="0px" y="0px"
	 width="52px" height="52px" viewBox="0 0 52 52" style="enable-background:new 0 0 52 52;" xml:space="preserve">
<path style="fill-rule:evenodd;clip-rule:evenodd;fill:#F8B90F;" d="M26,2C12.745,2,2,12.745,2,26C2,39.256,12.745,50.001,26,50.001
	c13.254,0,24-10.745,24-24.001C50,12.745,39.255,2,26,2z M37.561,13.065c-1.531,2.51-3.072,5.016-4.62,7.516
	c-0.442,0.714-0.995,0.882-1.805,0.568c-1.119-0.434-2.227-0.893-3.344-1.331c-0.897-0.351-1.339-0.16-1.702,0.744
	c-1.147,2.854-2.29,5.711-3.428,8.57c-0.375,0.939-0.186,1.362,0.771,1.751c1.16,0.471,2.327,0.923,3.485,1.399
	c0.898,0.37,1.154,0.815,1.011,1.768c-0.391,2.596-0.79,5.191-1.193,7.787c-0.151,0.969-0.581,1.302-1.558,1.176
	c-1.919-0.245-3.804-0.63-5.51-1.61c-0.862-0.494-1.525-1.167-1.807-2.068c-4.028-9.961-0.405-21.437,8.539-27.271
	c1.075-0.701,2.203-1.286,3.369-1.805c1.505-0.672,3.013-0.354,4.506,0.051c0.957,0.259,1.875,0.639,2.766,1.078
	C37.9,11.81,38.051,12.262,37.561,13.065z"/>
</svg>
