<?xml version="1.0" encoding="iso-8859-1"?>
<!-- Generator: Adobe Illustrator 16.0.0, SVG Export Plug-In . SVG Version: 6.00 Build 0)  -->
<!DOCTYPE svg PUBLIC "-//W3C//DTD SVG 1.1//EN" "http://www.w3.org/Graphics/SVG/1.1/DTD/svg11.dtd">
<svg version="1.1" id="Calque_1" xmlns="http://www.w3.org/2000/svg" xmlns:xlink="http://www.w3.org/1999/xlink" x="0px" y="0px"
	 width="52px" height="52px" viewBox="0 0 52 52" style="enable-background:new 0 0 52 52;" xml:space="preserve">
<g>
	<path style="fill:#F8B90F;" d="M31.25,3.417H7.256c-2.295,0-5.1,2.388-5.1,5.151v12.501c0,2.762,2.805,5.227,5.1,5.227h12.982
		c0,0,5.795,4.677,6.288,5.116c0.493,0.439,0.74-0.01,0.74-0.01l-0.615-5.106h4.599c2.295,0,4.081-2.465,4.081-5.227V8.568
		C35.332,5.806,33.545,3.417,31.25,3.417z M10.152,17.839c-1.421,0-2.572-1.152-2.572-2.573c0-1.421,1.151-2.573,2.572-2.573
		s2.573,1.152,2.573,2.573C12.726,16.687,11.573,17.839,10.152,17.839z M19.459,17.839c-1.421,0-2.574-1.152-2.574-2.573
		c0-1.421,1.153-2.573,2.574-2.573s2.571,1.152,2.571,2.573C22.03,16.687,20.88,17.839,19.459,17.839z M28.27,17.839
		c-1.42,0-2.573-1.152-2.573-2.573c0-1.421,1.153-2.573,2.573-2.573c1.421,0,2.574,1.152,2.574,2.573
		C30.843,16.687,29.691,17.839,28.27,17.839z"/>
	<path style="fill:#F8B90F;" d="M31.671,43.464c2.548,0,11.625,0,12.966,0c1.341,0,5.276-1.743,5.276-6.259s0-12.385,0-13.771
		c0-1.386-1.521-4.874-4.74-4.874c-3.219,0-7.377,0-7.377,0s0.626,5.187-1.789,7.601c-2.414,2.415-3.756,2.325-6.751,2.325
		c0.269,2.548,0.313,2.28,0.358,2.906c0.044,0.626-1.342,3.89-4.382,1.923c-2.751-2.056-5.775-4.874-5.775-4.874h-4.553
		c0,0,0,5.678,0,7.87c0,2.191,1.475,7.153,4.829,7.153s3.487-0.045,4.069,0c-0.268,1.966-0.492,2.728-0.582,3.397
		c-0.089,0.67,0.715,2.459,2.236,1.387C26.976,47.174,31.671,43.464,31.671,43.464z"/>
</g>
</svg>
