<?xml version="1.0" encoding="utf-8"?>
<!-- Generator: Adobe Illustrator 16.0.0, SVG Export Plug-In . SVG Version: 6.00 Build 0)  -->
<!DOCTYPE svg PUBLIC "-//W3C//DTD SVG 1.1//EN" "http://www.w3.org/Graphics/SVG/1.1/DTD/svg11.dtd">
<svg version="1.1" id="Calque_1" xmlns="http://www.w3.org/2000/svg" xmlns:xlink="http://www.w3.org/1999/xlink" x="0px" y="0px"
	 width="52px" height="52px" viewBox="0 0 52 52" enable-background="new 0 0 52 52" xml:space="preserve">
<path fill="#F7B813" d="M26.009,1.813C12.696,1.762,1.776,12.663,1.767,26.018C1.758,39.326,12.541,50.137,25.898,50.211
	c13.356,0.073,24.233-10.746,24.269-24.139C50.203,12.695,39.418,1.866,26.009,1.813z M20.455,9.767
	c1.418-0.635,3.074,0.006,3.703,1.436c0.621,1.409-0.021,3.068-1.422,3.677c-1.421,0.618-3.048-0.014-3.677-1.426
	C18.433,12.043,19.057,10.392,20.455,9.767z M40.701,20.84c-0.069,0.107-0.16,0.201-0.218,0.272
	c-0.396,0.374-0.864,0.568-1.297,0.812c-1.646,0.935-3.307,1.842-4.95,2.782c-0.749,0.428-1.277,1.029-1.958,1.552
	c-0.475,0.362-1.526,0.987-2.224,1.617v0.001l-0.151,0.037c-1.26,0.844-2.598,1.688-2.967,1.929
	c0.111,0.566,0.196,1.136,0.301,1.701c0.12,0.641,0.225,1.28,0.348,1.918c0.043,0.223,0.018,0.418-0.064,0.634
	c-1.015,2.667-2.02,5.341-3.034,8.006c-0.401,1.054-1.442,1.51-2.474,1.11c-0.951-0.369-1.399-1.44-1.015-2.46
	c0.864-2.297,1.732-4.597,2.609-6.894c0.108-0.284,0.139-0.55,0.076-0.854c-0.065-0.318-0.121-0.642-0.182-0.961l-0.024,0.015
	l-1.01-4.965l0.003-0.002c-0.591-2.41-1.174-4.821-1.746-7.236c-0.329,0.377-0.654,0.757-0.989,1.127
	c-0.147,0.161-0.208,0.347-0.275,0.54c-0.604,1.713-1.201,3.428-1.806,5.139c-0.3,0.854-1.061,1.245-1.849,0.96
	c-0.737-0.265-1.084-1.056-0.804-1.869c0.674-1.946,1.369-3.886,2.037-5.833c0.123-0.35,0.401-0.563,0.622-0.819
	c0.717-0.829,1.44-1.653,2.167-2.478c0.848-0.279,1.791-0.644,2.638-0.928c0.24-0.081,0.475-0.081,0.716-0.061
	c1.57,0.131,3.143,0.217,4.707,0.406c0.975,0.118,1.871-0.059,2.78-0.357c1.072-0.352,2.159-0.661,3.246-0.966
	c0.824-0.231,1.552,0.177,1.781,0.962c0.21,0.715-0.211,1.479-0.978,1.72c-0.991,0.313-1.989,0.603-2.985,0.899
	c-0.665,0.197-1.332,0.379-1.992,0.591c-0.203,0.067-0.397,0.081-0.603,0.063c-0.88-0.074-1.761-0.143-2.64-0.226
	c-0.213-0.021-0.274,0.025-0.222,0.243c0.452,1.861,0.898,3.721,1.343,5.582l0.569-0.28c1.043-0.63,2.186-1.345,2.552-1.656
	c1.006-0.857,2.164-1.46,3.3-2.098c1.373-0.772,2.742-1.545,4.116-2.312c0.825-0.462,1.744-0.33,2.359,0.324
	C41.101,19.149,41.177,20.095,40.701,20.84z"/>
</svg>
