<?xml version="1.0" encoding="iso-8859-1"?>
<!-- Generator: Adobe Illustrator 16.0.0, SVG Export Plug-In . SVG Version: 6.00 Build 0)  -->
<!DOCTYPE svg PUBLIC "-//W3C//DTD SVG 1.1//EN" "http://www.w3.org/Graphics/SVG/1.1/DTD/svg11.dtd">
<svg version="1.1" id="Calque_1" xmlns="http://www.w3.org/2000/svg" xmlns:xlink="http://www.w3.org/1999/xlink" x="0px" y="0px"
	 width="41px" height="46.25px" viewBox="0 0 41 46.25" style="enable-background:new 0 0 41 46.25;" xml:space="preserve">
<g>
	<path style="fill:#13191C;" d="M24.812,5.383H5.565c-1.841,0-4.091,1.916-4.091,4.132v10.028c0,2.216,2.25,4.193,4.091,4.193
		h10.414c0,0,4.649,3.752,5.045,4.104c0.396,0.352,0.593-0.009,0.593-0.009l-0.493-4.096h3.688c1.842,0,3.275-1.977,3.275-4.193
		V9.516C28.088,7.299,26.654,5.383,24.812,5.383z M7.889,16.952c-1.14,0-2.064-0.924-2.064-2.064c0-1.14,0.924-2.064,2.064-2.064
		c1.139,0,2.063,0.924,2.063,2.064C9.952,16.028,9.028,16.952,7.889,16.952z M15.354,16.952c-1.14,0-2.065-0.924-2.065-2.064
		c0-1.14,0.925-2.064,2.065-2.064c1.14,0,2.062,0.924,2.062,2.064C17.417,16.028,16.494,16.952,15.354,16.952z M22.423,16.952
		c-1.14,0-2.064-0.924-2.064-2.064c0-1.14,0.925-2.064,2.064-2.064s2.064,0.924,2.064,2.064
		C24.487,16.028,23.562,16.952,22.423,16.952z"/>
	<path style="fill:#13191C;" d="M25.151,37.509c2.044,0,9.324,0,10.401,0c1.076,0,4.231-1.399,4.231-5.021s0-9.935,0-11.047
		c0-1.111-1.219-3.909-3.801-3.909c-2.583,0-5.918,0-5.918,0s0.502,4.16-1.436,6.098c-1.938,1.936-3.014,1.865-5.416,1.865
		c0.215,2.045,0.251,1.829,0.286,2.331c0.037,0.502-1.075,3.12-3.515,1.542c-2.207-1.649-4.632-3.909-4.632-3.909H11.7
		c0,0,0,4.556,0,6.313c0,1.757,1.184,5.738,3.874,5.738s2.798-0.036,3.264,0c-0.215,1.579-0.395,2.188-0.466,2.727
		c-0.072,0.537,0.573,1.973,1.793,1.111C21.384,40.486,25.151,37.509,25.151,37.509z"/>
</g>
</svg>
