<?xml version="1.0" encoding="iso-8859-1"?>
<!-- Generator: Adobe Illustrator 16.0.0, SVG Export Plug-In . SVG Version: 6.00 Build 0)  -->
<!DOCTYPE svg PUBLIC "-//W3C//DTD SVG 1.1//EN" "http://www.w3.org/Graphics/SVG/1.1/DTD/svg11.dtd">
<svg version="1.1" id="Calque_1" xmlns="http://www.w3.org/2000/svg" xmlns:xlink="http://www.w3.org/1999/xlink" x="0px" y="0px"
	 width="41px" height="46.25px" viewBox="0 0 41 46.25" style="enable-background:new 0 0 41 46.25;" xml:space="preserve">
<g>
	<g id="_x38_Fw8kf_4_">
		<g>
			<path style="fill-rule:evenodd;clip-rule:evenodd;fill:#13191C;" d="M18.303,33.411c0.048,0.233,0.105,0.46,0.137,0.689
				c0.133,0.963-0.336,1.747-1.264,2.004c-1.522,0.422-3.051,0.821-4.587,1.192c-1.153,0.278-1.96-0.222-2.303-1.372
				c-0.146-0.49-0.272-0.987-0.418-1.521c-0.367,0.037-4.3,0.668-4.636,0.749c-0.539,0.133-0.761-0.119-0.953-0.579
				c-0.587-1.401-1.762-3.915-2.402-5.293c-0.18-0.387-0.11-0.57,0.207-0.825c5.562-4.464,9.785-7.791,15.34-12.264
				c0.273-0.221,0.561-0.38,0.402-0.851c-0.052-0.154,0.211-0.554,0.4-0.612c0.223-0.069,0.608,0.03,0.772,0.201
				c0.503,0.527,0.972,1.097,1.389,1.696c2.666,3.819,4.523,7.999,5.497,12.558c0.207,0.965,0.32,1.95,0.469,2.926
				c0.059,0.394,0.028,0.774-0.402,0.951c-0.394,0.159-0.676,0-0.896-0.354c-0.061-0.096-0.264-0.163-0.39-0.147
				c-3.886,0.472-2.3,0.291-6.185,0.775C18.426,33.342,18.375,33.379,18.303,33.411z M11.553,34.176
				c0.086,1.088,0.587,1.605,1.385,1.432c0.981-0.212,1.954-0.47,2.919-0.745c0.62-0.178,0.858-0.617,0.75-1.309
				C14.933,33.761,13.257,33.966,11.553,34.176z"/>
		</g>
	</g>
	<path style="fill-rule:evenodd;clip-rule:evenodd;fill:#13191C;" d="M24.556,15.742c1.793,0.308,4.528,1.452,5.907,4.407
		c1.526,3.273,0.379,6.131-0.654,7.687c-0.399,1.428,1.437,1.797,1.825,0.625c0.485-0.87,2.439-4.473,0.525-9.07
		c-1.806-4.339-6.617-5.437-7.313-5.575C23.861,13.459,22.538,15.396,24.556,15.742z"/>
	<path style="fill-rule:evenodd;clip-rule:evenodd;fill:#13191C;" d="M28.796,11.312c1.795,0.307,6.231,1.822,8.006,6.003
		c2.019,4.763,0.17,8.759-0.862,10.316c-0.399,1.427,1.438,1.796,1.825,0.624c0.484-0.87,3.256-6.042,0.733-11.698
		c-2.643-5.924-8.714-7.034-9.41-7.173C28.102,9.028,26.778,10.964,28.796,11.312z"/>
</g>
</svg>
