<?xml version="1.0" encoding="iso-8859-1"?>
<!-- Generator: Adobe Illustrator 16.0.0, SVG Export Plug-In . SVG Version: 6.00 Build 0)  -->
<!DOCTYPE svg PUBLIC "-//W3C//DTD SVG 1.1//EN" "http://www.w3.org/Graphics/SVG/1.1/DTD/svg11.dtd">
<svg version="1.1" id="Calque_1" xmlns="http://www.w3.org/2000/svg" xmlns:xlink="http://www.w3.org/1999/xlink" x="0px" y="0px"
	 width="52px" height="52px" viewBox="0 0 52 52" style="enable-background:new 0 0 52 52;" xml:space="preserve">
<g>
	<g id="_x38_Fw8kf_1_">
		<g>
			<path style="fill-rule:evenodd;clip-rule:evenodd;fill:#F8B90F;" d="M22.699,38.981c0.061,0.293,0.133,0.577,0.172,0.866
				c0.166,1.208-0.423,2.193-1.587,2.517c-1.911,0.529-3.832,1.031-5.76,1.497c-1.449,0.35-2.461-0.279-2.892-1.723
				c-0.184-0.616-0.342-1.24-0.524-1.91c-0.461,0.047-5.399,0.838-5.822,0.941c-0.677,0.167-0.955-0.15-1.197-0.728
				c-0.736-1.76-2.212-4.916-3.016-6.646c-0.226-0.485-0.138-0.716,0.259-1.036c6.984-5.605,12.286-9.784,19.262-15.4
				c0.344-0.277,0.705-0.477,0.506-1.068c-0.065-0.193,0.264-0.696,0.503-0.769c0.278-0.087,0.763,0.038,0.969,0.251
				c0.633,0.662,1.22,1.377,1.745,2.129c3.348,4.796,5.68,10.044,6.903,15.769c0.259,1.212,0.402,2.449,0.588,3.674
				c0.074,0.493,0.035,0.972-0.505,1.193c-0.494,0.201-0.848,0.001-1.125-0.443c-0.076-0.12-0.332-0.205-0.49-0.186
				c-4.879,0.593-2.887,0.366-7.765,0.974C22.854,38.895,22.79,38.941,22.699,38.981z M14.224,39.941
				c0.108,1.366,0.737,2.017,1.739,1.798c1.232-0.267,2.453-0.59,3.665-0.936c0.778-0.224,1.078-0.776,0.941-1.643
				C18.468,39.42,16.364,39.678,14.224,39.941z"/>
		</g>
	</g>
	<path style="fill-rule:evenodd;clip-rule:evenodd;fill:#F8B90F;" d="M30.551,16.795c2.252,0.386,5.687,1.823,7.418,5.534
		c1.917,4.111,0.475,7.699-0.822,9.652c-0.501,1.792,1.804,2.256,2.292,0.785c0.609-1.093,3.063-5.616,0.66-11.389
		c-2.267-5.449-8.31-6.827-9.183-7.001C29.679,13.929,28.018,16.36,30.551,16.795z"/>
	<path style="fill-rule:evenodd;clip-rule:evenodd;fill:#F8B90F;" d="M35.875,11.232c2.254,0.385,7.825,2.288,10.052,7.539
		c2.536,5.98,0.214,10.999-1.082,12.953c-0.501,1.792,1.805,2.255,2.292,0.783c0.608-1.092,4.088-7.587,0.921-14.688
		C44.74,10.38,37.116,8.986,36.242,8.812C35.004,8.365,33.342,10.796,35.875,11.232z"/>
</g>
</svg>
