<?xml version="1.0" encoding="iso-8859-1"?>
<!-- Generator: Adobe Illustrator 16.0.0, SVG Export Plug-In . SVG Version: 6.00 Build 0)  -->
<!DOCTYPE svg PUBLIC "-//W3C//DTD SVG 1.1//EN" "http://www.w3.org/Graphics/SVG/1.1/DTD/svg11.dtd">
<svg version="1.1" id="Calque_1" xmlns="http://www.w3.org/2000/svg" xmlns:xlink="http://www.w3.org/1999/xlink" x="0px" y="0px"
	 width="52px" height="52px" viewBox="0 0 52 52" style="enable-background:new 0 0 52 52;" xml:space="preserve">
<path style="fill:#F8B90F;" d="M26,1.841C12.657,1.841,1.841,12.657,1.841,26c0,13.342,10.816,24.159,24.159,24.159
	c13.342,0,24.158-10.816,24.158-24.159C50.158,12.657,39.342,1.841,26,1.841z M37.827,26.464c-1.227,1.056-2.41,1.979-3.354,2.968
	c0.204,1.054,0.5,2.166,0.767,3.352c0.697,3.09,0.69,4.91-0.03,5.612c0.012-0.007,0.03-0.008,0.042-0.015l-0.069,0.049
	c0.011-0.01,0.017-0.024,0.027-0.035c-0.893,0.466-2.623-0.09-5.343-1.707c-1.392-0.828-2.643-1.656-3.878-2.235
	c-1.236,0.58-2.49,1.408-3.879,2.235c-2.721,1.617-4.451,2.173-5.343,1.707c0.009,0.011,0.015,0.024,0.026,0.035l-0.07-0.049
	c0.014,0.006,0.03,0.007,0.043,0.015c-0.721-0.702-0.729-2.521-0.03-5.612c0.276-1.22,0.58-2.362,0.781-3.443
	c-0.927-0.954-2.079-1.853-3.267-2.876c-2.399-2.064-3.477-3.529-3.32-4.523c-0.005,0.012-0.019,0.023-0.022,0.035l0.026-0.081
	c-0.004,0.015,0,0.031-0.003,0.046c0.44-0.908,2.161-1.493,5.312-1.813c1.337-0.136,2.598-0.214,3.755-0.391h-0.243
	c1.271-1.416,1.961-3.458,2.912-5.671c1.252-2.908,2.326-4.375,3.323-4.523c-0.016-0.002-0.029-0.009-0.045-0.011h0.086
	c-0.013,0.002-0.027,0.009-0.041,0.011c0.995,0.148,2.069,1.615,3.319,4.523c0.95,2.212,1.644,4.255,2.912,5.671h-0.14
	c1.157,0.177,2.417,0.254,3.754,0.391c3.151,0.32,4.873,0.905,5.312,1.813c-0.003-0.015,0.002-0.031-0.003-0.046l0.026,0.081
	c-0.005-0.012-0.017-0.023-0.023-0.035C41.303,22.935,40.227,24.399,37.827,26.464z"/>
</svg>
