<?xml version="1.0" encoding="utf-8"?>
<!-- Generator: Adobe Illustrator 16.0.0, SVG Export Plug-In . SVG Version: 6.00 Build 0)  -->
<!DOCTYPE svg PUBLIC "-//W3C//DTD SVG 1.1//EN" "http://www.w3.org/Graphics/SVG/1.1/DTD/svg11.dtd">
<svg version="1.1" id="Calque_1" xmlns="http://www.w3.org/2000/svg" xmlns:xlink="http://www.w3.org/1999/xlink" x="0px" y="0px"
	 width="52px" height="52px" viewBox="0 0 52 52" enable-background="new 0 0 52 52" xml:space="preserve">
<g id="amIQ1F.tif">
	<g>
		<path fill="#F8BA07" d="M26.041,2.168C12.928,2.117,2.175,12.853,2.167,26.005c-0.01,13.109,10.61,23.754,23.765,23.827
			c13.154,0.072,23.866-10.582,23.901-23.774C49.868,12.886,39.246,2.219,26.041,2.168z M32.858,8.434
			c1.301,0.53,2.521,1.219,3.69,1.996c0.342,0.227,0.663,0.427,0.526,0.958c-0.74,2.851-1.452,5.706-2.225,8.766
			c-4.287-4.148-8.456-8.181-12.811-12.395C25.869,6.842,29.403,7.029,32.858,8.434z M9.768,16.84
			c1.855-3.403,4.711-5.711,8.148-7.373c0.283-0.137,0.506-0.225,0.785,0.044c2.429,2.352,4.871,4.691,7.464,7.183
			c-6.108,1.388-11.955,2.718-17.939,4.079C8.501,19.282,9.111,18.046,9.768,16.84z M11.505,37.677
			c-3.08-3.682-4.173-7.975-3.874-12.692c0.025-0.407,0.027-0.773,0.582-0.905c3.326-0.799,6.641-1.632,10.181-2.507
			c-1.974,5.868-3.863,11.49-5.763,17.139C12.053,38.549,11.822,38.056,11.505,37.677z M19.102,43.275
			c-1.07-0.496-2.091-1.081-3.079-1.73c-0.385-0.252-0.585-0.494-0.428-0.985c1.004-3.152,1.989-6.312,2.987-9.469
			c0.019-0.059,0.104-0.097,0.219-0.196c3.891,4.41,7.779,8.82,11.775,13.349C26.517,45.207,22.749,44.961,19.102,43.275z
			 M40.975,37.101c-1.789,2.388-4.142,4.068-6.781,5.391c-0.404,0.204-0.699,0.245-1.059-0.133
			c-2.159-2.271-4.348-4.516-6.706-6.954c5.843-1.406,11.502-2.768,17.397-4.188C43.209,33.494,42.26,35.381,40.975,37.101z
			 M43.564,28.022c-2.861,0.832-5.722,1.671-8.833,2.582c1.57-5.868,3.102-11.583,4.681-17.478
			c3.908,4.044,5.287,8.734,4.959,14.029C44.336,27.727,44.015,27.891,43.564,28.022z"/>
	</g>
</g>
</svg>
