<?xml version="1.0" encoding="iso-8859-1"?>
<!-- Generator: Adobe Illustrator 16.0.0, SVG Export Plug-In . SVG Version: 6.00 Build 0)  -->
<!DOCTYPE svg PUBLIC "-//W3C//DTD SVG 1.1//EN" "http://www.w3.org/Graphics/SVG/1.1/DTD/svg11.dtd">
<svg version="1.1" id="Calque_1" xmlns="http://www.w3.org/2000/svg" xmlns:xlink="http://www.w3.org/1999/xlink" x="0px" y="0px"
	 width="52px" height="52px" viewBox="0 0 52 52" style="enable-background:new 0 0 52 52;" xml:space="preserve">
<g>
	<path style="fill:#F8B90F;" d="M21.989,15.427c-1.547-0.949-3.228-0.476-4.043,1.135c-0.326,0.646-0.437,1.336-0.444,2.207
		c0.083,1.608,0.676,3.143,2.009,4.348c1.74,1.572,3.981,1.066,4.765-1.072C25.125,19.731,24.083,16.711,21.989,15.427z"/>
	<path style="fill:#F8B90F;" d="M17.583,30.154c-2.009,1.362-2.196,3.656-0.462,5.346c1.09,1.063,2.457,1.416,4.182,1.374
		c0.857,0.022,1.911-0.146,2.927-0.567c2.07-0.857,2.5-3.19,1.803-4.553c-0.631-1.233-1.793-2.033-3.017-2.461
		C21.128,28.633,19.244,29.029,17.583,30.154z"/>
	<path style="fill:#F8B90F;" d="M26,1.88C12.679,1.88,1.88,12.679,1.88,26c0,13.322,10.799,24.12,24.12,24.12S50.12,39.321,50.12,26
		C50.12,12.679,39.321,1.88,26,1.88z M26.042,22.47c-0.41,0.433-0.875,0.812-1.31,1.222c-0.23,0.217-0.474,0.426-0.669,0.672
		c-0.489,0.62-0.479,1.267-0.007,1.894c0.556,0.74,1.268,1.313,2.009,1.854c2.208,1.607,2.646,4.031,1.964,6.045
		c-0.664,1.962-2.247,3.043-4.159,3.561c-2.806,0.758-5.575,0.531-8.226-0.704c-1.826-0.852-2.689-2.287-2.375-3.993
		c0.253-1.373,1.102-2.378,2.223-3.166c1.576-1.108,3.347-1.579,5.259-1.577c0.299,0,0.599-0.016,0.897-0.029
		c0.028-0.001,0.056-0.033,0.121-0.072c-0.918-0.957-1.172-2.042-0.555-3.303c-0.578-0.079-1.128-0.03-1.672-0.116
		c-2.814-0.444-4.757-2.662-4.711-5.487c0.027-1.678,0.916-2.923,2.188-3.906c1.37-1.058,2.936-1.543,4.683-1.518
		c2.351,0.035,4.702,0.009,7.179,0.009c-0.628,0.471-1.108,1.032-1.742,1.192c-0.645,0.162-1.361,0.035-2.109,0.035
		C27.564,16.662,27.978,20.424,26.042,22.47z M37.8,19.26h-3.253v3.253h-1.57V19.26h-3.254v-1.57h3.254v-3.253h1.57v3.253H37.8
		V19.26z"/>
</g>
</svg>
