<?xml version="1.0" encoding="utf-8"?>
<!-- Generator: Adobe Illustrator 16.0.0, SVG Export Plug-In . SVG Version: 6.00 Build 0)  -->
<!DOCTYPE svg PUBLIC "-//W3C//DTD SVG 1.1//EN" "http://www.w3.org/Graphics/SVG/1.1/DTD/svg11.dtd">
<svg version="1.1" xmlns="http://www.w3.org/2000/svg" xmlns:xlink="http://www.w3.org/1999/xlink" x="0px" y="0px" width="165px"
	 height="165px" viewBox="0 0 165 165" enable-background="new 0 0 165 165" xml:space="preserve">
<g id="Calque_2">
</g>
<g id="Calque_3">
	<polyline fill-rule="evenodd" clip-rule="evenodd" fill="#261F1F" points="260.809,-175.011 260.958,-175.312 260.809,-175.011 	
		"/>
	<path fill="#F8B90F" d="M82.737,2.071C38.727,1.903,2.633,37.937,2.604,82.081c-0.031,43.995,35.612,79.724,79.768,79.972
		c44.148,0.246,80.104-35.52,80.221-79.794C162.711,38.042,127.061,2.244,82.737,2.071z M118.372,44.467l-2.557,0.509l0.271-0.67
		c0.419-1.032,1.118-1.716,1.46-2.918l0.012-0.093l0.084-0.064c0.729-0.713,1.505-1.505,2.816-2.249L120.47,39l0.008-0.018
		l0.179,0.33l0.002,0.004l0.002,0.004l0.193,0.357l-0.067,0.128l-0.084,0.467l0.585,0.836c0.308-0.081,1.288-0.874,2.301-1.419
		l0.489,0.601l-1.316,1.684l-0.027,0.036l-2.353,2.006l-0.097,0.065l-0.099,0.035L118.372,44.467z M118.484,47.112l-0.357,0.226
		c-0.899,0.551-0.899,1.83-2.187,2.74l-0.321,0.223l-0.242-0.339l-0.432-0.439L113,48.715v-1.201l0.326-0.098l2.621-1.846
		l0.041,0.645L116,46.417v-0.019l1.129-0.183l1.077,0.556L118.484,47.112z M121.615,52.243l0.581-0.776l0.029-0.03
		c1.833-1.266,3.519-2.791,5.994-3.367l0.44,0.61c-1.089,1.616-2.68,2.657-3.57,4.279l0.119,0.031
		c2.235-0.092,3.518-2.754,5.897-3.789l0.472-0.196l0.078,0.489l0.372,2.591l-0.13,0.129l-1.457,1.606L130.379,54h-0.1
		c-1.278,0-3.66,0.824-5.266,1.524l-0.472,0.149l-0.077-0.547l-0.165-1.2l-0.241-0.362l-2.789-0.844L121.615,52.243z
		 M131.644,40.487l0.061,0.615c-0.015,0.743-0.368,1.501-0.791,2.541l-0.011,0.02l-0.395,1.182l-0.097,0.089l-0.728,0.786
		L129.616,46h-0.097c-2.107,0-4.438,1.553-6.238,2.994l-0.392,0.198l-0.21-0.492l-0.324-1.322l0.116-1.18l-0.31-0.747l-0.298-0.365
		l0.396-0.257c1.766-1.009,2.641-2.644,4.405-3.662l0.55,0.501c-0.305,0.797-0.61,1.739-0.671,2.807l0.552,0.089
		c1.473-1.169,1.83-2.558,3.314-4.241L130.537,40h1.041L131.644,40.487z M120,32.007v-0.175l0.184-0.075l1.04-0.757h0.099
		l1.051-0.246l0.908-0.091l2.627,0.438l0.046,0.721c-0.599,0.315-1.165,0.81-2.15,1.341c0.078,0.841,0.38,0.909,1.04,1.548
		c1.845-0.096,3.772-2.604,5.598-3.072l0.648-0.163l-0.177,0.645c-0.552,2.057-1.541,3.767-3.795,5.794L127.004,38h-0.79
		l-0.095-0.217l-1.923-1.734c-1.875,0.037-4.129,0.919-5.858,2.287l-0.598-0.482l0.889-1.667C119.373,34.905,120,33.741,120,32.007z
		 M75,113.056C73.362,117.623,71.709,122,67.677,126H67.32l0.178-1.626c0.907-1.827,1.831-4.089,3.468-6.097
		c1.1-2.932,2.396-5.815,2.396-9.474l-1.652-0.865c-4.761,10.777-20.46,15.001-21.013,27.608c0.553,0.739,0.355,1.813,0.553,3.113
		l-0.197,0.917c-1.086,0-2.559-0.198-3.644-0.383c-1.104-0.529-2.204-1.082-3.483-2.004c-3.45-3.646-6.206-9.866-5.655-14.792
		c0.552-3.465,2.205-7.684,3.647-11.52l2.591-1.153c1.441-0.727,3.435-1.726,5.458-3.726h1.086c0.939,2,3.113,4,4.943,5h1.637
		c5.297,0,10.951-3.715,15.729-6.473l1.993-0.279c0.923,0.715,0.923,1.256,1.472,2.38C76.827,109.203,76.278,111.222,75,113.056z
		 M58.718,130.437c1.102-3.665,4.212-7.484,7.34-10.436l1.44-1.812l0.907-0.712C66.383,122.045,62.395,125.884,58.718,130.437z
		 M41.378,107.965l0.376-2.205c1.069-2.382,3.303-2.751,5.653-3.285l1.619,0.534l0.551,0.92c-2.17,0.911-3.792,2.566-5.835,4.201
		l-1.988,0.371L41.378,107.965z M126.976,80.018l-0.126,0.06l-2.143,0.981l-0.143-0.039c-0.945-0.352-2.074,0.047-3.212-0.596
		l-0.083-0.05l-0.046-0.084l-1.209-1.904c-1.154-0.817-2.347-1.206-4.063-2.039l-0.496,0.416L115.551,77l0.114,0.263l1.732,1.018
		l-0.126,0.733l-0.68,0.144l-0.196,0.73l0.008,0.045l0.025,0.015l0.293-0.06l0.438,0.595l-0.454,0.667l-0.114,0.047l-0.358,0.05
		l-1.616-0.229l-0.736,0.146l-0.092,0.047l0.08,0.439l0.194,0.099l2.67,0.617c1.409,0,2.869-0.435,4.603-0.647l0.177-0.054
		l0.133,0.149c-0.049,0.147,1.245-0.096,2.479,0.485l0.13,0.05l0.066,0.13l0.854,1.94l-0.255,0.18l-0.796,0.615l-0.098-0.192
		L122.666,85h-0.064c-1.122,0-2.268-0.766-3.089-1.168l-0.38,0.584l0.35,0.778c1.182,0.339,1.847,1.272,2.796,1.231l0.308,0.688
		l-0.729,0.765L121.742,88h-1.084c-0.553,0-0.891,0-1.994,0h-0.212l-0.128-0.188c-0.533-0.92-1.938-1.103-2.69-2.294l-2.139-0.869
		l-0.102,0.013l-0.214,0.328l-0.007,0.097c-0.083,0.698,0.95,0.955,1.815,2.3l0.078,0.149l-0.049,0.161l-0.775,2.846l-0.099,0.084
		l-1.006,0.793l-0.112,0.034l-2.091,0.114c-1.037,0-2.172-0.098-3.273-0.284l-1.813,0.155l-2.431,1.994L102.948,94h-0.921
		c-2.17,0-4.164-1-6.419-1H95.56l-0.034-0.148l-1.778-0.311C90.635,92.508,87.623,95,85.368,98h-0.002
		c-1.61,3-3.1,5.668-4.742,8.586l-0.229,0.416l-0.375-0.292l-2.881-3.072l-0.711-0.533l-1.316-0.504
		c-0.535,0-1.216,0.007-2.551,0.154c-4.133,2.353-8.551,6.035-14.541,6.604l-0.1,0.013l-0.112-0.047l-0.483-0.045l-1.411-0.099
		l-0.081-0.034l-0.066-0.035c-1.588-1.033-2.104-2.637-3.824-3.626l-0.161-0.111l-0.033-0.165l-0.581-2.479l0.029-0.017l0.31-0.713
		h2.918c1.883-1,2.898-2.174,4.159-3.77l0.277-0.426l0.616,0.608l0.824,0.312l0.444,0.157c1.375-0.192,3.28-0.885,4.458-1.744
		l1.147-1.901c-0.349-1.131-0.375-2.178-0.717-3.13l0.01-0.004l-1.013-2.025l-2.04-1.019l-1.737-0.489l0.261-0.457
		c2.141-3.608,7.17-5.629,8.353-9.19l-0.172-2.408l-0.616-1.231l0.287-0.191L71,72.809v-1.477l-0.366-0.133l-1.468,0.423
		l-0.358,1.328l-0.078,0.07l-1.728,2.101l-0.293-0.192l-1.659-1.188l-0.419,1.237l0.098,0.192L65.993,76h1.342l0.113,0.302
		l1.053,1.908l-0.112,0.208c-1.779,3.483-5.988,4.919-8.048,8.076l-1.479,2.964l-0.031,0.052l-0.359,0.339l-0.67,0.856
		c-0.525,1.01-0.752,2.04-0.91,3.47L57,95.958v0.89l0.001,0.084l-1.481,2.301l-0.072,0.032l-2.084,1.265l-0.237-0.259l-1.424-1.592
		l0.046-0.21l0.341-1.578L51.57,96h-0.062l-0.992,1h0.002l0.023,0.354C50.508,97.873,51,99.2,51,100.364v0.144l-0.139,0.116
		l-0.918,1.103l-0.253-0.032c-1.07-0.195-2.097-0.36-3.054-0.36l-2.206,0.343l-0.02-0.052l-3.159,1.14l-0.272,0.062l-0.145-0.255
		c-1.025-1.752-1.174-3.405-1.174-4.96c0-2.426,0.34-4.635,1.34-6.807v-0.03V90.74c0-1.75,2-3.371,2-5.279v-0.065l0.138-0.048
		c2.542-3.627,4.608-7.44,6.78-11.294C50.629,72.677,51,70.294,52,68.287V68.25l-0.19-0.027c0.94-2.073,2.33-4.083,3.944-6.453
		l0.682,0.163l0.004,0.424l-0.255,2.249l0.174,1.057l0.077,0.179L57,65.948l0.684-0.387c2.505-3.794,4.522-7.788,6.154-12.293
		l0.207-0.581l0.456,0.476L65.293,54h0.959c1.586-1,1.818-3.247,3.27-5.126l0.373-0.983l0.064-0.055l0.278-0.28l0.159-0.88
		l0.035-0.079l0.365-0.503l-0.251-0.006C70.89,45.408,71,44.376,71,43.154v-0.093l0.293-0.157L72.565,41h0.781l0.115,0.2
		l0.666,0.842l0.483,0.143l0.862-0.283l0.609-0.757c0.957-3.333,2.58-6.067,4.22-8.958l0.016-0.033l0.03-0.034
		c1.44-1.618,3.29-4.406,5.751-5.925l0.487-0.31l0.115,0.565l0.321,1.618l1.066,0.565c1.096-0.863,2.273-1.423,3.422-2.572
		L91.576,26l0.095-0.034l1.119-0.371l0.031-0.018l0.699-0.065c2.082,0.048,3.612,1.431,5.767,1.898
		c1.454-0.547,2.228-0.369,3.938-0.696l0.13-0.03l0.13,0.06l0.6,0.275l-0.021,0.261l-0.156,2.255l0.963,0.235
		c1.337-0.891,2.773-1.05,3.928-1.74l0.08-0.029h0.079c2.187,0,4.539-0.424,6.646-0.424l1.44,0.024l0.229,0.707
		c-1.929,1.701-5.25,2.596-6.946,4.917l0.059,0.242l1.01,0.153c0.867-0.676,1.7-1.273,3.188-1.462l0.372,0.628l-1.426,1.965
		l-0.276,1.101l0.481,0.302c1.322-0.505,1.921-2.027,3.618-3.023l0.582,0.484l-0.747,2.4l-0.012,0.029l-1.072,1.915l-0.287-0.064
		l-2.072-0.503c-1.793,0.999-3.597,1.089-4.87,2.105l0.051,0.422c1.401-0.249,2.606-0.918,4.18-0.918h0.085l0.063-0.106l1.96,0.484
		l-0.487,0.458c-1.304,1.258-2.683,1.975-4.036,3.13l0.105,0.742c1.197-0.048,2.388-1.34,3.918-1.75L114.757,42H116v0.249
		c-1,3.126-3.351,3.726-4.631,6.468L111.052,49h-0.247l-3.739,1.108l-0.092,0.141l0.773,0.169l1.894-0.515l0.193-0.054l0.18,0.161
		l0.888,0.905l-0.438,0.281l-1.749,1.045l-0.194,0.232l0.164,0.226l0.455,0.143l0.014,0.018l0.487,0.129l1.827-0.338l0.391,0.486
		L110.464,55h-0.548l-0.893,1.589L109.071,57h1.054c2.945-2,4.792-4.829,8.359-6.694l0.536,0.421l-0.748,1.465l-0.028,0.008
		l-1.722,2.212l0.037,0.109l-0.487,0.922L115.887,56h1.042c1.527-1,2.685-0.786,4.406-0.945l0.083-0.125l0.082-0.023l0.99,0.286
		l-0.212,0.408l-0.198,0.411l-0.046,0.045l-0.471,0.47l-0.132,0.029c-2.254,0.294-3.858,2.255-6.156,3.445l0.214,1h1.827
		l-0.111,0.32l-0.277,1.085l0.387,0.16l0.067-0.013c0.522,0.05,1.267-0.863,2.432-1.286l0.471,0.544l-0.194,0.386l-0.176,0.014
		C118.775,63.905,117,64.66,116,66.149v0.272l0.459,0.086c2.207-0.705,4.219-2.456,5.8-4.404c1.049-1.531,1.888-4.288,4.841-4.897
		l0.392,0.676l-1.193,1.196l0.668,0.795c1.548-0.697,2.433-1.859,3.86-3.124l0.476-0.435l0.16,0.65l0.216,0.855l-0.056,0.13
		l-0.208,0.422l-0.05,0.062c-2.067,2.249-4.248,3.148-6.166,5.231l-0.074,0.007L124,65.226v0.714l-0.186,0.114l-1.758,0.563
		l-0.112-0.049l-0.392-0.128l-1.338,0.617l-0.273,0.543l1.122,0.379l1.016-0.176l0.068,0.01l1.93,0.198l0.047,0.028l1.458,0.72
		l-0.177,0.369l-0.276,0.517l-0.197,0.033l-2.752,0.551l-0.519,0.876l0.126-0.038L123.394,71H126v1.145l0.096,0.097
		C124.777,74.28,122,73.604,121,74.783v0.31l0.222,0.194c1.637-0.37,3.691-0.884,5.51-1.09l0.138-0.011l0.111,0.129l0.557,0.581
		l-0.139,0.258l-0.225,0.441l0.067,0.061c-1.311,0.921-3.241,1.476-4.241,2.455v0.029l0.936,0.274l2.172-0.178l1.178-0.521
		l0.505,0.53L126.976,80.018z M58.442,92.688l0.275-0.165l0.42-0.776l1.344-1.083l1.668-0.212l0.146,0.146l2.108,2.11l0.032,0.126
		l0.195,1.407l-0.082,0.133l-0.954,1.716l-0.083,0.066l-0.552,0.352l-0.078,0.036l-0.079,0.03l-2.125,0.373l-0.093-0.027
		c-1.768-0.715-1.69-2.756-2.076-3.91L58.442,92.688z M129.405,63.6l-0.764,1.4h-0.03l-1.815,2.099l-0.177,0.188l-0.312-0.154
		l-1.519-0.784l0.311-0.394c1.002-1.195,2.462-1.89,3.706-2.922L129.405,63.6z M132,64.009v2.722v0.065l-0.096,0.063
		c-0.422,1.266-1.583,2.17-2.294,3.223l-0.407,0.566l-0.309-0.615L128.1,68.43l0.044-0.143l0.178-0.585l0.017-0.032
		c0.601-1.179,1.713-2.296,2.007-3.093l-0.054-0.114L132,63.262V64.009z"/>
</g>
</svg>
