<?xml version="1.0" encoding="utf-8"?>
<!-- Generator: Adobe Illustrator 16.0.0, SVG Export Plug-In . SVG Version: 6.00 Build 0)  -->
<!DOCTYPE svg PUBLIC "-//W3C//DTD SVG 1.1//EN" "http://www.w3.org/Graphics/SVG/1.1/DTD/svg11.dtd">
<svg version="1.1" id="Calque_1" xmlns="http://www.w3.org/2000/svg" xmlns:xlink="http://www.w3.org/1999/xlink" x="0px" y="0px"
	 width="52px" height="52px" viewBox="0 0 52 52" enable-background="new 0 0 52 52" xml:space="preserve">
<g>
	<path fill="#F8BA07" d="M33.428,23.437c-1.384-4.44-6.06-6.691-10.288-5.031c-3.66,1.439-5.985,6.073-4.563,9.104
		C22.345,23.628,27.391,21.95,33.428,23.437z"/>
	<path fill="#F8BA07" d="M32.977,26.452c-4.4-1.555-9.546-0.124-12.548,3.495c-0.426,0.513-0.371,0.818,0.084,1.245
		c1.542,1.456,3.348,2.226,4.524,2.244c4.526,0.004,7.667-2.441,8.536-5.873C33.726,26.959,33.602,26.674,32.977,26.452z"/>
	<path fill="#F8BA07" d="M26.041,2.002C12.838,1.952,2.012,12.761,2.002,26.004c-0.01,13.201,10.683,23.919,23.931,23.994
		c13.244,0.072,24.03-10.657,24.065-23.939C50.034,12.795,39.339,2.054,26.041,2.002z M44.895,27.297
		c-4.554,3.199-9.112,6.398-13.678,9.582c-1.377,0.958-2.736,1.939-4.128,2.876c-0.272,0.184-0.518,0.479-0.917,0.346
		c-0.113,0-0.228,0-0.343,0c-0.475,0.128-0.754-0.235-1.072-0.455c-5.899-4.093-11.771-8.228-17.65-12.349
		c-0.247-0.176-0.684-0.271-0.539-0.754c-0.002-0.04-0.002-0.083,0-0.124c-0.151-0.47,0.27-0.598,0.513-0.782
		c5.941-4.473,11.891-8.933,17.843-13.388c0.264-0.197,0.513-0.492,0.914-0.346c0.108,0,0.217,0,0.325-0.001
		c0.442-0.147,0.705,0.188,0.99,0.401c5.901,4.42,11.802,8.841,17.694,13.275c0.269,0.203,0.702,0.344,0.586,0.839
		c0.001,0.041,0.003,0.083,0.001,0.125C45.579,27.025,45.144,27.121,44.895,27.297z"/>
</g>
</svg>
