<?xml version="1.0" encoding="iso-8859-1"?>
<!-- Generator: Adobe Illustrator 16.0.0, SVG Export Plug-In . SVG Version: 6.00 Build 0)  -->
<!DOCTYPE svg PUBLIC "-//W3C//DTD SVG 1.1//EN" "http://www.w3.org/Graphics/SVG/1.1/DTD/svg11.dtd">
<svg version="1.1" id="Calque_1" xmlns="http://www.w3.org/2000/svg" xmlns:xlink="http://www.w3.org/1999/xlink" x="0px" y="0px"
	 width="52px" height="52px" viewBox="0 0 52 52" style="enable-background:new 0 0 52 52;" xml:space="preserve">
<g>
	<path style="fill-rule:evenodd;clip-rule:evenodd;fill:#F8B90F;" d="M33.847,18.482c0.002-0.003,0.004-0.005,0.007-0.008
		c-0.002-0.005-0.004-0.01-0.007-0.016C33.847,18.467,33.847,18.474,33.847,18.482z"/>
	<polygon style="fill-rule:evenodd;clip-rule:evenodd;fill:#F8B90F;" points="35.364,33.607 35.355,33.616 35.36,33.62 	"/>
	<path style="fill-rule:evenodd;clip-rule:evenodd;fill:#F8B90F;" d="M35.428,33.803c-0.001,0.009-0.004,0.018-0.011,0.025
		C35.424,33.82,35.427,33.812,35.428,33.803C35.428,33.803,35.428,33.803,35.428,33.803z"/>
	<polygon style="fill-rule:evenodd;clip-rule:evenodd;fill:#F8B90F;" points="33.294,38.143 33.294,38.15 33.301,38.141 	"/>
	<polygon style="fill-rule:evenodd;clip-rule:evenodd;fill:#F8B90F;" points="15.577,11.769 15.579,11.768 15.576,11.767 	"/>
	<polygon style="fill-rule:evenodd;clip-rule:evenodd;fill:#F8B90F;" points="39.971,22.968 39.972,22.968 39.971,22.968 	"/>
	<path style="fill-rule:evenodd;clip-rule:evenodd;fill:#F8B90F;" d="M26,1.88C12.679,1.88,1.88,12.679,1.88,26
		c0,13.321,10.799,24.12,24.12,24.12S50.119,39.321,50.119,26C50.119,12.679,39.32,1.88,26,1.88z M39.967,23.724
		c-0.033,0.082-0.103,0.153-0.075,0.253c0.044,0.164-0.081,0.278-0.129,0.415c-0.019,0.051-0.06,0.101-0.104,0.141l-0.001-0.002
		c-0.015,0.013-0.028,0.026-0.042,0.04c-0.009,0.017-0.019,0.033-0.029,0.05c0.001,0.001,0.003,0.003,0.005,0.005
		c0.007,0.021,0.006,0.041,0,0.06c-0.095,0.289-0.323,0.501-0.441,0.775c-0.015,0.034-0.042,0.06-0.071,0.083
		c-0.023,0.033-0.036,0.068-0.03,0.109c-0.006,0.006-0.01,0.015-0.012,0.024c-0.005,0.11-0.09,0.152-0.17,0.198
		c-0.024,0.012-0.039,0.032-0.043,0.058c-0.006,0.013-0.015,0.021-0.028,0.024c-0.128,0.085-0.095,0.26-0.2,0.358
		c-0.035,0.035-0.06,0.076-0.094,0.11c-0.072,0.047-0.104,0.145-0.204,0.158c-0.002-0.002-0.005-0.004-0.008-0.006
		c-0.155,0.164-0.312,0.324-0.498,0.454c-0.02,0.018-0.039,0.035-0.059,0.052c-0.127,0.075-0.256,0.149-0.384,0.224
		c-0.068,0.075-0.141,0.145-0.204,0.224c-0.127,0.161-0.285,0.284-0.451,0.4c-0.039,0.091-0.122,0.138-0.197,0.19
		c-0.064,0.045-0.104,0.102-0.116,0.179c-0.014,0.021-0.032,0.04-0.047,0.061c-0.064,0.058-0.126,0.116-0.19,0.174
		c-0.185,0.247-0.417,0.446-0.66,0.633c-0.04,0.031-0.057,0.071-0.061,0.119c-0.055,0.2-0.112,0.41-0.247,0.561l-0.274,0.386
		c-0.005,0.011-0.01,0.021-0.015,0.032c0.031,0.103-0.052,0.194-0.026,0.298c0.012,0.048,0,0.103,0.047,0.139
		c0.005,0.003,0.008,0.007,0.013,0.011c-0.004-0.017-0.007-0.034-0.006-0.05c0.004-0.066,0.022-0.132,0.086-0.162
		c0.074-0.035,0.102,0.038,0.143,0.077c0.016,0.016,0.031,0.034,0.046,0.051c0,0.009,0.001,0.019,0.002,0.027
		c0.007,0.035,0.017,0.07,0.021,0.105c0.018,0.149-0.001,0.18-0.129,0.178c0.019,0.039,0.027,0.081,0.029,0.124
		c0.007,0.04-0.001,0.079-0.01,0.117c0,0.012,0,0.024,0.002,0.036c0,0.027-0.001,0.055-0.001,0.083
		c-0.012,0.048,0.035,0.12-0.053,0.14c-0.002,0.027-0.004,0.056-0.006,0.083c0.048,0.076,0.06,0.165,0.088,0.249
		c-0.001,0.023-0.008,0.044-0.024,0.062c-0.002,0-0.003,0-0.006-0.001c0.001,0.019,0.002,0.036,0.002,0.054
		c0.038,0.05,0.036,0.112,0.055,0.168c0.062,0.113,0.153,0.2,0.251,0.279c0.152,0.134,0.171,0.22,0.093,0.427
		c-0.002,0.007-0.005,0.015-0.008,0.022c-0.005,0.043-0.022,0.082-0.055,0.112c0.001,0.178-0.019,0.357,0.021,0.535
		c0.018,0.081,0.001,0.165-0.022,0.245l0,0c0,0,0,0-0.001,0.001c0,0,0,0,0.001,0c0.014,0.179,0.087,0.35,0.082,0.532
		c0.005,0.058,0.007,0.116-0.029,0.167c-0.061,0.115-0.044,0.252-0.109,0.365c-0.009,0.047-0.018,0.094-0.025,0.141
		c-0.002,0.009-0.001,0.023-0.007,0.026c-0.206,0.127-0.333,0.336-0.511,0.492c-0.022,0.02-0.044,0.037-0.074,0.032
		c-0.181-0.028-0.323,0.07-0.471,0.147c-0.202,0.172-0.469,0.273-0.583,0.542c-0.012,0.027-0.043,0.046-0.065,0.069
		c-0.131,0.06-0.215,0.184-0.34,0.251c-0.101,0.066-0.171,0.159-0.225,0.268c-0.031,0.062-0.036,0.122,0.011,0.18
		c0.061,0.075,0.074,0.168,0.082,0.257c0.012,0.145,0.058,0.275,0.139,0.395c0.057,0.069,0.066,0.148,0.053,0.234
		c-0.005,0.033-0.009,0.066-0.011,0.099l0.013,0.106c-0.04,0.035-0.003,0.107-0.035,0.147l-0.01,0.107c0,0,0,0,0,0.001
		c0.002,0.05,0.004,0.101,0.021,0.149l-0.113,0.375c-0.039,0.037-0.077,0.074-0.114,0.111c-0.121,0.127-0.256,0.222-0.444,0.191
		c-0.092,0.009-0.149,0.104-0.248,0.097c-0.074,0.036-0.134,0.097-0.22,0.108c-0.041,0.006-0.072,0.033-0.083,0.068
		c-0.013,0.047,0.026,0.062,0.063,0.073c0.064,0.019,0.043,0.073,0.047,0.116c0.024,0.219-0.049,0.419-0.104,0.625
		c-0.006,0.022-0.007,0.045-0.011,0.067c-0.044,0.108-0.062,0.221-0.054,0.337c-0.015,0.039-0.036,0.073-0.061,0.104l-0.045,0.078
		c-0.005,0.001-0.009,0.001-0.014,0.001l-0.023,0.037c-0.011,0.009-0.02,0.018-0.031,0.027c-0.127,0.112-0.243,0.234-0.319,0.389
		c-0.009,0.019-0.028,0.022-0.043,0.002c-0.025,0.029-0.05,0.058-0.074,0.086c0.021,0.046-0.005,0.08-0.031,0.111
		c-0.101,0.127-0.163,0.275-0.226,0.422l-0.013,0.016c0.006,0.008,0.008,0.018,0.009,0.028c0.042-0.033,0.073-0.086,0.139-0.074
		c0.01,0.001,0.02,0.001,0.03,0.001c-0.045,0.06-0.085,0.125-0.167,0.142L30.635,42.5c-0.029,0.029-0.057,0.057-0.084,0.086
		c-0.037,0.019-0.074,0.037-0.11,0.056c-0.071,0.042-0.127,0.101-0.172,0.169c0.016,0.026,0.044,0.057,0.013,0.086l-0.084,0.025
		c-0.021,0.017-0.048,0.026-0.083,0.026l-0.112,0.135c0,0.016-0.009,0.026-0.019,0.037l-0.015,0.054c-0.011,0.01-0.02,0.01-0.03,0
		c0.003-0.025,0.026-0.039,0.045-0.054l0.007-0.025c-0.202,0.163-0.433,0.249-0.691,0.267c-0.022,0.001-0.043,0.012-0.065,0.021
		c-0.07,0.078-0.16,0.094-0.261,0.086c-0.048-0.004-0.1-0.012-0.148,0.012c-0.054,0.026-0.112,0.037-0.173,0.03
		c-0.104,0.054-0.205,0.022-0.307-0.005c-0.087-0.023-0.166-0.055-0.259,0.014c-0.089,0.066-0.306,0.014-0.352-0.062
		c-0.019,0.001-0.038,0.003-0.057,0.004c-0.116,0.115-0.225,0.23-0.415,0.22c-0.126-0.007-0.248,0.06-0.378,0.061
		c-0.03,0-0.042-0.005-0.045-0.033c-0.171,0.135-0.489,0.103-0.628-0.069c-0.037-0.045-0.082-0.052-0.128-0.069
		c-0.133,0.09-0.165,0.081-0.204-0.074c-0.033-0.131-0.08-0.255-0.136-0.376c-0.101-0.121-0.117-0.27-0.129-0.417
		c-0.009-0.109,0.084-0.155,0.168-0.197c-0.004-0.171-0.077-0.316-0.171-0.453c-0.054-0.038-0.064-0.108-0.107-0.156
		c-0.032-0.042-0.039-0.095-0.056-0.143c-0.013-0.06-0.054-0.102-0.084-0.149c-0.135-0.222-0.226-0.464-0.318-0.706
		c-0.045-0.119-0.126-0.204-0.235-0.265l-0.369-0.352c-0.012-0.037,0.008-0.073,0.006-0.11c-0.02-0.192-0.129-0.366-0.111-0.566
		c0.001-0.015,0.002-0.028,0.007-0.04c0.005-0.058,0.025-0.117-0.018-0.169c-0.007,0.014-0.003,0.058-0.034,0.021
		c-0.036-0.045-0.024-0.103-0.024-0.156c0.005,0,0.01,0,0.015,0c0-0.01,0.003-0.021,0.009-0.03c0,0,0.001,0,0.002-0.001
		c-0.015-0.01-0.025-0.024-0.028-0.042c-0.074-0.408-0.202-0.807-0.15-1.23c-0.116-0.167-0.152-0.374-0.27-0.54
		c-0.056-0.086-0.112-0.171-0.168-0.257c-0.037-0.045-0.059-0.097-0.072-0.152c-0.015-0.041-0.034-0.079-0.054-0.117
		c-0.017-0.038-0.042-0.075-0.038-0.12c0.016-0.084-0.018-0.146-0.086-0.191c-0.087-0.031-0.119-0.113-0.163-0.183
		c-0.001-0.012,0-0.024,0.002-0.035c-0.131-0.118-0.176-0.283-0.239-0.44c-0.09-0.225-0.027-0.457-0.048-0.685
		c0.001-0.019,0.002-0.037,0.004-0.056c-0.02-0.016-0.015-0.037-0.011-0.058c0.003-0.018,0.007-0.036,0.009-0.054
		c-0.001-0.019-0.002-0.037-0.004-0.055c0.008-0.018,0.015-0.036,0.023-0.054c0.057-0.332,0.093-0.667,0.235-0.979
		c0.063-0.139,0.088-0.29,0.172-0.428c0.091-0.15,0.224-0.262,0.308-0.417c0.089-0.167,0.124-0.337,0.138-0.518
		c0.003-0.034-0.009-0.063-0.03-0.09c-0.083-0.101-0.133-0.218-0.168-0.343c-0.049-0.046-0.043-0.107-0.045-0.167
		c-0.005-0.207,0.014-0.414-0.01-0.621c-0.011-0.042-0.021-0.085-0.032-0.128c-0.069-0.072-0.053-0.19-0.136-0.255
		c-0.185-0.118-0.233-0.297-0.227-0.502c0-0.022-0.005-0.042-0.025-0.055c-0.017-0.195-0.091-0.369-0.195-0.532
		c-0.011,0-0.022,0-0.034-0.001c-0.01-0.018-0.019-0.035-0.029-0.053c0.002-0.02,0.004-0.039,0.006-0.058
		c-0.165-0.2-0.311-0.422-0.562-0.533c-0.01-0.007-0.02-0.015-0.03-0.022c-0.069-0.043-0.148-0.076-0.17-0.167
		c-0.033-0.017-0.053-0.042-0.054-0.082l0,0c-0.041-0.027-0.057-0.066-0.055-0.114c-0.022-0.012-0.043-0.038-0.069-0.006
		c-0.107-0.128-0.083-0.302-0.152-0.443c-0.056-0.059-0.018-0.131-0.029-0.196c0.001-0.03-0.004-0.064,0.029-0.083
		c0,0.047,0.001,0.094,0.001,0.142c0.01-0.001,0.02-0.002,0.029-0.002c0.018-0.083,0.072-0.149,0.11-0.223
		c0.037-0.065,0.074-0.131,0.111-0.197c0.008-0.009,0.018-0.019,0.026-0.028c-0.049-0.076-0.074-0.143,0.008-0.225
		c0.061-0.062,0.007-0.147-0.004-0.222c-0.001-0.114,0.04-0.215,0.096-0.311c0.039-0.069,0.079-0.136,0.07-0.219
		c-0.021-0.073-0.033-0.147-0.028-0.223c-0.043-0.038-0.03-0.109-0.083-0.141c-0.002,0.019-0.004,0.038-0.006,0.056
		c-0.125-0.054-0.148-0.224-0.292-0.257c-0.025-0.034-0.051-0.068-0.075-0.103c-0.035-0.009-0.069-0.015-0.104,0
		c-0.136,0.081-0.285,0.077-0.429,0.045c-0.098-0.021-0.194-0.017-0.268,0.03c-0.207,0.133-0.362,0.022-0.523-0.085
		c-0.158-0.151-0.216-0.357-0.315-0.542c-0.009-0.017-0.012-0.034-0.032-0.039c-0.112-0.137-0.273-0.138-0.427-0.153
		c-0.143-0.015-0.29,0.023-0.432-0.021c0,0.004,0,0.008-0.002,0.012c-0.14,0.055-0.281,0.097-0.427,0.135
		c-0.238,0.062-0.49,0.091-0.708,0.219c-0.133,0.061-0.252,0.159-0.407,0.168c-0.01,0.011-0.022,0.021-0.034,0.03
		c-0.272,0.142-0.546,0.108-0.819,0.002c-0.035-0.014-0.071-0.021-0.108-0.024c-0.206-0.064-0.411-0.065-0.617,0.002
		c-0.051,0.002-0.103,0-0.151,0.018c-0.199,0.006-0.387,0.059-0.567,0.138c-0.006,0-0.012-0.002-0.017-0.003
		c-0.003,0.029-0.033,0.04-0.053,0.057c-0.036,0.021-0.07,0.047-0.109,0.062c-0.015,0.004-0.03,0.008-0.045,0.013
		c-0.034,0.018-0.071,0.022-0.108,0.021c-0.049,0.006-0.099,0.005-0.15-0.007c-0.136-0.056-0.274-0.102-0.416-0.141
		c-0.022-0.009-0.042-0.023-0.06-0.038c-0.015-0.006-0.026-0.015-0.036-0.027c-0.012-0.008-0.024-0.016-0.036-0.022
		c-0.062-0.033-0.123-0.068-0.18-0.108c-0.041-0.024-0.088-0.017-0.131-0.028c-0.073-0.035-0.165-0.041-0.193-0.138
		c0.003-0.036-0.012-0.062-0.047-0.075c-0.119-0.225-0.345-0.331-0.534-0.478c-0.002,0.003-0.005,0.009-0.008,0.01l-0.003-0.007
		c-0.005,0-0.008-0.005-0.007-0.015l-0.105-0.137c-0.05-0.029-0.102-0.056-0.156-0.08c-0.101-0.111-0.262-0.126-0.364-0.244
		c-0.114-0.132-0.167-0.288-0.218-0.447c-0.021-0.064-0.023-0.135-0.034-0.204c-0.027-0.019-0.055-0.038-0.082-0.057l-0.333-0.31
		c-0.01-0.018-0.021-0.036-0.031-0.054c-0.081-0.043-0.116-0.126-0.167-0.195c-0.15-0.12-0.3-0.238-0.449-0.359
		c-0.015-0.012-0.018-0.04-0.027-0.06c-0.068-0.025-0.115-0.072-0.141-0.14c-0.078,0.003-0.118-0.032-0.111-0.112
		c-0.003-0.006-0.006-0.014-0.007-0.021c-0.068-0.2-0.158-0.396-0.104-0.611l-0.051-0.067c0.015-0.018,0.009-0.043-0.004-0.065
		c-0.004-0.007-0.011-0.012-0.017-0.019c-0.004,0-0.008,0-0.013,0.001c-0.063-0.089-0.193-0.098-0.246-0.201
		c-0.01-0.009-0.02-0.018-0.03-0.027c-0.11-0.094-0.043-0.177,0.015-0.261c0.044-0.035,0.058-0.085,0.07-0.135
		c0.091-0.139,0.161-0.288,0.248-0.429c0.032-0.053,0.014-0.115,0.028-0.172c0.016-0.059,0.058-0.104,0.084-0.158
		c0.024-0.042,0.019-0.09,0.02-0.136c0.009-0.094,0.022-0.187,0.116-0.239c-0.007-0.012-0.012-0.025-0.012-0.04
		c0.004-0.122,0.022-0.244-0.012-0.365c-0.043-0.098-0.084-0.195-0.085-0.305c0-0.043-0.003-0.086,0.031-0.117
		c0.109-0.096,0.044-0.182-0.017-0.265c-0.06-0.081-0.13-0.152-0.161-0.252c-0.052-0.168,0.001-0.337,0.004-0.505
		c0.024-0.13,0.142-0.212,0.169-0.343c0.018-0.082,0.032-0.173,0.127-0.217c0.053-0.025,0.005-0.1,0.049-0.135
		c0.015-0.039,0.029-0.077,0.044-0.116c0.03-0.2,0.142-0.347,0.3-0.464l0.295-0.646c0.025-0.095,0.07-0.177,0.159-0.228
		c0.029-0.086,0.131-0.082,0.181-0.143c0.015-0.012,0.031-0.021,0.051-0.015c0.018-0.021,0.035-0.042,0.053-0.063
		c0.02-0.047,0.04-0.094,0.06-0.141c0.045-0.069,0.085-0.138,0.109-0.219c0.037-0.125,0.149-0.165,0.262-0.17l0.481-0.245
		c0.053-0.075,0.138-0.12,0.21-0.176l-0.002,0.002c0.13-0.11,0.27-0.211,0.371-0.353c0.083-0.114,0.129-0.231,0.051-0.373
		c-0.037-0.069-0.043-0.151-0.042-0.231c-0.001-0.154,0.043-0.291,0.138-0.414c0.098-0.129,0.117-0.299,0.213-0.429
		c0.01-0.002,0.018-0.001,0.025,0.002c0.017-0.036,0.034-0.072,0.052-0.108c0.012-0.059,0.034-0.11,0.091-0.138
		c0.088-0.079,0.17-0.165,0.272-0.225c0.212-0.148,0.438-0.277,0.634-0.448c0.047-0.042,0.064-0.097,0.069-0.158
		c0.084-0.135,0.081-0.302,0.166-0.436c0.014-0.022,0.018-0.051,0.041-0.066c-0.001-0.008-0.001-0.015,0-0.023
		c0.06-0.08,0.118-0.163,0.239-0.133c0.077-0.007,0.151,0,0.222,0.034c0.066,0.008,0.116,0.033,0.115,0.111
		c0.064,0.133,0.179,0.185,0.317,0.196c0.059,0.005,0.12,0,0.18-0.001c0.078-0.044,0.153-0.096,0.251-0.058
		c0.156,0.006,0.28,0.165,0.452,0.096c0.066-0.064,0.162-0.069,0.235-0.12c0.051-0.025,0.092-0.061,0.118-0.113
		c-0.012-0.029-0.008-0.062,0.021-0.071c0.123-0.037,0.241-0.113,0.378-0.066c-0.01,0.017-0.02,0.035-0.029,0.052
		c0.056-0.02,0.112,0.047,0.169,0.002c0.004-0.045,0.02-0.084,0.056-0.113c0.107-0.072,0.209-0.152,0.334-0.194
		c0.148-0.038,0.299-0.03,0.449-0.028c0.052-0.033,0.11-0.028,0.167-0.029c0.056-0.04,0.112-0.08,0.167-0.12
		c0.033-0.024,0.086-0.033,0.105-0.014c0.117,0.115,0.222,0.004,0.329-0.013c0.09-0.014,0.178-0.048,0.268-0.059
		c0.091-0.012,0.157,0.039,0.193,0.123c0.087-0.01,0.176-0.012,0.261-0.031c0.073-0.016,0.158-0.012,0.202-0.1
		c0.021-0.039,0.071-0.072,0.119-0.049c0.155,0.072,0.32,0.021,0.478,0.042c0.066,0.018,0.132,0.036,0.197,0.054
		c0.046-0.046,0.105-0.027,0.158-0.025c0.069,0.002,0.126-0.016,0.177-0.06c0.004-0.013,0.006-0.036,0.014-0.038
		c0.169-0.043,0.337-0.104,0.517-0.074c0.028,0.019,0.057,0.037,0.085,0.055c0.07,0.022,0.042,0.121,0.111,0.143
		c0.047-0.001,0.094-0.001,0.141-0.001c0.026-0.05,0.059-0.068,0.104-0.021c0.047,0.051,0.077,0.104,0.008,0.161
		c-0.001,0.03,0.005,0.064-0.029,0.083c-0.019,0.009-0.037,0.019-0.056,0.028c0,0.023-0.005,0.044-0.027,0.056
		c-0.01,0.046-0.019,0.093-0.029,0.139c-0.002,0.049,0.002,0.097,0.028,0.14c0.049,0.007,0.123-0.011,0.083,0.084
		c0.01,0.046,0.019,0.093,0.029,0.139c0.018,0,0.035,0.001,0.053,0.002c0.009-0.07-0.044-0.135-0.02-0.206
		c0.101,0.181,0.039,0.375,0.045,0.564c0.002,0.081-0.09,0.095-0.135,0.144c-0.072,0.058-0.144,0.116-0.216,0.174
		c-0.034,0.064-0.039,0.114,0.047,0.146c0.104,0.039,0.176,0.125,0.254,0.2l0.004,0.008c0.017,0.012,0.034,0.023,0.051,0.035
		c0.035,0.009,0.07,0.019,0.105,0.028c0.011-0.006,0.024-0.011,0.037-0.017c0.034-0.002,0.068,0.005,0.092,0.026
		c0.099,0.088,0.218,0.093,0.34,0.088c0.071,0.002,0.142-0.007,0.211,0.012c0.008,0,0.017,0,0.025-0.001c0,0.002,0,0.004,0,0.007
		c0.287,0.06,0.586,0.071,0.847,0.229c0.092,0.057,0.172,0.116,0.166,0.248c-0.005,0.083,0.04,0.159,0.106,0.216
		c0.038,0.027,0.076,0.054,0.113,0.081C25.164,13.91,25.33,13.935,25.49,14c0.012,0.008,0.021,0.02,0.025,0.034
		c0.165,0.072,0.333,0.123,0.484,0.24c0.191,0.148,0.398,0.188,0.508-0.162c0.007-0.038,0.033-0.073,0.017-0.114
		c-0.106-0.178-0.095-0.346,0.032-0.476c0.063-0.056,0.126-0.111,0.189-0.167c0.175-0.1,0.348-0.204,0.562-0.19
		c0.002-0.005,0.004-0.01,0.008-0.014c0.205-0.04,0.388,0.049,0.579,0.096c0.126,0.03,0.115,0.161,0.188,0.227
		c0.187,0.021,0.364,0.088,0.548,0.123c0.035,0.006,0.075,0.007,0.097,0.044c0.088,0.102,0.168,0.209,0.336,0.135
		c0.054-0.024,0.129,0.003,0.188,0.032l0.667,0.099c0.033,0.001,0.06,0.019,0.087,0.036l0.041,0.003
		c0.018,0.005,0.028,0.012,0.032,0.025c0.003,0,0.007,0.001,0.011,0.001c0.022,0.012,0.046,0.019,0.071,0.025l0.057,0.001
		c0,0.005-0.001,0.011-0.001,0.016c0.005,0.002,0.01,0.003,0.015,0.006c0.149,0.042,0.271,0.036,0.424-0.051
		c0.232-0.132,0.506-0.187,0.782-0.177c0.037,0.001,0.074-0.001,0.111,0c0.15-0.004,0.289,0.019,0.394,0.146
		c0.035,0.042,0.097,0.045,0.148,0.062c0.122,0.059,0.238,0.071,0.346-0.032c0.053-0.051,0.126-0.055,0.193-0.069
		c0.05,0.008,0.075,0.042,0.09,0.086c0.002,0.014,0,0.028-0.007,0.041c0,0-0.001,0.001-0.002,0.002
		c0.078,0.016,0.077,0.087,0.088,0.142c0.01,0.044,0.005,0.093,0.031,0.134c0.125,0.195,0.162,0.417,0.191,0.64
		c0.001,0.002,0.001,0.004,0.001,0.007c0.079,0.004,0.025,0.05,0.017,0.082c-0.047,0.057-0.061,0.121-0.054,0.193
		c0.005,0.055,0.009,0.113-0.055,0.143c-0.001,0.027-0.002,0.054-0.002,0.081c0.003,0.001,0.006,0.002,0.009,0.005
		c0.005-0.001,0.011-0.001,0.017,0c-0.003,0.011-0.003,0.022-0.003,0.034c0.007,0.036,0.009,0.072,0.008,0.109
		c0,0.006-0.001,0.013-0.001,0.019c-0.001,0.024-0.003,0.048-0.006,0.073c-0.009,0.023-0.026,0.037-0.05,0.04
		c-0.047,0.021-0.057,0.071-0.077,0.11c-0.048,0.091-0.118,0.085-0.197,0.06c-0.032,0.046-0.015,0.084,0.02,0.121v0l0.07,0.196
		c0.015,0.01,0.027,0.021,0.017,0.046c-0.001,0.032,0.004,0.062,0.026,0.087l0.036,0.135c0.039,0.125,0.098,0.241,0.171,0.346
		c0.083,0.118,0.119,0.258,0.187,0.382c0.021,0.003,0.035,0.016,0.047,0.033c0.003,0.012,0.009,0.023,0.016,0.035
		c0.059,0.052,0.119,0.102,0.173,0.157c0.049,0.049,0.082,0.109,0.065,0.185c-0.018,0.019-0.035,0.038-0.052,0.057
		c-0.008,0.002-0.017,0.005-0.023,0.01c-0.021,0.1,0.02,0.188,0.058,0.275c-0.011,0.001-0.023,0.002-0.035,0.004
		c0.034,0.112,0.086,0.202,0.224,0.196c0.04-0.002,0.068,0.018,0.086,0.054c0.133,0.108,0.196,0.25,0.229,0.404
		c0.012,0.051,0.024,0.102,0.06,0.141c0.117,0.151,0.124,0.31,0.08,0.496c-0.045,0.19,0.009,0.514,0.206,0.651
		c0.03,0.021,0.064,0.038,0.081,0.073c0.002,0.014,0.003,0.026,0.003,0.036c0.004,0.004,0.009,0.009,0.014,0.013
		c0.029-0.002,0.058-0.005,0.087-0.008c0.048,0.006,0.069,0.05,0.104,0.076c0.086,0.016,0.131,0.063,0.121,0.155
		c0.072,0.15,0.145,0.301,0.217,0.452c0.065,0.085,0.019,0.185,0.035,0.276c0.032,0.066-0.007,0.158,0.075,0.206
		c0.01-0.028,0.033-0.036,0.06-0.037c0.018,0.043,0.112,0.037,0.077,0.115c0.024,0.032,0.058,0.046,0.095,0.054
		c0.076,0.012,0.046,0.069,0.047,0.113c0.004,0.034,0.031,0.043,0.058,0.054c0.156,0.082,0.322,0.146,0.466,0.25
		c0.013,0.019,0.027,0.037,0.042,0.053c0.01,0.008,0.019,0.017,0.027,0.027c0.015,0.014,0.031,0.027,0.049,0.039
		c0.046,0.039,0.073,0.089,0.096,0.143c0.003,0.014,0.009,0.026,0.017,0.038c0.078,0.05,0.131,0.13,0.2,0.192
		c0.031,0.027,0.054,0.073,0.088,0.086c0.208,0.076,0.237,0.296,0.36,0.44c0.05,0.057,0.033,0.131-0.036,0.181
		c-0.03,0.021-0.064,0.044-0.03,0.088c0.116,0.151,0.226,0.309,0.396,0.405c0.016,0.002,0.032,0.003,0.05,0.002
		c0.011,0,0.022,0,0.034,0c0.099-0.026,0.205-0.036,0.291-0.102c0.003-0.002,0.008-0.004,0.011-0.006
		c0.004-0.007,0.008-0.015,0.012-0.022c0.188-0.125,0.388-0.044,0.582-0.032c0.217-0.125,0.477-0.064,0.7-0.167
		c0.042,0.004,0.079-0.005,0.112-0.031c0.027-0.047,0.072-0.052,0.121-0.049c0.189,0.011,0.374,0,0.531-0.128
		c0.032-0.025,0.071-0.042,0.116-0.036c0.214-0.148,0.296-0.064,0.49,0.136c0.017,0.03-0.003,0.061,0,0.091
		c0.014,0.167-0.046,0.333,0.014,0.502C40.128,23.675,40.016,23.682,39.967,23.724z M11.063,20.274c0.01-0.015,0.037-0.019,0.046,0
		c0.021,0.041-0.004,0.073-0.028,0.107C11.039,20.349,11.035,20.312,11.063,20.274z"/>
	<polygon style="fill-rule:evenodd;clip-rule:evenodd;fill:#F8B90F;" points="39.608,24.451 39.608,24.451 39.608,24.451 
		39.609,24.451 39.609,24.451 39.607,24.449 	"/>
</g>
</svg>
