<?xml version="1.0" encoding="iso-8859-1"?>
<!-- Generator: Adobe Illustrator 16.0.0, SVG Export Plug-In . SVG Version: 6.00 Build 0)  -->
<!DOCTYPE svg PUBLIC "-//W3C//DTD SVG 1.1//EN" "http://www.w3.org/Graphics/SVG/1.1/DTD/svg11.dtd">
<svg version="1.1" id="Calque_1" xmlns="http://www.w3.org/2000/svg" xmlns:xlink="http://www.w3.org/1999/xlink" x="0px" y="0px"
	 width="52px" height="52px" viewBox="0 0 52 52" style="enable-background:new 0 0 52 52;" xml:space="preserve">
<path style="fill-rule:evenodd;clip-rule:evenodd;fill:#F8B90F;" d="M26.001,2.023c-13.243,0-23.978,10.735-23.978,23.978
	c0,13.242,10.735,23.977,23.978,23.977c13.242,0,23.977-10.735,23.977-23.977C49.978,12.758,39.243,2.023,26.001,2.023z
	 M39.97,26.451l-1.346,0.022c-2.339-0.473-2.113,1.525-2.113,1.525c0,2.412,0.052,4.407,0.052,6.818
	c0,0.958,0.725,4.184-2.566,4.184c-0.774,0-7.989,0-7.989,0s-8.888,0-9.662,0C15.377,39,15,37.28,15,36.322c0-2.411,0-4.839,0-7.25
	c0,0-0.03-3.071-1.628-2.071h-1.344c-0.943,0-1.589-0.221-1.448-1.658s14.429-14.238,14.429-14.238
	c0.34-0.326,1.074-0.782,1.942-0.048c0,0,2.05,1.339,4.05,3.501v-1.944c0-0.941,0.666-1.491,1.612-1.493
	c1.092-0.003,1.348-0.005,1.747-0.004c0.954,0.001,1.591,0.547,1.593,1.508c0,0,0.021,6.115-0.062,6.316
	c2.933,2.81,5.492,5.407,5.551,6.01C41.583,26.388,40.911,26.446,39.97,26.451z"/>
</svg>
