<?xml version="1.0" encoding="iso-8859-1"?>
<!-- Generator: Adobe Illustrator 16.0.0, SVG Export Plug-In . SVG Version: 6.00 Build 0)  -->
<!DOCTYPE svg PUBLIC "-//W3C//DTD SVG 1.1//EN" "http://www.w3.org/Graphics/SVG/1.1/DTD/svg11.dtd">
<svg version="1.1" id="Calque_1" xmlns="http://www.w3.org/2000/svg" xmlns:xlink="http://www.w3.org/1999/xlink" x="0px" y="0px"
	 width="52px" height="52px" viewBox="0 0 52 52" style="enable-background:new 0 0 52 52;" xml:space="preserve">
<path style="fill:#F8B90F;" d="M26,2.047C12.771,2.047,2.047,12.771,2.047,26c0,13.229,10.724,23.953,23.953,23.953
	c13.229,0,23.952-10.723,23.952-23.953C49.952,12.771,39.229,2.047,26,2.047z M29.418,37.955c0,1.889-1.53,3.418-3.418,3.418
	s-3.418-1.53-3.418-3.418V24.524c0-1.888,1.53-3.418,3.418-3.418s3.418,1.531,3.418,3.418V37.955z M25.919,17.249
	c-2.177,0.014-4.006-1.82-3.992-3.999c0.014-2.177,1.805-3.945,3.991-3.942c2.185,0.002,3.962,1.782,3.964,3.963
	C29.883,15.441,28.098,17.233,25.919,17.249z"/>
</svg>
