<?xml version="1.0" encoding="iso-8859-1"?>
<!-- Generator: Adobe Illustrator 16.0.0, SVG Export Plug-In . SVG Version: 6.00 Build 0)  -->
<!DOCTYPE svg PUBLIC "-//W3C//DTD SVG 1.1//EN" "http://www.w3.org/Graphics/SVG/1.1/DTD/svg11.dtd">
<svg version="1.1" id="Calque_1" xmlns="http://www.w3.org/2000/svg" xmlns:xlink="http://www.w3.org/1999/xlink" x="0px" y="0px"
	 width="52px" height="52px" viewBox="0 0 52 52" style="enable-background:new 0 0 52 52;" xml:space="preserve">
<path style="fill:#F8B90F;" d="M26,2.04C12.767,2.04,2.04,12.767,2.04,26c0,13.233,10.727,23.96,23.96,23.96
	c13.232,0,23.96-10.727,23.96-23.96C49.96,12.767,39.232,2.04,26,2.04z M28.99,38.522c0.451,0.005,0.892-0.052,1.328-0.162
	c1.685-0.026,1.336,1.195-0.128,1.828c-0.933,0.49-4.805,1.646-6.991,1.49c-3.312-0.238-5.611-1.949-5.352-4.218
	c0.161-1.408,0.632-2.703,1.273-3.948c0.913-1.773,1.941-3.489,2.683-5.346c0.352-0.881,0.634-1.782,0.709-2.736
	c0.028-0.373,0.007-0.74-0.069-1.1c-0.208-0.977-0.792-1.445-1.809-1.478c-0.441-0.015-0.87,0.062-1.304,0.17
	c-0.587,0.017-1.145-0.785-0.188-1.597c1.592-0.999,3.287-1.708,5.193-1.784c0.905-0.04,4.69,0.12,5.516,0.513
	c1.222,0.581,1.789,1.582,1.859,2.892c0.083,1.557-0.37,3.015-0.906,4.447c-0.747,1.998-1.758,3.87-2.767,5.741
	c-0.503,0.931-0.883,1.9-1.038,2.955C26.788,37.626,27.534,38.506,28.99,38.522z M25.919,17.246c-2.177,0.014-4.007-1.82-3.993-4
	c0.014-2.177,1.806-3.946,3.993-3.943c2.185,0.003,3.964,1.782,3.966,3.964C29.885,15.438,28.099,17.231,25.919,17.246z"/>
</svg>
