<?xml version="1.0" encoding="iso-8859-1"?>
<!-- Generator: Adobe Illustrator 16.0.0, SVG Export Plug-In . SVG Version: 6.00 Build 0)  -->
<!DOCTYPE svg PUBLIC "-//W3C//DTD SVG 1.1//EN" "http://www.w3.org/Graphics/SVG/1.1/DTD/svg11.dtd">
<svg version="1.1" id="Calque_1" xmlns="http://www.w3.org/2000/svg" xmlns:xlink="http://www.w3.org/1999/xlink" x="0px" y="0px"
	 width="52px" height="52px" viewBox="0 0 52 52" style="enable-background:new 0 0 52 52;" xml:space="preserve">
<g>
	<polygon style="fill:#F8B90F;" points="35.941,20.729 35.941,16.869 35.941,16.292 35.363,16.294 31.503,16.307 31.519,20.743 	"/>
	<path style="fill:#F8B90F;" d="M25.881,30.973c2.541,0,4.608-2.067,4.608-4.606c0-1.003-0.327-1.931-0.874-2.688
		c-0.835-1.159-2.199-1.921-3.734-1.921c-1.538,0-2.897,0.763-3.736,1.921c-0.546,0.757-0.871,1.685-0.871,2.688
		C21.274,28.906,23.34,30.973,25.881,30.973z"/>
	<path style="fill:#F8B90F;" d="M26.001,1.919c-13.299,0-24.081,10.78-24.081,24.08c0,13.299,10.782,24.083,24.081,24.083
		c13.298,0,24.08-10.784,24.08-24.083C50.081,12.699,39.298,1.919,26.001,1.919z M38.971,23.679v10.72
		c0,2.79-2.271,5.058-5.06,5.058H17.849c-2.791,0-5.059-2.269-5.059-5.058v-10.72v-5.343c0-2.79,2.269-5.059,5.059-5.059h16.062
		c2.789,0,5.06,2.269,5.06,5.059V23.679z"/>
	<path style="fill:#F8B90F;" d="M33.039,26.367c0,3.946-3.21,7.158-7.158,7.158c-3.948,0-7.157-3.212-7.157-7.158
		c0-0.952,0.189-1.857,0.525-2.688h-3.908v10.72c0,1.382,1.125,2.507,2.508,2.507h16.062c1.383,0,2.507-1.125,2.507-2.507v-10.72
		h-3.91C32.849,24.509,33.039,25.416,33.039,26.367z"/>
</g>
</svg>
