<?xml version="1.0" encoding="iso-8859-1"?>
<!-- Generator: Adobe Illustrator 16.0.0, SVG Export Plug-In . SVG Version: 6.00 Build 0)  -->
<!DOCTYPE svg PUBLIC "-//W3C//DTD SVG 1.1//EN" "http://www.w3.org/Graphics/SVG/1.1/DTD/svg11.dtd">
<svg version="1.1" id="Calque_1" xmlns="http://www.w3.org/2000/svg" xmlns:xlink="http://www.w3.org/1999/xlink" x="0px" y="0px"
	 width="52px" height="52px" viewBox="0 0 52 52" style="enable-background:new 0 0 52 52;" xml:space="preserve">
<path style="fill:#F8B90F;" d="M26,2.047C12.771,2.047,2.047,12.771,2.047,26S12.771,49.952,26,49.952S49.953,39.229,49.953,26
	S39.229,2.047,26,2.047z M37.104,30.657c0,2.863-2.321,5.184-5.183,5.184c-2.863,0-5.184-2.321-5.184-5.184s1.148-4.794,4.011-4.794
	c0.41,0,0.808,0.047,1.19,0.137l-0.002-0.137c0-2.256,0-2.583,0-3.175c0-1.404,0.028-3.204-1.188-3.024
	c-1.511,0.223-5.091,0.691-6.17,0.799c-1.08,0.108-2.16,0.252-2.16,2.34c0,2.011,0,6.985,0,10.662c0,1.457,0,1.512,0,1.512
	c0,2.863-2.321,5.185-5.183,5.185c-2.863,0-5.184-2.322-5.184-5.185c0-1.701,0.468-4.102,3.543-4.902
	c0.435,0,0.858,0.054,1.262,0.155l0.034-0.155c0-3.733,0-9.385,0-10.799c0-2.16,0.992-5.032,5.528-5.68
	c4.536-0.648,9.503-1.512,11.446-1.728c1.945-0.216,3.24,0.864,3.24,3.456C37.104,17.736,37.104,29.107,37.104,30.657z"/>
</svg>
