<?xml version="1.0" encoding="iso-8859-1"?>
<!-- Generator: Adobe Illustrator 16.0.0, SVG Export Plug-In . SVG Version: 6.00 Build 0)  -->
<!DOCTYPE svg PUBLIC "-//W3C//DTD SVG 1.1//EN" "http://www.w3.org/Graphics/SVG/1.1/DTD/svg11.dtd">
<svg version="1.1" id="Calque_1" xmlns="http://www.w3.org/2000/svg" xmlns:xlink="http://www.w3.org/1999/xlink" x="0px" y="0px"
	 width="52px" height="52px" viewBox="0 0 52 52" style="enable-background:new 0 0 52 52;" xml:space="preserve">
<path style="fill:#F8B90F;" d="M26.261,1.938c-13.341,0-24.155,10.814-24.155,24.154c0,13.341,10.814,24.156,24.155,24.156
	c13.34,0,24.154-10.815,24.154-24.156C50.415,12.752,39.601,1.938,26.261,1.938z M14.458,15.929h11.806h11.805
	c1.064,0,1.253,0.541,0.416,1.201l-10.46,8.285c-0.474,0.376-1.128,0.542-1.761,0.511c-0.635,0.032-1.289-0.136-1.764-0.511
	l-10.46-8.285C13.203,16.47,13.393,15.929,14.458,15.929z M40.783,34.321c0,1.064-0.872,1.936-1.936,1.936H26.263H13.678
	c-1.064,0-1.936-0.872-1.936-1.936V20.082c0-1.064,0.694-1.409,1.544-0.766l11.432,8.679c0.428,0.32,0.988,0.477,1.547,0.47
	c0.557,0.007,1.116-0.149,1.544-0.47l11.431-8.679c0.849-0.643,1.543-0.298,1.543,0.766V34.321z"/>
</svg>
