<?xml version="1.0" encoding="iso-8859-1"?>
<!-- Generator: Adobe Illustrator 16.0.0, SVG Export Plug-In . SVG Version: 6.00 Build 0)  -->
<!DOCTYPE svg PUBLIC "-//W3C//DTD SVG 1.1//EN" "http://www.w3.org/Graphics/SVG/1.1/DTD/svg11.dtd">
<svg version="1.1" id="Calque_1" xmlns="http://www.w3.org/2000/svg" xmlns:xlink="http://www.w3.org/1999/xlink" x="0px" y="0px"
	 width="52px" height="52px" viewBox="0 0 52 52" style="enable-background:new 0 0 52 52;" xml:space="preserve">
<g>
	<circle style="fill:#F8B90F;" cx="25.922" cy="22.195" r="7.022"/>
	<path style="fill:#F8B90F;" d="M25.923,1.813c-13.353,0-24.177,10.824-24.177,24.177c0,13.352,10.824,24.176,24.177,24.176
		c13.352,0,24.176-10.824,24.176-24.176C50.1,12.638,39.275,1.813,25.923,1.813z M28.953,42.833
		c-1.054,1.053-2.089,1.982-3.03,2.013c-1.202,0.037-2.248-1.083-2.973-1.901c0,0-10.848-10.931-10.848-20.575
		S19.328,8.785,25.923,8.785c6.595,0,13.822,5.563,13.822,13.718C39.745,31.438,28.953,42.833,28.953,42.833z"/>
</g>
</svg>
