<?xml version="1.0" encoding="iso-8859-1"?>
<!-- Generator: Adobe Illustrator 16.0.0, SVG Export Plug-In . SVG Version: 6.00 Build 0)  -->
<!DOCTYPE svg PUBLIC "-//W3C//DTD SVG 1.1//EN" "http://www.w3.org/Graphics/SVG/1.1/DTD/svg11.dtd">
<svg version="1.1" id="Calque_1" xmlns="http://www.w3.org/2000/svg" xmlns:xlink="http://www.w3.org/1999/xlink" x="0px" y="0px"
	 width="52px" height="52px" viewBox="0 0 52 52" style="enable-background:new 0 0 52 52;" xml:space="preserve">
<g>
	<path style="fill:#F8B90F;" d="M26.01,20.902c-3.326-0.003-6.012,2.587-6,5.785c0.011,3.175,2.695,5.752,5.99,5.754
		c3.288,0.003,5.982-2.571,6.014-5.744C32.043,23.529,29.327,20.906,26.01,20.902z M26.037,30.051
		c-1.91,0.031-3.527-1.506-3.539-3.364c-0.012-1.864,1.561-3.391,3.5-3.395c1.93-0.004,3.53,1.531,3.526,3.381
		C29.519,28.501,27.952,30.021,26.037,30.051z"/>
	<path style="fill:#F8B90F;" d="M26,1.894C12.687,1.894,1.894,12.687,1.894,26S12.687,50.106,26,50.106
		c13.313,0,24.106-10.793,24.106-24.106S39.313,1.894,26,1.894z M40.86,23.513c0,3.562,0.001,7.125-0.002,10.688
		c0,1.499-0.888,2.496-2.433,2.724C38.086,36.974,37.739,37,37.396,37c-7.604,0.004-15.208,0.004-22.812,0.001
		c-0.821,0-1.614-0.114-2.314-0.574c-0.718-0.471-1.125-1.113-1.126-1.957c-0.004-5.138-0.009-10.275,0.003-15.412
		c0.003-1.388,1.182-2.72,2.796-2.772C15.526,16.235,17.115,16,18.7,16c0.188,0,0.375,0,0.589,0c0.153-1,0.301-1.096,0.443-1.757
		c0.201-0.938,0.601-1.127,1.604-1.128c3.121-0.001,6.242,0.064,9.363,0.066c0.974,0,1.358,0.342,1.564,1.268
		c0.123,0.549,0.274,1.112,0.363,1.667c0.051,0.321,0.192,0.407,0.507,0.403c1.466-0.013,2.933-0.03,4.396,0.011
		c0.574,0.016,1.175,0.107,1.707,0.305c1.058,0.396,1.633,1.169,1.625,2.3C40.853,20.594,40.86,22.054,40.86,23.513z"/>
</g>
</svg>
