<?xml version="1.0" encoding="iso-8859-1"?>
<!-- Generator: Adobe Illustrator 16.0.0, SVG Export Plug-In . SVG Version: 6.00 Build 0)  -->
<!DOCTYPE svg PUBLIC "-//W3C//DTD SVG 1.1//EN" "http://www.w3.org/Graphics/SVG/1.1/DTD/svg11.dtd">
<svg version="1.1" id="Calque_1" xmlns="http://www.w3.org/2000/svg" xmlns:xlink="http://www.w3.org/1999/xlink" x="0px" y="0px"
	 width="52px" height="52px" viewBox="0 0 52 52" style="enable-background:new 0 0 52 52;" xml:space="preserve">
<path style="fill:#F8B90F;" d="M25.833,2C12.67,2,2,12.67,2,25.833c0,13.164,10.67,23.833,23.833,23.833
	s23.833-10.669,23.833-23.833C49.666,12.67,38.996,2,25.833,2z M38.771,26.573c-0.258,0.916-1.035,1.687-1.574,1.938
	C36.12,29.015,25.84,35.26,21.963,37.27C18.086,39.28,18,36.696,18,34.972s0-15.507,0-17.947c0-4.02,2.312-3.23,3.461-2.44
	c1.149,0.79,12.689,7.538,15.776,9.189C38.781,24.599,39.016,25.658,38.771,26.573z"/>
</svg>
