<?xml version="1.0" encoding="iso-8859-1"?>
<!-- Generator: Adobe Illustrator 16.0.0, SVG Export Plug-In . SVG Version: 6.00 Build 0)  -->
<!DOCTYPE svg PUBLIC "-//W3C//DTD SVG 1.1//EN" "http://www.w3.org/Graphics/SVG/1.1/DTD/svg11.dtd">
<svg version="1.1" id="Calque_1" xmlns="http://www.w3.org/2000/svg" xmlns:xlink="http://www.w3.org/1999/xlink" x="0px" y="0px"
	 width="52px" height="52px" viewBox="0 0 52 52" style="enable-background:new 0 0 52 52;" xml:space="preserve">
<g>
	<path style="fill:#F8B90F;" d="M36.566,33.747c0,0.462-0.375,0.836-0.837,0.836c-0.461,0-0.836-0.374-0.836-0.836V16.185H33.22
		v17.562c0,1.385,1.124,2.509,2.509,2.509s2.509-1.125,2.509-2.509V17.859h-1.672V33.747z"/>
	<path style="fill:#F8B90F;" d="M16.496,34.583c0,0.925,0.748,1.673,1.673,1.673h11.706V16.185H16.496V34.583z"/>
	<path style="fill:#F8B90F;" d="M26,1.845c-13.341,0-24.155,10.814-24.155,24.154C1.845,39.34,12.659,50.154,26,50.154
		c13.34,0,24.154-10.814,24.154-24.155C50.154,12.659,39.34,1.845,26,1.845z M39.911,34.583c0,2.772-2.246,5.018-5.018,5.018H18.169
		c-2.772,0-5.018-2.246-5.018-5.018V12.841H33.22v1.672h3.346v1.671h1.672h1.672V34.583z"/>
</g>
</svg>
