<?xml version="1.0" encoding="iso-8859-1"?>
<!-- Generator: Adobe Illustrator 16.0.0, SVG Export Plug-In . SVG Version: 6.00 Build 0)  -->
<!DOCTYPE svg PUBLIC "-//W3C//DTD SVG 1.1//EN" "http://www.w3.org/Graphics/SVG/1.1/DTD/svg11.dtd">
<svg version="1.1" id="Calque_1" xmlns="http://www.w3.org/2000/svg" xmlns:xlink="http://www.w3.org/1999/xlink" x="0px" y="0px"
	 width="52px" height="52px" viewBox="0 0 52 52" style="enable-background:new 0 0 52 52;" xml:space="preserve">
<path style="fill:#FABA13;" d="M26.001,1.833C12.653,1.833,1.834,12.653,1.834,26c0,13.346,10.819,24.167,24.167,24.167
	c13.346,0,24.165-10.82,24.165-24.167C50.166,12.653,39.347,1.833,26.001,1.833z M21.623,8.54c0.214-0.282,0.548-0.448,0.903-0.448
	h6.705c0.35,0,0.681,0.161,0.895,0.438c0.215,0.276,0.29,0.637,0.203,0.975l-1.475,5.775c-0.128,0.501-0.58,0.853-1.098,0.853
	h-3.621c-0.509,0-0.955-0.339-1.092-0.829L21.434,9.53C21.338,9.188,21.408,8.822,21.623,8.54z M30.91,41.906l-4.346,3.119
	c-0.198,0.143-0.429,0.213-0.661,0.213c-0.239,0-0.479-0.076-0.681-0.228l-4.151-3.119c-0.322-0.242-0.492-0.638-0.445-1.038
	l2.383-20.473c0.067-0.571,0.551-1.002,1.126-1.002h3.655c0.573,0,1.056,0.429,1.125,0.998l2.46,20.473
	C31.424,41.26,31.246,41.666,30.91,41.906z"/>
</svg>
