<?xml version="1.0" encoding="utf-8"?>
<!-- Generator: Adobe Illustrator 16.0.4, SVG Export Plug-In . SVG Version: 6.00 Build 0)  -->
<!DOCTYPE svg PUBLIC "-//W3C//DTD SVG 1.1//EN" "http://www.w3.org/Graphics/SVG/1.1/DTD/svg11.dtd">
<svg version="1.1" xmlns="http://www.w3.org/2000/svg" xmlns:xlink="http://www.w3.org/1999/xlink" x="0px" y="0px" width="52px"
	 height="52px" viewBox="0 0 52 52" enable-background="new 0 0 52 52" xml:space="preserve">
<g id="Calque_1">
</g>
<g id="Calque_2">
	<path fill="#F8B90F" d="M26.143,0.715C12.472,0.662,1.261,11.855,1.252,25.567c-0.009,13.665,11.062,24.764,24.777,24.84
		c13.714,0.077,24.882-11.032,24.918-24.785C50.984,11.888,39.91,0.768,26.143,0.715z M31.397,38.387
		c-1.441,0.753-3.084,1.13-4.925,1.13c-1.533,0-2.907-0.255-4.124-0.763c-1.217-0.509-2.273-1.221-3.168-2.135
		c-0.896-0.914-1.629-2.029-2.202-3.317C16.405,32.015,15.996,31,15.752,29H14v-3h1v-0.835c0-0.18,0-0.361,0-0.541
		S15.468,24,15.481,24H14v-3h1.887c0.322-2,0.817-2.953,1.487-4.196c0.669-1.243,1.474-2.328,2.415-3.204
		c0.94-0.876,2.002-1.564,3.187-2.042c1.185-0.476,2.453-0.721,3.806-0.721c1.828,0,3.408,0.361,4.742,1.088
		c1.332,0.728,2.404,1.688,3.215,2.886l-2.201,2.279c-0.143,0.155-0.299,0.293-0.473,0.415c-0.174,0.123-0.404,0.183-0.686,0.183
		c-0.311,0-0.57-0.097-0.783-0.29c-0.213-0.193-0.461-0.409-0.744-0.647s-0.637-0.454-1.062-0.647
		c-0.424-0.193-1.004-0.29-1.738-0.29c-1.21,0-2.244,0.48-3.1,1.337S22.467,19,22.068,21H31v1.672c0,0.167-0.062,0.335-0.139,0.502
		c-0.078,0.167-0.198,0.319-0.341,0.454c-0.141,0.135-0.316,0.204-0.518,0.288C29.804,24,29.575,24,29.331,24h-7.668
		C21.65,24,22,24.443,22,24.624s0,0.361,0,0.541V26h7v1.617c0,0.168,0.012,0.336-0.066,0.502c-0.076,0.168-0.162,0.319-0.303,0.454
		c-0.143,0.136-0.301,0.231-0.5,0.315S27.722,29,27.478,29h-5.525c0.334,2,0.92,3.266,1.758,4.167
		c0.837,0.901,1.86,1.359,3.072,1.359c0.541,0,1.004-0.052,1.391-0.161s0.715-0.24,0.984-0.395c0.271-0.154,0.5-0.327,0.686-0.521
		c0.188-0.193,0.361-0.366,0.521-0.521c0.162-0.154,0.322-0.286,0.484-0.396c0.16-0.108,0.35-0.164,0.568-0.164
		c0.182,0,0.332,0.026,0.455,0.077c0.121,0.052,0.254,0.148,0.395,0.29l2.629,2.337C34.007,36.529,32.841,37.633,31.397,38.387z"/>
</g>
</svg>
