<?xml version="1.0" encoding="iso-8859-1"?>
<!-- Generator: Adobe Illustrator 16.0.0, SVG Export Plug-In . SVG Version: 6.00 Build 0)  -->
<!DOCTYPE svg PUBLIC "-//W3C//DTD SVG 1.1//EN" "http://www.w3.org/Graphics/SVG/1.1/DTD/svg11.dtd">
<svg version="1.1" id="Calque_1" xmlns="http://www.w3.org/2000/svg" xmlns:xlink="http://www.w3.org/1999/xlink" x="0px" y="0px"
	 width="52px" height="52px" viewBox="0 0 52 52" style="enable-background:new 0 0 52 52;" xml:space="preserve">
<path style="fill-rule:evenodd;clip-rule:evenodd;fill:#F8B90F;" d="M26.042,1.841C12.75,1.79,1.849,12.673,1.84,26.006
	C1.831,39.294,12.595,50.085,25.932,50.158C39.266,50.232,50.125,39.432,50.16,26.06C50.196,12.705,39.429,1.893,26.042,1.841z
	 M37.492,19.546c-0.378,0.416-0.781,0.808-1.172,1.21c-0.33,0.339-0.463,0.731-0.504,1.219c-0.485,5.792-3.015,10.306-8.511,12.645
	c-4.131,1.757-8.273,1.334-12.225-0.807c-0.062-0.032-0.123-0.068-0.177-0.112c-0.021-0.017-0.02-0.06-0.046-0.155
	c1.169-0.097,2.346-0.076,3.475-0.388c1.135-0.315,2.187-0.812,3.213-1.518c-0.502-0.191-0.971-0.348-1.423-0.545
	c-1.102-0.48-2.028-1.178-2.601-2.264c-0.309-0.584-0.231-0.694,0.411-0.699c0.38-0.002,0.76,0,1.217,0
	c-0.168-0.229-0.363-0.26-0.525-0.335c-1.748-0.815-2.772-2.181-3.117-4.074c-0.075-0.411,0.031-0.551,0.447-0.393
	c0.292,0.111,0.592,0.202,0.896,0.284c0.135,0.037,0.314,0.189,0.419-0.004c0.092-0.168-0.088-0.289-0.189-0.397
	c-0.551-0.598-1.019-1.244-1.26-2.032c-0.416-1.356-0.226-2.659,0.353-3.977c0.815,0.796,1.582,1.609,2.469,2.292
	c2.12,1.632,4.525,2.531,7.172,2.828c0.253,0.029,0.342-0.022,0.327-0.292c-0.04-0.681-0.079-1.36,0.094-2.038
	c0.596-2.341,2.877-3.871,5.28-3.604c0.992,0.11,1.789,0.572,2.56,1.117c0.363,0.257,0.673,0.309,1.1,0.162
	c0.77-0.267,1.527-0.563,2.367-0.947c-0.333,0.866-0.835,1.472-1.355,2.066c-0.098,0.112-0.265,0.241-0.186,0.393
	c0.098,0.189,0.282,0.056,0.424,0.015c0.529-0.152,1.056-0.313,1.638-0.487C37.945,19.109,37.698,19.319,37.492,19.546z"/>
</svg>
