<?xml version="1.0" encoding="iso-8859-1"?>
<!-- Generator: Adobe Illustrator 16.0.0, SVG Export Plug-In . SVG Version: 6.00 Build 0)  -->
<!DOCTYPE svg PUBLIC "-//W3C//DTD SVG 1.1//EN" "http://www.w3.org/Graphics/SVG/1.1/DTD/svg11.dtd">
<svg version="1.1" id="Calque_1" xmlns="http://www.w3.org/2000/svg" xmlns:xlink="http://www.w3.org/1999/xlink" x="0px" y="0px"
	 width="52px" height="52px" viewBox="0 0 52 52" style="enable-background:new 0 0 52 52;" xml:space="preserve">
<path style="fill:#F8B90F;" d="M26,1.833C12.653,1.833,1.834,12.653,1.834,26c0,13.346,10.819,24.167,24.167,24.167
	c13.345,0,24.166-10.821,24.166-24.167C50.166,12.653,39.346,1.833,26,1.833z M40.878,26.631c0,0.674,0.018,2.642-0.005,4.118
	c-0.018,1.021-0.423,1.726-1.262,2.338c-1.001,0.732-2.245,0.602-3.246-0.248c-1.644-1.399-3.279-2.848-4.882-4.297
	c-0.384-0.348-0.713-0.846-0.9-1.329c-0.047-0.12-0.074-0.238-0.106-0.357c0,0.051,0,0.103,0,0.154c0,1.816,0,3.632,0,5.449
	c0,1.603-1.249,2.487-2.836,2.488c-4.324,0.002-8.832,0.003-13.153,0c-1.559-0.001-2.55-0.885-2.556-2.452
	c-0.01-4.321-0.056-8.643-0.048-12.964c0.003-1.581,0.886-2.473,2.477-2.475c4.307-0.008,8.974-0.008,13.278,0
	c1.596,0.003,2.839,0.899,2.839,2.487c0,1.765,0,3.531,0,5.297c0,0.077,0,0.154,0,0.231c0.014-0.045,0.019-0.092,0.035-0.137
	c0.196-0.551,0.553-1.062,1.06-1.509c1.524-1.343,3.072-2.667,4.596-4.011c0.875-0.769,1.848-1.071,2.943-0.604
	c1.149,0.494,1.708,1.773,1.752,2.983c0.055,1.507,0.014,4.163,0.014,4.837H40.878z"/>
</svg>
