<?xml version="1.0" encoding="utf-8"?>
<!-- Generator: Adobe Illustrator 16.0.0, SVG Export Plug-In . SVG Version: 6.00 Build 0)  -->
<!DOCTYPE svg PUBLIC "-//W3C//DTD SVG 1.1//EN" "http://www.w3.org/Graphics/SVG/1.1/DTD/svg11.dtd">
<svg version="1.1" id="Calque_1" xmlns="http://www.w3.org/2000/svg" xmlns:xlink="http://www.w3.org/1999/xlink" x="0px" y="0px"
	 width="41px" height="46.25px" viewBox="0 0 41 46.25" enable-background="new 0 0 41 46.25" xml:space="preserve">
<g>
	<path fill="none" d="M16.574,22.666l-2.899-6.343c-0.957-2.092-3.428-3.013-5.52-2.058c-2.092,0.957-3.013,3.429-2.057,5.519
		l2.899,6.347l2.676,5.854c0.956,2.093,3.428,3.014,5.52,2.057c2.092-0.955,3.013-3.426,2.055-5.52L16.574,22.666z M17.282,32.52
		c-0.073,0.041-0.151,0.062-0.228,0.062c-0.157,0-0.31-0.081-0.394-0.228c-0.125-0.217-0.052-0.494,0.166-0.619
		c0.984-0.571,0.993-1.786,0.993-1.799c0-0.25,0.204-0.453,0.455-0.453c0.249,0,0.455,0.205,0.454,0.453
		C18.728,30.007,18.711,31.688,17.282,32.52z"/>
	<path fill="none" d="M27.023,22.666l-2.898-6.343c-0.957-2.092-3.428-3.013-5.519-2.058c-2.093,0.957-3.013,3.429-2.057,5.519
		l2.899,6.347l2.674,5.854c0.959,2.093,3.428,3.014,5.521,2.057c2.092-0.955,3.012-3.426,2.057-5.52L27.023,22.666z M27.66,32.52
		c-0.072,0.041-0.151,0.062-0.229,0.062c-0.158,0-0.309-0.081-0.393-0.228c-0.127-0.217-0.053-0.494,0.164-0.619
		c0.982-0.571,0.994-1.786,0.994-1.799c0-0.25,0.203-0.453,0.455-0.453c0.25,0,0.453,0.205,0.455,0.453
		C29.107,30.007,29.091,31.688,27.66,32.52z"/>
	<path fill="none" d="M26.915,15.402c-0.718,0.994-0.899,2.335-0.356,3.533l0.025,0.059l1.227,2.698l0.027-0.012l0.047,0.102
		c0.807,1.777,2.901,2.565,4.682,1.757c1.775-0.805,2.563-2.901,1.756-4.678l-0.068-0.152l0.004-0.002
		c-0.676-2.174,0.996-3.068,0.995-3.069C29.13,11.84,26.915,15.402,26.915,15.402z M31.752,21.786
		c0.982-0.571,0.995-1.786,0.995-1.798c0-0.25,0.202-0.454,0.454-0.454c0.251,0,0.453,0.204,0.453,0.454
		c0,0.072-0.014,1.752-1.445,2.583c-0.072,0.042-0.152,0.062-0.229,0.062c-0.155,0-0.308-0.082-0.394-0.226
		C31.462,22.19,31.535,21.911,31.752,21.786z"/>
	<path fill="#F8B915" d="M31.98,22.633c0.076,0,0.156-0.02,0.229-0.062c1.432-0.831,1.445-2.511,1.445-2.583
		c0-0.25-0.202-0.454-0.453-0.454c-0.252,0-0.454,0.204-0.454,0.454c0,0.012-0.013,1.227-0.995,1.798
		c-0.217,0.125-0.29,0.404-0.165,0.621C31.673,22.551,31.825,22.633,31.98,22.633z"/>
	<path fill="#F8B915" d="M28.652,29.482c-0.252,0-0.455,0.203-0.455,0.453c0,0.013-0.012,1.228-0.994,1.799
		c-0.217,0.125-0.291,0.402-0.164,0.619c0.084,0.146,0.234,0.228,0.393,0.228c0.077,0,0.156-0.021,0.229-0.062
		c1.431-0.832,1.447-2.513,1.447-2.584C29.105,29.688,28.902,29.482,28.652,29.482z"/>
	<path fill="#F8B915" d="M18.274,29.482c-0.251,0-0.455,0.203-0.455,0.453c0,0.013-0.009,1.228-0.993,1.799
		c-0.218,0.125-0.291,0.402-0.166,0.619c0.084,0.146,0.237,0.228,0.394,0.228c0.077,0,0.155-0.021,0.228-0.062
		c1.429-0.832,1.446-2.513,1.446-2.584C18.729,29.688,18.523,29.482,18.274,29.482z"/>
	<path fill="#F8B915" d="M26.861,3.703H14.14c-7.214,0-13.062,5.848-13.062,13.061v12.722c0,7.214,5.848,13.062,13.062,13.062
		h12.721c7.213,0,13.061-5.848,13.061-13.062V16.764C39.922,9.551,34.074,3.703,26.861,3.703z M17.193,34.041
		c-2.092,0.957-4.564,0.036-5.52-2.057l-2.676-5.854l-2.899-6.347c-0.956-2.09-0.035-4.562,2.057-5.519
		c2.092-0.955,4.563-0.034,5.52,2.058l2.899,6.343l2.674,5.855C20.206,30.615,19.285,33.086,17.193,34.041z M27.643,34.041
		c-2.093,0.957-4.562,0.036-5.521-2.057l-2.674-5.854l-2.899-6.347c-0.956-2.09-0.036-4.562,2.057-5.519
		c2.091-0.955,4.562-0.034,5.519,2.058l2.898,6.343l2.676,5.855C30.654,30.615,29.734,33.086,27.643,34.041z M34.258,18.707
		l-0.004,0.002l0.068,0.152c0.808,1.777,0.02,3.873-1.756,4.678c-1.78,0.809-3.875,0.02-4.682-1.757l-0.047-0.102l-0.027,0.012
		l-1.227-2.698l-0.025-0.059c-0.543-1.198-0.361-2.539,0.356-3.533c0,0,2.215-3.562,8.338,0.236
		C35.254,15.639,33.582,16.533,34.258,18.707z"/>
</g>
</svg>
