<?xml version="1.0" encoding="utf-8"?>
<!-- Generator: Adobe Illustrator 16.0.4, SVG Export Plug-In . SVG Version: 6.00 Build 0)  -->
<!DOCTYPE svg PUBLIC "-//W3C//DTD SVG 1.1//EN" "http://www.w3.org/Graphics/SVG/1.1/DTD/svg11.dtd">
<svg version="1.1" id="Calque_2" xmlns="http://www.w3.org/2000/svg" xmlns:xlink="http://www.w3.org/1999/xlink" x="0px" y="0px"
	 width="52px" height="52px" viewBox="0 0 52 52" enable-background="new 0 0 52 52" xml:space="preserve">
<g>
	<path fill="#F8B90F" d="M25.271,37.963c0-0.85-0.01-1.701,0.006-2.551c0.005-0.307-0.09-0.416-0.408-0.414
		c-1.329,0.016-2.659,0.014-3.989,0c-0.343-0.002-0.438,0.094-0.272,0.41c1.067,2.02,2.454,3.779,4.212,5.246
		c0.102,0.086,0.21,0.178,0.347,0.131c0.165-0.057,0.101-0.219,0.101-0.336C25.273,39.619,25.271,38.793,25.271,37.963z"/>
	<path fill="#F8B90F" d="M18.879,35.283c-0.143-0.303-0.348-0.275-0.581-0.275C17.295,35.004,16.291,35,15.288,35
		c-0.483,0-0.966,0-1.608,0c2.361,3,5.249,4.992,8.947,5.877c-0.067-0.191-0.071-0.266-0.112-0.309
		C21.006,39.01,19.801,37.242,18.879,35.283z"/>
	<path fill="#F8B90F" d="M25.179,11.243c-0.21-0.095-0.346,0.12-0.493,0.242c-1.181,0.979-2.175,2.128-3.034,3.391
		c-0.444,0.653-0.905,1.304-1.173,2.136c1.525,0,2.983-0.009,4.44,0.006c0.44,0.004,0.349-0.283,0.35-0.528
		c0.003-1.591,0.003-3.182-0.002-4.772C25.266,11.556,25.364,11.327,25.179,11.243z"/>
	<path fill="#F8B90F" d="M33.152,16.756c0.111,0.234,0.26,0.251,0.461,0.251c1.506-0.001,3.01-0.001,4.721-0.001
		c-2.363-3.078-5.252-4.993-8.949-5.87c0.068,0.182,0.078,0.278,0.131,0.333C31.031,13.023,32.219,14.804,33.152,16.756z"/>
	<path fill="#F8B90F" d="M17.915,32.947c-0.635-1.857-1.014-3.77-1.09-5.732c-0.014-0.389-0.171-0.468-0.519-0.459
		c-0.83,0.02-1.659,0.006-2.49,0.006c-0.851,0-1.703,0.018-2.555-0.008c-0.382-0.013-0.489,0.112-0.455,0.485
		c0.183,2.053,0.738,3.996,1.676,5.832c0.146,0.287,0.33,0.4,0.663,0.395c1.463-0.016,2.927-0.021,4.39,0.004
		C17.987,33.477,18.05,33.344,17.915,32.947z"/>
	<path fill="#F8B90F" d="M11.214,25.228c0.85-0.022,1.701-0.007,2.553-0.007c0.829,0,1.658-0.018,2.487,0.008
		c0.375,0.011,0.561-0.07,0.567-0.489c0.029-1.963,0.456-3.857,1.074-5.708c0.138-0.416,0.05-0.476-0.338-0.472
		c-1.462,0.015-2.924,0.021-4.386-0.004c-0.376-0.007-0.532,0.165-0.684,0.459c-0.934,1.807-1.449,3.732-1.671,5.747
		C10.782,25.092,10.843,25.238,11.214,25.228z"/>
	<path fill="#F8B90F" d="M24.76,18.554c-1.529,0.018-3.059,0.013-4.587,0.002c-0.272-0.002-0.453,0.058-0.552,0.331
		c-0.695,1.902-1.112,3.859-1.237,5.883c-0.024,0.391,0.126,0.466,0.479,0.458c0.961-0.022,1.922-0.007,2.883-0.007
		c1.005,0,2.01-0.016,3.014,0.008c0.376,0.01,0.48-0.112,0.478-0.482c-0.017-1.901-0.017-3.802-0.001-5.702
		C25.241,18.678,25.136,18.55,24.76,18.554z"/>
	<path fill="#F8B90F" d="M18.947,16.597c0.685-1.46,1.566-2.794,2.575-4.049c0.349-0.436,0.828-0.768,1.083-1.306
		c-2.562,0.046-8.105,3.697-8.742,5.765c1.515,0,3.018-0.013,4.521,0.01C18.723,17.021,18.833,16.842,18.947,16.597z"/>
	<path fill="#F8B90F" d="M21.819,26.751c-0.982,0-1.964,0.015-2.946-0.008c-0.377-0.01-0.555,0.057-0.522,0.491
		c0.152,2.016,0.515,3.982,1.234,5.879c0.101,0.266,0.242,0.357,0.526,0.355c1.57-0.014,3.142-0.016,4.712,0
		c0.338,0.002,0.451-0.105,0.449-0.449c-0.014-1.941-0.019-3.883,0.001-5.822c0.005-0.411-0.174-0.458-0.509-0.452
		C23.782,26.76,22.801,26.751,21.819,26.751z"/>
	<path fill="#F8B90F" d="M26.044,0.758C12.156,0.705,0.766,12.076,0.757,26.006c-0.01,13.883,11.237,25.157,25.171,25.235
		c13.932,0.078,25.277-11.208,25.314-25.179C51.28,12.109,40.03,0.812,26.044,0.758z M26.002,43.646
		c-9.655,0.061-17.681-7.951-17.636-17.626c0.045-9.783,7.791-17.517,17.613-17.667c9.683,0.105,17.625,7.688,17.656,17.611
		C43.664,35.779,35.844,43.586,26.002,43.646z"/>
	<path fill="#F8B90F" d="M33.473,35.008c-0.301,0-0.326,0.256-0.412,0.434c-0.58,1.215-1.277,2.361-2.104,3.426
		c-0.49,0.633-1.027,1.229-1.621,1.934c3.129-0.342,7.504-3.299,8.859-5.789C36.596,35.012,35.035,35.014,33.473,35.008z"/>
	<path fill="#F8B90F" d="M40.844,26.755c-1.746,0.015-3.496,0.01-5.242,0.002c-0.27-0.001-0.396,0.08-0.406,0.366
		c-0.074,2.031-0.48,4.002-1.119,5.926c-0.115,0.34-0.018,0.42,0.311,0.414c0.764-0.014,1.527-0.006,2.293-0.006
		c0.721,0,1.441-0.012,2.162,0.008c0.318,0.008,0.523-0.072,0.676-0.373c0.951-1.855,1.516-3.816,1.686-5.891
		C41.229,26.921,41.201,26.752,40.844,26.755z"/>
	<path fill="#F8B90F" d="M34.107,18.991c0.621,1.871,1.057,3.785,1.088,5.772c0.006,0.374,0.164,0.476,0.521,0.465
		c0.828-0.023,1.658-0.007,2.486-0.007c0.873,0,1.746-0.011,2.617,0.005c0.328,0.007,0.412-0.109,0.379-0.422
		c-0.217-2.037-0.738-3.984-1.684-5.811c-0.137-0.265-0.273-0.443-0.633-0.437c-1.482,0.023-2.965,0.013-4.451,0.007
		C34.109,18.561,33.965,18.567,34.107,18.991z"/>
	<path fill="#F8B90F" d="M26.742,33.014c-0.004,0.338,0.097,0.457,0.442,0.455c1.572-0.016,3.143-0.014,4.713,0
		c0.279,0.002,0.426-0.082,0.529-0.352c0.725-1.895,1.084-3.863,1.238-5.879c0.031-0.424-0.131-0.507-0.518-0.499
		c-0.982,0.026-1.965,0.01-2.945,0.01c-1.004,0-2.008,0.012-3.012-0.007c-0.343-0.007-0.452,0.101-0.448,0.445
		C26.754,29.131,26.754,31.072,26.742,33.014z"/>
	<path fill="#F8B90F" d="M27.088,35.002c-0.242,0-0.35,0.072-0.348,0.332c0.007,1.723,0.006,3.443,0,5.166
		c-0.002,0.352,0.162,0.381,0.391,0.197c0.338-0.27,0.664-0.562,0.975-0.867c1.396-1.377,2.572-2.916,3.477-4.826
		C30.006,35.004,28.547,35.008,27.088,35.002z"/>
	<path fill="#F8B90F" d="M27.25,25.229c0.984-0.023,1.967-0.008,2.949-0.008c0.939,0,1.881-0.04,2.816,0.015
		c0.561,0.032,0.65-0.19,0.611-0.662c-0.162-1.928-0.551-3.806-1.207-5.627c-0.102-0.28-0.262-0.398-0.578-0.395
		c-1.529,0.019-3.059,0.019-4.588,0c-0.376-0.004-0.482,0.123-0.48,0.492c0.017,1.9,0.017,3.8,0,5.7
		C26.772,25.113,26.873,25.239,27.25,25.229z"/>
	<path fill="#F8B90F" d="M27.16,17.017c1.416-0.011,2.83-0.005,4.301-0.005c0.014-0.09,0.037-0.141,0.021-0.173
		c-1.023-2.179-2.523-3.984-4.355-5.523c-0.229-0.191-0.389-0.136-0.387,0.207c0.006,1.701,0.009,3.401-0.004,5.1
		C26.733,16.951,26.866,17.019,27.16,17.017z"/>
</g>
</svg>
