<?xml version="1.0" encoding="iso-8859-1"?>
<!-- Generator: Adobe Illustrator 16.0.0, SVG Export Plug-In . SVG Version: 6.00 Build 0)  -->
<!DOCTYPE svg PUBLIC "-//W3C//DTD SVG 1.1//EN" "http://www.w3.org/Graphics/SVG/1.1/DTD/svg11.dtd">
<svg version="1.1" id="Calque_1" xmlns="http://www.w3.org/2000/svg" xmlns:xlink="http://www.w3.org/1999/xlink" x="0px" y="0px"
	 width="52px" height="52px" viewBox="0 0 52 52" style="enable-background:new 0 0 52 52;" xml:space="preserve">
<g>
	<path style="fill:#F8B90F;" d="M26,2.377c-13.048,0-23.624,10.577-23.624,23.624C2.376,39.05,12.953,49.624,26,49.624
		c13.046,0,23.624-10.574,23.624-23.623C49.624,12.954,39.046,2.377,26,2.377z M40.554,31.817c-0.535,4.317-3.2,4.491-5.297,4.602
		c-1.295,0.067-5.26,0.101-9.241,0.116c-0.006,0-0.01,0-0.016,0s-0.011,0-0.016,0c-3.981-0.016-7.946-0.049-9.241-0.116
		c-2.098-0.11-4.762-0.284-5.296-4.602c-0.379-3.066-0.46-6.562-0.163-10.5c0.341-4.486,1.797-5.652,6.427-5.724
		c1.345-0.021,4.765-0.073,8.273-0.126v-0.001c0.005,0,0.01,0,0.016,0s0.01,0,0.016,0v0.001c3.508,0.053,6.928,0.106,8.273,0.126
		c4.629,0.072,6.086,1.237,6.427,5.724C41.013,25.255,40.933,28.75,40.554,31.817z"/>
	<polygon style="fill:#F8B90F;" points="22.854,30.173 30.763,25.935 22.854,21.828 	"/>
</g>
</svg>
